<svg version="1.1" xmlns="http://www.w3.org/2000/svg" xmlns:xlink="http://www.w3.org/1999/xlink" width="69.99995" height="30.00001" viewBox="0,0,69.99995,30.00001"><defs><linearGradient x1="204.99972" y1="180.00022" x2="274.99967" y2="180.00022" gradientUnits="userSpaceOnUse" id="color-1"><stop offset="0" stop-color="#4749ab"/><stop offset="1" stop-color="#2c2e74"/></linearGradient></defs><g transform="translate(-204.99972,-165.00021)"><g data-paper-data="{&quot;isPaintingLayer&quot;:true}" stroke="none" stroke-width="1" stroke-linecap="butt" stroke-linejoin="round" stroke-miterlimit="2" stroke-dasharray="" stroke-dashoffset="0" style="mix-blend-mode: normal"><path d="M274.99967,192.00022c0,1.6556 -1.34413,3 -2.99972,3h-64.00051c-1.6556,0 -2.99972,-1.3444 -2.99972,-3v-24.00001c0,-1.6556 1.34413,-3 2.99972,-3h64.00051c1.6556,0 2.99972,1.3444 2.99972,3z" fill="url(#color-1)" fill-rule="evenodd"/><g fill="#ffffff" fill-rule="nonzero"><g><path d="M219.47399,180.92399c0.022,0.627 0.209,1.122 0.561,1.485c0.363,0.374 0.858,0.561 1.496,0.561c0.649,0 1.122,-0.143 1.43,-0.418c0.308,-0.275 0.517,-0.638 0.616,-1.078c0.011,-0.077 0.055,-0.132 0.11,-0.176c0.055,-0.044 0.11,-0.066 0.176,-0.066h0.506c0.066,0 0.121,0.022 0.176,0.066c0.044,0.055 0.066,0.11 0.066,0.176c-0.011,0.363 -0.132,0.726 -0.352,1.111c-0.22,0.385 -0.561,0.715 -1.012,0.979c-0.462,0.264 -1.034,0.396 -1.716,0.396c-0.616,0 -1.155,-0.132 -1.617,-0.385c-0.462,-0.253 -0.814,-0.616 -1.067,-1.067c-0.253,-0.451 -0.396,-0.957 -0.418,-1.529c-0.011,-0.22 -0.011,-0.55 -0.011,-0.979c0,-0.429 0,-0.759 0.011,-0.979c0.022,-0.572 0.165,-1.089 0.418,-1.54c0.253,-0.451 0.605,-0.803 1.067,-1.056c0.462,-0.253 1.001,-0.385 1.617,-0.385c0.682,0 1.254,0.132 1.716,0.396c0.451,0.264 0.792,0.583 1.012,0.968c0.22,0.385 0.341,0.759 0.352,1.122c0,0.066 -0.022,0.121 -0.066,0.165c-0.055,0.055 -0.11,0.077 -0.176,0.077h-0.506c-0.066,0 -0.121,-0.022 -0.176,-0.066c-0.055,-0.044 -0.099,-0.099 -0.11,-0.176c-0.099,-0.44 -0.308,-0.803 -0.616,-1.078c-0.308,-0.275 -0.781,-0.418 -1.43,-0.418c-0.638,0 -1.133,0.187 -1.496,0.55c-0.352,0.374 -0.539,0.869 -0.561,1.496c-0.011,0.22 -0.011,0.528 -0.011,0.924c0,0.396 0,0.704 0.011,0.924z"/></g><g><path d="M231.717,176.15c0.077,0 0.154,0.033 0.209,0.088c0.055,0.055 0.088,0.132 0.088,0.209v7.10599c0,0.077 -0.033,0.154 -0.088,0.209c-0.055,0.055 -0.132,0.088 -0.209,0.088h-0.451c-0.077,0 -0.154,-0.033 -0.209,-0.088c-0.055,-0.055 -0.088,-0.132 -0.088,-0.209v-3.10199h-3.872v3.10199c0,0.077 -0.033,0.154 -0.088,0.209c-0.055,0.055 -0.132,0.088 -0.209,0.088h-0.451c-0.077,0 -0.154,-0.033 -0.209,-0.088c-0.055,-0.055 -0.088,-0.121 -0.088,-0.209v-7.10599c0,-0.077 0.033,-0.154 0.088,-0.209c0.055,-0.055 0.132,-0.088 0.209,-0.088h0.451c0.077,0 0.154,0.033 0.209,0.088c0.055,0.055 0.088,0.132 0.088,0.209v3.01399h3.872v-3.01399c0,-0.077 0.033,-0.154 0.088,-0.209c0.055,-0.055 0.132,-0.088 0.209,-0.088z"/></g><g><path d="M234.786,182.11198l-0.572,1.463c-0.066,0.187 -0.209,0.275 -0.429,0.275h-0.407c-0.066,0 -0.121,-0.022 -0.165,-0.077c-0.055,-0.044 -0.077,-0.099 -0.077,-0.165c0,-0.033 0.011,-0.088 0.044,-0.154l2.695,-6.94099c0.099,-0.242 0.264,-0.363 0.495,-0.363h0.66c0.231,0 0.396,0.121 0.495,0.363l2.684,6.94099c0.033,0.066 0.044,0.121 0.044,0.154c0,0.066 -0.022,0.121 -0.066,0.165c-0.055,0.055 -0.11,0.077 -0.176,0.077h-0.407c-0.22,0 -0.363,-0.088 -0.429,-0.275l-0.572,-1.463zM238.218,181.12199l-1.518,-3.92699l-1.529,3.92699z"/></g><g><path d="M246.446,183.84998c-0.099,0 -0.176,-0.033 -0.242,-0.088c-0.066,-0.055 -0.132,-0.143 -0.198,-0.242l-3.575,-5.37899v5.41199c0,0.077 -0.033,0.154 -0.088,0.209c-0.055,0.055 -0.132,0.088 -0.209,0.088h-0.451c-0.077,0 -0.154,-0.033 -0.209,-0.088c-0.055,-0.055 -0.088,-0.132 -0.088,-0.209v-7.10599c0,-0.077 0.033,-0.154 0.088,-0.209c0.055,-0.055 0.132,-0.088 0.209,-0.088h0.385c0.099,0 0.176,0.033 0.242,0.088c0.066,0.055 0.132,0.143 0.198,0.242l3.575,5.37899v-5.41199c0,-0.077 0.033,-0.154 0.088,-0.209c0.055,-0.055 0.132,-0.088 0.209,-0.088h0.451c0.077,0 0.154,0.033 0.209,0.088c0.055,0.055 0.088,0.132 0.088,0.209v7.10599c0,0.077 -0.033,0.154 -0.088,0.209c-0.055,0.055 -0.132,0.088 -0.209,0.088z"/></g><g><path d="M251.88001,176.04c0.627,0 1.166,0.11 1.617,0.341c0.451,0.231 0.803,0.517 1.045,0.847c0.231,0.341 0.363,0.649 0.374,0.935c0.011,0.066 -0.011,0.121 -0.066,0.176c-0.055,0.044 -0.11,0.066 -0.176,0.066h-0.451c-0.165,0 -0.275,-0.044 -0.319,-0.121c-0.209,-0.407 -0.462,-0.726 -0.759,-0.935c-0.297,-0.209 -0.726,-0.319 -1.265,-0.319c-0.616,0 -1.111,0.176 -1.496,0.517c-0.385,0.352 -0.583,0.858 -0.605,1.507c-0.011,0.22 -0.011,0.528 -0.011,0.913c0,0.385 0,0.693 0.011,0.913c0.022,0.693 0.22,1.21 0.605,1.562c0.374,0.352 0.869,0.528 1.496,0.528c0.638,0 1.144,-0.165 1.529,-0.506c0.385,-0.33 0.572,-0.858 0.572,-1.573v-0.308h-1.584c-0.077,0 -0.154,-0.033 -0.209,-0.088c-0.055,-0.055 -0.088,-0.132 -0.088,-0.209v-0.396c0,-0.077 0.033,-0.154 0.088,-0.209c0.055,-0.055 0.132,-0.088 0.209,-0.088h2.332c0.077,0 0.154,0.033 0.209,0.088c0.055,0.055 0.088,0.132 0.088,0.209v1.045c0,0.583 -0.121,1.111 -0.374,1.562c-0.253,0.462 -0.605,0.825 -1.078,1.078c-0.473,0.253 -1.045,0.385 -1.694,0.385c-1.012,0 -1.782,-0.286 -2.31,-0.847c-0.528,-0.55 -0.803,-1.287 -0.836,-2.178c-0.011,-0.22 -0.011,-0.539 -0.011,-0.968c0,-0.429 0,-0.748 0.011,-0.968c0.022,-0.561 0.154,-1.067 0.385,-1.518c0.231,-0.44 0.572,-0.792 1.045,-1.056c0.462,-0.253 1.034,-0.385 1.716,-0.385z"/></g><g><path d="M257.58901,182.85998h3.696c0.077,0 0.154,0.033 0.209,0.088c0.055,0.055 0.088,0.132 0.088,0.209v0.396c0,0.077 -0.033,0.154 -0.088,0.209c-0.055,0.055 -0.132,0.088 -0.209,0.088h-4.444c-0.077,0 -0.154,-0.033 -0.209,-0.088c-0.055,-0.055 -0.088,-0.132 -0.088,-0.209v-7.10599c0,-0.077 0.033,-0.154 0.088,-0.209c0.055,-0.055 0.132,-0.088 0.209,-0.088h4.356c0.077,0 0.154,0.033 0.209,0.088c0.055,0.055 0.088,0.132 0.088,0.209v0.396c0,0.077 -0.033,0.154 -0.088,0.209c-0.055,0.055 -0.132,0.088 -0.209,0.088h-3.608v2.321h3.366c0.077,0 0.154,0.033 0.209,0.088c0.055,0.055 0.088,0.132 0.088,0.209v0.396c0,0.077 -0.033,0.154 -0.088,0.209c-0.055,0.055 -0.132,0.088 -0.209,0.088h-3.366z"/></g></g></g></g></svg>