<svg version="1.1" xmlns="http://www.w3.org/2000/svg" xmlns:xlink="http://www.w3.org/1999/xlink" width="118.08" height="44.4" viewBox="0,0,118.08,44.4"><g transform="translate(-180.96,-157.8)"><g data-paper-data="{&quot;isPaintingLayer&quot;:true}" fill="#ffffff" fill-rule="nonzero" stroke="none" stroke-width="1" stroke-linecap="butt" stroke-linejoin="round" stroke-miterlimit="2" stroke-dasharray="" stroke-dashoffset="0" style="mix-blend-mode: normal"><g><g><path d="M193.746,158.04c2.088,0 3.72,0.48 4.896,1.416c1.152,0.96 1.752,2.352 1.752,4.2c0,1.848 -0.6,3.24 -1.752,4.2c-1.176,0.96 -2.808,1.44 -4.896,1.44h-3.072v4.896c0,0.168 -0.072,0.336 -0.192,0.456c-0.12,0.12 -0.288,0.192 -0.456,0.192h-3.144c-0.168,0 -0.336,-0.072 -0.456,-0.192c-0.12,-0.12 -0.192,-0.288 -0.192,-0.456v-15.504c0,-0.168 0.072,-0.336 0.192,-0.456c0.12,-0.12 0.288,-0.192 0.456,-0.192zM193.626,165.552c0.696,0 1.272,-0.168 1.704,-0.456c0.408,-0.336 0.624,-0.792 0.624,-1.44c0,-0.648 -0.216,-1.128 -0.624,-1.44c-0.432,-0.312 -1.008,-0.456 -1.704,-0.456h-2.952v3.792z"/></g><g><path d="M207.138,171h7.584c0.168,0 0.336,0.072 0.456,0.192c0.12,0.12 0.192,0.288 0.192,0.456v2.544c0,0.168 -0.072,0.336 -0.192,0.456c-0.12,0.12 -0.288,0.192 -0.456,0.192h-11.376c-0.168,0 -0.336,-0.072 -0.456,-0.192c-0.12,-0.12 -0.192,-0.288 -0.192,-0.456v-15.504c0,-0.168 0.072,-0.336 0.192,-0.456c0.12,-0.12 0.288,-0.192 0.456,-0.192h11.184c0.168,0 0.336,0.072 0.456,0.192c0.12,0.12 0.192,0.288 0.192,0.456v2.544c0,0.168 -0.072,0.336 -0.192,0.456c-0.12,0.12 -0.288,0.192 -0.456,0.192h-7.392v2.592h6.864c0.168,0 0.336,0.072 0.456,0.192c0.12,0.12 0.192,0.288 0.192,0.456v2.544c0,0.168 -0.072,0.336 -0.192,0.456c-0.12,0.12 -0.288,0.192 -0.456,0.192h-6.864z"/></g><g><path d="M225.282,158.04c2.136,0 3.816,0.456 4.992,1.368c1.176,0.936 1.776,2.304 1.776,4.128c0,2.328 -0.96,3.912 -2.856,4.8l2.976,5.712c0.048,0.096 0.072,0.192 0.072,0.264c0,0.144 -0.048,0.264 -0.144,0.36c-0.12,0.12 -0.24,0.168 -0.384,0.168h-3.264c-0.288,0 -0.504,-0.072 -0.648,-0.192c-0.144,-0.12 -0.264,-0.264 -0.36,-0.456l-2.664,-5.136h-2.208v5.136c0,0.168 -0.072,0.336 -0.192,0.456c-0.12,0.12 -0.288,0.192 -0.456,0.192h-3.144c-0.168,0 -0.336,-0.072 -0.456,-0.192c-0.12,-0.12 -0.192,-0.288 -0.192,-0.456v-15.504c0,-0.168 0.072,-0.336 0.192,-0.456c0.12,-0.12 0.288,-0.192 0.456,-0.192zM225.282,165.312c1.56,0 2.328,-0.6 2.328,-1.776c0,-1.176 -0.768,-1.776 -2.328,-1.776h-2.712v3.552z"/></g><g><path d="M246.426,158.04c0.168,0 0.336,0.072 0.456,0.192c0.12,0.12 0.192,0.288 0.192,0.456v2.544c0,0.168 -0.072,0.336 -0.192,0.456c-0.12,0.12 -0.288,0.192 -0.456,0.192h-7.176v3.288h6.696c0.168,0 0.336,0.072 0.456,0.192c0.12,0.12 0.192,0.288 0.192,0.456v2.544c0,0.168 -0.072,0.336 -0.192,0.456c-0.12,0.12 -0.288,0.192 -0.456,0.192h-6.696v5.184c0,0.168 -0.072,0.336 -0.192,0.456c-0.12,0.12 -0.288,0.192 -0.456,0.192h-3.144c-0.168,0 -0.336,-0.072 -0.456,-0.192c-0.12,-0.12 -0.192,-0.288 -0.192,-0.456v-15.504c0,-0.168 0.072,-0.336 0.192,-0.456c0.12,-0.12 0.288,-0.192 0.456,-0.192z"/></g><g><path d="M253.89,171h7.584c0.168,0 0.336,0.072 0.456,0.192c0.12,0.12 0.192,0.288 0.192,0.456v2.544c0,0.168 -0.072,0.336 -0.192,0.456c-0.12,0.12 -0.288,0.192 -0.456,0.192h-11.376c-0.168,0 -0.336,-0.072 -0.456,-0.192c-0.12,-0.12 -0.192,-0.288 -0.192,-0.456v-15.504c0,-0.168 0.072,-0.336 0.192,-0.456c0.12,-0.12 0.288,-0.192 0.456,-0.192h11.184c0.168,0 0.336,0.072 0.456,0.192c0.12,0.12 0.192,0.288 0.192,0.456v2.544c0,0.168 -0.072,0.336 -0.192,0.456c-0.12,0.12 -0.288,0.192 -0.456,0.192h-7.392v2.592h6.864c0.168,0 0.336,0.072 0.456,0.192c0.12,0.12 0.192,0.288 0.192,0.456v2.544c0,0.168 -0.072,0.336 -0.192,0.456c-0.12,0.12 -0.288,0.192 -0.456,0.192h-6.864z"/></g><g><path d="M268.746,168.456c0.072,0.84 0.336,1.512 0.816,2.016c0.456,0.504 1.2,0.768 2.208,0.768c0.96,0 1.656,-0.192 2.088,-0.552c0.432,-0.36 0.744,-0.816 0.912,-1.344c0.096,-0.264 0.192,-0.456 0.288,-0.552c0.096,-0.096 0.264,-0.144 0.528,-0.144h3.144c0.144,0 0.264,0.048 0.384,0.144c0.096,0.12 0.144,0.24 0.144,0.384c-0.024,1.08 -0.36,2.064 -1.032,2.952c-0.648,0.912 -1.56,1.632 -2.688,2.16c-1.128,0.528 -2.4,0.792 -3.768,0.792c-1.488,0 -2.784,-0.288 -3.888,-0.888c-1.104,-0.576 -1.968,-1.368 -2.568,-2.352c-0.6,-0.984 -0.936,-2.064 -1.008,-3.264c-0.024,-0.768 -0.048,-1.392 -0.048,-1.896c0,-0.6 0.024,-1.392 0.048,-2.376c0.048,-1.2 0.384,-2.304 0.984,-3.288c0.6,-0.984 1.464,-1.752 2.592,-2.352c1.104,-0.576 2.4,-0.864 3.888,-0.864c1.368,0 2.64,0.264 3.768,0.792c1.128,0.528 2.04,1.248 2.688,2.136c0.672,0.912 1.008,1.896 1.032,2.976c0,0.144 -0.048,0.264 -0.144,0.36c-0.12,0.12 -0.24,0.168 -0.384,0.168h-3.144c-0.264,0 -0.432,-0.048 -0.528,-0.144c-0.096,-0.096 -0.192,-0.288 -0.288,-0.552c-0.168,-0.528 -0.48,-0.984 -0.912,-1.344c-0.432,-0.36 -1.128,-0.552 -2.088,-0.552c-1.008,0 -1.752,0.264 -2.208,0.768c-0.48,0.504 -0.744,1.176 -0.816,2.016c-0.024,0.552 -0.048,1.224 -0.048,2.016c0,0.768 0.024,1.44 0.048,2.016z"/></g><g><path d="M294.066,158.04c0.168,0 0.336,0.072 0.456,0.192c0.12,0.12 0.192,0.288 0.192,0.456v2.544c0,0.168 -0.072,0.336 -0.192,0.456c-0.12,0.12 -0.288,0.192 -0.456,0.192h-4.224v12.312c0,0.168 -0.072,0.336 -0.192,0.456c-0.12,0.12 -0.288,0.192 -0.456,0.192h-3.144c-0.168,0 -0.336,-0.072 -0.456,-0.192c-0.12,-0.12 -0.192,-0.288 -0.192,-0.456v-12.312h-4.224c-0.168,0 -0.336,-0.072 -0.456,-0.192c-0.12,-0.12 -0.192,-0.288 -0.192,-0.456v-2.544c0,-0.168 0.072,-0.336 0.192,-0.456c0.12,-0.12 0.288,-0.192 0.456,-0.192z"/></g><g><path d="M187.692,192.264c0.108,1.26 0.504,2.268 1.224,3.024c0.684,0.756 1.8,1.152 3.312,1.152c1.44,0 2.484,-0.288 3.132,-0.828c0.648,-0.54 1.116,-1.224 1.368,-2.016c0.144,-0.396 0.288,-0.684 0.432,-0.828c0.144,-0.144 0.396,-0.216 0.792,-0.216h4.716c0.216,0 0.396,0.072 0.576,0.216c0.144,0.18 0.216,0.36 0.216,0.576c-0.036,1.62 -0.54,3.096 -1.548,4.428c-0.972,1.368 -2.34,2.448 -4.032,3.24c-1.692,0.792 -3.6,1.188 -5.652,1.188c-2.232,0 -4.176,-0.432 -5.832,-1.332c-1.656,-0.864 -2.952,-2.052 -3.852,-3.528c-0.9,-1.476 -1.404,-3.096 -1.512,-4.896c-0.036,-1.152 -0.072,-2.088 -0.072,-2.844c0,-0.9 0.036,-2.088 0.072,-3.564c0.072,-1.8 0.576,-3.456 1.476,-4.932c0.9,-1.476 2.196,-2.628 3.888,-3.528c1.656,-0.864 3.6,-1.296 5.832,-1.296c2.052,0 3.96,0.396 5.652,1.188c1.692,0.792 3.06,1.872 4.032,3.204c1.008,1.368 1.512,2.844 1.548,4.464c0,0.216 -0.072,0.396 -0.216,0.54c-0.18,0.18 -0.36,0.252 -0.576,0.252h-4.716c-0.396,0 -0.648,-0.072 -0.792,-0.216c-0.144,-0.144 -0.288,-0.432 -0.432,-0.828c-0.252,-0.792 -0.72,-1.476 -1.368,-2.016c-0.648,-0.54 -1.692,-0.828 -3.132,-0.828c-1.512,0 -2.628,0.396 -3.312,1.152c-0.72,0.756 -1.116,1.764 -1.224,3.024c-0.036,0.828 -0.072,1.836 -0.072,3.024c0,1.152 0.036,2.16 0.072,3.024z"/></g><g><path d="M224.808,196.08c0.252,0 0.504,0.108 0.684,0.288c0.18,0.18 0.288,0.432 0.288,0.684v3.816c0,0.252 -0.108,0.504 -0.288,0.684c-0.18,0.18 -0.432,0.288 -0.684,0.288h-16.668c-0.252,0 -0.504,-0.108 -0.684,-0.288c-0.18,-0.18 -0.288,-0.432 -0.288,-0.684v-23.256c0,-0.252 0.108,-0.504 0.288,-0.684c0.18,-0.18 0.432,-0.288 0.684,-0.288h4.716c0.252,0 0.504,0.108 0.684,0.288c0.18,0.18 0.288,0.432 0.288,0.684v18.468z"/></g><g><path d="M235.536,196.08h11.376c0.252,0 0.504,0.108 0.684,0.288c0.18,0.18 0.288,0.432 0.288,0.684v3.816c0,0.252 -0.108,0.504 -0.288,0.684c-0.18,0.18 -0.432,0.288 -0.684,0.288h-17.064c-0.252,0 -0.504,-0.108 -0.684,-0.288c-0.18,-0.18 -0.288,-0.432 -0.288,-0.684v-23.256c0,-0.252 0.108,-0.504 0.288,-0.684c0.18,-0.18 0.432,-0.288 0.684,-0.288h16.776c0.252,0 0.504,0.108 0.684,0.288c0.18,0.18 0.288,0.432 0.288,0.684v3.816c0,0.252 -0.108,0.504 -0.288,0.684c-0.18,0.18 -0.432,0.288 -0.684,0.288h-11.088v3.888h10.296c0.252,0 0.504,0.108 0.684,0.288c0.18,0.18 0.288,0.432 0.288,0.684v3.816c0,0.252 -0.108,0.504 -0.288,0.684c-0.18,0.18 -0.432,0.288 -0.684,0.288h-10.296z"/></g><g><path d="M274.812,200.508c0.108,0.252 0.144,0.432 0.144,0.54c0,0.216 -0.072,0.396 -0.216,0.54c-0.18,0.18 -0.36,0.252 -0.576,0.252h-4.536c-0.396,0 -0.72,-0.108 -0.936,-0.288c-0.252,-0.18 -0.396,-0.36 -0.468,-0.612l-1.008,-2.988h-9.576l-1.008,2.988c-0.072,0.252 -0.216,0.432 -0.432,0.612c-0.252,0.18 -0.576,0.288 -0.972,0.288h-4.536c-0.216,0 -0.396,-0.072 -0.54,-0.252c-0.18,-0.144 -0.252,-0.324 -0.252,-0.54c0,-0.108 0.036,-0.288 0.144,-0.54l7.848,-22.68c0.108,-0.324 0.324,-0.612 0.576,-0.864c0.252,-0.216 0.612,-0.324 1.044,-0.324h5.832c0.432,0 0.792,0.108 1.044,0.324c0.252,0.252 0.468,0.54 0.576,0.864zM265.344,192.372l-2.916,-8.64l-2.916,8.64z"/></g><g><path d="M288.6,176.64c3.204,0 5.724,0.684 7.488,2.052c1.764,1.404 2.664,3.456 2.664,6.192c0,3.492 -1.44,5.868 -4.284,7.2l4.464,8.568c0.072,0.144 0.108,0.288 0.108,0.396c0,0.216 -0.072,0.396 -0.216,0.54c-0.18,0.18 -0.36,0.252 -0.576,0.252h-4.896c-0.432,0 -0.756,-0.108 -0.972,-0.288c-0.216,-0.18 -0.396,-0.396 -0.54,-0.684l-3.996,-7.704h-3.312v7.704c0,0.252 -0.108,0.504 -0.288,0.684c-0.18,0.18 -0.432,0.288 -0.684,0.288h-4.716c-0.252,0 -0.504,-0.108 -0.684,-0.288c-0.18,-0.18 -0.288,-0.432 -0.288,-0.684v-23.256c0,-0.252 0.108,-0.504 0.288,-0.684c0.18,-0.18 0.432,-0.288 0.684,-0.288zM288.6,187.548c2.34,0 3.492,-0.9 3.492,-2.664c0,-1.764 -1.152,-2.664 -3.492,-2.664h-4.068v5.328z"/></g></g></g></g></svg>