<svg version="1.1" xmlns="http://www.w3.org/2000/svg" xmlns:xlink="http://www.w3.org/1999/xlink" width="18.67188" height="28.47657" viewBox="0,0,18.67188,28.47657"><g transform="translate(-230.66406,-165.76172)"><g data-paper-data="{&quot;isPaintingLayer&quot;:true}" fill="#ffffff" fill-rule="nonzero" stroke="none" stroke-width="2" stroke-linecap="butt" stroke-linejoin="miter" stroke-miterlimit="6.4" stroke-dasharray="" stroke-dashoffset="0" style="mix-blend-mode: normal"><path d="M237.42188,189.1211h11.875v5.11719h-18.63282v-2.10938c0,-1.43229 0.24089,-2.71485 0.72266,-3.84766c0.48177,-1.14583 1.08724,-2.16797 1.81641,-3.0664c0.72917,-0.91146 1.52344,-1.71224 2.38281,-2.40235c0.87239,-0.70312 1.69922,-1.33463 2.48047,-1.89453c0.82031,-0.58593 1.53646,-1.14583 2.14843,-1.67968c0.625,-0.53386 1.14583,-1.06121 1.5625,-1.58204c0.42969,-0.53385 0.74871,-1.06771 0.95704,-1.60156c0.20833,-0.54687 0.3125,-1.1263 0.3125,-1.73828c0,-1.19791 -0.33854,-2.10286 -1.01563,-2.71484c-0.67708,-0.61198 -1.71224,-0.91797 -3.10547,-0.91797c-2.40885,0 -4.71354,0.95703 -6.91406,2.87109v-5.42969c2.43489,-1.57552 5.18229,-2.36328 8.24219,-2.36328c1.41927,0 2.6888,0.1888 3.80859,0.56641c1.13281,0.36458 2.08984,0.89192 2.87109,1.58203c0.78125,0.69011 1.3737,1.52995 1.77735,2.51953c0.41667,0.97657 0.625,2.07032 0.625,3.28125c0,1.28907 -0.20182,2.4349 -0.60547,3.4375c-0.39063,1.00261 -0.91797,1.91407 -1.58203,2.73438c-0.65104,0.82031 -1.40625,1.57552 -2.26563,2.26562c-0.85937,0.67709 -1.7513,1.33464 -2.67578,1.97266c-0.625,0.44271 -1.23047,0.88541 -1.8164,1.32812c-0.57292,0.42969 -1.08073,0.85938 -1.52344,1.28907c-0.44271,0.41667 -0.79427,0.82682 -1.05469,1.23046c-0.26041,0.40365 -0.39062,0.78776 -0.39062,1.15235z"/></g></g></svg>