<svg version="1.1" xmlns="http://www.w3.org/2000/svg" xmlns:xlink="http://www.w3.org/1999/xlink" width="17.85156" height="28.9648" viewBox="0,0,17.85156,28.9648"><g transform="translate(-231.07422,-165.5176)"><g data-paper-data="{&quot;isPaintingLayer&quot;:true}" fill="#ffffff" fill-rule="nonzero" stroke="none" stroke-width="2" stroke-linecap="butt" stroke-linejoin="miter" stroke-miterlimit="6.4" stroke-dasharray="" stroke-dashoffset="0" style="mix-blend-mode: normal"><path d="M231.07422,193.0762v-5.3711c1.875,1.36719 4.0625,2.05078 6.5625,2.05078c1.57552,0 2.79948,-0.33854 3.67187,-1.01562c0.88542,-0.67709 1.32813,-1.6211 1.32813,-2.83203c0,-1.25 -0.54688,-2.21354 -1.64063,-2.89063c-1.08073,-0.67708 -2.57161,-1.01562 -4.47265,-1.01562h-2.59766v-4.72656h2.40234c3.64583,0 5.46875,-1.21094 5.46875,-3.63282c0,-2.27865 -1.39974,-3.41797 -4.19922,-3.41797c-1.875,0 -3.69791,0.60547 -5.46874,1.81641v-5.03906c1.96614,-0.98959 4.2578,-1.48438 6.87499,-1.48438c2.86459,0 5.09115,0.64453 6.67969,1.9336c1.60157,1.28906 2.40235,2.96224 2.40235,5.01953c0,3.65885 -1.85547,5.95052 -5.56641,6.875v0.0976c1.97917,0.2474 3.54167,0.97006 4.6875,2.16797c1.14583,1.1849 1.71875,2.64323 1.71875,4.375c0,2.61719 -0.95703,4.6875 -2.87109,6.21094c-1.91407,1.52344 -4.5573,2.28516 -7.92969,2.28516c-2.89063,0 -5.24089,-0.46875 -7.05078,-1.40625z"/></g></g></svg>