<svg version="1.1" xmlns="http://www.w3.org/2000/svg" xmlns:xlink="http://www.w3.org/1999/xlink" width="241.3139" height="241.69979" viewBox="0,0,241.3139,241.69979"><g transform="translate(-119.00018,-25.10491)"><g data-paper-data="{&quot;isPaintingLayer&quot;:true}" fill="#ffffff" fill-rule="nonzero" stroke="none" stroke-width="1" stroke-linecap="butt" stroke-dasharray="" stroke-dashoffset="0" style="mix-blend-mode: normal"><g stroke-linejoin="round" stroke-miterlimit="2"><g><path d="M325.3463,234.8047c-0.063,0 -0.108,-0.018 -0.144,-0.054c-0.036,-0.036 -0.054,-0.081 -0.054,-0.144v-5.904c0,-0.063 0.018,-0.108 0.054,-0.144c0.036,-0.036 0.081,-0.054 0.144,-0.054h0.171c0.063,0 0.108,0.018 0.144,0.054c0.036,0.036 0.054,0.081 0.054,0.144v5.562h3.105c0.063,0 0.117,0.018 0.153,0.054c0.036,0.036 0.054,0.09 0.054,0.153v0.135c0,0.063 -0.018,0.108 -0.054,0.144c-0.036,0.036 -0.09,0.054 -0.153,0.054z"/></g><g><path d="M330.2783,234.8047c-0.063,0 -0.108,-0.018 -0.144,-0.054c-0.036,-0.036 -0.054,-0.081 -0.054,-0.144v-5.904c0,-0.063 0.018,-0.108 0.054,-0.144c0.036,-0.036 0.081,-0.054 0.144,-0.054h0.171c0.063,0 0.108,0.018 0.144,0.054c0.036,0.036 0.054,0.081 0.054,0.144v5.904c0,0.063 -0.018,0.108 -0.054,0.144c-0.036,0.036 -0.081,0.054 -0.144,0.054z"/></g><g><path d="M332.5373,234.8047c-0.063,0 -0.108,-0.018 -0.144,-0.054c-0.036,-0.036 -0.054,-0.081 -0.054,-0.144v-5.895c0,-0.063 0.018,-0.117 0.054,-0.153c0.036,-0.036 0.081,-0.054 0.144,-0.054h0.189c0.063,0 0.108,0.018 0.135,0.045c0.027,0.027 0.045,0.054 0.054,0.063l3.321,5.076v-4.977c0,-0.063 0.018,-0.117 0.054,-0.153c0.036,-0.036 0.081,-0.054 0.144,-0.054h0.162c0.063,0 0.117,0.018 0.153,0.054c0.036,0.036 0.054,0.09 0.054,0.153v5.886c0,0.063 -0.018,0.108 -0.054,0.144c-0.036,0.045 -0.081,0.063 -0.144,0.063h-0.198c-0.063,0 -0.099,-0.018 -0.126,-0.045c-0.027,-0.027 -0.054,-0.054 -0.063,-0.063l-3.312,-5.058v4.968c0,0.063 -0.018,0.108 -0.054,0.144c-0.036,0.036 -0.09,0.054 -0.153,0.054z"/></g><g><path d="M338.6933,234.8047c-0.063,0 -0.108,-0.018 -0.144,-0.054c-0.036,-0.036 -0.054,-0.081 -0.054,-0.144v-5.895c0,-0.063 0.018,-0.117 0.054,-0.153c0.036,-0.036 0.081,-0.054 0.144,-0.054h3.51c0.063,0 0.117,0.018 0.153,0.054c0.036,0.036 0.054,0.09 0.054,0.153v0.135c0,0.063 -0.018,0.108 -0.054,0.144c-0.036,0.036 -0.09,0.054 -0.153,0.054h-3.141v2.295h2.943c0.063,0 0.117,0.018 0.153,0.054c0.036,0.036 0.054,0.09 0.054,0.153v0.135c0,0.063 -0.018,0.108 -0.054,0.144c-0.036,0.036 -0.09,0.054 -0.153,0.054h-2.943v2.385h3.213c0.063,0 0.117,0.018 0.153,0.054c0.036,0.036 0.054,0.09 0.054,0.153v0.135c0,0.063 -0.018,0.108 -0.054,0.144c-0.036,0.036 -0.09,0.054 -0.153,0.054z"/></g><g><path d="M345.7133,234.8947c-0.486,0 -0.9,-0.081 -1.233,-0.234c-0.342,-0.153 -0.603,-0.36 -0.783,-0.603c-0.18,-0.243 -0.279,-0.504 -0.288,-0.783c0,-0.045 0.018,-0.09 0.054,-0.126c0.036,-0.036 0.081,-0.054 0.135,-0.054h0.18c0.063,0 0.108,0.018 0.144,0.054c0.027,0.036 0.045,0.081 0.054,0.126c0.027,0.171 0.099,0.333 0.225,0.495c0.126,0.171 0.315,0.306 0.558,0.414c0.243,0.117 0.567,0.171 0.954,0.171c0.585,0 1.017,-0.108 1.287,-0.324c0.27,-0.207 0.405,-0.495 0.405,-0.855c0,-0.243 -0.072,-0.432 -0.207,-0.585c-0.144,-0.144 -0.36,-0.279 -0.648,-0.396c-0.288,-0.117 -0.657,-0.243 -1.107,-0.387c-0.423,-0.135 -0.774,-0.279 -1.053,-0.432c-0.279,-0.144 -0.477,-0.324 -0.603,-0.531c-0.135,-0.207 -0.198,-0.477 -0.198,-0.81c0,-0.306 0.081,-0.585 0.243,-0.828c0.162,-0.243 0.396,-0.432 0.702,-0.576c0.315,-0.144 0.693,-0.216 1.134,-0.216c0.351,0 0.666,0.045 0.927,0.144c0.261,0.099 0.486,0.225 0.657,0.378c0.171,0.162 0.306,0.333 0.396,0.513c0.09,0.189 0.135,0.369 0.144,0.54c0,0.045 -0.018,0.081 -0.045,0.117c-0.027,0.045 -0.081,0.063 -0.144,0.063h-0.18c-0.027,0 -0.063,-0.009 -0.108,-0.036c-0.054,-0.027 -0.081,-0.072 -0.09,-0.144c-0.036,-0.297 -0.189,-0.549 -0.468,-0.747c-0.279,-0.189 -0.648,-0.288 -1.089,-0.288c-0.441,0 -0.81,0.09 -1.089,0.261c-0.279,0.171 -0.423,0.45 -0.423,0.819c0,0.243 0.063,0.432 0.189,0.585c0.126,0.153 0.324,0.288 0.594,0.405c0.27,0.126 0.621,0.252 1.044,0.387c0.45,0.144 0.819,0.288 1.116,0.432c0.297,0.144 0.513,0.315 0.657,0.522c0.144,0.207 0.216,0.477 0.216,0.81c0,0.369 -0.09,0.675 -0.27,0.927c-0.189,0.261 -0.45,0.45 -0.783,0.585c-0.333,0.135 -0.738,0.207 -1.206,0.207z"/></g></g><g stroke-linejoin="round" stroke-miterlimit="2"><g><path d="M326.7233,266.8047c-0.063,0 -0.108,-0.018 -0.144,-0.054c-0.036,-0.036 -0.054,-0.081 -0.054,-0.144v-5.562h-1.782c-0.063,0 -0.108,-0.018 -0.144,-0.054c-0.036,-0.036 -0.054,-0.081 -0.054,-0.144v-0.135c0,-0.063 0.018,-0.117 0.054,-0.153c0.036,-0.036 0.081,-0.054 0.144,-0.054h4.122c0.063,0 0.117,0.018 0.153,0.054c0.036,0.036 0.054,0.09 0.054,0.153v0.135c0,0.063 -0.018,0.108 -0.054,0.144c-0.036,0.036 -0.09,0.054 -0.153,0.054h-1.773v5.562c0,0.063 -0.018,0.108 -0.054,0.144c-0.036,0.036 -0.09,0.054 -0.153,0.054z"/></g><g><path d="M330.3593,266.8047c-0.063,0 -0.108,-0.018 -0.144,-0.054c-0.036,-0.036 -0.054,-0.081 -0.054,-0.144v-5.904c0,-0.063 0.018,-0.108 0.054,-0.144c0.036,-0.036 0.081,-0.054 0.144,-0.054h0.171c0.063,0 0.108,0.018 0.144,0.054c0.036,0.036 0.054,0.081 0.054,0.144v5.904c0,0.063 -0.018,0.108 -0.054,0.144c-0.036,0.036 -0.081,0.054 -0.144,0.054z"/></g><g><path d="M332.6273,266.8047c-0.063,0 -0.108,-0.018 -0.144,-0.054c-0.045,-0.036 -0.063,-0.081 -0.063,-0.144v-5.895c0,-0.063 0.018,-0.117 0.063,-0.153c0.036,-0.036 0.081,-0.054 0.144,-0.054h0.225c0.063,0 0.108,0.018 0.135,0.045c0.027,0.027 0.045,0.054 0.054,0.072l2.043,3.978l2.052,-3.978c0.009,-0.018 0.036,-0.045 0.063,-0.072c0.018,-0.027 0.063,-0.045 0.126,-0.045h0.216c0.063,0 0.117,0.018 0.153,0.054c0.036,0.036 0.054,0.09 0.054,0.153v5.895c0,0.063 -0.018,0.108 -0.054,0.144c-0.036,0.036 -0.09,0.054 -0.153,0.054h-0.162c-0.063,0 -0.108,-0.018 -0.144,-0.054c-0.036,-0.036 -0.054,-0.081 -0.054,-0.144v-4.878l-1.719,3.384c-0.027,0.063 -0.054,0.108 -0.099,0.135c-0.045,0.027 -0.108,0.045 -0.18,0.045h-0.198c-0.072,0 -0.126,-0.018 -0.171,-0.045c-0.045,-0.027 -0.081,-0.072 -0.108,-0.135l-1.719,-3.384v4.878c0,0.063 -0.018,0.108 -0.054,0.144c-0.036,0.036 -0.081,0.054 -0.144,0.054z"/></g><g><path d="M339.6383,266.8047c-0.063,0 -0.108,-0.018 -0.144,-0.054c-0.036,-0.036 -0.054,-0.081 -0.054,-0.144v-5.895c0,-0.063 0.018,-0.117 0.054,-0.153c0.036,-0.036 0.081,-0.054 0.144,-0.054h3.51c0.063,0 0.117,0.018 0.153,0.054c0.036,0.036 0.054,0.09 0.054,0.153v0.135c0,0.063 -0.018,0.108 -0.054,0.144c-0.036,0.036 -0.09,0.054 -0.153,0.054h-3.141v2.295h2.943c0.063,0 0.117,0.018 0.153,0.054c0.036,0.036 0.054,0.09 0.054,0.153v0.135c0,0.063 -0.018,0.108 -0.054,0.144c-0.036,0.036 -0.09,0.054 -0.153,0.054h-2.943v2.385h3.213c0.063,0 0.117,0.018 0.153,0.054c0.036,0.036 0.054,0.09 0.054,0.153v0.135c0,0.063 -0.018,0.108 -0.054,0.144c-0.036,0.036 -0.09,0.054 -0.153,0.054z"/></g></g><g stroke-linejoin="round" stroke-miterlimit="2"><g><g><path d="M329.46008,56.7325v-8.592h1.164l4.512,6.744v-6.744h1.092v8.592h-1.164l-4.512,-6.756v6.756z"/></g><g><path d="M338.16208,56.7325v-8.592h6.216v1.02h-5.076v2.628h4.752v1.008h-4.752v2.928h5.268v1.008z"/></g><g><path d="M345.26608,56.7325l3.324,-4.476l-2.928,-4.116h1.356l1.56,2.208c0.324,0.456 0.552,0.804 0.684,1.056c0.192,-0.312 0.42,-0.648 0.684,-0.984l1.728,-2.28h1.236l-3.012,4.056l3.252,4.536h-1.416l-2.16,-3.06c-0.12,-0.18 -0.24,-0.372 -0.372,-0.576c-0.192,0.312 -0.324,0.528 -0.408,0.636l-2.16,3z"/></g><g><path d="M356.33008,56.7325v-7.572h-2.832v-1.02h6.816v1.02h-2.844v7.572z"/></g></g><g><g><path d="M119.00018,56.7325v-8.592h1.14v3.528h4.464v-3.528h1.14v8.592h-1.14v-4.044h-4.464v4.044z"/></g><g><path d="M127.28218,52.5445c0,-1.416 0.384,-2.532 1.152,-3.348c0.768,-0.804 1.752,-1.212 2.964,-1.212c0.792,0 1.512,0.192 2.148,0.576c0.636,0.372 1.116,0.9 1.452,1.584c0.336,0.672 0.504,1.44 0.504,2.304c0,0.876 -0.18,1.656 -0.528,2.34c-0.348,0.684 -0.852,1.212 -1.5,1.56c-0.636,0.348 -1.332,0.528 -2.076,0.528c-0.816,0 -1.536,-0.192 -2.172,-0.588c-0.636,-0.384 -1.116,-0.924 -1.452,-1.596c-0.324,-0.672 -0.492,-1.392 -0.492,-2.148zM128.45818,52.5685c0,1.032 0.276,1.848 0.84,2.448c0.552,0.588 1.248,0.888 2.088,0.888c0.852,0 1.56,-0.3 2.112,-0.9c0.552,-0.6 0.828,-1.452 0.828,-2.556c0,-0.708 -0.12,-1.32 -0.348,-1.836c-0.24,-0.516 -0.588,-0.924 -1.044,-1.212c-0.456,-0.288 -0.96,-0.432 -1.524,-0.432c-0.804,0 -1.5,0.276 -2.076,0.828c-0.588,0.552 -0.876,1.476 -0.876,2.772z"/></g><g><path d="M136.91618,56.7325v-8.592h1.14v7.584h4.236v1.008z"/></g><g><path d="M143.63818,56.7325v-8.592h2.964c0.66,0 1.176,0.048 1.524,0.12c0.492,0.12 0.912,0.324 1.26,0.624c0.456,0.384 0.792,0.864 1.02,1.464c0.228,0.6 0.336,1.272 0.336,2.04c0,0.66 -0.072,1.236 -0.228,1.74c-0.156,0.504 -0.348,0.912 -0.588,1.248c-0.24,0.324 -0.504,0.588 -0.78,0.78c-0.288,0.192 -0.624,0.336 -1.032,0.432c-0.396,0.096 -0.852,0.144 -1.38,0.144zM144.77818,55.7245h1.836c0.564,0 1.008,-0.06 1.332,-0.168c0.324,-0.096 0.576,-0.252 0.768,-0.444c0.264,-0.264 0.48,-0.624 0.624,-1.08c0.156,-0.456 0.228,-1.008 0.228,-1.656c0,-0.9 -0.144,-1.596 -0.444,-2.076c-0.288,-0.48 -0.648,-0.804 -1.068,-0.972c-0.312,-0.108 -0.792,-0.168 -1.476,-0.168h-1.8z"/></g></g></g><text transform="translate(192.47874,46.85491) scale(0.5,0.5)" font-size="40" xml:space="preserve" fill="#ffffff" fill-rule="nonzero" stroke="none" stroke-width="1" stroke-linecap="butt" stroke-linejoin="miter" stroke-miterlimit="10" stroke-dasharray="" stroke-dashoffset="0" font-family="Sans Serif" font-weight="normal" text-anchor="start" style="mix-blend-mode: normal"><tspan x="0" dy="0">スプリント</tspan></text></g></g></svg>