<svg version="1.1" xmlns="http://www.w3.org/2000/svg" xmlns:xlink="http://www.w3.org/1999/xlink" width="37.49" height="34.6995" viewBox="0,0,37.49,34.6995"><g transform="translate(-221.255,-162.65025)"><g data-paper-data="{&quot;isPaintingLayer&quot;:true}" fill="#ffffff" stroke="none" stroke-width="1" stroke-linecap="butt" stroke-linejoin="round" stroke-miterlimit="2" stroke-dasharray="" stroke-dashoffset="0" style="mix-blend-mode: normal"><g><g fill-rule="evenodd"><path d="M257.81,162.65025v12h-12v12h-12v-12h-12v-12zM256.31,164.15025h-33v9h12v12h9v-12h12z"/></g><g fill-rule="nonzero"><g><path d="M233.995,167.11975c0,0.06 -0.02,0.11 -0.06,0.15c-0.05,0.05 -0.1,0.07 -0.15,0.07h-1.31c-0.09,0 -0.17,-0.01 -0.22,-0.04c-0.05,-0.02 -0.11,-0.06 -0.18,-0.12c-0.01,-0.01 -0.06,-0.06 -0.13,-0.14c-0.07,-0.07 -0.19,-0.14 -0.34,-0.2c-0.16,-0.06 -0.34,-0.09 -0.55,-0.09c-0.29,0 -0.52,0.04 -0.7,0.11c-0.19,0.08 -0.28,0.21 -0.28,0.4c0,0.13 0.06,0.24 0.17,0.31c0.11,0.08 0.29,0.15 0.53,0.21c0.23,0.06 0.64,0.15 1.23,0.27c0.75,0.15 1.31,0.39 1.66,0.72c0.35,0.33 0.53,0.79 0.53,1.4c0,0.44 -0.13,0.82 -0.39,1.15c-0.27,0.34 -0.63,0.59 -1.1,0.76c-0.47,0.18 -1.01,0.27 -1.6,0.27c-0.57,0 -1.09,-0.1 -1.56,-0.3c-0.47,-0.2 -0.83,-0.46 -1.1,-0.78c-0.27,-0.32 -0.41,-0.65 -0.42,-0.99c0,-0.06 0.02,-0.11 0.07,-0.16c0.04,-0.04 0.09,-0.06 0.14,-0.06h1.31c0.15,0 0.27,0.05 0.38,0.14c0.02,0.02 0.07,0.08 0.16,0.17c0.09,0.1 0.22,0.19 0.4,0.26c0.17,0.08 0.38,0.12 0.62,0.12c0.83,0 1.24,-0.18 1.24,-0.53c0,-0.11 -0.06,-0.21 -0.17,-0.29c-0.12,-0.07 -0.29,-0.14 -0.5,-0.19c-0.21,-0.05 -0.55,-0.13 -1.02,-0.23l-0.45,-0.09c-0.68,-0.15 -1.18,-0.39 -1.5,-0.74c-0.32,-0.34 -0.48,-0.8 -0.48,-1.37c0,-0.39 0.12,-0.75 0.35,-1.08c0.23,-0.32 0.57,-0.59 1,-0.79c0.43,-0.19 0.92,-0.29 1.48,-0.29c0.54,0 1.03,0.1 1.48,0.3c0.45,0.21 0.8,0.46 1.06,0.77c0.25,0.31 0.39,0.61 0.4,0.9z"/></g><g><path d="M238.325,165.24975c0.87,0 1.55,0.2 2.04,0.59c0.48,0.4 0.73,0.98 0.73,1.75c0,0.77 -0.25,1.35 -0.73,1.75c-0.49,0.4 -1.17,0.6 -2.04,0.6h-1.28v2.04c0,0.07 -0.03,0.14 -0.08,0.19c-0.05,0.05 -0.12,0.08 -0.19,0.08h-1.31c-0.07,0 -0.14,-0.03 -0.19,-0.08c-0.05,-0.05 -0.08,-0.12 -0.08,-0.19v-6.46c0,-0.07 0.03,-0.14 0.08,-0.19c0.05,-0.05 0.12,-0.08 0.19,-0.08zM238.275,168.37975c0.29,0 0.53,-0.07 0.71,-0.19c0.17,-0.14 0.26,-0.33 0.26,-0.6c0,-0.27 -0.09,-0.47 -0.26,-0.6c-0.18,-0.13 -0.42,-0.19 -0.71,-0.19h-1.23v1.58z"/></g><g><path d="M242.325,172.24975c-0.07,0 -0.14,-0.03 -0.19,-0.08c-0.05,-0.05 -0.08,-0.12 -0.08,-0.19v-6.46c0,-0.07 0.03,-0.14 0.08,-0.19c0.05,-0.05 0.12,-0.08 0.19,-0.08h1.31c0.07,0 0.14,0.03 0.19,0.08c0.05,0.05 0.08,0.12 0.08,0.19v6.46c0,0.07 -0.03,0.14 -0.08,0.19c-0.05,0.05 -0.12,0.08 -0.19,0.08z"/></g><g><path d="M249.855,172.24975c-0.1,0 -0.19,-0.03 -0.26,-0.08c-0.07,-0.05 -0.12,-0.1 -0.15,-0.15l-2.29,-3.42v3.38c0,0.07 -0.03,0.14 -0.08,0.19c-0.05,0.05 -0.12,0.08 -0.19,0.08h-1.31c-0.07,0 -0.14,-0.03 -0.19,-0.08c-0.05,-0.05 -0.08,-0.12 -0.08,-0.19v-6.46c0,-0.07 0.03,-0.14 0.08,-0.19c0.05,-0.05 0.12,-0.08 0.19,-0.08h1.04c0.1,0 0.19,0.02 0.26,0.07c0.07,0.05 0.12,0.11 0.15,0.16l2.29,3.42v-3.38c0,-0.07 0.03,-0.14 0.08,-0.19c0.05,-0.05 0.12,-0.08 0.19,-0.08h1.31c0.07,0 0.14,0.03 0.19,0.08c0.05,0.05 0.08,0.12 0.08,0.19v6.46c0,0.07 -0.03,0.14 -0.08,0.19c-0.05,0.05 -0.12,0.08 -0.19,0.08z"/></g><g><path d="M226.685,194.53975c-0.01,0.55 -0.13,1.03 -0.37,1.44c-0.24,0.41 -0.57,0.73 -0.99,0.94c-0.42,0.22 -0.9,0.33 -1.45,0.33h-2.35c-0.07,0 -0.14,-0.03 -0.19,-0.08c-0.05,-0.05 -0.08,-0.12 -0.08,-0.19v-6.46c0,-0.07 0.03,-0.14 0.08,-0.19c0.05,-0.05 0.12,-0.08 0.19,-0.08h2.29c0.55,0 1.05,0.11 1.48,0.32c0.43,0.22 0.76,0.53 1.01,0.94c0.25,0.41 0.37,0.9 0.38,1.45c0.01,0.2 0.01,0.46 0.01,0.79c0,0.33 0,0.59 -0.01,0.79zM222.205,191.14975v5.2h1.62c0.67,0 1.15,-0.17 1.45,-0.52c0.29,-0.35 0.45,-0.79 0.46,-1.34c0.01,-0.2 0.01,-0.45 0.01,-0.74c0,-0.29 0,-0.54 -0.01,-0.74c-0.01,-0.54 -0.18,-0.99 -0.49,-1.34c-0.31,-0.35 -0.8,-0.52 -1.47,-0.52z"/></g><g><path d="M230.635,190.14975c0.57,0 1.06,0.12 1.47,0.36c0.41,0.24 0.73,0.56 0.95,0.97c0.21,0.41 0.33,0.87 0.34,1.38c0.01,0.4 0.02,0.7 0.02,0.89c0,0.19 -0.01,0.49 -0.02,0.89c-0.02,0.51 -0.14,0.96 -0.35,1.37c-0.22,0.41 -0.53,0.74 -0.94,0.98c-0.41,0.24 -0.9,0.36 -1.47,0.36c-0.57,0 -1.05,-0.12 -1.46,-0.36c-0.41,-0.24 -0.73,-0.57 -0.94,-0.98c-0.22,-0.41 -0.34,-0.86 -0.36,-1.37c-0.01,-0.2 -0.01,-0.5 -0.01,-0.89c0,-0.39 0,-0.69 0.01,-0.89c0.01,-0.51 0.13,-0.97 0.35,-1.38c0.21,-0.41 0.53,-0.73 0.94,-0.97c0.41,-0.24 0.9,-0.36 1.47,-0.36zM230.635,191.04975c-0.53,0 -0.96,0.16 -1.29,0.47c-0.33,0.31 -0.5,0.78 -0.52,1.39c-0.01,0.2 -0.01,0.48 -0.01,0.84c0,0.36 0,0.64 0.01,0.84c0.02,0.61 0.19,1.08 0.52,1.39c0.33,0.31 0.76,0.47 1.29,0.47c0.53,0 0.96,-0.16 1.29,-0.47c0.33,-0.31 0.5,-0.78 0.52,-1.39c0.01,-0.4 0.02,-0.68 0.02,-0.84c0,-0.16 -0.01,-0.44 -0.02,-0.84c-0.02,-0.61 -0.19,-1.08 -0.52,-1.39c-0.33,-0.31 -0.76,-0.47 -1.29,-0.47z"/></g><g><path d="M239.905,190.24975c0.07,0 0.14,0.03 0.19,0.08c0.05,0.05 0.08,0.12 0.08,0.19v4c0,0.87 -0.22,1.56 -0.66,2.06c-0.45,0.51 -1.12,0.77 -2.03,0.77c-0.92,0 -1.6,-0.26 -2.03,-0.77c-0.44,-0.5 -0.66,-1.19 -0.66,-2.06v-4c0,-0.07 0.03,-0.14 0.08,-0.19c0.05,-0.05 0.12,-0.08 0.19,-0.08h0.41c0.07,0 0.14,0.03 0.19,0.08c0.05,0.05 0.08,0.12 0.08,0.19v4.05c0,0.64 0.15,1.12 0.46,1.44c0.3,0.33 0.73,0.49 1.28,0.49c0.55,0 0.98,-0.16 1.29,-0.49c0.31,-0.32 0.46,-0.8 0.46,-1.44v-4.05c0,-0.07 0.03,-0.14 0.08,-0.19c0.05,-0.05 0.12,-0.08 0.19,-0.08z"/></g><g><path d="M241.835,190.51975c0,-0.07 0.03,-0.14 0.08,-0.19c0.05,-0.05 0.12,-0.08 0.19,-0.08h2.68c0.53,0 0.95,0.1 1.28,0.3c0.33,0.21 0.56,0.45 0.7,0.74c0.14,0.29 0.21,0.57 0.21,0.84c0,0.37 -0.09,0.67 -0.27,0.9c-0.18,0.23 -0.36,0.4 -0.53,0.51c0.28,0.19 0.51,0.42 0.69,0.71c0.17,0.29 0.26,0.62 0.26,0.97c0,0.35 -0.08,0.67 -0.25,0.98c-0.17,0.31 -0.43,0.57 -0.76,0.76c-0.33,0.19 -0.73,0.29 -1.19,0.29h-2.82c-0.07,0 -0.14,-0.03 -0.19,-0.08c-0.05,-0.05 -0.08,-0.12 -0.08,-0.19zM242.785,193.16975h1.9c0.44,0 0.77,-0.09 1,-0.26c0.23,-0.17 0.34,-0.42 0.34,-0.75c0,-0.33 -0.11,-0.58 -0.34,-0.75c-0.23,-0.17 -0.56,-0.26 -1,-0.26h-1.9zM242.785,196.34975h2.04c0.43,0 0.76,-0.11 1,-0.33c0.23,-0.21 0.35,-0.48 0.35,-0.8c0,-0.33 -0.11,-0.6 -0.34,-0.82c-0.23,-0.22 -0.56,-0.33 -1.01,-0.33h-2.04z"/></g><g><path d="M252.845,196.34975c0.07,0 0.14,0.03 0.19,0.08c0.05,0.05 0.08,0.12 0.08,0.19v0.36c0,0.07 -0.03,0.14 -0.08,0.19c-0.05,0.05 -0.12,0.08 -0.19,0.08h-4.07c-0.07,0 -0.14,-0.03 -0.19,-0.08c-0.05,-0.05 -0.08,-0.12 -0.08,-0.19v-6.46c0,-0.07 0.03,-0.14 0.08,-0.19c0.05,-0.05 0.12,-0.08 0.19,-0.08h0.41c0.07,0 0.14,0.03 0.19,0.08c0.05,0.05 0.08,0.12 0.08,0.19v5.83z"/></g><g><path d="M255.115,196.34975h3.36c0.07,0 0.14,0.03 0.19,0.08c0.05,0.05 0.08,0.12 0.08,0.19v0.36c0,0.07 -0.03,0.14 -0.08,0.19c-0.05,0.05 -0.12,0.08 -0.19,0.08h-4.04c-0.07,0 -0.14,-0.03 -0.19,-0.08c-0.05,-0.05 -0.08,-0.12 -0.08,-0.19v-6.46c0,-0.07 0.03,-0.14 0.08,-0.19c0.05,-0.05 0.12,-0.08 0.19,-0.08h3.96c0.07,0 0.14,0.03 0.19,0.08c0.05,0.05 0.08,0.12 0.08,0.19v0.36c0,0.07 -0.03,0.14 -0.08,0.19c-0.05,0.05 -0.12,0.08 -0.19,0.08h-3.28v2.11h3.06c0.07,0 0.14,0.03 0.19,0.08c0.05,0.05 0.08,0.12 0.08,0.19v0.36c0,0.07 -0.03,0.14 -0.08,0.19c-0.05,0.05 -0.12,0.08 -0.19,0.08h-3.06z"/></g></g></g></g></g></svg>