<svg version="1.1" xmlns="http://www.w3.org/2000/svg" xmlns:xlink="http://www.w3.org/1999/xlink" width="36" height="34.5995" viewBox="0,0,36,34.5995"><g transform="translate(-222,-162.70025)"><g data-paper-data="{&quot;isPaintingLayer&quot;:true}" fill="#ffffff" stroke="none" stroke-width="1" stroke-linecap="butt" stroke-linejoin="round" stroke-miterlimit="2" stroke-dasharray="" stroke-dashoffset="0" style="mix-blend-mode: normal"><g><g fill-rule="evenodd"><path d="M258,162.70025v12h-12v12h-12v-12h-12v-12zM256.5,164.20025h-33v9h12v12h9v-12h12z"/></g><g fill-rule="nonzero"><g><path d="M234.185,167.16975c0,0.06 -0.02,0.11 -0.06,0.15c-0.05,0.05 -0.1,0.07 -0.15,0.07h-1.31c-0.09,0 -0.17,-0.01 -0.22,-0.04c-0.05,-0.02 -0.11,-0.06 -0.18,-0.12c-0.01,-0.01 -0.06,-0.06 -0.13,-0.14c-0.07,-0.07 -0.19,-0.14 -0.34,-0.2c-0.16,-0.06 -0.34,-0.09 -0.55,-0.09c-0.29,0 -0.52,0.04 -0.7,0.11c-0.19,0.08 -0.28,0.21 -0.28,0.4c0,0.13 0.06,0.24 0.17,0.31c0.11,0.08 0.29,0.15 0.53,0.21c0.23,0.06 0.64,0.15 1.23,0.27c0.75,0.15 1.31,0.39 1.66,0.72c0.35,0.33 0.53,0.79 0.53,1.4c0,0.44 -0.13,0.82 -0.39,1.15c-0.27,0.34 -0.63,0.59 -1.1,0.76c-0.47,0.18 -1.01,0.27 -1.6,0.27c-0.57,0 -1.09,-0.1 -1.56,-0.3c-0.47,-0.2 -0.83,-0.46 -1.1,-0.78c-0.27,-0.32 -0.41,-0.65 -0.42,-0.99c0,-0.06 0.02,-0.11 0.07,-0.16c0.04,-0.04 0.09,-0.06 0.14,-0.06h1.31c0.15,0 0.27,0.05 0.38,0.14c0.02,0.02 0.07,0.08 0.16,0.17c0.09,0.1 0.22,0.19 0.4,0.26c0.17,0.08 0.38,0.12 0.62,0.12c0.83,0 1.24,-0.18 1.24,-0.53c0,-0.11 -0.06,-0.21 -0.17,-0.29c-0.12,-0.07 -0.29,-0.14 -0.5,-0.19c-0.21,-0.05 -0.55,-0.13 -1.02,-0.23l-0.45,-0.09c-0.68,-0.15 -1.18,-0.39 -1.5,-0.74c-0.32,-0.34 -0.48,-0.8 -0.48,-1.37c0,-0.39 0.12,-0.75 0.35,-1.08c0.23,-0.32 0.57,-0.59 1,-0.79c0.43,-0.19 0.92,-0.29 1.48,-0.29c0.54,0 1.03,0.1 1.48,0.3c0.45,0.21 0.8,0.46 1.06,0.77c0.25,0.31 0.39,0.61 0.4,0.9z"/></g><g><path d="M238.515,165.29975c0.87,0 1.55,0.2 2.04,0.59c0.48,0.4 0.73,0.98 0.73,1.75c0,0.77 -0.25,1.35 -0.73,1.75c-0.49,0.4 -1.17,0.6 -2.04,0.6h-1.28v2.04c0,0.07 -0.03,0.14 -0.08,0.19c-0.05,0.05 -0.12,0.08 -0.19,0.08h-1.31c-0.07,0 -0.14,-0.03 -0.19,-0.08c-0.05,-0.05 -0.08,-0.12 -0.08,-0.19v-6.46c0,-0.07 0.03,-0.14 0.08,-0.19c0.05,-0.05 0.12,-0.08 0.19,-0.08zM238.465,168.42975c0.29,0 0.53,-0.07 0.71,-0.19c0.17,-0.14 0.26,-0.33 0.26,-0.6c0,-0.27 -0.09,-0.47 -0.26,-0.6c-0.18,-0.13 -0.42,-0.19 -0.71,-0.19h-1.23v1.58z"/></g><g><path d="M242.515,172.29975c-0.07,0 -0.14,-0.03 -0.19,-0.08c-0.05,-0.05 -0.08,-0.12 -0.08,-0.19v-6.46c0,-0.07 0.03,-0.14 0.08,-0.19c0.05,-0.05 0.12,-0.08 0.19,-0.08h1.31c0.07,0 0.14,0.03 0.19,0.08c0.05,0.05 0.08,0.12 0.08,0.19v6.46c0,0.07 -0.03,0.14 -0.08,0.19c-0.05,0.05 -0.12,0.08 -0.19,0.08z"/></g><g><path d="M250.045,172.29975c-0.1,0 -0.19,-0.03 -0.26,-0.08c-0.07,-0.05 -0.12,-0.1 -0.15,-0.15l-2.29,-3.42v3.38c0,0.07 -0.03,0.14 -0.08,0.19c-0.05,0.05 -0.12,0.08 -0.19,0.08h-1.31c-0.07,0 -0.14,-0.03 -0.19,-0.08c-0.05,-0.05 -0.08,-0.12 -0.08,-0.19v-6.46c0,-0.07 0.03,-0.14 0.08,-0.19c0.05,-0.05 0.12,-0.08 0.19,-0.08h1.04c0.1,0 0.19,0.02 0.26,0.07c0.07,0.05 0.12,0.11 0.15,0.16l2.29,3.42v-3.38c0,-0.07 0.03,-0.14 0.08,-0.19c0.05,-0.05 0.12,-0.08 0.19,-0.08h1.31c0.07,0 0.14,0.03 0.19,0.08c0.05,0.05 0.08,0.12 0.08,0.19v6.46c0,0.07 -0.03,0.14 -0.08,0.19c-0.05,0.05 -0.12,0.08 -0.19,0.08z"/></g><g><path d="M228.765,190.29975c0.07,0 0.14,0.03 0.19,0.08c0.05,0.05 0.08,0.12 0.08,0.19v0.36c0,0.07 -0.03,0.14 -0.08,0.19c-0.05,0.05 -0.12,0.08 -0.19,0.08h-1.87v5.83c0,0.07 -0.03,0.14 -0.08,0.19c-0.05,0.05 -0.12,0.08 -0.19,0.08h-0.41c-0.07,0 -0.14,-0.03 -0.19,-0.08c-0.05,-0.05 -0.08,-0.12 -0.08,-0.19v-5.83h-1.87c-0.07,0 -0.14,-0.03 -0.19,-0.08c-0.05,-0.05 -0.08,-0.12 -0.08,-0.19v-0.36c0,-0.07 0.03,-0.14 0.08,-0.19c0.05,-0.05 0.12,-0.08 0.19,-0.08z"/></g><g><path d="M232.815,190.29975c0.7,0 1.28,0.17 1.73,0.51c0.45,0.35 0.68,0.87 0.68,1.56c0,0.52 -0.13,0.94 -0.39,1.27c-0.26,0.33 -0.61,0.56 -1.05,0.7l1.51,2.63c0.02,0.04 0.03,0.08 0.03,0.11c0,0.06 -0.02,0.11 -0.06,0.15c-0.05,0.05 -0.1,0.07 -0.16,0.07h-0.43c-0.19,0 -0.33,-0.09 -0.43,-0.27l-1.45,-2.55h-1.72v2.55c0,0.07 -0.03,0.14 -0.08,0.19c-0.05,0.05 -0.12,0.08 -0.19,0.08h-0.41c-0.07,0 -0.14,-0.03 -0.19,-0.08c-0.05,-0.05 -0.08,-0.12 -0.08,-0.19v-6.46c0,-0.07 0.03,-0.14 0.08,-0.19c0.05,-0.05 0.12,-0.08 0.19,-0.08zM232.765,193.57975c1.01,0 1.51,-0.4 1.51,-1.21c0,-0.41 -0.13,-0.71 -0.38,-0.9c-0.25,-0.18 -0.63,-0.27 -1.13,-0.27h-1.69v2.38z"/></g><g><path d="M236.905,197.29975c-0.07,0 -0.14,-0.03 -0.19,-0.08c-0.05,-0.05 -0.08,-0.12 -0.08,-0.19v-6.46c0,-0.07 0.03,-0.14 0.08,-0.19c0.05,-0.05 0.12,-0.08 0.19,-0.08h0.41c0.07,0 0.14,0.03 0.19,0.08c0.05,0.05 0.08,0.12 0.08,0.19v6.46c0,0.07 -0.03,0.14 -0.08,0.19c-0.05,0.05 -0.12,0.08 -0.19,0.08z"/></g><g><path d="M242.095,190.29975c0.69,0 1.27,0.18 1.73,0.54c0.45,0.36 0.68,0.89 0.68,1.58c0,0.47 -0.11,0.86 -0.32,1.19c-0.22,0.33 -0.51,0.57 -0.87,0.73c-0.37,0.16 -0.77,0.24 -1.22,0.24h-1.84v2.45c0,0.07 -0.03,0.14 -0.08,0.19c-0.05,0.05 -0.12,0.08 -0.19,0.08h-0.41c-0.07,0 -0.14,-0.03 -0.19,-0.08c-0.05,-0.05 -0.08,-0.12 -0.08,-0.19v-6.46c0,-0.07 0.03,-0.14 0.08,-0.19c0.05,-0.05 0.12,-0.08 0.19,-0.08zM242.045,193.67975c0.49,0 0.86,-0.11 1.12,-0.32c0.26,-0.2 0.39,-0.52 0.39,-0.94c0,-0.81 -0.5,-1.22 -1.51,-1.22h-1.79v2.48z"/></g><g><path d="M250.045,196.39975c0.07,0 0.14,0.03 0.19,0.08c0.05,0.05 0.08,0.12 0.08,0.19v0.36c0,0.07 -0.03,0.14 -0.08,0.19c-0.05,0.05 -0.12,0.08 -0.19,0.08h-4.07c-0.07,0 -0.14,-0.03 -0.19,-0.08c-0.05,-0.05 -0.08,-0.12 -0.08,-0.19v-6.46c0,-0.07 0.03,-0.14 0.08,-0.19c0.05,-0.05 0.12,-0.08 0.19,-0.08h0.41c0.07,0 0.14,0.03 0.19,0.08c0.05,0.05 0.08,0.12 0.08,0.19v5.83z"/></g><g><path d="M252.315,196.39975h3.36c0.07,0 0.14,0.03 0.19,0.08c0.05,0.05 0.08,0.12 0.08,0.19v0.36c0,0.07 -0.03,0.14 -0.08,0.19c-0.05,0.05 -0.12,0.08 -0.19,0.08h-4.04c-0.07,0 -0.14,-0.03 -0.19,-0.08c-0.05,-0.05 -0.08,-0.12 -0.08,-0.19v-6.46c0,-0.07 0.03,-0.14 0.08,-0.19c0.05,-0.05 0.12,-0.08 0.19,-0.08h3.96c0.07,0 0.14,0.03 0.19,0.08c0.05,0.05 0.08,0.12 0.08,0.19v0.36c0,0.07 -0.03,0.14 -0.08,0.19c-0.05,0.05 -0.12,0.08 -0.19,0.08h-3.28v2.11h3.06c0.07,0 0.14,0.03 0.19,0.08c0.05,0.05 0.08,0.12 0.08,0.19v0.36c0,0.07 -0.03,0.14 -0.08,0.19c-0.05,0.05 -0.12,0.08 -0.19,0.08h-3.06z"/></g></g></g></g></g></svg>