<svg version="1.1" xmlns="http://www.w3.org/2000/svg" xmlns:xlink="http://www.w3.org/1999/xlink" width="36" height="24" viewBox="0,0,36,24"><g transform="translate(-222,-168)"><g data-paper-data="{&quot;isPaintingLayer&quot;:true}" fill="#ffffff" stroke="none" stroke-width="1" stroke-linecap="butt" stroke-linejoin="round" stroke-miterlimit="2" stroke-dasharray="" stroke-dashoffset="0" style="mix-blend-mode: normal"><g><g fill-rule="evenodd"><path d="M258,168v12h-12v12h-12v-12h-12v-12zM256.5,169.5h-33v9h12v12h9v-12h12z"/></g><g fill-rule="nonzero"><g><path d="M234.185,172.4695c0,0.06 -0.02,0.11 -0.06,0.15c-0.05,0.05 -0.1,0.07 -0.15,0.07h-1.31c-0.09,0 -0.17,-0.01 -0.22,-0.04c-0.05,-0.02 -0.11,-0.06 -0.18,-0.12c-0.01,-0.01 -0.06,-0.06 -0.13,-0.14c-0.07,-0.07 -0.19,-0.14 -0.34,-0.2c-0.16,-0.06 -0.34,-0.09 -0.55,-0.09c-0.29,0 -0.52,0.04 -0.7,0.11c-0.19,0.08 -0.28,0.21 -0.28,0.4c0,0.13 0.06,0.24 0.17,0.31c0.11,0.08 0.29,0.15 0.53,0.21c0.23,0.06 0.64,0.15 1.23,0.27c0.75,0.15 1.31,0.39 1.66,0.72c0.35,0.33 0.53,0.79 0.53,1.4c0,0.44 -0.13,0.82 -0.39,1.15c-0.27,0.34 -0.63,0.59 -1.1,0.76c-0.47,0.18 -1.01,0.27 -1.6,0.27c-0.57,0 -1.09,-0.1 -1.56,-0.3c-0.47,-0.2 -0.83,-0.46 -1.1,-0.78c-0.27,-0.32 -0.41,-0.65 -0.42,-0.99c0,-0.06 0.02,-0.11 0.07,-0.16c0.04,-0.04 0.09,-0.06 0.14,-0.06h1.31c0.15,0 0.27,0.05 0.38,0.14c0.02,0.02 0.07,0.08 0.16,0.17c0.09,0.1 0.22,0.19 0.4,0.26c0.17,0.08 0.38,0.12 0.62,0.12c0.83,0 1.24,-0.18 1.24,-0.53c0,-0.11 -0.06,-0.21 -0.17,-0.29c-0.12,-0.07 -0.29,-0.14 -0.5,-0.19c-0.21,-0.05 -0.55,-0.13 -1.02,-0.23l-0.45,-0.09c-0.68,-0.15 -1.18,-0.39 -1.5,-0.74c-0.32,-0.34 -0.48,-0.8 -0.48,-1.37c0,-0.39 0.12,-0.75 0.35,-1.08c0.23,-0.32 0.57,-0.59 1,-0.79c0.43,-0.19 0.92,-0.29 1.48,-0.29c0.54,0 1.03,0.1 1.48,0.3c0.45,0.21 0.8,0.46 1.06,0.77c0.25,0.31 0.39,0.61 0.4,0.9z"/></g><g><path d="M238.515,170.5995c0.87,0 1.55,0.2 2.04,0.59c0.48,0.4 0.73,0.98 0.73,1.75c0,0.77 -0.25,1.35 -0.73,1.75c-0.49,0.4 -1.17,0.6 -2.04,0.6h-1.28v2.04c0,0.07 -0.03,0.14 -0.08,0.19c-0.05,0.05 -0.12,0.08 -0.19,0.08h-1.31c-0.07,0 -0.14,-0.03 -0.19,-0.08c-0.05,-0.05 -0.08,-0.12 -0.08,-0.19v-6.46c0,-0.07 0.03,-0.14 0.08,-0.19c0.05,-0.05 0.12,-0.08 0.19,-0.08zM238.465,173.7295c0.29,0 0.53,-0.07 0.71,-0.19c0.17,-0.14 0.26,-0.33 0.26,-0.6c0,-0.27 -0.09,-0.47 -0.26,-0.6c-0.18,-0.13 -0.42,-0.19 -0.71,-0.19h-1.23v1.58z"/></g><g><path d="M242.515,177.5995c-0.07,0 -0.14,-0.03 -0.19,-0.08c-0.05,-0.05 -0.08,-0.12 -0.08,-0.19v-6.46c0,-0.07 0.03,-0.14 0.08,-0.19c0.05,-0.05 0.12,-0.08 0.19,-0.08h1.31c0.07,0 0.14,0.03 0.19,0.08c0.05,0.05 0.08,0.12 0.08,0.19v6.46c0,0.07 -0.03,0.14 -0.08,0.19c-0.05,0.05 -0.12,0.08 -0.19,0.08z"/></g><g><path d="M250.045,177.5995c-0.1,0 -0.19,-0.03 -0.26,-0.08c-0.07,-0.05 -0.12,-0.1 -0.15,-0.15l-2.29,-3.42v3.38c0,0.07 -0.03,0.14 -0.08,0.19c-0.05,0.05 -0.12,0.08 -0.19,0.08h-1.31c-0.07,0 -0.14,-0.03 -0.19,-0.08c-0.05,-0.05 -0.08,-0.12 -0.08,-0.19v-6.46c0,-0.07 0.03,-0.14 0.08,-0.19c0.05,-0.05 0.12,-0.08 0.19,-0.08h1.04c0.1,0 0.19,0.02 0.26,0.07c0.07,0.05 0.12,0.11 0.15,0.16l2.29,3.42v-3.38c0,-0.07 0.03,-0.14 0.08,-0.19c0.05,-0.05 0.12,-0.08 0.19,-0.08h1.31c0.07,0 0.14,0.03 0.19,0.08c0.05,0.05 0.08,0.12 0.08,0.19v6.46c0,0.07 -0.03,0.14 -0.08,0.19c-0.05,0.05 -0.12,0.08 -0.19,0.08z"/></g></g></g></g></g></svg>