<svg version="1.1" xmlns="http://www.w3.org/2000/svg" xmlns:xlink="http://www.w3.org/1999/xlink" width="281.04131" height="30.00001" viewBox="0,0,281.04131,30.00001"><defs><linearGradient x1="100.00017" y1="180.00004" x2="379.99982" y2="180.00004" gradientUnits="userSpaceOnUse" id="color-1"><stop offset="0" stop-color="#4749ab"/><stop offset="1" stop-color="#2c2e74"/></linearGradient><linearGradient x1="100.00017" y1="180.00004" x2="379.99982" y2="180.00004" gradientUnits="userSpaceOnUse" id="color-2"><stop offset="0" stop-color="#dd9751"/><stop offset="1" stop-color="#b85255"/></linearGradient></defs><g transform="translate(-100.00018,-165.00002)"><g data-paper-data="{&quot;isPaintingLayer&quot;:true}" stroke="none" stroke-width="1" stroke-linecap="butt" stroke-dasharray="" stroke-dashoffset="0" style="mix-blend-mode: normal"><path d="M381.04149,192.00004c0,1.6556 -1.34348,3 -3.00036,3h-275.04059c-1.65688,0 -3.00036,-1.3444 -3.00036,-3v-24.00001c0,-1.6556 1.34348,-3 3.00036,-3h275.04059c1.65688,0 3.00036,1.3444 3.00036,3z" fill="url(#color-1)" fill-rule="evenodd" stroke-linejoin="round" stroke-miterlimit="2"/><path d="M381.04149,192.00004c0,1.6556 -1.34348,3 -3.00036,3h-275.04059c-1.65688,0 -3.00036,-1.3444 -3.00036,-3v-24.00001c0,-1.6556 1.34348,-3 3.00036,-3h275.04059c1.65688,0 3.00036,1.3444 3.00036,3z" fill="url(#color-2)" fill-rule="evenodd" stroke-linejoin="round" stroke-miterlimit="2"/><text transform="translate(201.55588,183.73358) scale(0.3236,0.3236)" font-size="40" xml:space="preserve" fill="#ffffff" fill-rule="nonzero" stroke="none" stroke-width="1" stroke-linecap="butt" stroke-linejoin="miter" stroke-miterlimit="10" stroke-dasharray="" stroke-dashoffset="0" font-family="Sans Serif" font-weight="normal" text-anchor="start" style="mix-blend-mode: normal"><tspan x="0" dy="0">カスタマイズ</tspan></text></g></g></svg>