<svg version="1.1" xmlns="http://www.w3.org/2000/svg" xmlns:xlink="http://www.w3.org/1999/xlink" width="55.53" height="34.6995" viewBox="0,0,55.53,34.6995"><g transform="translate(-212.235,-162.65025)"><g data-paper-data="{&quot;isPaintingLayer&quot;:true}" fill="#ffffff" stroke="none" stroke-width="1" stroke-linecap="butt" stroke-linejoin="round" stroke-miterlimit="2" stroke-dasharray="" stroke-dashoffset="0" style="mix-blend-mode: normal"><g><g fill-rule="evenodd"><path d="M257.81,162.65025v12h-12v12h-12v-12h-12v-12zM256.31,164.15025h-33v9h12v12h9v-12h12z"/></g><g fill-rule="nonzero"><g><path d="M233.995,167.11975c0,0.06 -0.02,0.11 -0.06,0.15c-0.05,0.05 -0.1,0.07 -0.15,0.07h-1.31c-0.09,0 -0.17,-0.01 -0.22,-0.04c-0.05,-0.02 -0.11,-0.06 -0.18,-0.12c-0.01,-0.01 -0.06,-0.06 -0.13,-0.14c-0.07,-0.07 -0.19,-0.14 -0.34,-0.2c-0.16,-0.06 -0.34,-0.09 -0.55,-0.09c-0.29,0 -0.52,0.04 -0.7,0.11c-0.19,0.08 -0.28,0.21 -0.28,0.4c0,0.13 0.06,0.24 0.17,0.31c0.11,0.08 0.29,0.15 0.53,0.21c0.23,0.06 0.64,0.15 1.23,0.27c0.75,0.15 1.31,0.39 1.66,0.72c0.35,0.33 0.53,0.79 0.53,1.4c0,0.44 -0.13,0.82 -0.39,1.15c-0.27,0.34 -0.63,0.59 -1.1,0.76c-0.47,0.18 -1.01,0.27 -1.6,0.27c-0.57,0 -1.09,-0.1 -1.56,-0.3c-0.47,-0.2 -0.83,-0.46 -1.1,-0.78c-0.27,-0.32 -0.41,-0.65 -0.42,-0.99c0,-0.06 0.02,-0.11 0.07,-0.16c0.04,-0.04 0.09,-0.06 0.14,-0.06h1.31c0.15,0 0.27,0.05 0.38,0.14c0.02,0.02 0.07,0.08 0.16,0.17c0.09,0.1 0.22,0.19 0.4,0.26c0.17,0.08 0.38,0.12 0.62,0.12c0.83,0 1.24,-0.18 1.24,-0.53c0,-0.11 -0.06,-0.21 -0.17,-0.29c-0.12,-0.07 -0.29,-0.14 -0.5,-0.19c-0.21,-0.05 -0.55,-0.13 -1.02,-0.23l-0.45,-0.09c-0.68,-0.15 -1.18,-0.39 -1.5,-0.74c-0.32,-0.34 -0.48,-0.8 -0.48,-1.37c0,-0.39 0.12,-0.75 0.35,-1.08c0.23,-0.32 0.57,-0.59 1,-0.79c0.43,-0.19 0.92,-0.29 1.48,-0.29c0.54,0 1.03,0.1 1.48,0.3c0.45,0.21 0.8,0.46 1.06,0.77c0.25,0.31 0.39,0.61 0.4,0.9z"/></g><g><path d="M238.325,165.24975c0.87,0 1.55,0.2 2.04,0.59c0.48,0.4 0.73,0.98 0.73,1.75c0,0.77 -0.25,1.35 -0.73,1.75c-0.49,0.4 -1.17,0.6 -2.04,0.6h-1.28v2.04c0,0.07 -0.03,0.14 -0.08,0.19c-0.05,0.05 -0.12,0.08 -0.19,0.08h-1.31c-0.07,0 -0.14,-0.03 -0.19,-0.08c-0.05,-0.05 -0.08,-0.12 -0.08,-0.19v-6.46c0,-0.07 0.03,-0.14 0.08,-0.19c0.05,-0.05 0.12,-0.08 0.19,-0.08zM238.275,168.37975c0.29,0 0.53,-0.07 0.71,-0.19c0.17,-0.14 0.26,-0.33 0.26,-0.6c0,-0.27 -0.09,-0.47 -0.26,-0.6c-0.18,-0.13 -0.42,-0.19 -0.71,-0.19h-1.23v1.58z"/></g><g><path d="M242.325,172.24975c-0.07,0 -0.14,-0.03 -0.19,-0.08c-0.05,-0.05 -0.08,-0.12 -0.08,-0.19v-6.46c0,-0.07 0.03,-0.14 0.08,-0.19c0.05,-0.05 0.12,-0.08 0.19,-0.08h1.31c0.07,0 0.14,0.03 0.19,0.08c0.05,0.05 0.08,0.12 0.08,0.19v6.46c0,0.07 -0.03,0.14 -0.08,0.19c-0.05,0.05 -0.12,0.08 -0.19,0.08z"/></g><g><path d="M249.855,172.24975c-0.1,0 -0.19,-0.03 -0.26,-0.08c-0.07,-0.05 -0.12,-0.1 -0.15,-0.15l-2.29,-3.42v3.38c0,0.07 -0.03,0.14 -0.08,0.19c-0.05,0.05 -0.12,0.08 -0.19,0.08h-1.31c-0.07,0 -0.14,-0.03 -0.19,-0.08c-0.05,-0.05 -0.08,-0.12 -0.08,-0.19v-6.46c0,-0.07 0.03,-0.14 0.08,-0.19c0.05,-0.05 0.12,-0.08 0.19,-0.08h1.04c0.1,0 0.19,0.02 0.26,0.07c0.07,0.05 0.12,0.11 0.15,0.16l2.29,3.42v-3.38c0,-0.07 0.03,-0.14 0.08,-0.19c0.05,-0.05 0.12,-0.08 0.19,-0.08h1.31c0.07,0 0.14,0.03 0.19,0.08c0.05,0.05 0.08,0.12 0.08,0.19v6.46c0,0.07 -0.03,0.14 -0.08,0.19c-0.05,0.05 -0.12,0.08 -0.19,0.08z"/></g><g><path d="M217.365,190.56975c0.11,-0.21 0.25,-0.32 0.44,-0.32h0.38c0.07,0 0.14,0.03 0.19,0.08c0.05,0.05 0.08,0.12 0.08,0.19v6.46c0,0.07 -0.03,0.14 -0.08,0.19c-0.05,0.05 -0.12,0.08 -0.19,0.08h-0.41c-0.07,0 -0.14,-0.03 -0.19,-0.08c-0.05,-0.05 -0.08,-0.12 -0.08,-0.19v-4.74l-1.56,3.01c-0.05,0.11 -0.11,0.19 -0.17,0.24c-0.07,0.05 -0.15,0.08 -0.24,0.08h-0.38c-0.09,0 -0.17,-0.03 -0.23,-0.08c-0.07,-0.05 -0.13,-0.13 -0.18,-0.24l-1.56,-3.01v4.74c0,0.07 -0.03,0.14 -0.08,0.19c-0.05,0.05 -0.12,0.08 -0.19,0.08h-0.41c-0.07,0 -0.14,-0.03 -0.19,-0.08c-0.05,-0.05 -0.08,-0.12 -0.08,-0.19v-6.46c0,-0.07 0.03,-0.14 0.08,-0.19c0.05,-0.05 0.12,-0.08 0.19,-0.08h0.38c0.19,0 0.33,0.11 0.44,0.32l2.02,3.91z"/></g><g><path d="M220.445,197.24975c-0.07,0 -0.14,-0.03 -0.19,-0.08c-0.05,-0.05 -0.08,-0.12 -0.08,-0.19v-6.46c0,-0.07 0.03,-0.14 0.08,-0.19c0.05,-0.05 0.12,-0.08 0.19,-0.08h0.41c0.07,0 0.14,0.03 0.19,0.08c0.05,0.05 0.08,0.12 0.08,0.19v6.46c0,0.07 -0.03,0.14 -0.08,0.19c-0.05,0.05 -0.12,0.08 -0.19,0.08z"/></g><g><path d="M227.445,197.24975c-0.09,0 -0.16,-0.03 -0.22,-0.08c-0.06,-0.05 -0.12,-0.13 -0.18,-0.22l-3.25,-4.89v4.92c0,0.07 -0.03,0.14 -0.08,0.19c-0.05,0.05 -0.12,0.08 -0.19,0.08h-0.41c-0.07,0 -0.14,-0.03 -0.19,-0.08c-0.05,-0.05 -0.08,-0.12 -0.08,-0.19v-6.46c0,-0.07 0.03,-0.14 0.08,-0.19c0.05,-0.05 0.12,-0.08 0.19,-0.08h0.35c0.09,0 0.16,0.03 0.22,0.08c0.06,0.05 0.12,0.13 0.18,0.22l3.25,4.89v-4.92c0,-0.07 0.03,-0.14 0.08,-0.19c0.05,-0.05 0.12,-0.08 0.19,-0.08h0.41c0.07,0 0.14,0.03 0.19,0.08c0.05,0.05 0.08,0.12 0.08,0.19v6.46c0,0.07 -0.03,0.14 -0.08,0.19c-0.05,0.05 -0.12,0.08 -0.19,0.08z"/></g><g><path d="M230.055,197.24975c-0.07,0 -0.14,-0.03 -0.19,-0.08c-0.05,-0.05 -0.08,-0.12 -0.08,-0.19v-6.46c0,-0.07 0.03,-0.14 0.08,-0.19c0.05,-0.05 0.12,-0.08 0.19,-0.08h0.41c0.07,0 0.14,0.03 0.19,0.08c0.05,0.05 0.08,0.12 0.08,0.19v6.46c0,0.07 -0.03,0.14 -0.08,0.19c-0.05,0.05 -0.12,0.08 -0.19,0.08z"/></g><g><path d="M239.585,191.95975c0.01,0.06 -0.01,0.11 -0.06,0.15c-0.05,0.05 -0.1,0.07 -0.16,0.07h-0.41c-0.08,0 -0.14,-0.01 -0.18,-0.04c-0.04,-0.04 -0.08,-0.09 -0.13,-0.18c-0.11,-0.21 -0.29,-0.41 -0.55,-0.61c-0.27,-0.2 -0.62,-0.3 -1.05,-0.3c-0.4,0 -0.74,0.09 -1.01,0.27c-0.28,0.18 -0.42,0.44 -0.42,0.77c0,0.23 0.07,0.41 0.21,0.55c0.13,0.15 0.34,0.27 0.62,0.37c0.27,0.11 0.69,0.23 1.25,0.38c0.76,0.2 1.3,0.44 1.62,0.73c0.31,0.3 0.47,0.69 0.47,1.19c0,0.4 -0.11,0.75 -0.33,1.06c-0.23,0.31 -0.54,0.55 -0.95,0.72c-0.41,0.17 -0.88,0.26 -1.41,0.26c-0.49,0 -0.94,-0.09 -1.35,-0.28c-0.41,-0.19 -0.73,-0.43 -0.96,-0.72c-0.23,-0.28 -0.36,-0.57 -0.37,-0.86c0,-0.06 0.02,-0.11 0.07,-0.16c0.04,-0.04 0.09,-0.06 0.15,-0.06h0.41c0.07,0 0.13,0.01 0.18,0.04c0.05,0.03 0.09,0.09 0.13,0.18c0.11,0.24 0.3,0.46 0.59,0.66c0.28,0.2 0.66,0.3 1.15,0.3c0.49,0 0.9,-0.11 1.24,-0.32c0.33,-0.21 0.5,-0.48 0.5,-0.82c0,-0.22 -0.09,-0.4 -0.26,-0.56c-0.18,-0.15 -0.42,-0.27 -0.73,-0.38c-0.31,-0.1 -0.76,-0.23 -1.35,-0.38c-0.65,-0.17 -1.11,-0.41 -1.4,-0.73c-0.29,-0.31 -0.43,-0.7 -0.43,-1.17c0,-0.35 0.09,-0.67 0.27,-0.96c0.18,-0.29 0.45,-0.53 0.81,-0.71c0.36,-0.18 0.79,-0.27 1.3,-0.27c0.51,0 0.95,0.1 1.33,0.29c0.38,0.2 0.67,0.44 0.88,0.73c0.21,0.29 0.32,0.55 0.33,0.79z"/></g><g><path d="M241.345,197.24975c-0.07,0 -0.14,-0.03 -0.19,-0.08c-0.05,-0.05 -0.08,-0.12 -0.08,-0.19v-6.46c0,-0.07 0.03,-0.14 0.08,-0.19c0.05,-0.05 0.12,-0.08 0.19,-0.08h0.41c0.07,0 0.14,0.03 0.19,0.08c0.05,0.05 0.08,0.12 0.08,0.19v6.46c0,0.07 -0.03,0.14 -0.08,0.19c-0.05,0.05 -0.12,0.08 -0.19,0.08z"/></g><g><path d="M248.345,197.24975c-0.09,0 -0.16,-0.03 -0.22,-0.08c-0.06,-0.05 -0.12,-0.13 -0.18,-0.22l-3.25,-4.89v4.92c0,0.07 -0.03,0.14 -0.08,0.19c-0.05,0.05 -0.12,0.08 -0.19,0.08h-0.41c-0.07,0 -0.14,-0.03 -0.19,-0.08c-0.05,-0.05 -0.08,-0.12 -0.08,-0.19v-6.46c0,-0.07 0.03,-0.14 0.08,-0.19c0.05,-0.05 0.12,-0.08 0.19,-0.08h0.35c0.09,0 0.16,0.03 0.22,0.08c0.06,0.05 0.12,0.13 0.18,0.22l3.25,4.89v-4.92c0,-0.07 0.03,-0.14 0.08,-0.19c0.05,-0.05 0.12,-0.08 0.19,-0.08h0.41c0.07,0 0.14,0.03 0.19,0.08c0.05,0.05 0.08,0.12 0.08,0.19v6.46c0,0.07 -0.03,0.14 -0.08,0.19c-0.05,0.05 -0.12,0.08 -0.19,0.08z"/></g><g><path d="M253.285,190.14975c0.57,0 1.06,0.1 1.47,0.31c0.41,0.21 0.73,0.47 0.95,0.77c0.21,0.31 0.33,0.59 0.34,0.85c0.01,0.06 -0.01,0.11 -0.06,0.16c-0.05,0.04 -0.1,0.06 -0.16,0.06h-0.41c-0.15,0 -0.25,-0.04 -0.29,-0.11c-0.19,-0.37 -0.42,-0.66 -0.69,-0.85c-0.27,-0.19 -0.66,-0.29 -1.15,-0.29c-0.56,0 -1.01,0.16 -1.36,0.47c-0.35,0.32 -0.53,0.78 -0.55,1.37c-0.01,0.2 -0.01,0.48 -0.01,0.83c0,0.35 0,0.63 0.01,0.83c0.02,0.63 0.2,1.1 0.55,1.42c0.34,0.32 0.79,0.48 1.36,0.48c0.58,0 1.04,-0.15 1.39,-0.46c0.35,-0.3 0.52,-0.78 0.52,-1.43v-0.28h-1.44c-0.07,0 -0.14,-0.03 -0.19,-0.08c-0.05,-0.05 -0.08,-0.12 -0.08,-0.19v-0.36c0,-0.07 0.03,-0.14 0.08,-0.19c0.05,-0.05 0.12,-0.08 0.19,-0.08h2.12c0.07,0 0.14,0.03 0.19,0.08c0.05,0.05 0.08,0.12 0.08,0.19v0.95c0,0.53 -0.11,1.01 -0.34,1.42c-0.23,0.42 -0.55,0.75 -0.98,0.98c-0.43,0.23 -0.95,0.35 -1.54,0.35c-0.92,0 -1.62,-0.26 -2.1,-0.77c-0.48,-0.5 -0.73,-1.17 -0.76,-1.98c-0.01,-0.2 -0.01,-0.49 -0.01,-0.88c0,-0.39 0,-0.68 0.01,-0.88c0.02,-0.51 0.14,-0.97 0.35,-1.38c0.21,-0.4 0.52,-0.72 0.95,-0.96c0.42,-0.23 0.94,-0.35 1.56,-0.35z"/></g><g><path d="M261.865,196.34975c0.07,0 0.14,0.03 0.19,0.08c0.05,0.05 0.08,0.12 0.08,0.19v0.36c0,0.07 -0.03,0.14 -0.08,0.19c-0.05,0.05 -0.12,0.08 -0.19,0.08h-4.07c-0.07,0 -0.14,-0.03 -0.19,-0.08c-0.05,-0.05 -0.08,-0.12 -0.08,-0.19v-6.46c0,-0.07 0.03,-0.14 0.08,-0.19c0.05,-0.05 0.12,-0.08 0.19,-0.08h0.41c0.07,0 0.14,0.03 0.19,0.08c0.05,0.05 0.08,0.12 0.08,0.19v5.83z"/></g><g><path d="M264.135,196.34975h3.36c0.07,0 0.14,0.03 0.19,0.08c0.05,0.05 0.08,0.12 0.08,0.19v0.36c0,0.07 -0.03,0.14 -0.08,0.19c-0.05,0.05 -0.12,0.08 -0.19,0.08h-4.04c-0.07,0 -0.14,-0.03 -0.19,-0.08c-0.05,-0.05 -0.08,-0.12 -0.08,-0.19v-6.46c0,-0.07 0.03,-0.14 0.08,-0.19c0.05,-0.05 0.12,-0.08 0.19,-0.08h3.96c0.07,0 0.14,0.03 0.19,0.08c0.05,0.05 0.08,0.12 0.08,0.19v0.36c0,0.07 -0.03,0.14 -0.08,0.19c-0.05,0.05 -0.12,0.08 -0.19,0.08h-3.28v2.11h3.06c0.07,0 0.14,0.03 0.19,0.08c0.05,0.05 0.08,0.12 0.08,0.19v0.36c0,0.07 -0.03,0.14 -0.08,0.19c-0.05,0.05 -0.12,0.08 -0.19,0.08h-3.06z"/></g></g></g></g></g></svg>