<svg version="1.1" xmlns="http://www.w3.org/2000/svg" xmlns:xlink="http://www.w3.org/1999/xlink" width="241.3139" height="259.80431" viewBox="0,0,241.3139,259.80431"><g transform="translate(-119.00018,-34.00039)"><g data-paper-data="{&quot;isPaintingLayer&quot;:true}" fill="#ffffff" fill-rule="nonzero" stroke="none" stroke-width="1" stroke-linecap="butt" stroke-linejoin="round" stroke-miterlimit="2" stroke-dasharray="" stroke-dashoffset="0" style="mix-blend-mode: normal"><g><g><path d="M325.3463,234.8047c-0.063,0 -0.108,-0.018 -0.144,-0.054c-0.036,-0.036 -0.054,-0.081 -0.054,-0.144v-5.904c0,-0.063 0.018,-0.108 0.054,-0.144c0.036,-0.036 0.081,-0.054 0.144,-0.054h0.171c0.063,0 0.108,0.018 0.144,0.054c0.036,0.036 0.054,0.081 0.054,0.144v5.562h3.105c0.063,0 0.117,0.018 0.153,0.054c0.036,0.036 0.054,0.09 0.054,0.153v0.135c0,0.063 -0.018,0.108 -0.054,0.144c-0.036,0.036 -0.09,0.054 -0.153,0.054z"/></g><g><path d="M330.2783,234.8047c-0.063,0 -0.108,-0.018 -0.144,-0.054c-0.036,-0.036 -0.054,-0.081 -0.054,-0.144v-5.904c0,-0.063 0.018,-0.108 0.054,-0.144c0.036,-0.036 0.081,-0.054 0.144,-0.054h0.171c0.063,0 0.108,0.018 0.144,0.054c0.036,0.036 0.054,0.081 0.054,0.144v5.904c0,0.063 -0.018,0.108 -0.054,0.144c-0.036,0.036 -0.081,0.054 -0.144,0.054z"/></g><g><path d="M332.5373,234.8047c-0.063,0 -0.108,-0.018 -0.144,-0.054c-0.036,-0.036 -0.054,-0.081 -0.054,-0.144v-5.895c0,-0.063 0.018,-0.117 0.054,-0.153c0.036,-0.036 0.081,-0.054 0.144,-0.054h0.189c0.063,0 0.108,0.018 0.135,0.045c0.027,0.027 0.045,0.054 0.054,0.063l3.321,5.076v-4.977c0,-0.063 0.018,-0.117 0.054,-0.153c0.036,-0.036 0.081,-0.054 0.144,-0.054h0.162c0.063,0 0.117,0.018 0.153,0.054c0.036,0.036 0.054,0.09 0.054,0.153v5.886c0,0.063 -0.018,0.108 -0.054,0.144c-0.036,0.045 -0.081,0.063 -0.144,0.063h-0.198c-0.063,0 -0.099,-0.018 -0.126,-0.045c-0.027,-0.027 -0.054,-0.054 -0.063,-0.063l-3.312,-5.058v4.968c0,0.063 -0.018,0.108 -0.054,0.144c-0.036,0.036 -0.09,0.054 -0.153,0.054z"/></g><g><path d="M338.6933,234.8047c-0.063,0 -0.108,-0.018 -0.144,-0.054c-0.036,-0.036 -0.054,-0.081 -0.054,-0.144v-5.895c0,-0.063 0.018,-0.117 0.054,-0.153c0.036,-0.036 0.081,-0.054 0.144,-0.054h3.51c0.063,0 0.117,0.018 0.153,0.054c0.036,0.036 0.054,0.09 0.054,0.153v0.135c0,0.063 -0.018,0.108 -0.054,0.144c-0.036,0.036 -0.09,0.054 -0.153,0.054h-3.141v2.295h2.943c0.063,0 0.117,0.018 0.153,0.054c0.036,0.036 0.054,0.09 0.054,0.153v0.135c0,0.063 -0.018,0.108 -0.054,0.144c-0.036,0.036 -0.09,0.054 -0.153,0.054h-2.943v2.385h3.213c0.063,0 0.117,0.018 0.153,0.054c0.036,0.036 0.054,0.09 0.054,0.153v0.135c0,0.063 -0.018,0.108 -0.054,0.144c-0.036,0.036 -0.09,0.054 -0.153,0.054z"/></g><g><path d="M345.7133,234.8947c-0.486,0 -0.9,-0.081 -1.233,-0.234c-0.342,-0.153 -0.603,-0.36 -0.783,-0.603c-0.18,-0.243 -0.279,-0.504 -0.288,-0.783c0,-0.045 0.018,-0.09 0.054,-0.126c0.036,-0.036 0.081,-0.054 0.135,-0.054h0.18c0.063,0 0.108,0.018 0.144,0.054c0.027,0.036 0.045,0.081 0.054,0.126c0.027,0.171 0.099,0.333 0.225,0.495c0.126,0.171 0.315,0.306 0.558,0.414c0.243,0.117 0.567,0.171 0.954,0.171c0.585,0 1.017,-0.108 1.287,-0.324c0.27,-0.207 0.405,-0.495 0.405,-0.855c0,-0.243 -0.072,-0.432 -0.207,-0.585c-0.144,-0.144 -0.36,-0.279 -0.648,-0.396c-0.288,-0.117 -0.657,-0.243 -1.107,-0.387c-0.423,-0.135 -0.774,-0.279 -1.053,-0.432c-0.279,-0.144 -0.477,-0.324 -0.603,-0.531c-0.135,-0.207 -0.198,-0.477 -0.198,-0.81c0,-0.306 0.081,-0.585 0.243,-0.828c0.162,-0.243 0.396,-0.432 0.702,-0.576c0.315,-0.144 0.693,-0.216 1.134,-0.216c0.351,0 0.666,0.045 0.927,0.144c0.261,0.099 0.486,0.225 0.657,0.378c0.171,0.162 0.306,0.333 0.396,0.513c0.09,0.189 0.135,0.369 0.144,0.54c0,0.045 -0.018,0.081 -0.045,0.117c-0.027,0.045 -0.081,0.063 -0.144,0.063h-0.18c-0.027,0 -0.063,-0.009 -0.108,-0.036c-0.054,-0.027 -0.081,-0.072 -0.09,-0.144c-0.036,-0.297 -0.189,-0.549 -0.468,-0.747c-0.279,-0.189 -0.648,-0.288 -1.089,-0.288c-0.441,0 -0.81,0.09 -1.089,0.261c-0.279,0.171 -0.423,0.45 -0.423,0.819c0,0.243 0.063,0.432 0.189,0.585c0.126,0.153 0.324,0.288 0.594,0.405c0.27,0.126 0.621,0.252 1.044,0.387c0.45,0.144 0.819,0.288 1.116,0.432c0.297,0.144 0.513,0.315 0.657,0.522c0.144,0.207 0.216,0.477 0.216,0.81c0,0.369 -0.09,0.675 -0.27,0.927c-0.189,0.261 -0.45,0.45 -0.783,0.585c-0.333,0.135 -0.738,0.207 -1.206,0.207z"/></g></g><g><g><path d="M327.0383,265.8947c-0.486,0 -0.9,-0.081 -1.233,-0.234c-0.342,-0.153 -0.603,-0.36 -0.783,-0.603c-0.18,-0.243 -0.279,-0.504 -0.288,-0.783c0,-0.045 0.018,-0.09 0.054,-0.126c0.036,-0.036 0.081,-0.054 0.135,-0.054h0.18c0.063,0 0.108,0.018 0.144,0.054c0.027,0.036 0.045,0.081 0.054,0.126c0.027,0.171 0.099,0.333 0.225,0.495c0.126,0.171 0.315,0.306 0.558,0.414c0.243,0.117 0.567,0.171 0.954,0.171c0.585,0 1.017,-0.108 1.287,-0.324c0.27,-0.207 0.405,-0.495 0.405,-0.855c0,-0.243 -0.072,-0.432 -0.207,-0.585c-0.144,-0.144 -0.36,-0.279 -0.648,-0.396c-0.288,-0.117 -0.657,-0.243 -1.107,-0.387c-0.423,-0.135 -0.774,-0.279 -1.053,-0.432c-0.279,-0.144 -0.477,-0.324 -0.603,-0.531c-0.135,-0.207 -0.198,-0.477 -0.198,-0.81c0,-0.306 0.081,-0.585 0.243,-0.828c0.162,-0.243 0.396,-0.432 0.702,-0.576c0.315,-0.144 0.693,-0.216 1.134,-0.216c0.351,0 0.666,0.045 0.927,0.144c0.261,0.099 0.486,0.225 0.657,0.378c0.171,0.162 0.306,0.333 0.396,0.513c0.09,0.189 0.135,0.369 0.144,0.54c0,0.045 -0.018,0.081 -0.045,0.117c-0.027,0.045 -0.081,0.063 -0.144,0.063h-0.18c-0.027,0 -0.063,-0.009 -0.108,-0.036c-0.054,-0.027 -0.081,-0.072 -0.09,-0.144c-0.036,-0.297 -0.189,-0.549 -0.468,-0.747c-0.279,-0.189 -0.648,-0.288 -1.089,-0.288c-0.441,0 -0.81,0.09 -1.089,0.261c-0.279,0.171 -0.423,0.45 -0.423,0.819c0,0.243 0.063,0.432 0.189,0.585c0.126,0.153 0.324,0.288 0.594,0.405c0.27,0.126 0.621,0.252 1.044,0.387c0.45,0.144 0.819,0.288 1.116,0.432c0.297,0.144 0.513,0.315 0.657,0.522c0.144,0.207 0.216,0.477 0.216,0.81c0,0.369 -0.09,0.675 -0.27,0.927c-0.189,0.261 -0.45,0.45 -0.783,0.585c-0.333,0.135 -0.738,0.207 -1.206,0.207z"/></g><g><path d="M332.7263,265.8947c-0.549,0 -0.99,-0.108 -1.332,-0.315c-0.351,-0.216 -0.603,-0.504 -0.774,-0.873c-0.171,-0.369 -0.261,-0.783 -0.279,-1.251c-0.009,-0.243 -0.009,-0.513 -0.009,-0.792c0,-0.279 0,-0.549 0.009,-0.81c0.018,-0.468 0.108,-0.891 0.279,-1.26c0.171,-0.369 0.423,-0.657 0.774,-0.864c0.342,-0.207 0.783,-0.315 1.332,-0.315c0.423,0 0.792,0.063 1.089,0.18c0.297,0.117 0.549,0.279 0.738,0.477c0.189,0.189 0.324,0.396 0.423,0.621c0.09,0.225 0.144,0.45 0.153,0.666c0.009,0.054 -0.009,0.099 -0.045,0.126c-0.045,0.036 -0.09,0.054 -0.144,0.054h-0.18c-0.045,0 -0.09,-0.009 -0.126,-0.036c-0.036,-0.036 -0.063,-0.081 -0.072,-0.153c-0.117,-0.531 -0.324,-0.9 -0.639,-1.098c-0.315,-0.198 -0.72,-0.297 -1.197,-0.297c-0.549,0 -0.981,0.153 -1.296,0.459c-0.324,0.315 -0.495,0.81 -0.522,1.485c-0.018,0.495 -0.018,0.999 0,1.512c0.027,0.675 0.198,1.17 0.522,1.476c0.315,0.315 0.747,0.468 1.296,0.468c0.477,0 0.882,-0.099 1.197,-0.297c0.315,-0.198 0.522,-0.567 0.639,-1.098c0.009,-0.072 0.036,-0.126 0.072,-0.153c0.036,-0.027 0.081,-0.036 0.126,-0.036h0.18c0.054,0 0.099,0.018 0.144,0.045c0.036,0.036 0.054,0.081 0.045,0.135c-0.009,0.216 -0.063,0.432 -0.153,0.657c-0.099,0.225 -0.234,0.441 -0.423,0.63c-0.189,0.198 -0.441,0.36 -0.738,0.477c-0.297,0.117 -0.666,0.18 -1.089,0.18z"/></g><g><path d="M338.5853,265.8947c-0.495,0 -0.918,-0.09 -1.269,-0.27c-0.351,-0.171 -0.612,-0.45 -0.801,-0.819c-0.189,-0.369 -0.288,-0.828 -0.306,-1.395c-0.009,-0.27 -0.009,-0.522 -0.009,-0.756c0,-0.234 0,-0.486 0.009,-0.756c0.018,-0.558 0.126,-1.026 0.324,-1.395c0.198,-0.36 0.477,-0.639 0.828,-0.819c0.351,-0.18 0.756,-0.27 1.224,-0.27c0.468,0 0.882,0.09 1.233,0.27c0.342,0.18 0.621,0.459 0.828,0.819c0.198,0.369 0.306,0.837 0.315,1.395c0.009,0.27 0.018,0.522 0.018,0.756c0,0.234 -0.009,0.486 -0.018,0.756c-0.009,0.567 -0.108,1.026 -0.297,1.395c-0.189,0.369 -0.459,0.648 -0.81,0.819c-0.351,0.18 -0.774,0.27 -1.269,0.27zM338.5853,265.3547c0.513,0 0.945,-0.153 1.269,-0.468c0.333,-0.315 0.513,-0.819 0.54,-1.521c0.009,-0.27 0.018,-0.504 0.018,-0.711c0,-0.207 -0.009,-0.441 -0.018,-0.711c-0.009,-0.468 -0.099,-0.846 -0.261,-1.143c-0.153,-0.297 -0.369,-0.513 -0.63,-0.639c-0.27,-0.144 -0.576,-0.207 -0.918,-0.207c-0.333,0 -0.639,0.063 -0.9,0.207c-0.27,0.126 -0.486,0.342 -0.639,0.639c-0.162,0.297 -0.252,0.675 -0.27,1.143c-0.009,0.27 -0.009,0.504 -0.009,0.711c0,0.207 0,0.441 0.009,0.711c0.027,0.702 0.207,1.206 0.54,1.521c0.333,0.315 0.756,0.468 1.269,0.468z"/></g><g><path d="M342.6083,265.8047c-0.063,0 -0.108,-0.018 -0.144,-0.054c-0.036,-0.036 -0.054,-0.081 -0.054,-0.144v-5.895c0,-0.063 0.018,-0.117 0.054,-0.153c0.036,-0.036 0.081,-0.054 0.144,-0.054h2.097c0.63,0 1.134,0.153 1.512,0.45c0.369,0.297 0.558,0.756 0.558,1.368c0,0.477 -0.117,0.864 -0.36,1.152c-0.243,0.288 -0.576,0.486 -0.999,0.585l1.449,2.466c0.018,0.036 0.027,0.072 0.027,0.099c0,0.045 -0.018,0.09 -0.054,0.126c-0.036,0.036 -0.081,0.054 -0.126,0.054h-0.108c-0.099,0 -0.171,-0.027 -0.216,-0.081c-0.045,-0.045 -0.09,-0.099 -0.126,-0.162l-1.431,-2.421h-1.854v2.466c0,0.063 -0.018,0.108 -0.054,0.144c-0.036,0.036 -0.09,0.054 -0.153,0.054zM342.9773,262.6007h1.683c0.522,0 0.909,-0.108 1.161,-0.324c0.261,-0.207 0.387,-0.531 0.387,-0.954c0,-0.423 -0.126,-0.747 -0.387,-0.963c-0.252,-0.207 -0.639,-0.315 -1.161,-0.315h-1.683z"/></g><g><path d="M348.3683,265.8047c-0.063,0 -0.108,-0.018 -0.144,-0.054c-0.036,-0.036 -0.054,-0.081 -0.054,-0.144v-5.895c0,-0.063 0.018,-0.117 0.054,-0.153c0.036,-0.036 0.081,-0.054 0.144,-0.054h3.51c0.063,0 0.117,0.018 0.153,0.054c0.036,0.036 0.054,0.09 0.054,0.153v0.135c0,0.063 -0.018,0.108 -0.054,0.144c-0.036,0.036 -0.09,0.054 -0.153,0.054h-3.141v2.295h2.943c0.063,0 0.117,0.018 0.153,0.054c0.036,0.036 0.054,0.09 0.054,0.153v0.135c0,0.063 -0.018,0.108 -0.054,0.144c-0.036,0.036 -0.09,0.054 -0.153,0.054h-2.943v2.385h3.213c0.063,0 0.117,0.018 0.153,0.054c0.036,0.036 0.054,0.09 0.054,0.153v0.135c0,0.063 -0.018,0.108 -0.054,0.144c-0.036,0.036 -0.09,0.054 -0.153,0.054z"/></g></g><g><g><path d="M326.7233,293.8047c-0.063,0 -0.108,-0.018 -0.144,-0.054c-0.036,-0.036 -0.054,-0.081 -0.054,-0.144v-5.562h-1.782c-0.063,0 -0.108,-0.018 -0.144,-0.054c-0.036,-0.036 -0.054,-0.081 -0.054,-0.144v-0.135c0,-0.063 0.018,-0.117 0.054,-0.153c0.036,-0.036 0.081,-0.054 0.144,-0.054h4.122c0.063,0 0.117,0.018 0.153,0.054c0.036,0.036 0.054,0.09 0.054,0.153v0.135c0,0.063 -0.018,0.108 -0.054,0.144c-0.036,0.036 -0.09,0.054 -0.153,0.054h-1.773v5.562c0,0.063 -0.018,0.108 -0.054,0.144c-0.036,0.036 -0.09,0.054 -0.153,0.054z"/></g><g><path d="M330.3593,293.8047c-0.063,0 -0.108,-0.018 -0.144,-0.054c-0.036,-0.036 -0.054,-0.081 -0.054,-0.144v-5.904c0,-0.063 0.018,-0.108 0.054,-0.144c0.036,-0.036 0.081,-0.054 0.144,-0.054h0.171c0.063,0 0.108,0.018 0.144,0.054c0.036,0.036 0.054,0.081 0.054,0.144v5.904c0,0.063 -0.018,0.108 -0.054,0.144c-0.036,0.036 -0.081,0.054 -0.144,0.054z"/></g><g><path d="M332.6273,293.8047c-0.063,0 -0.108,-0.018 -0.144,-0.054c-0.045,-0.036 -0.063,-0.081 -0.063,-0.144v-5.895c0,-0.063 0.018,-0.117 0.063,-0.153c0.036,-0.036 0.081,-0.054 0.144,-0.054h0.225c0.063,0 0.108,0.018 0.135,0.045c0.027,0.027 0.045,0.054 0.054,0.072l2.043,3.978l2.052,-3.978c0.009,-0.018 0.036,-0.045 0.063,-0.072c0.018,-0.027 0.063,-0.045 0.126,-0.045h0.216c0.063,0 0.117,0.018 0.153,0.054c0.036,0.036 0.054,0.09 0.054,0.153v5.895c0,0.063 -0.018,0.108 -0.054,0.144c-0.036,0.036 -0.09,0.054 -0.153,0.054h-0.162c-0.063,0 -0.108,-0.018 -0.144,-0.054c-0.036,-0.036 -0.054,-0.081 -0.054,-0.144v-4.878l-1.719,3.384c-0.027,0.063 -0.054,0.108 -0.099,0.135c-0.045,0.027 -0.108,0.045 -0.18,0.045h-0.198c-0.072,0 -0.126,-0.018 -0.171,-0.045c-0.045,-0.027 -0.081,-0.072 -0.108,-0.135l-1.719,-3.384v4.878c0,0.063 -0.018,0.108 -0.054,0.144c-0.036,0.036 -0.081,0.054 -0.144,0.054z"/></g><g><path d="M339.6383,293.8047c-0.063,0 -0.108,-0.018 -0.144,-0.054c-0.036,-0.036 -0.054,-0.081 -0.054,-0.144v-5.895c0,-0.063 0.018,-0.117 0.054,-0.153c0.036,-0.036 0.081,-0.054 0.144,-0.054h3.51c0.063,0 0.117,0.018 0.153,0.054c0.036,0.036 0.054,0.09 0.054,0.153v0.135c0,0.063 -0.018,0.108 -0.054,0.144c-0.036,0.036 -0.09,0.054 -0.153,0.054h-3.141v2.295h2.943c0.063,0 0.117,0.018 0.153,0.054c0.036,0.036 0.054,0.09 0.054,0.153v0.135c0,0.063 -0.018,0.108 -0.054,0.144c-0.036,0.036 -0.09,0.054 -0.153,0.054h-2.943v2.385h3.213c0.063,0 0.117,0.018 0.153,0.054c0.036,0.036 0.054,0.09 0.054,0.153v0.135c0,0.063 -0.018,0.108 -0.054,0.144c-0.036,0.036 -0.09,0.054 -0.153,0.054z"/></g></g><g><g><path d="M209.55049,43.46439v-9.308h6.903v1.573h-5.031v2.067h4.68v1.573h-4.68v2.522h5.2v1.573z"/></g><g><path d="M218.23449,43.46439v-9.308h1.833l3.809,6.214v-6.214h1.742v9.308h-1.885l-3.757,-6.071v6.071z"/></g><g><path d="M227.59649,34.15639h3.432c0.78,0 1.365,0.065 1.781,0.182c0.546,0.156 1.014,0.442 1.404,0.858c0.39,0.403 0.676,0.91 0.884,1.508c0.208,0.585 0.299,1.326 0.299,2.197c0,0.767 -0.091,1.43 -0.286,1.976c-0.234,0.676 -0.559,1.235 -0.988,1.651c-0.325,0.312 -0.767,0.559 -1.326,0.741c-0.416,0.13 -0.962,0.195 -1.664,0.195h-3.536zM229.48149,35.72939v6.162h1.404c0.52,0 0.897,-0.026 1.131,-0.078c0.312,-0.078 0.559,-0.208 0.754,-0.39c0.208,-0.182 0.377,-0.481 0.494,-0.897c0.13,-0.416 0.195,-0.988 0.195,-1.703c0,-0.728 -0.065,-1.274 -0.195,-1.664c-0.117,-0.377 -0.299,-0.689 -0.533,-0.897c-0.221,-0.221 -0.52,-0.364 -0.871,-0.442c-0.26,-0.052 -0.767,-0.091 -1.534,-0.091z"/></g><g><path d="M237.04949,43.46439v-9.23h1.872v7.657h4.68v1.573z"/></g><g><path d="M244.93849,43.46439v-9.308h6.903v1.573h-5.031v2.067h4.68v1.573h-4.68v2.522h5.2v1.573z"/></g><g><path d="M253.12849,40.43539l1.833,-0.182c0.104,0.624 0.325,1.066 0.663,1.352c0.338,0.299 0.793,0.442 1.365,0.442c0.611,0 1.066,-0.13 1.365,-0.39c0.312,-0.26 0.468,-0.559 0.468,-0.897c0,-0.221 -0.065,-0.403 -0.195,-0.559c-0.13,-0.156 -0.364,-0.286 -0.676,-0.403c-0.221,-0.078 -0.728,-0.221 -1.508,-0.403c-1.001,-0.26 -1.716,-0.559 -2.119,-0.923c-0.572,-0.52 -0.858,-1.144 -0.858,-1.872c0,-0.481 0.13,-0.923 0.403,-1.339c0.273,-0.403 0.65,-0.728 1.157,-0.936c0.507,-0.221 1.118,-0.325 1.833,-0.325c1.17,0 2.054,0.26 2.639,0.767c0.598,0.507 0.897,1.196 0.936,2.054l-1.885,0.078c-0.078,-0.481 -0.247,-0.819 -0.52,-1.027c-0.26,-0.208 -0.663,-0.312 -1.183,-0.312c-0.546,0 -0.975,0.104 -1.287,0.325c-0.195,0.156 -0.299,0.338 -0.299,0.585c0,0.221 0.091,0.403 0.286,0.559c0.234,0.208 0.806,0.416 1.716,0.624c0.923,0.221 1.599,0.442 2.028,0.676c0.442,0.221 0.793,0.546 1.04,0.936c0.247,0.403 0.364,0.897 0.364,1.495c0,0.533 -0.143,1.027 -0.442,1.495c-0.299,0.468 -0.715,0.806 -1.261,1.04c-0.533,0.221 -1.209,0.338 -2.015,0.338c-1.183,0 -2.08,-0.273 -2.717,-0.819c-0.624,-0.546 -1.001,-1.339 -1.131,-2.379z"/></g><g><path d="M261.79949,40.43539l1.833,-0.182c0.104,0.624 0.325,1.066 0.663,1.352c0.338,0.299 0.793,0.442 1.365,0.442c0.611,0 1.066,-0.13 1.365,-0.39c0.312,-0.26 0.468,-0.559 0.468,-0.897c0,-0.221 -0.065,-0.403 -0.195,-0.559c-0.13,-0.156 -0.364,-0.286 -0.676,-0.403c-0.221,-0.078 -0.728,-0.221 -1.508,-0.403c-1.001,-0.26 -1.716,-0.559 -2.119,-0.923c-0.572,-0.52 -0.858,-1.144 -0.858,-1.872c0,-0.481 0.13,-0.923 0.403,-1.339c0.273,-0.403 0.65,-0.728 1.157,-0.936c0.507,-0.221 1.118,-0.325 1.833,-0.325c1.17,0 2.054,0.26 2.639,0.767c0.598,0.507 0.897,1.196 0.936,2.054l-1.885,0.078c-0.078,-0.481 -0.247,-0.819 -0.52,-1.027c-0.26,-0.208 -0.663,-0.312 -1.183,-0.312c-0.546,0 -0.975,0.104 -1.287,0.325c-0.195,0.156 -0.299,0.338 -0.299,0.585c0,0.221 0.091,0.403 0.286,0.559c0.234,0.208 0.806,0.416 1.716,0.624c0.923,0.221 1.599,0.442 2.028,0.676c0.442,0.221 0.793,0.546 1.04,0.936c0.247,0.403 0.364,0.897 0.364,1.495c0,0.533 -0.143,1.027 -0.442,1.495c-0.299,0.468 -0.715,0.806 -1.261,1.04c-0.533,0.221 -1.209,0.338 -2.015,0.338c-1.183,0 -2.08,-0.273 -2.717,-0.819c-0.624,-0.546 -1.001,-1.339 -1.131,-2.379z"/></g></g><g><g><g><path d="M329.46008,56.7325v-8.592h1.164l4.512,6.744v-6.744h1.092v8.592h-1.164l-4.512,-6.756v6.756z"/></g><g><path d="M338.16208,56.7325v-8.592h6.216v1.02h-5.076v2.628h4.752v1.008h-4.752v2.928h5.268v1.008z"/></g><g><path d="M345.26608,56.7325l3.324,-4.476l-2.928,-4.116h1.356l1.56,2.208c0.324,0.456 0.552,0.804 0.684,1.056c0.192,-0.312 0.42,-0.648 0.684,-0.984l1.728,-2.28h1.236l-3.012,4.056l3.252,4.536h-1.416l-2.16,-3.06c-0.12,-0.18 -0.24,-0.372 -0.372,-0.576c-0.192,0.312 -0.324,0.528 -0.408,0.636l-2.16,3z"/></g><g><path d="M356.33008,56.7325v-7.572h-2.832v-1.02h6.816v1.02h-2.844v7.572z"/></g></g><g><g><path d="M119.00018,56.7325v-8.592h1.14v3.528h4.464v-3.528h1.14v8.592h-1.14v-4.044h-4.464v4.044z"/></g><g><path d="M127.28218,52.5445c0,-1.416 0.384,-2.532 1.152,-3.348c0.768,-0.804 1.752,-1.212 2.964,-1.212c0.792,0 1.512,0.192 2.148,0.576c0.636,0.372 1.116,0.9 1.452,1.584c0.336,0.672 0.504,1.44 0.504,2.304c0,0.876 -0.18,1.656 -0.528,2.34c-0.348,0.684 -0.852,1.212 -1.5,1.56c-0.636,0.348 -1.332,0.528 -2.076,0.528c-0.816,0 -1.536,-0.192 -2.172,-0.588c-0.636,-0.384 -1.116,-0.924 -1.452,-1.596c-0.324,-0.672 -0.492,-1.392 -0.492,-2.148zM128.45818,52.5685c0,1.032 0.276,1.848 0.84,2.448c0.552,0.588 1.248,0.888 2.088,0.888c0.852,0 1.56,-0.3 2.112,-0.9c0.552,-0.6 0.828,-1.452 0.828,-2.556c0,-0.708 -0.12,-1.32 -0.348,-1.836c-0.24,-0.516 -0.588,-0.924 -1.044,-1.212c-0.456,-0.288 -0.96,-0.432 -1.524,-0.432c-0.804,0 -1.5,0.276 -2.076,0.828c-0.588,0.552 -0.876,1.476 -0.876,2.772z"/></g><g><path d="M136.91618,56.7325v-8.592h1.14v7.584h4.236v1.008z"/></g><g><path d="M143.63818,56.7325v-8.592h2.964c0.66,0 1.176,0.048 1.524,0.12c0.492,0.12 0.912,0.324 1.26,0.624c0.456,0.384 0.792,0.864 1.02,1.464c0.228,0.6 0.336,1.272 0.336,2.04c0,0.66 -0.072,1.236 -0.228,1.74c-0.156,0.504 -0.348,0.912 -0.588,1.248c-0.24,0.324 -0.504,0.588 -0.78,0.78c-0.288,0.192 -0.624,0.336 -1.032,0.432c-0.396,0.096 -0.852,0.144 -1.38,0.144zM144.77818,55.7245h1.836c0.564,0 1.008,-0.06 1.332,-0.168c0.324,-0.096 0.576,-0.252 0.768,-0.444c0.264,-0.264 0.48,-0.624 0.624,-1.08c0.156,-0.456 0.228,-1.008 0.228,-1.656c0,-0.9 -0.144,-1.596 -0.444,-2.076c-0.288,-0.48 -0.648,-0.804 -1.068,-0.972c-0.312,-0.108 -0.792,-0.168 -1.476,-0.168h-1.8z"/></g></g></g></g></g></svg>