<svg version="1.1" xmlns="http://www.w3.org/2000/svg" xmlns:xlink="http://www.w3.org/1999/xlink" width="163.704" height="83.68089" viewBox="0,0,163.704,83.68089"><g transform="translate(-158.148,-153.106)"><g data-paper-data="{&quot;isPaintingLayer&quot;:true}" fill="#ffffff" fill-rule="nonzero" stroke="none" stroke-width="1" stroke-linecap="butt" stroke-dasharray="" stroke-dashoffset="0" style="mix-blend-mode: normal"><path d="M158.148,171.142v-3.168h9.72v3.168z" stroke-linejoin="round" stroke-miterlimit="2"/><path d="M170.136,171.142v-3.168h9.72v3.168z" stroke-linejoin="round" stroke-miterlimit="2"/><path d="M183.852,178.882v-25.776h3.42v10.584h13.392v-10.584h3.42v25.776h-3.42v-12.132h-13.392v12.132z" stroke-linejoin="round" stroke-miterlimit="2"/><path d="M209.202,186.082l-0.36,-2.988c0.684,0.18 1.296,0.288 1.836,0.288c0.684,0 1.26,-0.108 1.656,-0.36c0.432,-0.216 0.792,-0.54 1.044,-0.972c0.216,-0.324 0.54,-1.116 0.972,-2.376c0.072,-0.144 0.144,-0.432 0.288,-0.756l-7.092,-18.72h3.42l3.888,10.836c0.504,1.368 0.936,2.808 1.332,4.32c0.36,-1.476 0.792,-2.88 1.296,-4.248l3.996,-10.908h3.168l-7.092,19.008c-0.756,2.052 -1.368,3.456 -1.764,4.212c-0.576,1.044 -1.224,1.836 -1.944,2.304c-0.72,0.504 -1.584,0.72 -2.592,0.72c-0.612,0 -1.296,-0.108 -2.052,-0.36z" stroke-linejoin="round" stroke-miterlimit="2"/><path d="M227.346,186.046v-25.848h2.88v2.448c0.684,-0.972 1.44,-1.656 2.304,-2.124c0.864,-0.504 1.908,-0.72 3.096,-0.72c1.62,0 3.024,0.396 4.248,1.224c1.188,0.828 2.124,1.98 2.736,3.456c0.612,1.512 0.936,3.132 0.936,4.932c0,1.908 -0.324,3.636 -1.008,5.148c-0.684,1.548 -1.692,2.7 -2.988,3.528c-1.332,0.792 -2.7,1.224 -4.14,1.224c-1.044,0 -2.016,-0.216 -2.844,-0.684c-0.828,-0.432 -1.512,-1.008 -2.052,-1.692v9.108zM230.226,169.666c0,2.376 0.468,4.176 1.44,5.328c0.972,1.152 2.16,1.692 3.528,1.692c1.404,0 2.628,-0.576 3.636,-1.764c0.972,-1.188 1.476,-3.024 1.476,-5.544c0,-2.376 -0.468,-4.14 -1.476,-5.328c-0.972,-1.188 -2.124,-1.764 -3.492,-1.764c-1.332,0 -2.52,0.612 -3.564,1.872c-1.044,1.26 -1.548,3.096 -1.548,5.508z" stroke-linejoin="round" stroke-miterlimit="2"/><path d="M260.148,172.87l3.276,0.396c-0.54,1.908 -1.476,3.384 -2.88,4.464c-1.404,1.044 -3.168,1.584 -5.328,1.584c-2.736,0 -4.896,-0.864 -6.516,-2.52c-1.584,-1.692 -2.376,-4.068 -2.376,-7.092c0,-3.132 0.792,-5.58 2.412,-7.308c1.62,-1.728 3.708,-2.592 6.3,-2.592c2.484,0 4.536,0.828 6.12,2.556c1.584,1.692 2.376,4.068 2.376,7.164c0,0.18 -0.036,0.468 -0.036,0.828h-13.932c0.144,2.052 0.72,3.636 1.764,4.716c1.044,1.08 2.34,1.62 3.888,1.62c1.152,0 2.16,-0.288 2.988,-0.9c0.792,-0.612 1.476,-1.584 1.944,-2.916zM249.744,167.758h10.44c-0.144,-1.584 -0.54,-2.736 -1.188,-3.528c-1.008,-1.224 -2.34,-1.836 -3.924,-1.836c-1.476,0 -2.7,0.504 -3.672,1.476c-1.008,0.972 -1.548,2.268 -1.656,3.888z" stroke-linejoin="round" stroke-miterlimit="2"/><path d="M267.353,178.882v-18.684h2.844v2.844c0.72,-1.332 1.404,-2.196 2.016,-2.628c0.612,-0.396 1.296,-0.612 2.016,-0.612c1.08,0 2.16,0.324 3.276,1.008l-1.116,2.952c-0.756,-0.468 -1.548,-0.684 -2.304,-0.684c-0.684,0 -1.332,0.18 -1.872,0.612c-0.54,0.396 -0.936,0.972 -1.188,1.728c-0.324,1.116 -0.504,2.34 -0.504,3.708v9.756z" stroke-linejoin="round" stroke-miterlimit="2"/><path d="M277.722,178.882v-3.168l13.212,-16.488c0.936,-1.188 1.836,-2.196 2.664,-3.06h-14.364v-3.06h18.432v3.06l-14.472,17.856l-1.548,1.836h16.452v3.024z" stroke-linejoin="round" stroke-miterlimit="2"/><path d="M300.144,171.142v-3.168h9.72v3.168z" stroke-linejoin="round" stroke-miterlimit="2"/><path d="M312.132,171.142v-3.168h9.72v3.168z" stroke-linejoin="round" stroke-miterlimit="2"/><path d="M215.91,206.894v-9.334h1.04v0.884c0.247,-0.351 0.52,-0.598 0.832,-0.767c0.312,-0.182 0.689,-0.26 1.118,-0.26c0.585,0 1.092,0.143 1.534,0.442c0.429,0.299 0.767,0.715 0.988,1.248c0.221,0.546 0.338,1.131 0.338,1.781c0,0.689 -0.117,1.313 -0.364,1.859c-0.247,0.559 -0.611,0.975 -1.079,1.274c-0.481,0.286 -0.975,0.442 -1.495,0.442c-0.377,0 -0.728,-0.078 -1.027,-0.247c-0.299,-0.156 -0.546,-0.364 -0.741,-0.611v3.289zM216.95,200.979c0,0.858 0.169,1.508 0.52,1.924c0.351,0.416 0.78,0.611 1.274,0.611c0.507,0 0.949,-0.208 1.313,-0.637c0.351,-0.429 0.533,-1.092 0.533,-2.002c0,-0.858 -0.169,-1.495 -0.533,-1.924c-0.351,-0.429 -0.767,-0.637 -1.261,-0.637c-0.481,0 -0.91,0.221 -1.287,0.676c-0.377,0.455 -0.559,1.118 -0.559,1.989z" stroke-linejoin="round" stroke-miterlimit="2"/><path d="M223.127,204.307v-6.747h1.027v1.027c0.26,-0.481 0.507,-0.793 0.728,-0.949c0.221,-0.143 0.468,-0.221 0.728,-0.221c0.39,0 0.78,0.117 1.183,0.364l-0.403,1.066c-0.273,-0.169 -0.559,-0.247 -0.832,-0.247c-0.247,0 -0.481,0.065 -0.676,0.221c-0.195,0.143 -0.338,0.351 -0.429,0.624c-0.117,0.403 -0.182,0.845 -0.182,1.339v3.523z" stroke-linejoin="round" stroke-miterlimit="2"/><path d="M232.084,202.136l1.183,0.143c-0.195,0.689 -0.533,1.222 -1.04,1.612c-0.507,0.377 -1.144,0.572 -1.924,0.572c-0.988,0 -1.768,-0.312 -2.353,-0.91c-0.572,-0.611 -0.858,-1.469 -0.858,-2.561c0,-1.131 0.286,-2.015 0.871,-2.639c0.585,-0.624 1.339,-0.936 2.275,-0.936c0.897,0 1.638,0.299 2.21,0.923c0.572,0.611 0.858,1.469 0.858,2.587c0,0.065 -0.013,0.169 -0.013,0.299h-5.031c0.052,0.741 0.26,1.313 0.637,1.703c0.377,0.39 0.845,0.585 1.404,0.585c0.416,0 0.78,-0.104 1.079,-0.325c0.286,-0.221 0.533,-0.572 0.702,-1.053zM228.327,200.29h3.77c-0.052,-0.572 -0.195,-0.988 -0.429,-1.274c-0.364,-0.442 -0.845,-0.663 -1.417,-0.663c-0.533,0 -0.975,0.182 -1.326,0.533c-0.364,0.351 -0.559,0.819 -0.598,1.404z" stroke-linejoin="round" stroke-miterlimit="2"/><path d="M234.244,202.292l1.131,-0.169c0.065,0.442 0.234,0.793 0.52,1.04c0.299,0.234 0.702,0.351 1.222,0.351c0.52,0 0.91,-0.104 1.17,-0.312c0.247,-0.221 0.377,-0.468 0.377,-0.754c0,-0.26 -0.117,-0.468 -0.338,-0.611c-0.156,-0.104 -0.546,-0.234 -1.17,-0.39c-0.832,-0.208 -1.417,-0.39 -1.742,-0.546c-0.325,-0.156 -0.559,-0.364 -0.728,-0.637c-0.169,-0.273 -0.26,-0.572 -0.26,-0.91c0,-0.299 0.078,-0.572 0.208,-0.832c0.143,-0.26 0.325,-0.468 0.559,-0.637c0.182,-0.13 0.429,-0.247 0.728,-0.338c0.312,-0.091 0.637,-0.13 0.988,-0.13c0.533,0 1.001,0.078 1.404,0.221c0.39,0.156 0.689,0.364 0.884,0.624c0.182,0.26 0.312,0.611 0.39,1.04l-1.118,0.156c-0.052,-0.351 -0.195,-0.624 -0.442,-0.819c-0.247,-0.195 -0.585,-0.286 -1.027,-0.286c-0.533,0 -0.897,0.091 -1.131,0.26c-0.221,0.169 -0.338,0.377 -0.338,0.611c0,0.143 0.052,0.286 0.143,0.403c0.091,0.117 0.247,0.221 0.442,0.299c0.117,0.039 0.442,0.143 1.001,0.299c0.819,0.208 1.378,0.39 1.703,0.52c0.312,0.143 0.559,0.338 0.741,0.598c0.182,0.273 0.273,0.598 0.273,0.988c0,0.377 -0.104,0.741 -0.325,1.066c-0.221,0.338 -0.546,0.598 -0.962,0.78c-0.416,0.195 -0.897,0.286 -1.43,0.286c-0.871,0 -1.534,-0.182 -2.002,-0.546c-0.455,-0.364 -0.741,-0.91 -0.871,-1.625z" stroke-linejoin="round" stroke-miterlimit="2"/><path d="M245.814,202.136l1.183,0.143c-0.195,0.689 -0.533,1.222 -1.04,1.612c-0.507,0.377 -1.144,0.572 -1.924,0.572c-0.988,0 -1.768,-0.312 -2.353,-0.91c-0.572,-0.611 -0.858,-1.469 -0.858,-2.561c0,-1.131 0.286,-2.015 0.871,-2.639c0.585,-0.624 1.339,-0.936 2.275,-0.936c0.897,0 1.638,0.299 2.21,0.923c0.572,0.611 0.858,1.469 0.858,2.587c0,0.065 -0.013,0.169 -0.013,0.299h-5.031c0.052,0.741 0.26,1.313 0.637,1.703c0.377,0.39 0.845,0.585 1.404,0.585c0.416,0 0.78,-0.104 1.079,-0.325c0.286,-0.221 0.533,-0.572 0.702,-1.053zM242.057,200.29h3.77c-0.052,-0.572 -0.195,-0.988 -0.429,-1.274c-0.364,-0.442 -0.845,-0.663 -1.417,-0.663c-0.533,0 -0.975,0.182 -1.326,0.533c-0.364,0.351 -0.559,0.819 -0.598,1.404z" stroke-linejoin="round" stroke-miterlimit="2"/><path d="M248.429,204.307v-6.747h1.027v0.962c0.494,-0.741 1.209,-1.105 2.145,-1.105c0.403,0 0.78,0.065 1.118,0.221c0.338,0.143 0.598,0.338 0.767,0.572c0.169,0.234 0.286,0.52 0.351,0.845c0.052,0.208 0.065,0.572 0.065,1.105v4.147h-1.144v-4.095c0,-0.468 -0.039,-0.819 -0.13,-1.053c-0.091,-0.221 -0.247,-0.416 -0.468,-0.546c-0.234,-0.143 -0.494,-0.208 -0.793,-0.208c-0.494,0 -0.91,0.156 -1.261,0.468c-0.364,0.299 -0.533,0.884 -0.533,1.755v3.679z" stroke-linejoin="round" stroke-miterlimit="2"/><path d="M258.155,203.28l0.169,1.014c-0.325,0.065 -0.611,0.104 -0.871,0.104c-0.416,0 -0.741,-0.065 -0.962,-0.195c-0.234,-0.13 -0.39,-0.312 -0.481,-0.52c-0.091,-0.221 -0.143,-0.663 -0.143,-1.352v-3.874h-0.832v-0.897h0.832v-1.664l1.131,-0.689v2.353h1.157v0.897h-1.157v3.939c0,0.325 0.026,0.533 0.065,0.624c0.039,0.104 0.104,0.169 0.195,0.221c0.091,0.065 0.221,0.091 0.39,0.091c0.13,0 0.299,-0.013 0.507,-0.052z" stroke-linejoin="round" stroke-miterlimit="2"/><path d="M258.815,202.292l1.131,-0.169c0.065,0.442 0.234,0.793 0.52,1.04c0.299,0.234 0.702,0.351 1.222,0.351c0.52,0 0.91,-0.104 1.17,-0.312c0.247,-0.221 0.377,-0.468 0.377,-0.754c0,-0.26 -0.117,-0.468 -0.338,-0.611c-0.156,-0.104 -0.546,-0.234 -1.17,-0.39c-0.832,-0.208 -1.417,-0.39 -1.742,-0.546c-0.325,-0.156 -0.559,-0.364 -0.728,-0.637c-0.169,-0.273 -0.26,-0.572 -0.26,-0.91c0,-0.299 0.078,-0.572 0.208,-0.832c0.143,-0.26 0.325,-0.468 0.559,-0.637c0.182,-0.13 0.429,-0.247 0.728,-0.338c0.312,-0.091 0.637,-0.13 0.988,-0.13c0.533,0 1.001,0.078 1.404,0.221c0.39,0.156 0.689,0.364 0.884,0.624c0.182,0.26 0.312,0.611 0.39,1.04l-1.118,0.156c-0.052,-0.351 -0.195,-0.624 -0.442,-0.819c-0.247,-0.195 -0.585,-0.286 -1.027,-0.286c-0.533,0 -0.897,0.091 -1.131,0.26c-0.221,0.169 -0.338,0.377 -0.338,0.611c0,0.143 0.052,0.286 0.143,0.403c0.091,0.117 0.247,0.221 0.442,0.299c0.117,0.039 0.442,0.143 1.001,0.299c0.819,0.208 1.378,0.39 1.703,0.52c0.312,0.143 0.559,0.338 0.741,0.598c0.182,0.273 0.273,0.598 0.273,0.988c0,0.377 -0.104,0.741 -0.325,1.066c-0.221,0.338 -0.546,0.598 -0.962,0.78c-0.416,0.195 -0.897,0.286 -1.43,0.286c-0.871,0 -1.534,-0.182 -2.002,-0.546c-0.455,-0.364 -0.741,-0.91 -0.871,-1.625z" stroke-linejoin="round" stroke-miterlimit="2"/><text transform="translate(196.51112,229.49563) scale(0.5833,0.5833)" font-size="40" xml:space="preserve" fill="#ffffff" fill-rule="nonzero" stroke="none" stroke-width="1" stroke-linecap="butt" stroke-linejoin="miter" stroke-miterlimit="10" stroke-dasharray="" stroke-dashoffset="0" font-family="Sans Serif" font-weight="normal" text-anchor="start" style="mix-blend-mode: normal"><tspan x="0" dy="0">arauma</tspan></text></g></g></svg>