<svg version="1.1" xmlns="http://www.w3.org/2000/svg" xmlns:xlink="http://www.w3.org/1999/xlink" width="480" height="260.92" viewBox="0,0,480,260.92"><defs><linearGradient x1="227.32066" y1="99.99991" x2="227.32066" y2="89.99991" gradientUnits="userSpaceOnUse" id="color-1"><stop offset="0" stop-color="#000000" stop-opacity="0"/><stop offset="1" stop-color="#000000" stop-opacity="0.5"/></linearGradient><linearGradient x1="480" y1="45" x2="0" y2="45" gradientUnits="userSpaceOnUse" id="color-2"><stop offset="0" stop-color="#442b90"/><stop offset="1" stop-color="#554fa9"/></linearGradient></defs><g data-paper-data="{&quot;isPaintingLayer&quot;:true}" stroke="none" stroke-width="1" stroke-linecap="butt" stroke-linejoin="round" stroke-miterlimit="2" stroke-dasharray="" stroke-dashoffset="0" style="mix-blend-mode: normal"><g><g fill="#ffffff" fill-rule="nonzero"><g><path d="M116.87408,217.11c0.77,0 1.408,0.187 1.903,0.561c0.495,0.385 0.748,0.957 0.748,1.716c0,0.572 -0.143,1.034 -0.429,1.397c-0.286,0.363 -0.671,0.616 -1.155,0.77l1.661,2.893c0.022,0.044 0.033,0.088 0.033,0.121c0,0.066 -0.022,0.121 -0.066,0.165c-0.055,0.055 -0.11,0.077 -0.176,0.077h-0.473c-0.209,0 -0.363,-0.099 -0.473,-0.297l-1.595,-2.805h-1.892v2.805c0,0.077 -0.033,0.154 -0.088,0.209c-0.055,0.055 -0.132,0.088 -0.209,0.088h-0.451c-0.077,0 -0.154,-0.033 -0.209,-0.088c-0.055,-0.055 -0.088,-0.132 -0.088,-0.209v-7.106c0,-0.077 0.033,-0.154 0.088,-0.209c0.055,-0.055 0.132,-0.088 0.209,-0.088zM116.81908,220.718c1.111,0 1.661,-0.44 1.661,-1.331c0,-0.451 -0.143,-0.781 -0.418,-0.99c-0.275,-0.198 -0.693,-0.297 -1.243,-0.297h-1.859v2.618z"/><path d="M123.82608,217c0.627,0 1.166,0.132 1.617,0.396c0.451,0.264 0.803,0.616 1.045,1.067c0.231,0.451 0.363,0.957 0.374,1.518c0.011,0.44 0.022,0.77 0.022,0.979c0,0.209 -0.011,0.539 -0.022,0.979c-0.022,0.561 -0.154,1.056 -0.385,1.507c-0.242,0.451 -0.583,0.814 -1.034,1.078c-0.451,0.264 -0.99,0.396 -1.617,0.396c-0.627,0 -1.155,-0.132 -1.606,-0.396c-0.451,-0.264 -0.803,-0.627 -1.034,-1.078c-0.242,-0.451 -0.374,-0.946 -0.396,-1.507c-0.011,-0.22 -0.011,-0.55 -0.011,-0.979c0,-0.429 0,-0.759 0.011,-0.979c0.011,-0.561 0.143,-1.067 0.385,-1.518c0.231,-0.451 0.583,-0.803 1.034,-1.067c0.451,-0.264 0.99,-0.396 1.617,-0.396zM123.82608,217.99c-0.583,0 -1.056,0.176 -1.419,0.517c-0.363,0.341 -0.55,0.858 -0.572,1.529c-0.011,0.22 -0.011,0.528 -0.011,0.924c0,0.396 0,0.704 0.011,0.924c0.022,0.671 0.209,1.188 0.572,1.529c0.363,0.341 0.836,0.517 1.419,0.517c0.583,0 1.056,-0.176 1.419,-0.517c0.363,-0.341 0.55,-0.858 0.572,-1.529c0.011,-0.44 0.022,-0.748 0.022,-0.924c0,-0.176 -0.011,-0.484 -0.022,-0.924c-0.022,-0.671 -0.209,-1.188 -0.572,-1.529c-0.363,-0.341 -0.836,-0.517 -1.419,-0.517z"/><path d="M133.23108,217.11c0.077,0 0.154,0.033 0.209,0.088c0.055,0.055 0.088,0.132 0.088,0.209v0.396c0,0.077 -0.033,0.154 -0.088,0.209c-0.055,0.055 -0.132,0.088 -0.209,0.088h-2.057v6.413c0,0.077 -0.033,0.154 -0.088,0.209c-0.055,0.055 -0.132,0.088 -0.209,0.088h-0.451c-0.077,0 -0.154,-0.033 -0.209,-0.088c-0.055,-0.055 -0.088,-0.132 -0.088,-0.209v-6.413h-2.057c-0.077,0 -0.154,-0.033 -0.209,-0.088c-0.055,-0.055 -0.088,-0.132 -0.088,-0.209v-0.396c0,-0.077 0.033,-0.154 0.088,-0.209c0.055,-0.055 0.132,-0.088 0.209,-0.088z"/><path d="M135.60708,223.072l-0.572,1.463c-0.066,0.187 -0.209,0.275 -0.429,0.275h-0.407c-0.066,0 -0.121,-0.022 -0.165,-0.077c-0.055,-0.044 -0.077,-0.099 -0.077,-0.165c0,-0.033 0.011,-0.088 0.044,-0.154l2.695,-6.941c0.099,-0.242 0.264,-0.363 0.495,-0.363h0.66c0.231,0 0.396,0.121 0.495,0.363l2.684,6.941c0.033,0.066 0.044,0.121 0.044,0.154c0,0.066 -0.022,0.121 -0.066,0.165c-0.055,0.055 -0.11,0.077 -0.176,0.077h-0.407c-0.22,0 -0.363,-0.088 -0.429,-0.275l-0.572,-1.463zM139.03908,222.082l-1.518,-3.927l-1.529,3.927z"/><path d="M146.97008,217.11c0.077,0 0.154,0.033 0.209,0.088c0.055,0.055 0.088,0.132 0.088,0.209v0.396c0,0.077 -0.033,0.154 -0.088,0.209c-0.055,0.055 -0.132,0.088 -0.209,0.088h-2.057v6.413c0,0.077 -0.033,0.154 -0.088,0.209c-0.055,0.055 -0.132,0.088 -0.209,0.088h-0.451c-0.077,0 -0.154,-0.033 -0.209,-0.088c-0.055,-0.055 -0.088,-0.132 -0.088,-0.209v-6.413h-2.057c-0.077,0 -0.154,-0.033 -0.209,-0.088c-0.055,-0.055 -0.088,-0.132 -0.088,-0.209v-0.396c0,-0.077 0.033,-0.154 0.088,-0.209c0.055,-0.055 0.132,-0.088 0.209,-0.088z"/><path d="M149.51108,223.82h3.696c0.077,0 0.154,0.033 0.209,0.088c0.055,0.055 0.088,0.132 0.088,0.209v0.396c0,0.077 -0.033,0.154 -0.088,0.209c-0.055,0.055 -0.132,0.088 -0.209,0.088h-4.444c-0.077,0 -0.154,-0.033 -0.209,-0.088c-0.055,-0.055 -0.088,-0.132 -0.088,-0.209v-7.106c0,-0.077 0.033,-0.154 0.088,-0.209c0.055,-0.055 0.132,-0.088 0.209,-0.088h4.356c0.077,0 0.154,0.033 0.209,0.088c0.055,0.055 0.088,0.132 0.088,0.209v0.396c0,0.077 -0.033,0.154 -0.088,0.209c-0.055,0.055 -0.132,0.088 -0.209,0.088h-3.608v2.321h3.366c0.077,0 0.154,0.033 0.209,0.088c0.055,0.055 0.088,0.132 0.088,0.209v0.396c0,0.077 -0.033,0.154 -0.088,0.209c-0.055,0.055 -0.132,0.088 -0.209,0.088h-3.366z"/><path d="M158.42108,221.884c0.022,0.627 0.209,1.122 0.561,1.485c0.363,0.374 0.858,0.561 1.496,0.561c0.649,0 1.122,-0.143 1.43,-0.418c0.308,-0.275 0.517,-0.638 0.616,-1.078c0.011,-0.077 0.055,-0.132 0.11,-0.176c0.055,-0.044 0.11,-0.066 0.176,-0.066h0.506c0.066,0 0.121,0.022 0.176,0.066c0.044,0.055 0.066,0.11 0.066,0.176c-0.011,0.363 -0.132,0.726 -0.352,1.111c-0.22,0.385 -0.561,0.715 -1.012,0.979c-0.462,0.264 -1.034,0.396 -1.716,0.396c-0.616,0 -1.155,-0.132 -1.617,-0.385c-0.462,-0.253 -0.814,-0.616 -1.067,-1.067c-0.253,-0.451 -0.396,-0.957 -0.418,-1.529c-0.011,-0.22 -0.011,-0.55 -0.011,-0.979c0,-0.429 0,-0.759 0.011,-0.979c0.022,-0.572 0.165,-1.089 0.418,-1.54c0.253,-0.451 0.605,-0.803 1.067,-1.056c0.462,-0.253 1.001,-0.385 1.617,-0.385c0.682,0 1.254,0.132 1.716,0.396c0.451,0.264 0.792,0.583 1.012,0.968c0.22,0.385 0.341,0.759 0.352,1.122c0,0.066 -0.022,0.121 -0.066,0.165c-0.055,0.055 -0.11,0.077 -0.176,0.077h-0.506c-0.066,0 -0.121,-0.022 -0.176,-0.066c-0.055,-0.044 -0.099,-0.099 -0.11,-0.176c-0.099,-0.44 -0.308,-0.803 -0.616,-1.078c-0.308,-0.275 -0.781,-0.418 -1.43,-0.418c-0.638,0 -1.133,0.187 -1.496,0.55c-0.352,0.374 -0.539,0.869 -0.561,1.496c-0.011,0.22 -0.011,0.528 -0.011,0.924c0,0.396 0,0.704 0.011,0.924z"/><path d="M170.18008,223.49l1.122,-6.083c0.022,-0.099 0.066,-0.176 0.132,-0.231c0.055,-0.044 0.132,-0.066 0.209,-0.066h0.44c0.066,0 0.121,0.022 0.176,0.066c0.044,0.055 0.066,0.11 0.066,0.176l-0.011,0.088l-1.353,6.798c-0.044,0.198 -0.099,0.341 -0.176,0.429c-0.077,0.099 -0.198,0.143 -0.363,0.143h-0.44c-0.165,0 -0.286,-0.055 -0.363,-0.154c-0.077,-0.099 -0.143,-0.231 -0.198,-0.418l-1.012,-3.674l-1.012,3.674c-0.055,0.187 -0.121,0.319 -0.198,0.418c-0.077,0.099 -0.198,0.154 -0.363,0.154h-0.44c-0.165,0 -0.286,-0.044 -0.363,-0.143c-0.077,-0.088 -0.132,-0.231 -0.176,-0.429l-1.353,-6.798l-0.011,-0.088c0,-0.066 0.022,-0.121 0.077,-0.176c0.044,-0.044 0.099,-0.066 0.165,-0.066h0.44c0.077,0 0.154,0.022 0.22,0.066c0.055,0.055 0.099,0.132 0.121,0.231l1.122,6.083l1.21,-4.356c0.011,-0.077 0.055,-0.143 0.11,-0.22c0.055,-0.066 0.143,-0.099 0.264,-0.099h0.374c0.121,0 0.209,0.033 0.264,0.099c0.055,0.077 0.099,0.143 0.11,0.22z"/><path d="M174.54708,219.629c0.077,0 0.154,0.033 0.209,0.088c0.055,0.055 0.088,0.132 0.088,0.209v0.737c0,0.077 -0.033,0.154 -0.088,0.209c-0.055,0.055 -0.132,0.088 -0.209,0.088h-0.737c-0.077,0 -0.154,-0.033 -0.209,-0.088c-0.055,-0.055 -0.088,-0.132 -0.088,-0.209v-0.737c0,-0.077 0.033,-0.154 0.088,-0.209c0.055,-0.055 0.132,-0.088 0.209,-0.088zM174.54708,223.479c0.077,0 0.154,0.033 0.209,0.088c0.055,0.055 0.088,0.132 0.088,0.209v0.737c0,0.077 -0.033,0.154 -0.088,0.209c-0.055,0.055 -0.132,0.088 -0.209,0.088h-0.737c-0.077,0 -0.154,-0.033 -0.209,-0.088c-0.055,-0.055 -0.088,-0.132 -0.088,-0.209v-0.737c0,-0.077 0.033,-0.154 0.088,-0.209c0.055,-0.055 0.132,-0.088 0.209,-0.088z"/></g><path d="M119.589,145.462c0.121,-0.231 0.275,-0.352 0.484,-0.352h0.418c0.077,0 0.154,0.033 0.209,0.088c0.055,0.055 0.088,0.132 0.088,0.209v7.106c0,0.077 -0.033,0.154 -0.088,0.209c-0.055,0.055 -0.132,0.088 -0.209,0.088h-0.451c-0.077,0 -0.154,-0.033 -0.209,-0.088c-0.055,-0.055 -0.088,-0.132 -0.088,-0.209v-5.214l-1.716,3.311c-0.055,0.121 -0.121,0.209 -0.187,0.264c-0.077,0.055 -0.165,0.088 -0.264,0.088h-0.418c-0.099,0 -0.187,-0.033 -0.253,-0.088c-0.077,-0.055 -0.143,-0.143 -0.198,-0.264l-1.716,-3.311v5.214c0,0.077 -0.033,0.154 -0.088,0.209c-0.055,0.055 -0.132,0.088 -0.209,0.088h-0.451c-0.077,0 -0.154,-0.033 -0.209,-0.088c-0.055,-0.055 -0.088,-0.132 -0.088,-0.209v-7.106c0,-0.077 0.033,-0.154 0.088,-0.209c0.055,-0.055 0.132,-0.088 0.209,-0.088h0.418c0.209,0 0.363,0.121 0.484,0.352l2.222,4.301z"/><path d="M125.43,145c0.627,0 1.166,0.132 1.617,0.396c0.451,0.264 0.803,0.616 1.045,1.067c0.231,0.451 0.363,0.957 0.374,1.518c0.011,0.44 0.022,0.77 0.022,0.979c0,0.209 -0.011,0.539 -0.022,0.979c-0.022,0.561 -0.154,1.056 -0.385,1.507c-0.242,0.451 -0.583,0.814 -1.034,1.078c-0.451,0.264 -0.99,0.396 -1.617,0.396c-0.627,0 -1.155,-0.132 -1.606,-0.396c-0.451,-0.264 -0.803,-0.627 -1.034,-1.078c-0.242,-0.451 -0.374,-0.946 -0.396,-1.507c-0.011,-0.22 -0.011,-0.55 -0.011,-0.979c0,-0.429 0,-0.759 0.011,-0.979c0.011,-0.561 0.143,-1.067 0.385,-1.518c0.231,-0.451 0.583,-0.803 1.034,-1.067c0.451,-0.264 0.99,-0.396 1.617,-0.396zM125.43,145.99c-0.583,0 -1.056,0.176 -1.419,0.517c-0.363,0.341 -0.55,0.858 -0.572,1.529c-0.011,0.22 -0.011,0.528 -0.011,0.924c0,0.396 0,0.704 0.011,0.924c0.022,0.671 0.209,1.188 0.572,1.529c0.363,0.341 0.836,0.517 1.419,0.517c0.583,0 1.056,-0.176 1.419,-0.517c0.363,-0.341 0.55,-0.858 0.572,-1.529c0.011,-0.44 0.022,-0.748 0.022,-0.924c0,-0.176 -0.011,-0.484 -0.022,-0.924c-0.022,-0.671 -0.209,-1.188 -0.572,-1.529c-0.363,-0.341 -0.836,-0.517 -1.419,-0.517z"/><path d="M134.802,145.385c0.066,-0.187 0.209,-0.275 0.429,-0.275h0.407c0.066,0 0.121,0.022 0.176,0.066c0.044,0.055 0.066,0.11 0.066,0.176c0,0.033 -0.011,0.077 -0.022,0.11l-2.376,6.908c-0.044,0.143 -0.11,0.242 -0.209,0.319c-0.099,0.077 -0.231,0.121 -0.374,0.121h-0.44c-0.286,0 -0.473,-0.143 -0.572,-0.44l-2.387,-6.908c-0.011,-0.033 -0.022,-0.077 -0.022,-0.11c0,-0.066 0.022,-0.121 0.077,-0.176c0.044,-0.044 0.099,-0.066 0.165,-0.066h0.407c0.22,0 0.363,0.088 0.429,0.275l2.123,6.325z"/><path d="M138.234,151.82h3.696c0.077,0 0.154,0.033 0.209,0.088c0.055,0.055 0.088,0.132 0.088,0.209v0.396c0,0.077 -0.033,0.154 -0.088,0.209c-0.055,0.055 -0.132,0.088 -0.209,0.088h-4.444c-0.077,0 -0.154,-0.033 -0.209,-0.088c-0.055,-0.055 -0.088,-0.132 -0.088,-0.209v-7.106c0,-0.077 0.033,-0.154 0.088,-0.209c0.055,-0.055 0.132,-0.088 0.209,-0.088h4.356c0.077,0 0.154,0.033 0.209,0.088c0.055,0.055 0.088,0.132 0.088,0.209v0.396c0,0.077 -0.033,0.154 -0.088,0.209c-0.055,0.055 -0.132,0.088 -0.209,0.088h-3.608v2.321h3.366c0.077,0 0.154,0.033 0.209,0.088c0.055,0.055 0.088,0.132 0.088,0.209v0.396c0,0.077 -0.033,0.154 -0.088,0.209c-0.055,0.055 -0.132,0.088 -0.209,0.088h-3.366z"/><path d="M151.159,151.82c0.077,0 0.154,0.033 0.209,0.088c0.055,0.055 0.088,0.132 0.088,0.209v0.396c0,0.077 -0.033,0.154 -0.088,0.209c-0.055,0.055 -0.132,0.088 -0.209,0.088h-4.477c-0.077,0 -0.154,-0.033 -0.209,-0.088c-0.055,-0.055 -0.088,-0.132 -0.088,-0.209v-7.106c0,-0.077 0.033,-0.154 0.088,-0.209c0.055,-0.055 0.132,-0.088 0.209,-0.088h0.451c0.077,0 0.154,0.033 0.209,0.088c0.055,0.055 0.088,0.132 0.088,0.209v6.413z"/><path d="M153.656,151.82h3.696c0.077,0 0.154,0.033 0.209,0.088c0.055,0.055 0.088,0.132 0.088,0.209v0.396c0,0.077 -0.033,0.154 -0.088,0.209c-0.055,0.055 -0.132,0.088 -0.209,0.088h-4.444c-0.077,0 -0.154,-0.033 -0.209,-0.088c-0.055,-0.055 -0.088,-0.132 -0.088,-0.209v-7.106c0,-0.077 0.033,-0.154 0.088,-0.209c0.055,-0.055 0.132,-0.088 0.209,-0.088h4.356c0.077,0 0.154,0.033 0.209,0.088c0.055,0.055 0.088,0.132 0.088,0.209v0.396c0,0.077 -0.033,0.154 -0.088,0.209c-0.055,0.055 -0.132,0.088 -0.209,0.088h-3.608v2.321h3.366c0.077,0 0.154,0.033 0.209,0.088c0.055,0.055 0.088,0.132 0.088,0.209v0.396c0,0.077 -0.033,0.154 -0.088,0.209c-0.055,0.055 -0.132,0.088 -0.209,0.088h-3.366z"/><path d="M163.787,145.11c0.077,0 0.154,0.033 0.209,0.088c0.055,0.055 0.088,0.132 0.088,0.209v0.396c0,0.077 -0.033,0.154 -0.088,0.209c-0.055,0.055 -0.132,0.088 -0.209,0.088h-3.619v2.541h3.399c0.077,0 0.154,0.033 0.209,0.088c0.055,0.055 0.088,0.132 0.088,0.209v0.396c0,0.077 -0.033,0.154 -0.088,0.209c-0.055,0.055 -0.132,0.088 -0.209,0.088h-3.399v2.882c0,0.077 -0.033,0.154 -0.088,0.209c-0.055,0.055 -0.132,0.088 -0.209,0.088h-0.451c-0.077,0 -0.154,-0.033 -0.209,-0.088c-0.055,-0.055 -0.088,-0.132 -0.088,-0.209v-7.106c0,-0.077 0.033,-0.154 0.088,-0.209c0.055,-0.055 0.132,-0.088 0.209,-0.088z"/><path d="M170.233,145.11c0.077,0 0.154,0.033 0.209,0.088c0.055,0.055 0.088,0.132 0.088,0.209v0.396c0,0.077 -0.033,0.154 -0.088,0.209c-0.055,0.055 -0.132,0.088 -0.209,0.088h-2.057v6.413c0,0.077 -0.033,0.154 -0.088,0.209c-0.055,0.055 -0.132,0.088 -0.209,0.088h-0.451c-0.077,0 -0.154,-0.033 -0.209,-0.088c-0.055,-0.055 -0.088,-0.132 -0.088,-0.209v-6.413h-2.057c-0.077,0 -0.154,-0.033 -0.209,-0.088c-0.055,-0.055 -0.088,-0.132 -0.088,-0.209v-0.396c0,-0.077 0.033,-0.154 0.088,-0.209c0.055,-0.055 0.132,-0.088 0.209,-0.088z"/><path d="M172.565,147.629c0.077,0 0.154,0.033 0.209,0.088c0.055,0.055 0.088,0.132 0.088,0.209v0.737c0,0.077 -0.033,0.154 -0.088,0.209c-0.055,0.055 -0.132,0.088 -0.209,0.088h-0.737c-0.077,0 -0.154,-0.033 -0.209,-0.088c-0.055,-0.055 -0.088,-0.132 -0.088,-0.209v-0.737c0,-0.077 0.033,-0.154 0.088,-0.209c0.055,-0.055 0.132,-0.088 0.209,-0.088zM172.565,151.479c0.077,0 0.154,0.033 0.209,0.088c0.055,0.055 0.088,0.132 0.088,0.209v0.737c0,0.077 -0.033,0.154 -0.088,0.209c-0.055,0.055 -0.132,0.088 -0.209,0.088h-0.737c-0.077,0 -0.154,-0.033 -0.209,-0.088c-0.055,-0.055 -0.088,-0.132 -0.088,-0.209v-0.737c0,-0.077 0.033,-0.154 0.088,-0.209c0.055,-0.055 0.132,-0.088 0.209,-0.088z"/><path d="M119.105,182.991c0.011,0.066 -0.011,0.121 -0.066,0.165c-0.055,0.055 -0.11,0.077 -0.176,0.077h-0.451c-0.088,0 -0.154,-0.011 -0.198,-0.044c-0.044,-0.044 -0.088,-0.099 -0.143,-0.198c-0.121,-0.231 -0.319,-0.451 -0.605,-0.671c-0.297,-0.22 -0.682,-0.33 -1.155,-0.33c-0.44,0 -0.814,0.099 -1.111,0.297c-0.308,0.198 -0.462,0.484 -0.462,0.847c0,0.253 0.077,0.451 0.231,0.605c0.143,0.165 0.374,0.297 0.682,0.407c0.297,0.121 0.759,0.253 1.375,0.418c0.836,0.22 1.43,0.484 1.782,0.803c0.341,0.33 0.517,0.759 0.517,1.309c0,0.44 -0.121,0.825 -0.363,1.166c-0.253,0.341 -0.594,0.605 -1.045,0.792c-0.451,0.187 -0.968,0.286 -1.551,0.286c-0.539,0 -1.034,-0.099 -1.485,-0.308c-0.451,-0.209 -0.803,-0.473 -1.056,-0.792c-0.253,-0.308 -0.396,-0.627 -0.407,-0.946c0,-0.066 0.022,-0.121 0.077,-0.176c0.044,-0.044 0.099,-0.066 0.165,-0.066h0.451c0.077,0 0.143,0.011 0.198,0.044c0.055,0.033 0.099,0.099 0.143,0.198c0.121,0.264 0.33,0.506 0.649,0.726c0.308,0.22 0.726,0.33 1.265,0.33c0.539,0 0.99,-0.121 1.364,-0.352c0.363,-0.231 0.55,-0.528 0.55,-0.902c0,-0.242 -0.099,-0.44 -0.286,-0.616c-0.198,-0.165 -0.462,-0.297 -0.803,-0.418c-0.341,-0.11 -0.836,-0.253 -1.485,-0.418c-0.715,-0.187 -1.221,-0.451 -1.54,-0.803c-0.319,-0.341 -0.473,-0.77 -0.473,-1.287c0,-0.385 0.099,-0.737 0.297,-1.056c0.198,-0.319 0.495,-0.583 0.891,-0.781c0.396,-0.198 0.869,-0.297 1.43,-0.297c0.561,0 1.045,0.11 1.463,0.319c0.418,0.22 0.737,0.484 0.968,0.803c0.231,0.319 0.352,0.605 0.363,0.869z"/><path d="M123.494,181c0.627,0 1.166,0.132 1.617,0.396c0.451,0.264 0.803,0.616 1.045,1.067c0.231,0.451 0.363,0.957 0.374,1.518c0.011,0.44 0.022,0.77 0.022,0.979c0,0.209 -0.011,0.539 -0.022,0.979c-0.022,0.561 -0.154,1.056 -0.385,1.507c-0.242,0.451 -0.583,0.814 -1.034,1.078c-0.451,0.264 -0.99,0.396 -1.617,0.396c-0.627,0 -1.155,-0.132 -1.606,-0.396c-0.451,-0.264 -0.803,-0.627 -1.034,-1.078c-0.242,-0.451 -0.374,-0.946 -0.396,-1.507c-0.011,-0.22 -0.011,-0.55 -0.011,-0.979c0,-0.429 0,-0.759 0.011,-0.979c0.011,-0.561 0.143,-1.067 0.385,-1.518c0.231,-0.451 0.583,-0.803 1.034,-1.067c0.451,-0.264 0.99,-0.396 1.617,-0.396zM123.494,181.99c-0.583,0 -1.056,0.176 -1.419,0.517c-0.363,0.341 -0.55,0.858 -0.572,1.529c-0.011,0.22 -0.011,0.528 -0.011,0.924c0,0.396 0,0.704 0.011,0.924c0.022,0.671 0.209,1.188 0.572,1.529c0.363,0.341 0.836,0.517 1.419,0.517c0.583,0 1.056,-0.176 1.419,-0.517c0.363,-0.341 0.55,-0.858 0.572,-1.529c0.011,-0.44 0.022,-0.748 0.022,-0.924c0,-0.176 -0.011,-0.484 -0.022,-0.924c-0.022,-0.671 -0.209,-1.188 -0.572,-1.529c-0.363,-0.341 -0.836,-0.517 -1.419,-0.517z"/><path d="M132.8,181.11c0.077,0 0.154,0.033 0.209,0.088c0.055,0.055 0.088,0.132 0.088,0.209v0.396c0,0.077 -0.033,0.154 -0.088,0.209c-0.055,0.055 -0.132,0.088 -0.209,0.088h-3.619v2.541h3.399c0.077,0 0.154,0.033 0.209,0.088c0.055,0.055 0.088,0.132 0.088,0.209v0.396c0,0.077 -0.033,0.154 -0.088,0.209c-0.055,0.055 -0.132,0.088 -0.209,0.088h-3.399v2.882c0,0.077 -0.033,0.154 -0.088,0.209c-0.055,0.055 -0.132,0.088 -0.209,0.088h-0.451c-0.077,0 -0.154,-0.033 -0.209,-0.088c-0.055,-0.055 -0.088,-0.132 -0.088,-0.209v-7.106c0,-0.077 0.033,-0.154 0.088,-0.209c0.055,-0.055 0.132,-0.088 0.209,-0.088z"/><path d="M139.246,181.11c0.077,0 0.154,0.033 0.209,0.088c0.055,0.055 0.088,0.132 0.088,0.209v0.396c0,0.077 -0.033,0.154 -0.088,0.209c-0.055,0.055 -0.132,0.088 -0.209,0.088h-2.057v6.413c0,0.077 -0.033,0.154 -0.088,0.209c-0.055,0.055 -0.132,0.088 -0.209,0.088h-0.451c-0.077,0 -0.154,-0.033 -0.209,-0.088c-0.055,-0.055 -0.088,-0.132 -0.088,-0.209v-6.413h-2.057c-0.077,0 -0.154,-0.033 -0.209,-0.088c-0.055,-0.055 -0.088,-0.132 -0.088,-0.209v-0.396c0,-0.077 0.033,-0.154 0.088,-0.209c0.055,-0.055 0.132,-0.088 0.209,-0.088z"/><path d="M149.399,185.829c-0.011,0.605 -0.143,1.133 -0.407,1.584c-0.264,0.451 -0.627,0.803 -1.089,1.034c-0.462,0.242 -0.99,0.363 -1.595,0.363h-2.585c-0.077,0 -0.154,-0.033 -0.209,-0.088c-0.055,-0.055 -0.088,-0.132 -0.088,-0.209v-7.106c0,-0.077 0.033,-0.154 0.088,-0.209c0.055,-0.055 0.132,-0.088 0.209,-0.088h2.519c0.605,0 1.155,0.121 1.628,0.352c0.473,0.242 0.836,0.583 1.111,1.034c0.275,0.451 0.407,0.99 0.418,1.595c0.011,0.22 0.011,0.506 0.011,0.869c0,0.363 0,0.649 -0.011,0.869zM144.471,182.1v5.72h1.782c0.737,0 1.265,-0.187 1.595,-0.572c0.319,-0.385 0.495,-0.869 0.506,-1.474c0.011,-0.22 0.011,-0.495 0.011,-0.814c0,-0.319 0,-0.594 -0.011,-0.814c-0.011,-0.594 -0.198,-1.089 -0.539,-1.474c-0.341,-0.385 -0.88,-0.572 -1.617,-0.572z"/><path d="M153.953,181.11c0.77,0 1.408,0.187 1.903,0.561c0.495,0.385 0.748,0.957 0.748,1.716c0,0.572 -0.143,1.034 -0.429,1.397c-0.286,0.363 -0.671,0.616 -1.155,0.77l1.661,2.893c0.022,0.044 0.033,0.088 0.033,0.121c0,0.066 -0.022,0.121 -0.066,0.165c-0.055,0.055 -0.11,0.077 -0.176,0.077h-0.473c-0.209,0 -0.363,-0.099 -0.473,-0.297l-1.595,-2.805h-1.892v2.805c0,0.077 -0.033,0.154 -0.088,0.209c-0.055,0.055 -0.132,0.088 -0.209,0.088h-0.451c-0.077,0 -0.154,-0.033 -0.209,-0.088c-0.055,-0.055 -0.088,-0.132 -0.088,-0.209v-7.106c0,-0.077 0.033,-0.154 0.088,-0.209c0.055,-0.055 0.132,-0.088 0.209,-0.088zM153.898,184.718c1.111,0 1.661,-0.44 1.661,-1.331c0,-0.451 -0.143,-0.781 -0.418,-0.99c-0.275,-0.198 -0.693,-0.297 -1.243,-0.297h-1.859v2.618z"/><path d="M160.905,181c0.627,0 1.166,0.132 1.617,0.396c0.451,0.264 0.803,0.616 1.045,1.067c0.231,0.451 0.363,0.957 0.374,1.518c0.011,0.44 0.022,0.77 0.022,0.979c0,0.209 -0.011,0.539 -0.022,0.979c-0.022,0.561 -0.154,1.056 -0.385,1.507c-0.242,0.451 -0.583,0.814 -1.034,1.078c-0.451,0.264 -0.99,0.396 -1.617,0.396c-0.627,0 -1.155,-0.132 -1.606,-0.396c-0.451,-0.264 -0.803,-0.627 -1.034,-1.078c-0.242,-0.451 -0.374,-0.946 -0.396,-1.507c-0.011,-0.22 -0.011,-0.55 -0.011,-0.979c0,-0.429 0,-0.759 0.011,-0.979c0.011,-0.561 0.143,-1.067 0.385,-1.518c0.231,-0.451 0.583,-0.803 1.034,-1.067c0.451,-0.264 0.99,-0.396 1.617,-0.396zM160.905,181.99c-0.583,0 -1.056,0.176 -1.419,0.517c-0.363,0.341 -0.55,0.858 -0.572,1.529c-0.011,0.22 -0.011,0.528 -0.011,0.924c0,0.396 0,0.704 0.011,0.924c0.022,0.671 0.209,1.188 0.572,1.529c0.363,0.341 0.836,0.517 1.419,0.517c0.583,0 1.056,-0.176 1.419,-0.517c0.363,-0.341 0.55,-0.858 0.572,-1.529c0.011,-0.44 0.022,-0.748 0.022,-0.924c0,-0.176 -0.011,-0.484 -0.022,-0.924c-0.022,-0.671 -0.209,-1.188 -0.572,-1.529c-0.363,-0.341 -0.836,-0.517 -1.419,-0.517z"/><path d="M168.616,181.11c0.759,0 1.397,0.198 1.903,0.594c0.495,0.396 0.748,0.979 0.748,1.738c0,0.517 -0.121,0.946 -0.352,1.309c-0.242,0.363 -0.561,0.627 -0.957,0.803c-0.407,0.176 -0.847,0.264 -1.342,0.264h-2.024v2.695c0,0.077 -0.033,0.154 -0.088,0.209c-0.055,0.055 -0.132,0.088 -0.209,0.088h-0.451c-0.077,0 -0.154,-0.033 -0.209,-0.088c-0.055,-0.055 -0.088,-0.132 -0.088,-0.209v-7.106c0,-0.077 0.033,-0.154 0.088,-0.209c0.055,-0.055 0.132,-0.088 0.209,-0.088zM168.561,184.828c0.539,0 0.946,-0.121 1.232,-0.352c0.286,-0.22 0.429,-0.572 0.429,-1.034c0,-0.891 -0.55,-1.342 -1.661,-1.342h-1.969v2.728z"/><path d="M173.423,183.629c0.077,0 0.154,0.033 0.209,0.088c0.055,0.055 0.088,0.132 0.088,0.209v0.737c0,0.077 -0.033,0.154 -0.088,0.209c-0.055,0.055 -0.132,0.088 -0.209,0.088h-0.737c-0.077,0 -0.154,-0.033 -0.209,-0.088c-0.055,-0.055 -0.088,-0.132 -0.088,-0.209v-0.737c0,-0.077 0.033,-0.154 0.088,-0.209c0.055,-0.055 0.132,-0.088 0.209,-0.088zM173.423,187.479c0.077,0 0.154,0.033 0.209,0.088c0.055,0.055 0.088,0.132 0.088,0.209v0.737c0,0.077 -0.033,0.154 -0.088,0.209c-0.055,0.055 -0.132,0.088 -0.209,0.088h-0.737c-0.077,0 -0.154,-0.033 -0.209,-0.088c-0.055,-0.055 -0.088,-0.132 -0.088,-0.209v-0.737c0,-0.077 0.033,-0.154 0.088,-0.209c0.055,-0.055 0.132,-0.088 0.209,-0.088z"/><path d="M116.905,253.11c0.77,0 1.408,0.187 1.903,0.561c0.495,0.385 0.748,0.957 0.748,1.716c0,0.572 -0.143,1.034 -0.429,1.397c-0.286,0.363 -0.671,0.616 -1.155,0.77l1.661,2.893c0.022,0.044 0.033,0.088 0.033,0.121c0,0.066 -0.022,0.121 -0.066,0.165c-0.055,0.055 -0.11,0.077 -0.176,0.077h-0.473c-0.209,0 -0.363,-0.099 -0.473,-0.297l-1.595,-2.805h-1.892v2.805c0,0.077 -0.033,0.154 -0.088,0.209c-0.055,0.055 -0.132,0.088 -0.209,0.088h-0.451c-0.077,0 -0.154,-0.033 -0.209,-0.088c-0.055,-0.055 -0.088,-0.132 -0.088,-0.209v-7.106c0,-0.077 0.033,-0.154 0.088,-0.209c0.055,-0.055 0.132,-0.088 0.209,-0.088zM116.85,256.718c1.111,0 1.661,-0.44 1.661,-1.331c0,-0.451 -0.143,-0.781 -0.418,-0.99c-0.275,-0.198 -0.693,-0.297 -1.243,-0.297h-1.859v2.618z"/><path d="M123.857,253c0.627,0 1.166,0.132 1.617,0.396c0.451,0.264 0.803,0.616 1.045,1.067c0.231,0.451 0.363,0.957 0.374,1.518c0.011,0.44 0.022,0.77 0.022,0.979c0,0.209 -0.011,0.539 -0.022,0.979c-0.022,0.561 -0.154,1.056 -0.385,1.507c-0.242,0.451 -0.583,0.814 -1.034,1.078c-0.451,0.264 -0.99,0.396 -1.617,0.396c-0.627,0 -1.155,-0.132 -1.606,-0.396c-0.451,-0.264 -0.803,-0.627 -1.034,-1.078c-0.242,-0.451 -0.374,-0.946 -0.396,-1.507c-0.011,-0.22 -0.011,-0.55 -0.011,-0.979c0,-0.429 0,-0.759 0.011,-0.979c0.011,-0.561 0.143,-1.067 0.385,-1.518c0.231,-0.451 0.583,-0.803 1.034,-1.067c0.451,-0.264 0.99,-0.396 1.617,-0.396zM123.857,253.99c-0.583,0 -1.056,0.176 -1.419,0.517c-0.363,0.341 -0.55,0.858 -0.572,1.529c-0.011,0.22 -0.011,0.528 -0.011,0.924c0,0.396 0,0.704 0.011,0.924c0.022,0.671 0.209,1.188 0.572,1.529c0.363,0.341 0.836,0.517 1.419,0.517c0.583,0 1.056,-0.176 1.419,-0.517c0.363,-0.341 0.55,-0.858 0.572,-1.529c0.011,-0.44 0.022,-0.748 0.022,-0.924c0,-0.176 -0.011,-0.484 -0.022,-0.924c-0.022,-0.671 -0.209,-1.188 -0.572,-1.529c-0.363,-0.341 -0.836,-0.517 -1.419,-0.517z"/><path d="M133.262,253.11c0.077,0 0.154,0.033 0.209,0.088c0.055,0.055 0.088,0.132 0.088,0.209v0.396c0,0.077 -0.033,0.154 -0.088,0.209c-0.055,0.055 -0.132,0.088 -0.209,0.088h-2.057v6.413c0,0.077 -0.033,0.154 -0.088,0.209c-0.055,0.055 -0.132,0.088 -0.209,0.088h-0.451c-0.077,0 -0.154,-0.033 -0.209,-0.088c-0.055,-0.055 -0.088,-0.132 -0.088,-0.209v-6.413h-2.057c-0.077,0 -0.154,-0.033 -0.209,-0.088c-0.055,-0.055 -0.088,-0.132 -0.088,-0.209v-0.396c0,-0.077 0.033,-0.154 0.088,-0.209c0.055,-0.055 0.132,-0.088 0.209,-0.088z"/><path d="M135.638,259.072l-0.572,1.463c-0.066,0.187 -0.209,0.275 -0.429,0.275h-0.407c-0.066,0 -0.121,-0.022 -0.165,-0.077c-0.055,-0.044 -0.077,-0.099 -0.077,-0.165c0,-0.033 0.011,-0.088 0.044,-0.154l2.695,-6.941c0.099,-0.242 0.264,-0.363 0.495,-0.363h0.66c0.231,0 0.396,0.121 0.495,0.363l2.684,6.941c0.033,0.066 0.044,0.121 0.044,0.154c0,0.066 -0.022,0.121 -0.066,0.165c-0.055,0.055 -0.11,0.077 -0.176,0.077h-0.407c-0.22,0 -0.363,-0.088 -0.429,-0.275l-0.572,-1.463zM139.07,258.082l-1.518,-3.927l-1.529,3.927z"/><path d="M147.001,253.11c0.077,0 0.154,0.033 0.209,0.088c0.055,0.055 0.088,0.132 0.088,0.209v0.396c0,0.077 -0.033,0.154 -0.088,0.209c-0.055,0.055 -0.132,0.088 -0.209,0.088h-2.057v6.413c0,0.077 -0.033,0.154 -0.088,0.209c-0.055,0.055 -0.132,0.088 -0.209,0.088h-0.451c-0.077,0 -0.154,-0.033 -0.209,-0.088c-0.055,-0.055 -0.088,-0.132 -0.088,-0.209v-6.413h-2.057c-0.077,0 -0.154,-0.033 -0.209,-0.088c-0.055,-0.055 -0.088,-0.132 -0.088,-0.209v-0.396c0,-0.077 0.033,-0.154 0.088,-0.209c0.055,-0.055 0.132,-0.088 0.209,-0.088z"/><path d="M149.542,259.82h3.696c0.077,0 0.154,0.033 0.209,0.088c0.055,0.055 0.088,0.132 0.088,0.209v0.396c0,0.077 -0.033,0.154 -0.088,0.209c-0.055,0.055 -0.132,0.088 -0.209,0.088h-4.444c-0.077,0 -0.154,-0.033 -0.209,-0.088c-0.055,-0.055 -0.088,-0.132 -0.088,-0.209v-7.106c0,-0.077 0.033,-0.154 0.088,-0.209c0.055,-0.055 0.132,-0.088 0.209,-0.088h4.356c0.077,0 0.154,0.033 0.209,0.088c0.055,0.055 0.088,0.132 0.088,0.209v0.396c0,0.077 -0.033,0.154 -0.088,0.209c-0.055,0.055 -0.132,0.088 -0.209,0.088h-3.608v2.321h3.366c0.077,0 0.154,0.033 0.209,0.088c0.055,0.055 0.088,0.132 0.088,0.209v0.396c0,0.077 -0.033,0.154 -0.088,0.209c-0.055,0.055 -0.132,0.088 -0.209,0.088h-3.366z"/><path d="M160.564,260.513c0,0.077 -0.033,0.154 -0.088,0.209c-0.055,0.055 -0.132,0.088 -0.209,0.088h-0.451c-0.077,0 -0.154,-0.033 -0.209,-0.088c-0.055,-0.055 -0.088,-0.132 -0.088,-0.209v-6.061l-1.782,1.353c-0.055,0.044 -0.11,0.066 -0.187,0.066c-0.099,0 -0.176,-0.033 -0.231,-0.11l-0.264,-0.341c-0.044,-0.055 -0.066,-0.121 -0.066,-0.187c0,-0.099 0.044,-0.176 0.121,-0.231l2.354,-1.804c0.077,-0.055 0.198,-0.088 0.352,-0.088h0.451c0.077,0 0.154,0.033 0.209,0.088c0.055,0.055 0.088,0.132 0.088,0.209z"/><path d="M163.039,256.784c-0.275,-0.198 -0.484,-0.44 -0.627,-0.726c-0.154,-0.275 -0.231,-0.583 -0.231,-0.902c0,-0.385 0.11,-0.748 0.33,-1.078c0.231,-0.33 0.539,-0.594 0.924,-0.792c0.385,-0.187 0.825,-0.286 1.298,-0.286c0.473,0 0.913,0.099 1.309,0.286c0.385,0.198 0.693,0.462 0.913,0.792c0.231,0.33 0.341,0.693 0.341,1.078c0,0.319 -0.077,0.627 -0.231,0.902c-0.154,0.275 -0.363,0.517 -0.638,0.726c0.341,0.22 0.605,0.484 0.792,0.803c0.187,0.319 0.275,0.671 0.275,1.034c0,0.418 -0.121,0.803 -0.352,1.155c-0.231,0.352 -0.561,0.627 -0.979,0.836c-0.429,0.209 -0.902,0.308 -1.43,0.308c-0.528,0 -1.001,-0.099 -1.43,-0.308c-0.418,-0.209 -0.748,-0.484 -0.979,-0.836c-0.231,-0.352 -0.352,-0.737 -0.352,-1.155c0,-0.374 0.099,-0.726 0.286,-1.045c0.187,-0.319 0.44,-0.583 0.781,-0.792zM164.733,256.322c0.429,0 0.781,-0.11 1.078,-0.341c0.297,-0.231 0.44,-0.506 0.44,-0.825c0,-0.319 -0.143,-0.594 -0.44,-0.825c-0.297,-0.231 -0.649,-0.341 -1.078,-0.341c-0.429,0 -0.781,0.11 -1.078,0.341c-0.286,0.231 -0.429,0.506 -0.429,0.825c0,0.319 0.143,0.594 0.429,0.825c0.297,0.231 0.649,0.341 1.078,0.341zM164.733,259.93c0.33,0 0.627,-0.055 0.891,-0.176c0.253,-0.121 0.462,-0.275 0.605,-0.473c0.143,-0.198 0.22,-0.418 0.22,-0.66c0,-0.242 -0.077,-0.462 -0.22,-0.66c-0.143,-0.198 -0.352,-0.352 -0.605,-0.473c-0.264,-0.121 -0.561,-0.176 -0.891,-0.176c-0.33,0 -0.627,0.055 -0.88,0.176c-0.264,0.121 -0.473,0.275 -0.616,0.473c-0.143,0.198 -0.22,0.418 -0.22,0.66c0,0.242 0.077,0.462 0.22,0.66c0.143,0.198 0.352,0.352 0.616,0.473c0.253,0.121 0.55,0.176 0.88,0.176z"/><path d="M174.38,257.895c-0.011,0.913 -0.253,1.639 -0.726,2.189c-0.462,0.561 -1.155,0.836 -2.079,0.836c-0.924,0 -1.617,-0.275 -2.079,-0.836c-0.473,-0.55 -0.715,-1.276 -0.726,-2.189l-0.011,-0.935l0.011,-0.924c0.011,-0.913 0.253,-1.639 0.726,-2.2c0.462,-0.561 1.155,-0.836 2.079,-0.836c0.924,0 1.617,0.275 2.079,0.836c0.473,0.561 0.715,1.287 0.726,2.2c0.011,0.22 0.011,0.528 0.011,0.924c0,0.407 0,0.715 -0.011,0.935zM171.575,259.93c1.155,0 1.738,-0.682 1.771,-2.035c0.011,-0.22 0.011,-0.528 0.011,-0.935c0,-0.396 0,-0.704 -0.011,-0.924c-0.033,-1.364 -0.616,-2.046 -1.771,-2.046c-1.155,0 -1.738,0.682 -1.771,2.046l-0.011,0.924l0.011,0.935c0.033,1.353 0.616,2.035 1.771,2.035z"/><path d="M177.218,252.989c0.297,0 0.583,0.066 0.836,0.209c0.253,0.143 0.451,0.33 0.605,0.572c0.143,0.253 0.22,0.528 0.22,0.825c0,0.297 -0.077,0.572 -0.22,0.814c-0.154,0.253 -0.352,0.44 -0.605,0.583c-0.253,0.143 -0.539,0.209 -0.836,0.209c-0.297,0 -0.583,-0.066 -0.825,-0.209c-0.253,-0.143 -0.462,-0.33 -0.605,-0.583c-0.154,-0.242 -0.231,-0.517 -0.231,-0.814c0,-0.297 0.077,-0.572 0.231,-0.825c0.143,-0.242 0.352,-0.429 0.605,-0.572c0.242,-0.143 0.528,-0.209 0.825,-0.209zM177.218,255.431c0.253,0 0.451,-0.077 0.605,-0.231c0.154,-0.154 0.231,-0.352 0.231,-0.605c0,-0.253 -0.077,-0.451 -0.231,-0.605c-0.154,-0.154 -0.352,-0.231 -0.605,-0.231c-0.253,0 -0.451,0.077 -0.605,0.231c-0.154,0.154 -0.231,0.352 -0.231,0.605c0,0.253 0.077,0.451 0.231,0.605c0.154,0.154 0.352,0.231 0.605,0.231z"/><path d="M181.156,255.629c0.077,0 0.154,0.033 0.209,0.088c0.055,0.055 0.088,0.132 0.088,0.209v0.737c0,0.077 -0.033,0.154 -0.088,0.209c-0.055,0.055 -0.132,0.088 -0.209,0.088h-0.737c-0.077,0 -0.154,-0.033 -0.209,-0.088c-0.055,-0.055 -0.088,-0.132 -0.088,-0.209v-0.737c0,-0.077 0.033,-0.154 0.088,-0.209c0.055,-0.055 0.132,-0.088 0.209,-0.088zM181.156,259.479c0.077,0 0.154,0.033 0.209,0.088c0.055,0.055 0.088,0.132 0.088,0.209v0.737c0,0.077 -0.033,0.154 -0.088,0.209c-0.055,0.055 -0.132,0.088 -0.209,0.088h-0.737c-0.077,0 -0.154,-0.033 -0.209,-0.088c-0.055,-0.055 -0.088,-0.132 -0.088,-0.209v-0.737c0,-0.077 0.033,-0.154 0.088,-0.209c0.055,-0.055 0.132,-0.088 0.209,-0.088z"/></g><g fill="#ffffff" fill-rule="nonzero"><path d="M341.589,145.462c0.121,-0.231 0.275,-0.352 0.484,-0.352h0.418c0.077,0 0.154,0.033 0.209,0.088c0.055,0.055 0.088,0.132 0.088,0.209v7.106c0,0.077 -0.033,0.154 -0.088,0.209c-0.055,0.055 -0.132,0.088 -0.209,0.088h-0.451c-0.077,0 -0.154,-0.033 -0.209,-0.088c-0.055,-0.055 -0.088,-0.132 -0.088,-0.209v-5.214l-1.716,3.311c-0.055,0.121 -0.121,0.209 -0.187,0.264c-0.077,0.055 -0.165,0.088 -0.264,0.088h-0.418c-0.099,0 -0.187,-0.033 -0.253,-0.088c-0.077,-0.055 -0.143,-0.143 -0.198,-0.264l-1.716,-3.311v5.214c0,0.077 -0.033,0.154 -0.088,0.209c-0.055,0.055 -0.132,0.088 -0.209,0.088h-0.451c-0.077,0 -0.154,-0.033 -0.209,-0.088c-0.055,-0.055 -0.088,-0.132 -0.088,-0.209v-7.106c0,-0.077 0.033,-0.154 0.088,-0.209c0.055,-0.055 0.132,-0.088 0.209,-0.088h0.418c0.209,0 0.363,0.121 0.484,0.352l2.222,4.301z"/><path d="M347.43,145c0.627,0 1.166,0.132 1.617,0.396c0.451,0.264 0.803,0.616 1.045,1.067c0.231,0.451 0.363,0.957 0.374,1.518c0.011,0.44 0.022,0.77 0.022,0.979c0,0.209 -0.011,0.539 -0.022,0.979c-0.022,0.561 -0.154,1.056 -0.385,1.507c-0.242,0.451 -0.583,0.814 -1.034,1.078c-0.451,0.264 -0.99,0.396 -1.617,0.396c-0.627,0 -1.155,-0.132 -1.606,-0.396c-0.451,-0.264 -0.803,-0.627 -1.034,-1.078c-0.242,-0.451 -0.374,-0.946 -0.396,-1.507c-0.011,-0.22 -0.011,-0.55 -0.011,-0.979c0,-0.429 0,-0.759 0.011,-0.979c0.011,-0.561 0.143,-1.067 0.385,-1.518c0.231,-0.451 0.583,-0.803 1.034,-1.067c0.451,-0.264 0.99,-0.396 1.617,-0.396zM347.43,145.99c-0.583,0 -1.056,0.176 -1.419,0.517c-0.363,0.341 -0.55,0.858 -0.572,1.529c-0.011,0.22 -0.011,0.528 -0.011,0.924c0,0.396 0,0.704 0.011,0.924c0.022,0.671 0.209,1.188 0.572,1.529c0.363,0.341 0.836,0.517 1.419,0.517c0.583,0 1.056,-0.176 1.419,-0.517c0.363,-0.341 0.55,-0.858 0.572,-1.529c0.011,-0.44 0.022,-0.748 0.022,-0.924c0,-0.176 -0.011,-0.484 -0.022,-0.924c-0.022,-0.671 -0.209,-1.188 -0.572,-1.529c-0.363,-0.341 -0.836,-0.517 -1.419,-0.517z"/><path d="M356.802,145.385c0.066,-0.187 0.209,-0.275 0.429,-0.275h0.407c0.066,0 0.121,0.022 0.176,0.066c0.044,0.055 0.066,0.11 0.066,0.176c0,0.033 -0.011,0.077 -0.022,0.11l-2.376,6.908c-0.044,0.143 -0.11,0.242 -0.209,0.319c-0.099,0.077 -0.231,0.121 -0.374,0.121h-0.44c-0.286,0 -0.473,-0.143 -0.572,-0.44l-2.387,-6.908c-0.011,-0.033 -0.022,-0.077 -0.022,-0.11c0,-0.066 0.022,-0.121 0.077,-0.176c0.044,-0.044 0.099,-0.066 0.165,-0.066h0.407c0.22,0 0.363,0.088 0.429,0.275l2.123,6.325z"/><path d="M360.234,151.82h3.696c0.077,0 0.154,0.033 0.209,0.088c0.055,0.055 0.088,0.132 0.088,0.209v0.396c0,0.077 -0.033,0.154 -0.088,0.209c-0.055,0.055 -0.132,0.088 -0.209,0.088h-4.444c-0.077,0 -0.154,-0.033 -0.209,-0.088c-0.055,-0.055 -0.088,-0.132 -0.088,-0.209v-7.106c0,-0.077 0.033,-0.154 0.088,-0.209c0.055,-0.055 0.132,-0.088 0.209,-0.088h4.356c0.077,0 0.154,0.033 0.209,0.088c0.055,0.055 0.088,0.132 0.088,0.209v0.396c0,0.077 -0.033,0.154 -0.088,0.209c-0.055,0.055 -0.132,0.088 -0.209,0.088h-3.608v2.321h3.366c0.077,0 0.154,0.033 0.209,0.088c0.055,0.055 0.088,0.132 0.088,0.209v0.396c0,0.077 -0.033,0.154 -0.088,0.209c-0.055,0.055 -0.132,0.088 -0.209,0.088h-3.366z"/><path d="M371.344,145.11c0.77,0 1.408,0.187 1.903,0.561c0.495,0.385 0.748,0.957 0.748,1.716c0,0.572 -0.143,1.034 -0.429,1.397c-0.286,0.363 -0.671,0.616 -1.155,0.77l1.661,2.893c0.022,0.044 0.033,0.088 0.033,0.121c0,0.066 -0.022,0.121 -0.066,0.165c-0.055,0.055 -0.11,0.077 -0.176,0.077h-0.473c-0.209,0 -0.363,-0.099 -0.473,-0.297l-1.595,-2.805h-1.892v2.805c0,0.077 -0.033,0.154 -0.088,0.209c-0.055,0.055 -0.132,0.088 -0.209,0.088h-0.451c-0.077,0 -0.154,-0.033 -0.209,-0.088c-0.055,-0.055 -0.088,-0.132 -0.088,-0.209v-7.106c0,-0.077 0.033,-0.154 0.088,-0.209c0.055,-0.055 0.132,-0.088 0.209,-0.088zM371.289,148.718c1.111,0 1.661,-0.44 1.661,-1.331c0,-0.451 -0.143,-0.781 -0.418,-0.99c-0.275,-0.198 -0.693,-0.297 -1.243,-0.297h-1.859v2.618z"/><path d="M375.843,152.81c-0.077,0 -0.154,-0.033 -0.209,-0.088c-0.055,-0.055 -0.088,-0.132 -0.088,-0.209v-7.106c0,-0.077 0.033,-0.154 0.088,-0.209c0.055,-0.055 0.132,-0.088 0.209,-0.088h0.451c0.077,0 0.154,0.033 0.209,0.088c0.055,0.055 0.088,0.132 0.088,0.209v7.106c0,0.077 -0.033,0.154 -0.088,0.209c-0.055,0.055 -0.132,0.088 -0.209,0.088z"/><path d="M381.343,145c0.627,0 1.166,0.11 1.617,0.341c0.451,0.231 0.803,0.517 1.045,0.847c0.231,0.341 0.363,0.649 0.374,0.935c0.011,0.066 -0.011,0.121 -0.066,0.176c-0.055,0.044 -0.11,0.066 -0.176,0.066h-0.451c-0.165,0 -0.275,-0.044 -0.319,-0.121c-0.209,-0.407 -0.462,-0.726 -0.759,-0.935c-0.297,-0.209 -0.726,-0.319 -1.265,-0.319c-0.616,0 -1.111,0.176 -1.496,0.517c-0.385,0.352 -0.583,0.858 -0.605,1.507c-0.011,0.22 -0.011,0.528 -0.011,0.913c0,0.385 0,0.693 0.011,0.913c0.022,0.693 0.22,1.21 0.605,1.562c0.374,0.352 0.869,0.528 1.496,0.528c0.638,0 1.144,-0.165 1.529,-0.506c0.385,-0.33 0.572,-0.858 0.572,-1.573v-0.308h-1.584c-0.077,0 -0.154,-0.033 -0.209,-0.088c-0.055,-0.055 -0.088,-0.132 -0.088,-0.209v-0.396c0,-0.077 0.033,-0.154 0.088,-0.209c0.055,-0.055 0.132,-0.088 0.209,-0.088h2.332c0.077,0 0.154,0.033 0.209,0.088c0.055,0.055 0.088,0.132 0.088,0.209v1.045c0,0.583 -0.121,1.111 -0.374,1.562c-0.253,0.462 -0.605,0.825 -1.078,1.078c-0.473,0.253 -1.045,0.385 -1.694,0.385c-1.012,0 -1.782,-0.286 -2.31,-0.847c-0.528,-0.55 -0.803,-1.287 -0.836,-2.178c-0.011,-0.22 -0.011,-0.539 -0.011,-0.968c0,-0.429 0,-0.748 0.011,-0.968c0.022,-0.561 0.154,-1.067 0.385,-1.518c0.231,-0.44 0.572,-0.792 1.045,-1.056c0.462,-0.253 1.034,-0.385 1.716,-0.385z"/><path d="M391.672,145.11c0.077,0 0.154,0.033 0.209,0.088c0.055,0.055 0.088,0.132 0.088,0.209v7.106c0,0.077 -0.033,0.154 -0.088,0.209c-0.055,0.055 -0.132,0.088 -0.209,0.088h-0.451c-0.077,0 -0.154,-0.033 -0.209,-0.088c-0.055,-0.055 -0.088,-0.132 -0.088,-0.209v-3.102h-3.872v3.102c0,0.077 -0.033,0.154 -0.088,0.209c-0.055,0.055 -0.132,0.088 -0.209,0.088h-0.451c-0.077,0 -0.154,-0.033 -0.209,-0.088c-0.055,-0.055 -0.088,-0.121 -0.088,-0.209v-7.106c0,-0.077 0.033,-0.154 0.088,-0.209c0.055,-0.055 0.132,-0.088 0.209,-0.088h0.451c0.077,0 0.154,0.033 0.209,0.088c0.055,0.055 0.088,0.132 0.088,0.209v3.014h3.872v-3.014c0,-0.077 0.033,-0.154 0.088,-0.209c0.055,-0.055 0.132,-0.088 0.209,-0.088z"/><path d="M398.624,145.11c0.077,0 0.154,0.033 0.209,0.088c0.055,0.055 0.088,0.132 0.088,0.209v0.396c0,0.077 -0.033,0.154 -0.088,0.209c-0.055,0.055 -0.132,0.088 -0.209,0.088h-2.057v6.413c0,0.077 -0.033,0.154 -0.088,0.209c-0.055,0.055 -0.132,0.088 -0.209,0.088h-0.451c-0.077,0 -0.154,-0.033 -0.209,-0.088c-0.055,-0.055 -0.088,-0.132 -0.088,-0.209v-6.413h-2.057c-0.077,0 -0.154,-0.033 -0.209,-0.088c-0.055,-0.055 -0.088,-0.132 -0.088,-0.209v-0.396c0,-0.077 0.033,-0.154 0.088,-0.209c0.055,-0.055 0.132,-0.088 0.209,-0.088z"/><path d="M400.956,147.629c0.077,0 0.154,0.033 0.209,0.088c0.055,0.055 0.088,0.132 0.088,0.209v0.737c0,0.077 -0.033,0.154 -0.088,0.209c-0.055,0.055 -0.132,0.088 -0.209,0.088h-0.737c-0.077,0 -0.154,-0.033 -0.209,-0.088c-0.055,-0.055 -0.088,-0.132 -0.088,-0.209v-0.737c0,-0.077 0.033,-0.154 0.088,-0.209c0.055,-0.055 0.132,-0.088 0.209,-0.088zM400.956,151.479c0.077,0 0.154,0.033 0.209,0.088c0.055,0.055 0.088,0.132 0.088,0.209v0.737c0,0.077 -0.033,0.154 -0.088,0.209c-0.055,0.055 -0.132,0.088 -0.209,0.088h-0.737c-0.077,0 -0.154,-0.033 -0.209,-0.088c-0.055,-0.055 -0.088,-0.132 -0.088,-0.209v-0.737c0,-0.077 0.033,-0.154 0.088,-0.209c0.055,-0.055 0.132,-0.088 0.209,-0.088z"/><path d="M341.611,181.11c0.077,0 0.154,0.033 0.209,0.088c0.055,0.055 0.088,0.132 0.088,0.209v7.106c0,0.077 -0.033,0.154 -0.088,0.209c-0.055,0.055 -0.132,0.088 -0.209,0.088h-0.451c-0.077,0 -0.154,-0.033 -0.209,-0.088c-0.055,-0.055 -0.088,-0.132 -0.088,-0.209v-3.102h-3.872v3.102c0,0.077 -0.033,0.154 -0.088,0.209c-0.055,0.055 -0.132,0.088 -0.209,0.088h-0.451c-0.077,0 -0.154,-0.033 -0.209,-0.088c-0.055,-0.055 -0.088,-0.121 -0.088,-0.209v-7.106c0,-0.077 0.033,-0.154 0.088,-0.209c0.055,-0.055 0.132,-0.088 0.209,-0.088h0.451c0.077,0 0.154,0.033 0.209,0.088c0.055,0.055 0.088,0.132 0.088,0.209v3.014h3.872v-3.014c0,-0.077 0.033,-0.154 0.088,-0.209c0.055,-0.055 0.132,-0.088 0.209,-0.088z"/><path d="M344.68,187.072l-0.572,1.463c-0.066,0.187 -0.209,0.275 -0.429,0.275h-0.407c-0.066,0 -0.121,-0.022 -0.165,-0.077c-0.055,-0.044 -0.077,-0.099 -0.077,-0.165c0,-0.033 0.011,-0.088 0.044,-0.154l2.695,-6.941c0.099,-0.242 0.264,-0.363 0.495,-0.363h0.66c0.231,0 0.396,0.121 0.495,0.363l2.684,6.941c0.033,0.066 0.044,0.121 0.044,0.154c0,0.066 -0.022,0.121 -0.066,0.165c-0.055,0.055 -0.11,0.077 -0.176,0.077h-0.407c-0.22,0 -0.363,-0.088 -0.429,-0.275l-0.572,-1.463zM348.112,186.082l-1.518,-3.927l-1.529,3.927z"/><path d="M354.239,181.11c0.77,0 1.408,0.187 1.903,0.561c0.495,0.385 0.748,0.957 0.748,1.716c0,0.572 -0.143,1.034 -0.429,1.397c-0.286,0.363 -0.671,0.616 -1.155,0.77l1.661,2.893c0.022,0.044 0.033,0.088 0.033,0.121c0,0.066 -0.022,0.121 -0.066,0.165c-0.055,0.055 -0.11,0.077 -0.176,0.077h-0.473c-0.209,0 -0.363,-0.099 -0.473,-0.297l-1.595,-2.805h-1.892v2.805c0,0.077 -0.033,0.154 -0.088,0.209c-0.055,0.055 -0.132,0.088 -0.209,0.088h-0.451c-0.077,0 -0.154,-0.033 -0.209,-0.088c-0.055,-0.055 -0.088,-0.132 -0.088,-0.209v-7.106c0,-0.077 0.033,-0.154 0.088,-0.209c0.055,-0.055 0.132,-0.088 0.209,-0.088zM354.184,184.718c1.111,0 1.661,-0.44 1.661,-1.331c0,-0.451 -0.143,-0.781 -0.418,-0.99c-0.275,-0.198 -0.693,-0.297 -1.243,-0.297h-1.859v2.618z"/><path d="M364.414,185.829c-0.011,0.605 -0.143,1.133 -0.407,1.584c-0.264,0.451 -0.627,0.803 -1.089,1.034c-0.462,0.242 -0.99,0.363 -1.595,0.363h-2.585c-0.077,0 -0.154,-0.033 -0.209,-0.088c-0.055,-0.055 -0.088,-0.132 -0.088,-0.209v-7.106c0,-0.077 0.033,-0.154 0.088,-0.209c0.055,-0.055 0.132,-0.088 0.209,-0.088h2.519c0.605,0 1.155,0.121 1.628,0.352c0.473,0.242 0.836,0.583 1.111,1.034c0.275,0.451 0.407,0.99 0.418,1.595c0.011,0.22 0.011,0.506 0.011,0.869c0,0.363 0,0.649 -0.011,0.869zM359.486,182.1v5.72h1.782c0.737,0 1.265,-0.187 1.595,-0.572c0.319,-0.385 0.495,-0.869 0.506,-1.474c0.011,-0.22 0.011,-0.495 0.011,-0.814c0,-0.319 0,-0.594 -0.011,-0.814c-0.011,-0.594 -0.198,-1.089 -0.539,-1.474c-0.341,-0.385 -0.88,-0.572 -1.617,-0.572z"/><path d="M374.666,185.829c-0.011,0.605 -0.143,1.133 -0.407,1.584c-0.264,0.451 -0.627,0.803 -1.089,1.034c-0.462,0.242 -0.99,0.363 -1.595,0.363h-2.585c-0.077,0 -0.154,-0.033 -0.209,-0.088c-0.055,-0.055 -0.088,-0.132 -0.088,-0.209v-7.106c0,-0.077 0.033,-0.154 0.088,-0.209c0.055,-0.055 0.132,-0.088 0.209,-0.088h2.519c0.605,0 1.155,0.121 1.628,0.352c0.473,0.242 0.836,0.583 1.111,1.034c0.275,0.451 0.407,0.99 0.418,1.595c0.011,0.22 0.011,0.506 0.011,0.869c0,0.363 0,0.649 -0.011,0.869zM369.738,182.1v5.72h1.782c0.737,0 1.265,-0.187 1.595,-0.572c0.319,-0.385 0.495,-0.869 0.506,-1.474c0.011,-0.22 0.011,-0.495 0.011,-0.814c0,-0.319 0,-0.594 -0.011,-0.814c-0.011,-0.594 -0.198,-1.089 -0.539,-1.474c-0.341,-0.385 -0.88,-0.572 -1.617,-0.572z"/><path d="M379.22,181.11c0.77,0 1.408,0.187 1.903,0.561c0.495,0.385 0.748,0.957 0.748,1.716c0,0.572 -0.143,1.034 -0.429,1.397c-0.286,0.363 -0.671,0.616 -1.155,0.77l1.661,2.893c0.022,0.044 0.033,0.088 0.033,0.121c0,0.066 -0.022,0.121 -0.066,0.165c-0.055,0.055 -0.11,0.077 -0.176,0.077h-0.473c-0.209,0 -0.363,-0.099 -0.473,-0.297l-1.595,-2.805h-1.892v2.805c0,0.077 -0.033,0.154 -0.088,0.209c-0.055,0.055 -0.132,0.088 -0.209,0.088h-0.451c-0.077,0 -0.154,-0.033 -0.209,-0.088c-0.055,-0.055 -0.088,-0.132 -0.088,-0.209v-7.106c0,-0.077 0.033,-0.154 0.088,-0.209c0.055,-0.055 0.132,-0.088 0.209,-0.088zM379.165,184.718c1.111,0 1.661,-0.44 1.661,-1.331c0,-0.451 -0.143,-0.781 -0.418,-0.99c-0.275,-0.198 -0.693,-0.297 -1.243,-0.297h-1.859v2.618z"/><path d="M386.172,181c0.627,0 1.166,0.132 1.617,0.396c0.451,0.264 0.803,0.616 1.045,1.067c0.231,0.451 0.363,0.957 0.374,1.518c0.011,0.44 0.022,0.77 0.022,0.979c0,0.209 -0.011,0.539 -0.022,0.979c-0.022,0.561 -0.154,1.056 -0.385,1.507c-0.242,0.451 -0.583,0.814 -1.034,1.078c-0.451,0.264 -0.99,0.396 -1.617,0.396c-0.627,0 -1.155,-0.132 -1.606,-0.396c-0.451,-0.264 -0.803,-0.627 -1.034,-1.078c-0.242,-0.451 -0.374,-0.946 -0.396,-1.507c-0.011,-0.22 -0.011,-0.55 -0.011,-0.979c0,-0.429 0,-0.759 0.011,-0.979c0.011,-0.561 0.143,-1.067 0.385,-1.518c0.231,-0.451 0.583,-0.803 1.034,-1.067c0.451,-0.264 0.99,-0.396 1.617,-0.396zM386.172,181.99c-0.583,0 -1.056,0.176 -1.419,0.517c-0.363,0.341 -0.55,0.858 -0.572,1.529c-0.011,0.22 -0.011,0.528 -0.011,0.924c0,0.396 0,0.704 0.011,0.924c0.022,0.671 0.209,1.188 0.572,1.529c0.363,0.341 0.836,0.517 1.419,0.517c0.583,0 1.056,-0.176 1.419,-0.517c0.363,-0.341 0.55,-0.858 0.572,-1.529c0.011,-0.44 0.022,-0.748 0.022,-0.924c0,-0.176 -0.011,-0.484 -0.022,-0.924c-0.022,-0.671 -0.209,-1.188 -0.572,-1.529c-0.363,-0.341 -0.836,-0.517 -1.419,-0.517z"/><path d="M393.883,181.11c0.759,0 1.397,0.198 1.903,0.594c0.495,0.396 0.748,0.979 0.748,1.738c0,0.517 -0.121,0.946 -0.352,1.309c-0.242,0.363 -0.561,0.627 -0.957,0.803c-0.407,0.176 -0.847,0.264 -1.342,0.264h-2.024v2.695c0,0.077 -0.033,0.154 -0.088,0.209c-0.055,0.055 -0.132,0.088 -0.209,0.088h-0.451c-0.077,0 -0.154,-0.033 -0.209,-0.088c-0.055,-0.055 -0.088,-0.132 -0.088,-0.209v-7.106c0,-0.077 0.033,-0.154 0.088,-0.209c0.055,-0.055 0.132,-0.088 0.209,-0.088zM393.828,184.828c0.539,0 0.946,-0.121 1.232,-0.352c0.286,-0.22 0.429,-0.572 0.429,-1.034c0,-0.891 -0.55,-1.342 -1.661,-1.342h-1.969v2.728z"/><path d="M398.69,183.629c0.077,0 0.154,0.033 0.209,0.088c0.055,0.055 0.088,0.132 0.088,0.209v0.737c0,0.077 -0.033,0.154 -0.088,0.209c-0.055,0.055 -0.132,0.088 -0.209,0.088h-0.737c-0.077,0 -0.154,-0.033 -0.209,-0.088c-0.055,-0.055 -0.088,-0.132 -0.088,-0.209v-0.737c0,-0.077 0.033,-0.154 0.088,-0.209c0.055,-0.055 0.132,-0.088 0.209,-0.088zM398.69,187.479c0.077,0 0.154,0.033 0.209,0.088c0.055,0.055 0.088,0.132 0.088,0.209v0.737c0,0.077 -0.033,0.154 -0.088,0.209c-0.055,0.055 -0.132,0.088 -0.209,0.088h-0.737c-0.077,0 -0.154,-0.033 -0.209,-0.088c-0.055,-0.055 -0.088,-0.132 -0.088,-0.209v-0.737c0,-0.077 0.033,-0.154 0.088,-0.209c0.055,-0.055 0.132,-0.088 0.209,-0.088z"/><path d="M341.611,253.11c0.077,0 0.154,0.033 0.209,0.088c0.055,0.055 0.088,0.132 0.088,0.209v7.106c0,0.077 -0.033,0.154 -0.088,0.209c-0.055,0.055 -0.132,0.088 -0.209,0.088h-0.451c-0.077,0 -0.154,-0.033 -0.209,-0.088c-0.055,-0.055 -0.088,-0.132 -0.088,-0.209v-3.102h-3.872v3.102c0,0.077 -0.033,0.154 -0.088,0.209c-0.055,0.055 -0.132,0.088 -0.209,0.088h-0.451c-0.077,0 -0.154,-0.033 -0.209,-0.088c-0.055,-0.055 -0.088,-0.121 -0.088,-0.209v-7.106c0,-0.077 0.033,-0.154 0.088,-0.209c0.055,-0.055 0.132,-0.088 0.209,-0.088h0.451c0.077,0 0.154,0.033 0.209,0.088c0.055,0.055 0.088,0.132 0.088,0.209v3.014h3.872v-3.014c0,-0.077 0.033,-0.154 0.088,-0.209c0.055,-0.055 0.132,-0.088 0.209,-0.088z"/><path d="M346.55,253c0.627,0 1.166,0.132 1.617,0.396c0.451,0.264 0.803,0.616 1.045,1.067c0.231,0.451 0.363,0.957 0.374,1.518c0.011,0.44 0.022,0.77 0.022,0.979c0,0.209 -0.011,0.539 -0.022,0.979c-0.022,0.561 -0.154,1.056 -0.385,1.507c-0.242,0.451 -0.583,0.814 -1.034,1.078c-0.451,0.264 -0.99,0.396 -1.617,0.396c-0.627,0 -1.155,-0.132 -1.606,-0.396c-0.451,-0.264 -0.803,-0.627 -1.034,-1.078c-0.242,-0.451 -0.374,-0.946 -0.396,-1.507c-0.011,-0.22 -0.011,-0.55 -0.011,-0.979c0,-0.429 0,-0.759 0.011,-0.979c0.011,-0.561 0.143,-1.067 0.385,-1.518c0.231,-0.451 0.583,-0.803 1.034,-1.067c0.451,-0.264 0.99,-0.396 1.617,-0.396zM346.55,253.99c-0.583,0 -1.056,0.176 -1.419,0.517c-0.363,0.341 -0.55,0.858 -0.572,1.529c-0.011,0.22 -0.011,0.528 -0.011,0.924c0,0.396 0,0.704 0.011,0.924c0.022,0.671 0.209,1.188 0.572,1.529c0.363,0.341 0.836,0.517 1.419,0.517c0.583,0 1.056,-0.176 1.419,-0.517c0.363,-0.341 0.55,-0.858 0.572,-1.529c0.011,-0.44 0.022,-0.748 0.022,-0.924c0,-0.176 -0.011,-0.484 -0.022,-0.924c-0.022,-0.671 -0.209,-1.188 -0.572,-1.529c-0.363,-0.341 -0.836,-0.517 -1.419,-0.517z"/><path d="M355.966,259.82c0.077,0 0.154,0.033 0.209,0.088c0.055,0.055 0.088,0.132 0.088,0.209v0.396c0,0.077 -0.033,0.154 -0.088,0.209c-0.055,0.055 -0.132,0.088 -0.209,0.088h-4.477c-0.077,0 -0.154,-0.033 -0.209,-0.088c-0.055,-0.055 -0.088,-0.132 -0.088,-0.209v-7.106c0,-0.077 0.033,-0.154 0.088,-0.209c0.055,-0.055 0.132,-0.088 0.209,-0.088h0.451c0.077,0 0.154,0.033 0.209,0.088c0.055,0.055 0.088,0.132 0.088,0.209v6.413z"/><path d="M363.391,257.829c-0.011,0.605 -0.143,1.133 -0.407,1.584c-0.264,0.451 -0.627,0.803 -1.089,1.034c-0.462,0.242 -0.99,0.363 -1.595,0.363h-2.585c-0.077,0 -0.154,-0.033 -0.209,-0.088c-0.055,-0.055 -0.088,-0.132 -0.088,-0.209v-7.106c0,-0.077 0.033,-0.154 0.088,-0.209c0.055,-0.055 0.132,-0.088 0.209,-0.088h2.519c0.605,0 1.155,0.121 1.628,0.352c0.473,0.242 0.836,0.583 1.111,1.034c0.275,0.451 0.407,0.99 0.418,1.595c0.011,0.22 0.011,0.506 0.011,0.869c0,0.363 0,0.649 -0.011,0.869zM358.463,254.1v5.72h1.782c0.737,0 1.265,-0.187 1.595,-0.572c0.319,-0.385 0.495,-0.869 0.506,-1.474c0.011,-0.22 0.011,-0.495 0.011,-0.814c0,-0.319 0,-0.594 -0.011,-0.814c-0.011,-0.594 -0.198,-1.089 -0.539,-1.474c-0.341,-0.385 -0.88,-0.572 -1.617,-0.572z"/><path d="M365.822,255.629c0.077,0 0.154,0.033 0.209,0.088c0.055,0.055 0.088,0.132 0.088,0.209v0.737c0,0.077 -0.033,0.154 -0.088,0.209c-0.055,0.055 -0.132,0.088 -0.209,0.088h-0.737c-0.077,0 -0.154,-0.033 -0.209,-0.088c-0.055,-0.055 -0.088,-0.132 -0.088,-0.209v-0.737c0,-0.077 0.033,-0.154 0.088,-0.209c0.055,-0.055 0.132,-0.088 0.209,-0.088zM365.822,259.479c0.077,0 0.154,0.033 0.209,0.088c0.055,0.055 0.088,0.132 0.088,0.209v0.737c0,0.077 -0.033,0.154 -0.088,0.209c-0.055,0.055 -0.132,0.088 -0.209,0.088h-0.737c-0.077,0 -0.154,-0.033 -0.209,-0.088c-0.055,-0.055 -0.088,-0.132 -0.088,-0.209v-0.737c0,-0.077 0.033,-0.154 0.088,-0.209c0.055,-0.055 0.132,-0.088 0.209,-0.088z"/><g><path d="M338.06003,217.11c0.77,0 1.408,0.187 1.903,0.561c0.495,0.385 0.748,0.957 0.748,1.716c0,0.572 -0.143,1.034 -0.429,1.397c-0.286,0.363 -0.671,0.616 -1.155,0.77l1.661,2.893c0.022,0.044 0.033,0.088 0.033,0.121c0,0.066 -0.022,0.121 -0.066,0.165c-0.055,0.055 -0.11,0.077 -0.176,0.077h-0.473c-0.209,0 -0.363,-0.099 -0.473,-0.297l-1.595,-2.805h-1.892v2.805c0,0.077 -0.033,0.154 -0.088,0.209c-0.055,0.055 -0.132,0.088 -0.209,0.088h-0.451c-0.077,0 -0.154,-0.033 -0.209,-0.088c-0.055,-0.055 -0.088,-0.132 -0.088,-0.209v-7.106c0,-0.077 0.033,-0.154 0.088,-0.209c0.055,-0.055 0.132,-0.088 0.209,-0.088zM338.00503,220.718c1.111,0 1.661,-0.44 1.661,-1.331c0,-0.451 -0.143,-0.781 -0.418,-0.99c-0.275,-0.198 -0.693,-0.297 -1.243,-0.297h-1.859v2.618z"/><path d="M345.01203,217c0.627,0 1.166,0.132 1.617,0.396c0.451,0.264 0.803,0.616 1.045,1.067c0.231,0.451 0.363,0.957 0.374,1.518c0.011,0.44 0.022,0.77 0.022,0.979c0,0.209 -0.011,0.539 -0.022,0.979c-0.022,0.561 -0.154,1.056 -0.385,1.507c-0.242,0.451 -0.583,0.814 -1.034,1.078c-0.451,0.264 -0.99,0.396 -1.617,0.396c-0.627,0 -1.155,-0.132 -1.606,-0.396c-0.451,-0.264 -0.803,-0.627 -1.034,-1.078c-0.242,-0.451 -0.374,-0.946 -0.396,-1.507c-0.011,-0.22 -0.011,-0.55 -0.011,-0.979c0,-0.429 0,-0.759 0.011,-0.979c0.011,-0.561 0.143,-1.067 0.385,-1.518c0.231,-0.451 0.583,-0.803 1.034,-1.067c0.451,-0.264 0.99,-0.396 1.617,-0.396zM345.01203,217.99c-0.583,0 -1.056,0.176 -1.419,0.517c-0.363,0.341 -0.55,0.858 -0.572,1.529c-0.011,0.22 -0.011,0.528 -0.011,0.924c0,0.396 0,0.704 0.011,0.924c0.022,0.671 0.209,1.188 0.572,1.529c0.363,0.341 0.836,0.517 1.419,0.517c0.583,0 1.056,-0.176 1.419,-0.517c0.363,-0.341 0.55,-0.858 0.572,-1.529c0.011,-0.44 0.022,-0.748 0.022,-0.924c0,-0.176 -0.011,-0.484 -0.022,-0.924c-0.022,-0.671 -0.209,-1.188 -0.572,-1.529c-0.363,-0.341 -0.836,-0.517 -1.419,-0.517z"/><path d="M354.41703,217.11c0.077,0 0.154,0.033 0.209,0.088c0.055,0.055 0.088,0.132 0.088,0.209v0.396c0,0.077 -0.033,0.154 -0.088,0.209c-0.055,0.055 -0.132,0.088 -0.209,0.088h-2.057v6.413c0,0.077 -0.033,0.154 -0.088,0.209c-0.055,0.055 -0.132,0.088 -0.209,0.088h-0.451c-0.077,0 -0.154,-0.033 -0.209,-0.088c-0.055,-0.055 -0.088,-0.132 -0.088,-0.209v-6.413h-2.057c-0.077,0 -0.154,-0.033 -0.209,-0.088c-0.055,-0.055 -0.088,-0.132 -0.088,-0.209v-0.396c0,-0.077 0.033,-0.154 0.088,-0.209c0.055,-0.055 0.132,-0.088 0.209,-0.088z"/><path d="M356.79303,223.072l-0.572,1.463c-0.066,0.187 -0.209,0.275 -0.429,0.275h-0.407c-0.066,0 -0.121,-0.022 -0.165,-0.077c-0.055,-0.044 -0.077,-0.099 -0.077,-0.165c0,-0.033 0.011,-0.088 0.044,-0.154l2.695,-6.941c0.099,-0.242 0.264,-0.363 0.495,-0.363h0.66c0.231,0 0.396,0.121 0.495,0.363l2.684,6.941c0.033,0.066 0.044,0.121 0.044,0.154c0,0.066 -0.022,0.121 -0.066,0.165c-0.055,0.055 -0.11,0.077 -0.176,0.077h-0.407c-0.22,0 -0.363,-0.088 -0.429,-0.275l-0.572,-1.463zM360.22503,222.082l-1.518,-3.927l-1.529,3.927z"/><path d="M368.15603,217.11c0.077,0 0.154,0.033 0.209,0.088c0.055,0.055 0.088,0.132 0.088,0.209v0.396c0,0.077 -0.033,0.154 -0.088,0.209c-0.055,0.055 -0.132,0.088 -0.209,0.088h-2.057v6.413c0,0.077 -0.033,0.154 -0.088,0.209c-0.055,0.055 -0.132,0.088 -0.209,0.088h-0.451c-0.077,0 -0.154,-0.033 -0.209,-0.088c-0.055,-0.055 -0.088,-0.132 -0.088,-0.209v-6.413h-2.057c-0.077,0 -0.154,-0.033 -0.209,-0.088c-0.055,-0.055 -0.088,-0.132 -0.088,-0.209v-0.396c0,-0.077 0.033,-0.154 0.088,-0.209c0.055,-0.055 0.132,-0.088 0.209,-0.088z"/><path d="M370.69703,223.82h3.696c0.077,0 0.154,0.033 0.209,0.088c0.055,0.055 0.088,0.132 0.088,0.209v0.396c0,0.077 -0.033,0.154 -0.088,0.209c-0.055,0.055 -0.132,0.088 -0.209,0.088h-4.444c-0.077,0 -0.154,-0.033 -0.209,-0.088c-0.055,-0.055 -0.088,-0.132 -0.088,-0.209v-7.106c0,-0.077 0.033,-0.154 0.088,-0.209c0.055,-0.055 0.132,-0.088 0.209,-0.088h4.356c0.077,0 0.154,0.033 0.209,0.088c0.055,0.055 0.088,0.132 0.088,0.209v0.396c0,0.077 -0.033,0.154 -0.088,0.209c-0.055,0.055 -0.132,0.088 -0.209,0.088h-3.608v2.321h3.366c0.077,0 0.154,0.033 0.209,0.088c0.055,0.055 0.088,0.132 0.088,0.209v0.396c0,0.077 -0.033,0.154 -0.088,0.209c-0.055,0.055 -0.132,0.088 -0.209,0.088h-3.366z"/><path d="M379.60703,221.884c0.022,0.627 0.209,1.122 0.561,1.485c0.363,0.374 0.858,0.561 1.496,0.561c0.649,0 1.122,-0.143 1.43,-0.418c0.308,-0.275 0.517,-0.638 0.616,-1.078c0.011,-0.077 0.055,-0.132 0.11,-0.176c0.055,-0.044 0.11,-0.066 0.176,-0.066h0.506c0.066,0 0.121,0.022 0.176,0.066c0.044,0.055 0.066,0.11 0.066,0.176c-0.011,0.363 -0.132,0.726 -0.352,1.111c-0.22,0.385 -0.561,0.715 -1.012,0.979c-0.462,0.264 -1.034,0.396 -1.716,0.396c-0.616,0 -1.155,-0.132 -1.617,-0.385c-0.462,-0.253 -0.814,-0.616 -1.067,-1.067c-0.253,-0.451 -0.396,-0.957 -0.418,-1.529c-0.011,-0.22 -0.011,-0.55 -0.011,-0.979c0,-0.429 0,-0.759 0.011,-0.979c0.022,-0.572 0.165,-1.089 0.418,-1.54c0.253,-0.451 0.605,-0.803 1.067,-1.056c0.462,-0.253 1.001,-0.385 1.617,-0.385c0.682,0 1.254,0.132 1.716,0.396c0.451,0.264 0.792,0.583 1.012,0.968c0.22,0.385 0.341,0.759 0.352,1.122c0,0.066 -0.022,0.121 -0.066,0.165c-0.055,0.055 -0.11,0.077 -0.176,0.077h-0.506c-0.066,0 -0.121,-0.022 -0.176,-0.066c-0.055,-0.044 -0.099,-0.099 -0.11,-0.176c-0.099,-0.44 -0.308,-0.803 -0.616,-1.078c-0.308,-0.275 -0.781,-0.418 -1.43,-0.418c-0.638,0 -1.133,0.187 -1.496,0.55c-0.352,0.374 -0.539,0.869 -0.561,1.496c-0.011,0.22 -0.011,0.528 -0.011,0.924c0,0.396 0,0.704 0.011,0.924z"/><path d="M386.94403,221.884c0.022,0.627 0.209,1.122 0.561,1.485c0.363,0.374 0.858,0.561 1.496,0.561c0.649,0 1.122,-0.143 1.43,-0.418c0.308,-0.275 0.517,-0.638 0.616,-1.078c0.011,-0.077 0.055,-0.132 0.11,-0.176c0.055,-0.044 0.11,-0.066 0.176,-0.066h0.506c0.066,0 0.121,0.022 0.176,0.066c0.044,0.055 0.066,0.11 0.066,0.176c-0.011,0.363 -0.132,0.726 -0.352,1.111c-0.22,0.385 -0.561,0.715 -1.012,0.979c-0.462,0.264 -1.034,0.396 -1.716,0.396c-0.616,0 -1.155,-0.132 -1.617,-0.385c-0.462,-0.253 -0.814,-0.616 -1.067,-1.067c-0.253,-0.451 -0.396,-0.957 -0.418,-1.529c-0.011,-0.22 -0.011,-0.55 -0.011,-0.979c0,-0.429 0,-0.759 0.011,-0.979c0.022,-0.572 0.165,-1.089 0.418,-1.54c0.253,-0.451 0.605,-0.803 1.067,-1.056c0.462,-0.253 1.001,-0.385 1.617,-0.385c0.682,0 1.254,0.132 1.716,0.396c0.451,0.264 0.792,0.583 1.012,0.968c0.22,0.385 0.341,0.759 0.352,1.122c0,0.066 -0.022,0.121 -0.066,0.165c-0.055,0.055 -0.11,0.077 -0.176,0.077h-0.506c-0.066,0 -0.121,-0.022 -0.176,-0.066c-0.055,-0.044 -0.099,-0.099 -0.11,-0.176c-0.099,-0.44 -0.308,-0.803 -0.616,-1.078c-0.308,-0.275 -0.781,-0.418 -1.43,-0.418c-0.638,0 -1.133,0.187 -1.496,0.55c-0.352,0.374 -0.539,0.869 -0.561,1.496c-0.011,0.22 -0.011,0.528 -0.011,0.924c0,0.396 0,0.704 0.011,0.924z"/><path d="M398.70303,223.49l1.122,-6.083c0.022,-0.099 0.066,-0.176 0.132,-0.231c0.055,-0.044 0.132,-0.066 0.209,-0.066h0.44c0.066,0 0.121,0.022 0.176,0.066c0.044,0.055 0.066,0.11 0.066,0.176l-0.011,0.088l-1.353,6.798c-0.044,0.198 -0.099,0.341 -0.176,0.429c-0.077,0.099 -0.198,0.143 -0.363,0.143h-0.44c-0.165,0 -0.286,-0.055 -0.363,-0.154c-0.077,-0.099 -0.143,-0.231 -0.198,-0.418l-1.012,-3.674l-1.012,3.674c-0.055,0.187 -0.121,0.319 -0.198,0.418c-0.077,0.099 -0.198,0.154 -0.363,0.154h-0.44c-0.165,0 -0.286,-0.044 -0.363,-0.143c-0.077,-0.088 -0.132,-0.231 -0.176,-0.429l-1.353,-6.798l-0.011,-0.088c0,-0.066 0.022,-0.121 0.077,-0.176c0.044,-0.044 0.099,-0.066 0.165,-0.066h0.44c0.077,0 0.154,0.022 0.22,0.066c0.055,0.055 0.099,0.132 0.121,0.231l1.122,6.083l1.21,-4.356c0.011,-0.077 0.055,-0.143 0.11,-0.22c0.055,-0.066 0.143,-0.099 0.264,-0.099h0.374c0.121,0 0.209,0.033 0.264,0.099c0.055,0.077 0.099,0.143 0.11,0.22z"/><path d="M403.07003,219.629c0.077,0 0.154,0.033 0.209,0.088c0.055,0.055 0.088,0.132 0.088,0.209v0.737c0,0.077 -0.033,0.154 -0.088,0.209c-0.055,0.055 -0.132,0.088 -0.209,0.088h-0.737c-0.077,0 -0.154,-0.033 -0.209,-0.088c-0.055,-0.055 -0.088,-0.132 -0.088,-0.209v-0.737c0,-0.077 0.033,-0.154 0.088,-0.209c0.055,-0.055 0.132,-0.088 0.209,-0.088zM403.07003,223.479c0.077,0 0.154,0.033 0.209,0.088c0.055,0.055 0.088,0.132 0.088,0.209v0.737c0,0.077 -0.033,0.154 -0.088,0.209c-0.055,0.055 -0.132,0.088 -0.209,0.088h-0.737c-0.077,0 -0.154,-0.033 -0.209,-0.088c-0.055,-0.055 -0.088,-0.132 -0.088,-0.209v-0.737c0,-0.077 0.033,-0.154 0.088,-0.209c0.055,-0.055 0.132,-0.088 0.209,-0.088z"/></g></g><g><path d="M479.9998,89.99991v10h-479.9998v-10z" fill="url(#color-1)" fill-rule="evenodd"/><path d="M0,90v-90h480v90z" fill="url(#color-2)" fill-rule="evenodd"/><g fill="#ffffff" fill-rule="nonzero"><g><path d="M35.544,35.656c0.072,0.84 0.336,1.512 0.816,2.016c0.456,0.504 1.2,0.768 2.208,0.768c0.96,0 1.656,-0.192 2.088,-0.552c0.432,-0.36 0.744,-0.816 0.912,-1.344c0.096,-0.264 0.192,-0.456 0.288,-0.552c0.096,-0.096 0.264,-0.144 0.528,-0.144h3.144c0.144,0 0.264,0.048 0.384,0.144c0.096,0.12 0.144,0.24 0.144,0.384c-0.024,1.08 -0.36,2.064 -1.032,2.952c-0.648,0.912 -1.56,1.632 -2.688,2.16c-1.128,0.528 -2.4,0.792 -3.768,0.792c-1.488,0 -2.784,-0.288 -3.888,-0.888c-1.104,-0.576 -1.968,-1.368 -2.568,-2.352c-0.6,-0.984 -0.936,-2.064 -1.008,-3.264c-0.024,-0.768 -0.048,-1.392 -0.048,-1.896c0,-0.6 0.024,-1.392 0.048,-2.376c0.048,-1.2 0.384,-2.304 0.984,-3.288c0.6,-0.984 1.464,-1.752 2.592,-2.352c1.104,-0.576 2.4,-0.864 3.888,-0.864c1.368,0 2.64,0.264 3.768,0.792c1.128,0.528 2.04,1.248 2.688,2.136c0.672,0.912 1.008,1.896 1.032,2.976c0,0.144 -0.048,0.264 -0.144,0.36c-0.12,0.12 -0.24,0.168 -0.384,0.168h-3.144c-0.264,0 -0.432,-0.048 -0.528,-0.144c-0.096,-0.096 -0.192,-0.288 -0.288,-0.552c-0.168,-0.528 -0.48,-0.984 -0.912,-1.344c-0.432,-0.36 -1.128,-0.552 -2.088,-0.552c-1.008,0 -1.752,0.264 -2.208,0.768c-0.48,0.504 -0.744,1.176 -0.816,2.016c-0.024,0.552 -0.048,1.224 -0.048,2.016c0,0.768 0.024,1.44 0.048,2.016z"/></g><g><path d="M55.464,25c1.512,0 2.832,0.288 3.936,0.864c1.104,0.576 1.968,1.344 2.544,2.328c0.624,0.984 0.936,2.088 1.008,3.312c0.024,0.456 0.048,1.176 0.048,2.16c0,0.984 -0.024,1.68 -0.048,2.112c-0.072,1.224 -0.384,2.304 -1.008,3.288c-0.576,0.984 -1.44,1.776 -2.544,2.352c-1.104,0.576 -2.424,0.864 -3.936,0.864c-1.512,0 -2.832,-0.288 -3.936,-0.864c-1.104,-0.576 -1.944,-1.368 -2.544,-2.352c-0.6,-0.984 -0.936,-2.064 -1.008,-3.288c-0.024,-0.864 -0.048,-1.56 -0.048,-2.112c0,-0.552 0.024,-1.272 0.048,-2.16c0.072,-1.224 0.408,-2.328 1.008,-3.312c0.6,-0.984 1.44,-1.752 2.544,-2.328c1.104,-0.576 2.424,-0.864 3.936,-0.864zM58.512,31.624c-0.072,-0.84 -0.384,-1.536 -0.864,-2.04c-0.504,-0.504 -1.248,-0.744 -2.184,-0.744c-0.936,0 -1.656,0.24 -2.16,0.744c-0.504,0.504 -0.816,1.2 -0.888,2.04c-0.048,0.528 -0.072,1.2 -0.072,1.992c0,0.792 0.024,1.464 0.072,2.04c0.072,0.84 0.384,1.512 0.888,2.016c0.504,0.504 1.224,0.768 2.16,0.768c0.936,0 1.68,-0.264 2.184,-0.768c0.48,-0.504 0.792,-1.176 0.864,-2.016c0.048,-0.576 0.072,-1.248 0.072,-2.04c0,-0.792 -0.024,-1.464 -0.072,-1.992z"/></g><g><path d="M76.68,42.04c-0.24,0 -0.456,-0.072 -0.624,-0.192c-0.168,-0.12 -0.288,-0.24 -0.36,-0.36l-5.496,-8.208v8.112c0,0.168 -0.072,0.336 -0.192,0.456c-0.12,0.12 -0.288,0.192 -0.456,0.192h-3.144c-0.168,0 -0.336,-0.072 -0.456,-0.192c-0.12,-0.12 -0.192,-0.288 -0.192,-0.456v-15.504c0,-0.168 0.072,-0.336 0.192,-0.456c0.12,-0.12 0.288,-0.192 0.456,-0.192h2.496c0.24,0 0.456,0.048 0.624,0.168c0.168,0.12 0.288,0.264 0.36,0.384l5.496,8.208v-8.112c0,-0.168 0.072,-0.336 0.192,-0.456c0.12,-0.12 0.288,-0.192 0.456,-0.192h3.144c0.168,0 0.336,0.072 0.456,0.192c0.12,0.12 0.192,0.288 0.192,0.456v15.504c0,0.168 -0.072,0.336 -0.192,0.456c-0.12,0.12 -0.288,0.192 -0.456,0.192z"/></g><g><path d="M95.52,25.24c0.168,0 0.336,0.072 0.456,0.192c0.12,0.12 0.192,0.288 0.192,0.456v2.544c0,0.168 -0.072,0.336 -0.192,0.456c-0.12,0.12 -0.288,0.192 -0.456,0.192h-4.224v12.312c0,0.168 -0.072,0.336 -0.192,0.456c-0.12,0.12 -0.288,0.192 -0.456,0.192h-3.144c-0.168,0 -0.336,-0.072 -0.456,-0.192c-0.12,-0.12 -0.192,-0.288 -0.192,-0.456v-12.312h-4.224c-0.168,0 -0.336,-0.072 -0.456,-0.192c-0.12,-0.12 -0.192,-0.288 -0.192,-0.456v-2.544c0,-0.168 0.072,-0.336 0.192,-0.456c0.12,-0.12 0.288,-0.192 0.456,-0.192z"/></g><g><path d="M105.48,25.24c2.136,0 3.816,0.456 4.992,1.368c1.176,0.936 1.776,2.304 1.776,4.128c0,2.328 -0.96,3.912 -2.856,4.8l2.976,5.712c0.048,0.096 0.072,0.192 0.072,0.264c0,0.144 -0.048,0.264 -0.144,0.36c-0.12,0.12 -0.24,0.168 -0.384,0.168h-3.264c-0.288,0 -0.504,-0.072 -0.648,-0.192c-0.144,-0.12 -0.264,-0.264 -0.36,-0.456l-2.664,-5.136h-2.208v5.136c0,0.168 -0.072,0.336 -0.192,0.456c-0.12,0.12 -0.288,0.192 -0.456,0.192h-3.144c-0.168,0 -0.336,-0.072 -0.456,-0.192c-0.12,-0.12 -0.192,-0.288 -0.192,-0.456v-15.504c0,-0.168 0.072,-0.336 0.192,-0.456c0.12,-0.12 0.288,-0.192 0.456,-0.192zM105.48,32.512c1.56,0 2.328,-0.6 2.328,-1.776c0,-1.176 -0.768,-1.776 -2.328,-1.776h-2.712v3.552z"/></g><g><path d="M121.944,25c1.512,0 2.832,0.288 3.936,0.864c1.104,0.576 1.968,1.344 2.544,2.328c0.624,0.984 0.936,2.088 1.008,3.312c0.024,0.456 0.048,1.176 0.048,2.16c0,0.984 -0.024,1.68 -0.048,2.112c-0.072,1.224 -0.384,2.304 -1.008,3.288c-0.576,0.984 -1.44,1.776 -2.544,2.352c-1.104,0.576 -2.424,0.864 -3.936,0.864c-1.512,0 -2.832,-0.288 -3.936,-0.864c-1.104,-0.576 -1.944,-1.368 -2.544,-2.352c-0.6,-0.984 -0.936,-2.064 -1.008,-3.288c-0.024,-0.864 -0.048,-1.56 -0.048,-2.112c0,-0.552 0.024,-1.272 0.048,-2.16c0.072,-1.224 0.408,-2.328 1.008,-3.312c0.6,-0.984 1.44,-1.752 2.544,-2.328c1.104,-0.576 2.424,-0.864 3.936,-0.864zM124.992,31.624c-0.072,-0.84 -0.384,-1.536 -0.864,-2.04c-0.504,-0.504 -1.248,-0.744 -2.184,-0.744c-0.936,0 -1.656,0.24 -2.16,0.744c-0.504,0.504 -0.816,1.2 -0.888,2.04c-0.048,0.528 -0.072,1.2 -0.072,1.992c0,0.792 0.024,1.464 0.072,2.04c0.072,0.84 0.384,1.512 0.888,2.016c0.504,0.504 1.224,0.768 2.16,0.768c0.936,0 1.68,-0.264 2.184,-0.768c0.48,-0.504 0.792,-1.176 0.864,-2.016c0.048,-0.576 0.072,-1.248 0.072,-2.04c0,-0.792 -0.024,-1.464 -0.072,-1.992z"/></g><g><path d="M143.424,38.2c0.168,0 0.336,0.072 0.456,0.192c0.12,0.12 0.192,0.288 0.192,0.456v2.544c0,0.168 -0.072,0.336 -0.192,0.456c-0.12,0.12 -0.288,0.192 -0.456,0.192h-11.112c-0.168,0 -0.336,-0.072 -0.456,-0.192c-0.12,-0.12 -0.192,-0.288 -0.192,-0.456v-15.504c0,-0.168 0.072,-0.336 0.192,-0.456c0.12,-0.12 0.288,-0.192 0.456,-0.192h3.144c0.168,0 0.336,0.072 0.456,0.192c0.12,0.12 0.192,0.288 0.192,0.456v12.312z"/></g><g><path d="M164.52,29.728c0,0.144 -0.048,0.264 -0.144,0.36c-0.12,0.12 -0.24,0.168 -0.36,0.168h-3.144c-0.216,0 -0.408,-0.024 -0.528,-0.096c-0.12,-0.048 -0.264,-0.144 -0.432,-0.288c-0.024,-0.024 -0.144,-0.144 -0.312,-0.336c-0.168,-0.168 -0.456,-0.336 -0.816,-0.48c-0.384,-0.144 -0.816,-0.216 -1.32,-0.216c-0.696,0 -1.248,0.096 -1.68,0.264c-0.456,0.192 -0.672,0.504 -0.672,0.96c0,0.312 0.144,0.576 0.408,0.744c0.264,0.192 0.696,0.36 1.272,0.504c0.552,0.144 1.536,0.36 2.952,0.648c1.8,0.36 3.144,0.936 3.984,1.728c0.84,0.792 1.272,1.896 1.272,3.36c0,1.056 -0.312,1.968 -0.936,2.76c-0.648,0.816 -1.512,1.416 -2.64,1.824c-1.128,0.432 -2.424,0.648 -3.84,0.648c-1.368,0 -2.616,-0.24 -3.744,-0.72c-1.128,-0.48 -1.992,-1.104 -2.64,-1.872c-0.648,-0.768 -0.984,-1.56 -1.008,-2.376c0,-0.144 0.048,-0.264 0.168,-0.384c0.096,-0.096 0.216,-0.144 0.336,-0.144h3.144c0.36,0 0.648,0.12 0.912,0.336c0.048,0.048 0.168,0.192 0.384,0.408c0.216,0.24 0.528,0.456 0.96,0.624c0.408,0.192 0.912,0.288 1.488,0.288c1.992,0 2.976,-0.432 2.976,-1.272c0,-0.264 -0.144,-0.504 -0.408,-0.696c-0.288,-0.168 -0.696,-0.336 -1.2,-0.456c-0.504,-0.12 -1.32,-0.312 -2.448,-0.552l-1.08,-0.216c-1.632,-0.36 -2.832,-0.936 -3.6,-1.776c-0.768,-0.816 -1.152,-1.92 -1.152,-3.288c0,-0.936 0.288,-1.8 0.84,-2.592c0.552,-0.768 1.368,-1.416 2.4,-1.896c1.032,-0.456 2.208,-0.696 3.552,-0.696c1.296,0 2.472,0.24 3.552,0.72c1.08,0.504 1.92,1.104 2.544,1.848c0.6,0.744 0.936,1.464 0.96,2.16z"/></g><g><path d="M171.264,35.656c0.072,0.84 0.336,1.512 0.816,2.016c0.456,0.504 1.2,0.768 2.208,0.768c0.96,0 1.656,-0.192 2.088,-0.552c0.432,-0.36 0.744,-0.816 0.912,-1.344c0.096,-0.264 0.192,-0.456 0.288,-0.552c0.096,-0.096 0.264,-0.144 0.528,-0.144h3.144c0.144,0 0.264,0.048 0.384,0.144c0.096,0.12 0.144,0.24 0.144,0.384c-0.024,1.08 -0.36,2.064 -1.032,2.952c-0.648,0.912 -1.56,1.632 -2.688,2.16c-1.128,0.528 -2.4,0.792 -3.768,0.792c-1.488,0 -2.784,-0.288 -3.888,-0.888c-1.104,-0.576 -1.968,-1.368 -2.568,-2.352c-0.6,-0.984 -0.936,-2.064 -1.008,-3.264c-0.024,-0.768 -0.048,-1.392 -0.048,-1.896c0,-0.6 0.024,-1.392 0.048,-2.376c0.048,-1.2 0.384,-2.304 0.984,-3.288c0.6,-0.984 1.464,-1.752 2.592,-2.352c1.104,-0.576 2.4,-0.864 3.888,-0.864c1.368,0 2.64,0.264 3.768,0.792c1.128,0.528 2.04,1.248 2.688,2.136c0.672,0.912 1.008,1.896 1.032,2.976c0,0.144 -0.048,0.264 -0.144,0.36c-0.12,0.12 -0.24,0.168 -0.384,0.168h-3.144c-0.264,0 -0.432,-0.048 -0.528,-0.144c-0.096,-0.096 -0.192,-0.288 -0.288,-0.552c-0.168,-0.528 -0.48,-0.984 -0.912,-1.344c-0.432,-0.36 -1.128,-0.552 -2.088,-0.552c-1.008,0 -1.752,0.264 -2.208,0.768c-0.48,0.504 -0.744,1.176 -0.816,2.016c-0.024,0.552 -0.048,1.224 -0.048,2.016c0,0.768 0.024,1.44 0.048,2.016z"/></g><g><path d="M197.808,25.24c0.168,0 0.336,0.072 0.456,0.192c0.12,0.12 0.192,0.288 0.192,0.456v15.504c0,0.168 -0.072,0.336 -0.192,0.456c-0.12,0.12 -0.288,0.192 -0.456,0.192h-3.144c-0.168,0 -0.336,-0.072 -0.456,-0.192c-0.12,-0.12 -0.192,-0.288 -0.192,-0.456v-5.88h-5.328v5.88c0,0.168 -0.072,0.336 -0.192,0.456c-0.12,0.12 -0.288,0.192 -0.456,0.192h-3.144c-0.168,0 -0.336,-0.072 -0.456,-0.192c-0.12,-0.12 -0.192,-0.264 -0.192,-0.456v-15.504c0,-0.168 0.072,-0.336 0.192,-0.456c0.12,-0.12 0.288,-0.192 0.456,-0.192h3.144c0.168,0 0.336,0.072 0.456,0.192c0.12,0.12 0.192,0.288 0.192,0.456v5.784h5.328v-5.784c0,-0.168 0.072,-0.336 0.192,-0.456c0.12,-0.12 0.288,-0.192 0.456,-0.192z"/></g><g><path d="M206.256,38.2h7.584c0.168,0 0.336,0.072 0.456,0.192c0.12,0.12 0.192,0.288 0.192,0.456v2.544c0,0.168 -0.072,0.336 -0.192,0.456c-0.12,0.12 -0.288,0.192 -0.456,0.192h-11.376c-0.168,0 -0.336,-0.072 -0.456,-0.192c-0.12,-0.12 -0.192,-0.288 -0.192,-0.456v-15.504c0,-0.168 0.072,-0.336 0.192,-0.456c0.12,-0.12 0.288,-0.192 0.456,-0.192h11.184c0.168,0 0.336,0.072 0.456,0.192c0.12,0.12 0.192,0.288 0.192,0.456v2.544c0,0.168 -0.072,0.336 -0.192,0.456c-0.12,0.12 -0.288,0.192 -0.456,0.192h-7.392v2.592h6.864c0.168,0 0.336,0.072 0.456,0.192c0.12,0.12 0.192,0.288 0.192,0.456v2.544c0,0.168 -0.072,0.336 -0.192,0.456c-0.12,0.12 -0.288,0.192 -0.456,0.192h-6.864z"/></g><g><path d="M221.688,33.448v7.944c0,0.168 -0.072,0.336 -0.192,0.456c-0.12,0.12 -0.288,0.192 -0.456,0.192h-3.144c-0.168,0 -0.336,-0.072 -0.456,-0.192c-0.12,-0.12 -0.192,-0.288 -0.192,-0.456v-15.504c0,-0.168 0.072,-0.336 0.192,-0.456c0.12,-0.12 0.288,-0.192 0.456,-0.192h2.784c0.456,0 0.792,0.216 1.032,0.648l3.888,6.648l3.888,-6.648c0.24,-0.432 0.576,-0.648 1.032,-0.648h2.784c0.168,0 0.336,0.072 0.456,0.192c0.12,0.12 0.192,0.288 0.192,0.456v15.504c0,0.168 -0.072,0.336 -0.192,0.456c-0.12,0.12 -0.288,0.192 -0.456,0.192h-3.144c-0.168,0 -0.336,-0.072 -0.456,-0.192c-0.12,-0.12 -0.192,-0.288 -0.192,-0.456v-7.944l-2.256,3.96c-0.12,0.168 -0.24,0.312 -0.384,0.432c-0.12,0.12 -0.288,0.168 -0.504,0.168h-1.536c-0.216,0 -0.384,-0.048 -0.504,-0.168c-0.144,-0.12 -0.264,-0.264 -0.384,-0.432z"/></g><g><path d="M241.752,38.2h7.584c0.168,0 0.336,0.072 0.456,0.192c0.12,0.12 0.192,0.288 0.192,0.456v2.544c0,0.168 -0.072,0.336 -0.192,0.456c-0.12,0.12 -0.288,0.192 -0.456,0.192h-11.376c-0.168,0 -0.336,-0.072 -0.456,-0.192c-0.12,-0.12 -0.192,-0.288 -0.192,-0.456v-15.504c0,-0.168 0.072,-0.336 0.192,-0.456c0.12,-0.12 0.288,-0.192 0.456,-0.192h11.184c0.168,0 0.336,0.072 0.456,0.192c0.12,0.12 0.192,0.288 0.192,0.456v2.544c0,0.168 -0.072,0.336 -0.192,0.456c-0.12,0.12 -0.288,0.192 -0.456,0.192h-7.392v2.592h6.864c0.168,0 0.336,0.072 0.456,0.192c0.12,0.12 0.192,0.288 0.192,0.456v2.544c0,0.168 -0.072,0.336 -0.192,0.456c-0.12,0.12 -0.288,0.192 -0.456,0.192h-6.864z"/></g></g><g fill="#ffffff" fill-rule="nonzero"><g><path d="M31.705,59.884c0.022,0.627 0.209,1.122 0.561,1.485c0.363,0.374 0.858,0.561 1.496,0.561c0.649,0 1.122,-0.143 1.43,-0.418c0.308,-0.275 0.517,-0.638 0.616,-1.078c0.011,-0.077 0.055,-0.132 0.11,-0.176c0.055,-0.044 0.11,-0.066 0.176,-0.066h0.506c0.066,0 0.121,0.022 0.176,0.066c0.044,0.055 0.066,0.11 0.066,0.176c-0.011,0.363 -0.132,0.726 -0.352,1.111c-0.22,0.385 -0.561,0.715 -1.012,0.979c-0.462,0.264 -1.034,0.396 -1.716,0.396c-0.616,0 -1.155,-0.132 -1.617,-0.385c-0.462,-0.253 -0.814,-0.616 -1.067,-1.067c-0.253,-0.451 -0.396,-0.957 -0.418,-1.529c-0.011,-0.22 -0.011,-0.55 -0.011,-0.979c0,-0.429 0,-0.759 0.011,-0.979c0.022,-0.572 0.165,-1.089 0.418,-1.54c0.253,-0.451 0.605,-0.803 1.067,-1.056c0.462,-0.253 1.001,-0.385 1.617,-0.385c0.682,0 1.254,0.132 1.716,0.396c0.451,0.264 0.792,0.583 1.012,0.968c0.22,0.385 0.341,0.759 0.352,1.122c0,0.066 -0.022,0.121 -0.066,0.165c-0.055,0.055 -0.11,0.077 -0.176,0.077h-0.506c-0.066,0 -0.121,-0.022 -0.176,-0.066c-0.055,-0.044 -0.099,-0.099 -0.11,-0.176c-0.099,-0.44 -0.308,-0.803 -0.616,-1.078c-0.308,-0.275 -0.781,-0.418 -1.43,-0.418c-0.638,0 -1.133,0.187 -1.496,0.55c-0.352,0.374 -0.539,0.869 -0.561,1.496c-0.011,0.22 -0.011,0.528 -0.011,0.924c0,0.396 0,0.704 0.011,0.924z"/></g><g><path d="M43.244,62.513c0,0.077 -0.033,0.154 -0.088,0.209c-0.055,0.055 -0.132,0.088 -0.209,0.088h-0.407c-0.077,0 -0.154,-0.033 -0.209,-0.088c-0.055,-0.055 -0.088,-0.132 -0.088,-0.209v-2.904c0,-0.55 -0.132,-0.968 -0.407,-1.254c-0.275,-0.286 -0.649,-0.429 -1.133,-0.429c-0.473,0 -0.847,0.143 -1.133,0.429c-0.264,0.286 -0.407,0.704 -0.407,1.254v2.904c0,0.077 -0.033,0.154 -0.088,0.209c-0.055,0.055 -0.132,0.088 -0.209,0.088h-0.407c-0.077,0 -0.154,-0.033 -0.209,-0.088c-0.055,-0.055 -0.088,-0.132 -0.088,-0.209v-7.216c0,-0.077 0.033,-0.154 0.088,-0.209c0.055,-0.055 0.132,-0.088 0.209,-0.088h0.407c0.077,0 0.154,0.033 0.209,0.088c0.055,0.055 0.088,0.132 0.088,0.209v2.431c0.165,-0.209 0.385,-0.396 0.671,-0.528c0.275,-0.154 0.627,-0.22 1.034,-0.22c0.462,0 0.869,0.099 1.232,0.297c0.363,0.198 0.638,0.484 0.836,0.847c0.209,0.374 0.308,0.814 0.308,1.32z"/></g><g><path d="M48.238,59.191v-0.143c0,-0.363 -0.121,-0.638 -0.352,-0.836c-0.242,-0.187 -0.55,-0.286 -0.935,-0.286c-0.297,0 -0.517,0.044 -0.693,0.143c-0.154,0.099 -0.319,0.253 -0.462,0.451c-0.044,0.055 -0.088,0.099 -0.143,0.121c-0.055,0.022 -0.121,0.033 -0.209,0.033h-0.33c-0.077,0 -0.154,-0.033 -0.209,-0.088c-0.066,-0.055 -0.099,-0.132 -0.088,-0.209c0.022,-0.22 0.132,-0.44 0.319,-0.66c0.198,-0.209 0.462,-0.385 0.781,-0.528c0.319,-0.143 0.671,-0.209 1.034,-0.209c0.682,0 1.232,0.187 1.661,0.572c0.418,0.385 0.627,0.913 0.627,1.606v3.355c0,0.077 -0.033,0.154 -0.088,0.209c-0.055,0.055 -0.132,0.088 -0.209,0.088h-0.407c-0.077,0 -0.154,-0.033 -0.209,-0.088c-0.055,-0.055 -0.088,-0.132 -0.088,-0.209v-0.451c-0.121,0.264 -0.363,0.473 -0.748,0.627c-0.385,0.154 -0.759,0.231 -1.144,0.231c-0.374,0 -0.704,-0.066 -1.001,-0.209c-0.297,-0.132 -0.517,-0.319 -0.682,-0.55c-0.154,-0.231 -0.231,-0.495 -0.231,-0.792c0,-0.55 0.209,-0.979 0.616,-1.298c0.407,-0.308 0.957,-0.517 1.639,-0.627zM48.238,60.071l-1.298,0.209c-0.473,0.077 -0.847,0.187 -1.111,0.352c-0.264,0.165 -0.396,0.374 -0.396,0.627c0,0.187 0.088,0.352 0.253,0.495c0.165,0.143 0.429,0.22 0.77,0.22c0.528,0 0.957,-0.154 1.287,-0.451c0.33,-0.297 0.495,-0.693 0.495,-1.177z"/></g><g><path d="M55.927,62.513c0,0.077 -0.033,0.154 -0.088,0.209c-0.055,0.055 -0.132,0.088 -0.209,0.088h-0.407c-0.077,0 -0.154,-0.033 -0.209,-0.088c-0.055,-0.055 -0.088,-0.132 -0.088,-0.209v-2.904c0,-0.55 -0.132,-0.968 -0.407,-1.254c-0.275,-0.286 -0.649,-0.429 -1.133,-0.429c-0.473,0 -0.847,0.143 -1.133,0.429c-0.264,0.286 -0.407,0.704 -0.407,1.254v2.904c0,0.077 -0.033,0.154 -0.088,0.209c-0.055,0.055 -0.132,0.088 -0.209,0.088h-0.407c-0.077,0 -0.154,-0.033 -0.209,-0.088c-0.055,-0.055 -0.088,-0.132 -0.088,-0.209v-5.126c0,-0.077 0.033,-0.154 0.088,-0.209c0.055,-0.055 0.132,-0.088 0.209,-0.088h0.407c0.077,0 0.154,0.033 0.209,0.088c0.055,0.055 0.088,0.132 0.088,0.209v0.341c0.165,-0.209 0.385,-0.396 0.671,-0.528c0.275,-0.154 0.627,-0.22 1.034,-0.22c0.462,0 0.869,0.099 1.232,0.297c0.363,0.198 0.638,0.484 0.836,0.847c0.209,0.374 0.308,0.814 0.308,1.32z"/></g><g><path d="M59.744,56.98c0.407,0 0.759,0.066 1.045,0.22c0.275,0.132 0.495,0.319 0.66,0.528v-0.341c0,-0.077 0.033,-0.154 0.088,-0.209c0.055,-0.055 0.132,-0.088 0.209,-0.088h0.407c0.077,0 0.154,0.033 0.209,0.088c0.055,0.055 0.088,0.132 0.088,0.209v5.346c0,0.781 -0.22,1.386 -0.66,1.826c-0.44,0.451 -1.089,0.671 -1.936,0.671c-0.55,0 -1.012,-0.088 -1.386,-0.253c-0.374,-0.165 -0.649,-0.374 -0.825,-0.627c-0.187,-0.253 -0.286,-0.506 -0.297,-0.759c-0.011,-0.077 0.022,-0.154 0.088,-0.209c0.055,-0.055 0.132,-0.088 0.209,-0.088h0.33c0.088,0 0.154,0.022 0.209,0.066c0.055,0.044 0.099,0.121 0.154,0.231c0.077,0.165 0.209,0.33 0.418,0.473c0.209,0.143 0.539,0.22 0.99,0.22c1.133,0 1.705,-0.473 1.705,-1.419v-0.693c-0.374,0.495 -0.946,0.748 -1.705,0.748c-0.451,0 -0.869,-0.11 -1.232,-0.319c-0.374,-0.209 -0.671,-0.517 -0.891,-0.913c-0.231,-0.385 -0.352,-0.847 -0.374,-1.375l-0.011,-0.363l0.011,-0.363c0.022,-0.528 0.143,-0.99 0.374,-1.386c0.22,-0.385 0.517,-0.693 0.88,-0.902c0.363,-0.209 0.781,-0.319 1.243,-0.319zM59.854,57.926c-0.473,0 -0.858,0.154 -1.133,0.462c-0.286,0.308 -0.44,0.726 -0.473,1.254l-0.011,0.308l0.011,0.308c0.033,0.528 0.187,0.946 0.473,1.254c0.275,0.308 0.66,0.462 1.133,0.462c0.473,0 0.847,-0.143 1.133,-0.44c0.286,-0.286 0.44,-0.682 0.462,-1.188c0.011,-0.077 0.011,-0.209 0.011,-0.396c0,-0.187 0,-0.319 -0.011,-0.396c-0.022,-0.517 -0.176,-0.913 -0.462,-1.199c-0.286,-0.286 -0.66,-0.429 -1.133,-0.429z"/></g><g><path d="M66.355,56.98c0.781,0 1.408,0.253 1.859,0.748c0.451,0.495 0.682,1.177 0.682,2.035v0.297c0,0.077 -0.033,0.154 -0.088,0.209c-0.055,0.055 -0.132,0.088 -0.209,0.088h-3.784v0.066c0.011,0.484 0.165,0.858 0.451,1.133c0.275,0.275 0.638,0.418 1.089,0.418c0.363,0 0.649,-0.044 0.858,-0.143c0.198,-0.099 0.374,-0.231 0.539,-0.407c0.055,-0.055 0.11,-0.099 0.165,-0.121c0.044,-0.022 0.11,-0.033 0.187,-0.033h0.33c0.088,0 0.165,0.033 0.22,0.088c0.055,0.055 0.088,0.132 0.077,0.209c-0.033,0.198 -0.132,0.396 -0.319,0.605c-0.187,0.209 -0.462,0.385 -0.803,0.528c-0.352,0.143 -0.77,0.22 -1.254,0.22c-0.473,0 -0.891,-0.11 -1.254,-0.33c-0.363,-0.209 -0.66,-0.506 -0.88,-0.891c-0.209,-0.385 -0.341,-0.814 -0.385,-1.287c-0.011,-0.22 -0.022,-0.385 -0.022,-0.506c0,-0.121 0.011,-0.286 0.022,-0.506c0.044,-0.451 0.176,-0.869 0.385,-1.232c0.22,-0.363 0.517,-0.66 0.88,-0.869c0.363,-0.209 0.781,-0.319 1.254,-0.319zM67.906,59.433v-0.033c0,-0.451 -0.143,-0.803 -0.418,-1.067c-0.286,-0.275 -0.66,-0.407 -1.133,-0.407c-0.429,0 -0.781,0.132 -1.078,0.407c-0.297,0.275 -0.451,0.627 -0.462,1.067v0.033z"/></g><g><path d="M74.407,60.885c0,0.319 0.066,0.561 0.198,0.726c0.121,0.165 0.363,0.253 0.726,0.253h0.583c0.077,0 0.154,0.033 0.209,0.088c0.055,0.055 0.088,0.132 0.088,0.209v0.352c0,0.077 -0.033,0.154 -0.088,0.209c-0.055,0.055 -0.132,0.088 -0.209,0.088h-0.693c-0.627,0 -1.078,-0.165 -1.375,-0.495c-0.297,-0.319 -0.44,-0.803 -0.44,-1.43v-2.849h-0.814c-0.077,0 -0.154,-0.033 -0.209,-0.088c-0.055,-0.055 -0.088,-0.132 -0.088,-0.209v-0.352c0,-0.077 0.033,-0.154 0.088,-0.209c0.055,-0.055 0.132,-0.088 0.209,-0.088h0.814v-1.793c0,-0.077 0.033,-0.154 0.088,-0.209c0.055,-0.055 0.132,-0.088 0.209,-0.088h0.407c0.077,0 0.154,0.033 0.209,0.088c0.055,0.055 0.088,0.132 0.088,0.209v1.793h1.397c0.077,0 0.154,0.033 0.209,0.088c0.055,0.055 0.088,0.132 0.088,0.209v0.352c0,0.077 -0.033,0.154 -0.088,0.209c-0.055,0.055 -0.132,0.088 -0.209,0.088h-1.397z"/></g><g><path d="M82.393,62.513c0,0.077 -0.033,0.154 -0.088,0.209c-0.055,0.055 -0.132,0.088 -0.209,0.088h-0.407c-0.077,0 -0.154,-0.033 -0.209,-0.088c-0.055,-0.055 -0.088,-0.132 -0.088,-0.209v-2.904c0,-0.55 -0.132,-0.968 -0.407,-1.254c-0.275,-0.286 -0.649,-0.429 -1.133,-0.429c-0.473,0 -0.847,0.143 -1.133,0.429c-0.264,0.286 -0.407,0.704 -0.407,1.254v2.904c0,0.077 -0.033,0.154 -0.088,0.209c-0.055,0.055 -0.132,0.088 -0.209,0.088h-0.407c-0.077,0 -0.154,-0.033 -0.209,-0.088c-0.055,-0.055 -0.088,-0.132 -0.088,-0.209v-7.216c0,-0.077 0.033,-0.154 0.088,-0.209c0.055,-0.055 0.132,-0.088 0.209,-0.088h0.407c0.077,0 0.154,0.033 0.209,0.088c0.055,0.055 0.088,0.132 0.088,0.209v2.431c0.165,-0.209 0.385,-0.396 0.671,-0.528c0.275,-0.154 0.627,-0.22 1.034,-0.22c0.462,0 0.869,0.099 1.232,0.297c0.363,0.198 0.638,0.484 0.836,0.847c0.209,0.374 0.308,0.814 0.308,1.32z"/></g><g><path d="M86.243,56.98c0.781,0 1.408,0.253 1.859,0.748c0.451,0.495 0.682,1.177 0.682,2.035v0.297c0,0.077 -0.033,0.154 -0.088,0.209c-0.055,0.055 -0.132,0.088 -0.209,0.088h-3.784v0.066c0.011,0.484 0.165,0.858 0.451,1.133c0.275,0.275 0.638,0.418 1.089,0.418c0.363,0 0.649,-0.044 0.858,-0.143c0.198,-0.099 0.374,-0.231 0.539,-0.407c0.055,-0.055 0.11,-0.099 0.165,-0.121c0.044,-0.022 0.11,-0.033 0.187,-0.033h0.33c0.088,0 0.165,0.033 0.22,0.088c0.055,0.055 0.088,0.132 0.077,0.209c-0.033,0.198 -0.132,0.396 -0.319,0.605c-0.187,0.209 -0.462,0.385 -0.803,0.528c-0.352,0.143 -0.77,0.22 -1.254,0.22c-0.473,0 -0.891,-0.11 -1.254,-0.33c-0.363,-0.209 -0.66,-0.506 -0.88,-0.891c-0.209,-0.385 -0.341,-0.814 -0.385,-1.287c-0.011,-0.22 -0.022,-0.385 -0.022,-0.506c0,-0.121 0.011,-0.286 0.022,-0.506c0.044,-0.451 0.176,-0.869 0.385,-1.232c0.22,-0.363 0.517,-0.66 0.88,-0.869c0.363,-0.209 0.781,-0.319 1.254,-0.319zM87.794,59.433v-0.033c0,-0.451 -0.143,-0.803 -0.418,-1.067c-0.286,-0.275 -0.66,-0.407 -1.133,-0.407c-0.429,0 -0.781,0.132 -1.078,0.407c-0.297,0.275 -0.451,0.627 -0.462,1.067v0.033z"/></g><g><path d="M98.002,59.587c0.011,0.077 0.011,0.187 0.011,0.352c0,0.165 0,0.286 -0.011,0.363c-0.022,0.528 -0.143,0.99 -0.363,1.386c-0.231,0.396 -0.528,0.704 -0.891,0.913c-0.374,0.209 -0.792,0.319 -1.243,0.319c-0.759,0 -1.331,-0.253 -1.705,-0.748v0.341c0,0.077 -0.033,0.154 -0.088,0.209c-0.055,0.055 -0.132,0.088 -0.209,0.088h-0.407c-0.077,0 -0.154,-0.033 -0.209,-0.088c-0.055,-0.055 -0.088,-0.132 -0.088,-0.209v-7.216c0,-0.077 0.033,-0.154 0.088,-0.209c0.055,-0.055 0.132,-0.088 0.209,-0.088h0.407c0.077,0 0.154,0.033 0.209,0.088c0.055,0.055 0.088,0.132 0.088,0.209v2.431c0.165,-0.209 0.385,-0.396 0.671,-0.528c0.275,-0.154 0.627,-0.22 1.034,-0.22c0.462,0 0.88,0.11 1.243,0.319c0.363,0.209 0.66,0.517 0.891,0.902c0.22,0.396 0.341,0.858 0.363,1.386zM95.395,61.974c0.473,0 0.858,-0.154 1.133,-0.451c0.275,-0.308 0.44,-0.726 0.473,-1.265c0.011,-0.077 0.011,-0.176 0.011,-0.308c0,-0.627 -0.143,-1.122 -0.418,-1.485c-0.286,-0.363 -0.682,-0.539 -1.199,-0.539c-0.462,0 -0.836,0.143 -1.111,0.429c-0.275,0.286 -0.44,0.682 -0.484,1.199c-0.011,0.077 -0.011,0.22 -0.011,0.429c0,0.22 0,0.363 0.011,0.44c0.033,0.473 0.198,0.858 0.495,1.133c0.286,0.275 0.649,0.418 1.1,0.418z"/></g><g><path d="M99.322,57.387c0,-0.077 0.033,-0.154 0.088,-0.209c0.055,-0.055 0.132,-0.088 0.209,-0.088h0.407c0.077,0 0.154,0.033 0.209,0.088c0.055,0.055 0.088,0.132 0.088,0.209v2.904c0,0.561 0.121,0.979 0.385,1.254c0.253,0.286 0.616,0.429 1.1,0.429c0.473,0 0.836,-0.143 1.1,-0.429c0.253,-0.286 0.385,-0.704 0.385,-1.254v-2.904c0,-0.077 0.033,-0.154 0.088,-0.209c0.055,-0.055 0.132,-0.088 0.209,-0.088h0.407c0.077,0 0.154,0.033 0.209,0.088c0.055,0.055 0.088,0.132 0.088,0.209v5.126c0,0.077 -0.033,0.154 -0.088,0.209c-0.055,0.055 -0.132,0.088 -0.209,0.088h-0.407c-0.077,0 -0.154,-0.033 -0.209,-0.088c-0.055,-0.055 -0.088,-0.132 -0.088,-0.209v-0.341c-0.385,0.495 -0.935,0.748 -1.65,0.748c-0.704,0 -1.265,-0.22 -1.683,-0.66c-0.429,-0.44 -0.638,-1.045 -0.638,-1.804z"/></g><g><path d="M107.44,60.885c0,0.319 0.066,0.561 0.198,0.726c0.121,0.165 0.363,0.253 0.726,0.253h0.583c0.077,0 0.154,0.033 0.209,0.088c0.055,0.055 0.088,0.132 0.088,0.209v0.352c0,0.077 -0.033,0.154 -0.088,0.209c-0.055,0.055 -0.132,0.088 -0.209,0.088h-0.693c-0.627,0 -1.078,-0.165 -1.375,-0.495c-0.297,-0.319 -0.44,-0.803 -0.44,-1.43v-2.849h-0.814c-0.077,0 -0.154,-0.033 -0.209,-0.088c-0.055,-0.055 -0.088,-0.132 -0.088,-0.209v-0.352c0,-0.077 0.033,-0.154 0.088,-0.209c0.055,-0.055 0.132,-0.088 0.209,-0.088h0.814v-1.793c0,-0.077 0.033,-0.154 0.088,-0.209c0.055,-0.055 0.132,-0.088 0.209,-0.088h0.407c0.077,0 0.154,0.033 0.209,0.088c0.055,0.055 0.088,0.132 0.088,0.209v1.793h1.397c0.077,0 0.154,0.033 0.209,0.088c0.055,0.055 0.088,0.132 0.088,0.209v0.352c0,0.077 -0.033,0.154 -0.088,0.209c-0.055,0.055 -0.132,0.088 -0.209,0.088h-1.397z"/></g><g><path d="M111.84,60.885c0,0.319 0.066,0.561 0.198,0.726c0.121,0.165 0.363,0.253 0.726,0.253h0.583c0.077,0 0.154,0.033 0.209,0.088c0.055,0.055 0.088,0.132 0.088,0.209v0.352c0,0.077 -0.033,0.154 -0.088,0.209c-0.055,0.055 -0.132,0.088 -0.209,0.088h-0.693c-0.627,0 -1.078,-0.165 -1.375,-0.495c-0.297,-0.319 -0.44,-0.803 -0.44,-1.43v-2.849h-0.814c-0.077,0 -0.154,-0.033 -0.209,-0.088c-0.055,-0.055 -0.088,-0.132 -0.088,-0.209v-0.352c0,-0.077 0.033,-0.154 0.088,-0.209c0.055,-0.055 0.132,-0.088 0.209,-0.088h0.814v-1.793c0,-0.077 0.033,-0.154 0.088,-0.209c0.055,-0.055 0.132,-0.088 0.209,-0.088h0.407c0.077,0 0.154,0.033 0.209,0.088c0.055,0.055 0.088,0.132 0.088,0.209v1.793h1.397c0.077,0 0.154,0.033 0.209,0.088c0.055,0.055 0.088,0.132 0.088,0.209v0.352c0,0.077 -0.033,0.154 -0.088,0.209c-0.055,0.055 -0.132,0.088 -0.209,0.088h-1.397z"/></g><g><path d="M119.694,59.433c0.011,0.165 0.022,0.341 0.022,0.528c0,0.176 -0.011,0.341 -0.022,0.506c-0.066,0.748 -0.319,1.342 -0.77,1.782c-0.462,0.451 -1.067,0.671 -1.837,0.671c-0.77,0 -1.375,-0.22 -1.826,-0.671c-0.451,-0.44 -0.715,-1.034 -0.781,-1.782c-0.011,-0.077 -0.011,-0.253 -0.011,-0.506c0,-0.275 0,-0.451 0.011,-0.528c0.055,-0.748 0.319,-1.342 0.77,-1.782c0.451,-0.451 1.067,-0.671 1.837,-0.671c0.77,0 1.386,0.22 1.837,0.671c0.451,0.44 0.715,1.034 0.77,1.782zM118.693,59.488c-0.044,-0.473 -0.198,-0.847 -0.462,-1.133c-0.275,-0.286 -0.649,-0.429 -1.144,-0.429c-0.495,0 -0.869,0.143 -1.133,0.429c-0.275,0.286 -0.429,0.66 -0.473,1.133c-0.011,0.088 -0.011,0.242 -0.011,0.473c0,0.22 0,0.374 0.011,0.451c0.044,0.473 0.198,0.847 0.473,1.133c0.264,0.286 0.638,0.429 1.133,0.429c0.495,0 0.869,-0.143 1.144,-0.429c0.264,-0.286 0.418,-0.66 0.462,-1.133c0.011,-0.165 0.022,-0.308 0.022,-0.451c0,-0.143 -0.011,-0.297 -0.022,-0.473z"/></g><g><path d="M126.173,62.513c0,0.077 -0.033,0.154 -0.088,0.209c-0.055,0.055 -0.132,0.088 -0.209,0.088h-0.407c-0.077,0 -0.154,-0.033 -0.209,-0.088c-0.055,-0.055 -0.088,-0.132 -0.088,-0.209v-2.904c0,-0.55 -0.132,-0.968 -0.407,-1.254c-0.275,-0.286 -0.649,-0.429 -1.133,-0.429c-0.473,0 -0.847,0.143 -1.133,0.429c-0.264,0.286 -0.407,0.704 -0.407,1.254v2.904c0,0.077 -0.033,0.154 -0.088,0.209c-0.055,0.055 -0.132,0.088 -0.209,0.088h-0.407c-0.077,0 -0.154,-0.033 -0.209,-0.088c-0.055,-0.055 -0.088,-0.132 -0.088,-0.209v-5.126c0,-0.077 0.033,-0.154 0.088,-0.209c0.055,-0.055 0.132,-0.088 0.209,-0.088h0.407c0.077,0 0.154,0.033 0.209,0.088c0.055,0.055 0.088,0.132 0.088,0.209v0.341c0.165,-0.209 0.385,-0.396 0.671,-0.528c0.275,-0.154 0.627,-0.22 1.034,-0.22c0.462,0 0.869,0.099 1.232,0.297c0.363,0.198 0.638,0.484 0.836,0.847c0.209,0.374 0.308,0.814 0.308,1.32z"/></g><g><path d="M131.453,62.513c0,0.077 -0.033,0.154 -0.088,0.209c-0.055,0.055 -0.132,0.088 -0.209,0.088h-0.407c-0.077,0 -0.154,-0.033 -0.209,-0.088c-0.055,-0.055 -0.088,-0.132 -0.088,-0.209v-7.216c0,-0.077 0.033,-0.154 0.088,-0.209c0.055,-0.055 0.132,-0.088 0.209,-0.088h0.407c0.077,0 0.154,0.033 0.209,0.088c0.055,0.055 0.088,0.132 0.088,0.209z"/></g><g><path d="M136.502,59.191v-0.143c0,-0.363 -0.121,-0.638 -0.352,-0.836c-0.242,-0.187 -0.55,-0.286 -0.935,-0.286c-0.297,0 -0.517,0.044 -0.693,0.143c-0.154,0.099 -0.319,0.253 -0.462,0.451c-0.044,0.055 -0.088,0.099 -0.143,0.121c-0.055,0.022 -0.121,0.033 -0.209,0.033h-0.33c-0.077,0 -0.154,-0.033 -0.209,-0.088c-0.066,-0.055 -0.099,-0.132 -0.088,-0.209c0.022,-0.22 0.132,-0.44 0.319,-0.66c0.198,-0.209 0.462,-0.385 0.781,-0.528c0.319,-0.143 0.671,-0.209 1.034,-0.209c0.682,0 1.232,0.187 1.661,0.572c0.418,0.385 0.627,0.913 0.627,1.606v3.355c0,0.077 -0.033,0.154 -0.088,0.209c-0.055,0.055 -0.132,0.088 -0.209,0.088h-0.407c-0.077,0 -0.154,-0.033 -0.209,-0.088c-0.055,-0.055 -0.088,-0.132 -0.088,-0.209v-0.451c-0.121,0.264 -0.363,0.473 -0.748,0.627c-0.385,0.154 -0.759,0.231 -1.144,0.231c-0.374,0 -0.704,-0.066 -1.001,-0.209c-0.297,-0.132 -0.517,-0.319 -0.682,-0.55c-0.154,-0.231 -0.231,-0.495 -0.231,-0.792c0,-0.55 0.209,-0.979 0.616,-1.298c0.407,-0.308 0.957,-0.517 1.639,-0.627zM136.502,60.071l-1.298,0.209c-0.473,0.077 -0.847,0.187 -1.111,0.352c-0.264,0.165 -0.396,0.374 -0.396,0.627c0,0.187 0.088,0.352 0.253,0.495c0.165,0.143 0.429,0.22 0.77,0.22c0.528,0 0.957,-0.154 1.287,-0.451c0.33,-0.297 0.495,-0.693 0.495,-1.177z"/></g><g><path d="M140.792,64.636c-0.066,0.176 -0.176,0.264 -0.319,0.264h-0.451c-0.077,0 -0.132,-0.022 -0.187,-0.077c-0.055,-0.055 -0.077,-0.11 -0.077,-0.187c0,-0.033 0,-0.055 0.011,-0.077l1.056,-2.299l-2.178,-4.829c-0.011,-0.022 -0.011,-0.044 -0.011,-0.077c0,-0.077 0.022,-0.132 0.077,-0.187c0.055,-0.055 0.11,-0.077 0.187,-0.077h0.451c0.143,0 0.253,0.088 0.319,0.264l1.694,3.74l1.716,-3.74c0.066,-0.176 0.176,-0.264 0.319,-0.264h0.451c0.077,0 0.132,0.022 0.187,0.077c0.055,0.055 0.077,0.11 0.077,0.187c0,0.033 0,0.055 -0.011,0.077z"/></g><g><path d="M150.186,59.433c0.011,0.165 0.022,0.341 0.022,0.528c0,0.176 -0.011,0.341 -0.022,0.506c-0.066,0.748 -0.319,1.342 -0.77,1.782c-0.462,0.451 -1.067,0.671 -1.837,0.671c-0.77,0 -1.375,-0.22 -1.826,-0.671c-0.451,-0.44 -0.715,-1.034 -0.781,-1.782c-0.011,-0.077 -0.011,-0.253 -0.011,-0.506c0,-0.275 0,-0.451 0.011,-0.528c0.055,-0.748 0.319,-1.342 0.77,-1.782c0.451,-0.451 1.067,-0.671 1.837,-0.671c0.77,0 1.386,0.22 1.837,0.671c0.451,0.44 0.715,1.034 0.77,1.782zM149.185,59.488c-0.044,-0.473 -0.198,-0.847 -0.462,-1.133c-0.275,-0.286 -0.649,-0.429 -1.144,-0.429c-0.495,0 -0.869,0.143 -1.133,0.429c-0.275,0.286 -0.429,0.66 -0.473,1.133c-0.011,0.088 -0.011,0.242 -0.011,0.473c0,0.22 0,0.374 0.011,0.451c0.044,0.473 0.198,0.847 0.473,1.133c0.264,0.286 0.638,0.429 1.133,0.429c0.495,0 0.869,-0.143 1.144,-0.429c0.264,-0.286 0.418,-0.66 0.462,-1.133c0.011,-0.165 0.022,-0.308 0.022,-0.451c0,-0.143 -0.011,-0.297 -0.022,-0.473z"/></g><g><path d="M151.528,57.387c0,-0.077 0.033,-0.154 0.088,-0.209c0.055,-0.055 0.132,-0.088 0.209,-0.088h0.407c0.077,0 0.154,0.033 0.209,0.088c0.055,0.055 0.088,0.132 0.088,0.209v2.904c0,0.561 0.121,0.979 0.385,1.254c0.253,0.286 0.616,0.429 1.1,0.429c0.473,0 0.836,-0.143 1.1,-0.429c0.253,-0.286 0.385,-0.704 0.385,-1.254v-2.904c0,-0.077 0.033,-0.154 0.088,-0.209c0.055,-0.055 0.132,-0.088 0.209,-0.088h0.407c0.077,0 0.154,0.033 0.209,0.088c0.055,0.055 0.088,0.132 0.088,0.209v5.126c0,0.077 -0.033,0.154 -0.088,0.209c-0.055,0.055 -0.132,0.088 -0.209,0.088h-0.407c-0.077,0 -0.154,-0.033 -0.209,-0.088c-0.055,-0.055 -0.088,-0.132 -0.088,-0.209v-0.341c-0.385,0.495 -0.935,0.748 -1.65,0.748c-0.704,0 -1.265,-0.22 -1.683,-0.66c-0.429,-0.44 -0.638,-1.045 -0.638,-1.804z"/></g><g><path d="M159.646,60.885c0,0.319 0.066,0.561 0.198,0.726c0.121,0.165 0.363,0.253 0.726,0.253h0.583c0.077,0 0.154,0.033 0.209,0.088c0.055,0.055 0.088,0.132 0.088,0.209v0.352c0,0.077 -0.033,0.154 -0.088,0.209c-0.055,0.055 -0.132,0.088 -0.209,0.088h-0.693c-0.627,0 -1.078,-0.165 -1.375,-0.495c-0.297,-0.319 -0.44,-0.803 -0.44,-1.43v-2.849h-0.814c-0.077,0 -0.154,-0.033 -0.209,-0.088c-0.055,-0.055 -0.088,-0.132 -0.088,-0.209v-0.352c0,-0.077 0.033,-0.154 0.088,-0.209c0.055,-0.055 0.132,-0.088 0.209,-0.088h0.814v-1.793c0,-0.077 0.033,-0.154 0.088,-0.209c0.055,-0.055 0.132,-0.088 0.209,-0.088h0.407c0.077,0 0.154,0.033 0.209,0.088c0.055,0.055 0.088,0.132 0.088,0.209v1.793h1.397c0.077,0 0.154,0.033 0.209,0.088c0.055,0.055 0.088,0.132 0.088,0.209v0.352c0,0.077 -0.033,0.154 -0.088,0.209c-0.055,0.055 -0.132,0.088 -0.209,0.088h-1.397z"/></g><g><path d="M163.452,61.479c0.077,0 0.154,0.033 0.209,0.088c0.055,0.055 0.088,0.132 0.088,0.209v0.737c0,0.077 -0.033,0.154 -0.088,0.209c-0.055,0.055 -0.132,0.088 -0.209,0.088h-0.737c-0.077,0 -0.154,-0.033 -0.209,-0.088c-0.055,-0.055 -0.088,-0.132 -0.088,-0.209v-0.737c0,-0.077 0.033,-0.154 0.088,-0.209c0.055,-0.055 0.132,-0.088 0.209,-0.088z"/></g></g></g></g></g></svg>