<svg version="1.1" xmlns="http://www.w3.org/2000/svg" xmlns:xlink="http://www.w3.org/1999/xlink" width="47.18209" height="10.06322" viewBox="0,0,47.18209,10.06322"><g transform="translate(-216.40896,-174.96839)"><g data-paper-data="{&quot;isPaintingLayer&quot;:true}" fill="#ffffff" fill-rule="nonzero" stroke="none" stroke-width="1" stroke-linecap="butt" stroke-linejoin="round" stroke-miterlimit="2" stroke-dasharray="" stroke-dashoffset="0" style="mix-blend-mode: normal"><g><g><path d="M224.51703,174.96839c0.10063,0 0.20126,0.04313 0.27314,0.11501c0.07188,0.07188 0.11501,0.17251 0.11501,0.27314v1.52386c0,0.10063 -0.04313,0.20126 -0.11501,0.27314c-0.07188,0.07188 -0.17251,0.11501 -0.27314,0.11501h-2.53018v7.3749c0,0.10063 -0.04313,0.20126 -0.11501,0.27314c-0.07188,0.07188 -0.17251,0.11501 -0.27314,0.11501h-1.88326c-0.10063,0 -0.20126,-0.04313 -0.27314,-0.11501c-0.07188,-0.07188 -0.11501,-0.17251 -0.11501,-0.27314v-7.3749h-2.53018c-0.10063,0 -0.20126,-0.04313 -0.27314,-0.11501c-0.07188,-0.07188 -0.11501,-0.17251 -0.11501,-0.27314v-1.52386c0,-0.10063 0.04313,-0.20126 0.11501,-0.27314c0.07188,-0.07188 0.17251,-0.11501 0.27314,-0.11501z"/></g><g><path d="M228.85859,182.73144h4.54282c0.10063,0 0.20126,0.04313 0.27314,0.11501c0.07188,0.07188 0.11501,0.17251 0.11501,0.27314v1.52386c0,0.10063 -0.04313,0.20126 -0.11501,0.27314c-0.07188,0.07188 -0.17251,0.11501 -0.27314,0.11501h-6.81423c-0.10063,0 -0.20126,-0.04313 -0.27314,-0.11501c-0.07188,-0.07188 -0.11501,-0.17251 -0.11501,-0.27314v-9.28691c0,-0.10063 0.04313,-0.20126 0.11501,-0.27314c0.07188,-0.07188 0.17251,-0.11501 0.27314,-0.11501h6.69923c0.10063,0 0.20126,0.04313 0.27314,0.11501c0.07188,0.07188 0.11501,0.17251 0.11501,0.27314v1.52386c0,0.10063 -0.04313,0.20126 -0.11501,0.27314c-0.07188,0.07188 -0.17251,0.11501 -0.27314,0.11501h-4.42781v1.55261h4.11154c0.10063,0 0.20126,0.04313 0.27314,0.11501c0.07188,0.07188 0.11501,0.17251 0.11501,0.27314v1.52386c0,0.10063 -0.04313,0.20126 -0.11501,0.27314c-0.07188,0.07188 -0.17251,0.11501 -0.27314,0.11501h-4.11154z"/></g><g><path d="M242.83208,174.96839c0.10063,0 0.20126,0.04313 0.27314,0.11501c0.07188,0.07188 0.11501,0.17251 0.11501,0.27314v1.52386c0,0.10063 -0.04313,0.20126 -0.11501,0.27314c-0.07188,0.07188 -0.17251,0.11501 -0.27314,0.11501h-2.53018v7.3749c0,0.10063 -0.04313,0.20126 -0.11501,0.27314c-0.07188,0.07188 -0.17251,0.11501 -0.27314,0.11501h-1.88326c-0.10063,0 -0.20126,-0.04313 -0.27314,-0.11501c-0.07188,-0.07188 -0.11501,-0.17251 -0.11501,-0.27314v-7.3749h-2.53018c-0.10063,0 -0.20126,-0.04313 -0.27314,-0.11501c-0.07188,-0.07188 -0.11501,-0.17251 -0.11501,-0.27314v-1.52386c0,-0.10063 0.04313,-0.20126 0.11501,-0.27314c0.07188,-0.07188 0.17251,-0.11501 0.27314,-0.11501z"/></g><g><path d="M248.72625,174.96839c1.27947,0 2.28579,0.27314 2.99021,0.81943c0.70443,0.56066 1.06383,1.3801 1.06383,2.47268c0,1.39447 -0.57504,2.34329 -1.71075,2.8752l1.78263,3.42149c0.02875,0.0575 0.04313,0.11501 0.04313,0.15814c0,0.08626 -0.02875,0.15814 -0.08626,0.21564c-0.07188,0.07188 -0.14376,0.10063 -0.23002,0.10063h-1.95514c-0.17251,0 -0.3019,-0.04313 -0.38815,-0.11501c-0.08626,-0.07188 -0.15814,-0.15814 -0.21564,-0.27314l-1.59574,-3.07647h-1.32259v3.07647c0,0.10063 -0.04313,0.20126 -0.11501,0.27314c-0.07188,0.07188 -0.17251,0.11501 -0.27314,0.11501h-1.88326c-0.10063,0 -0.20126,-0.04313 -0.27314,-0.11501c-0.07188,-0.07188 -0.11501,-0.17251 -0.11501,-0.27314v-9.28691c0,-0.10063 0.04313,-0.20126 0.11501,-0.27314c0.07188,-0.07188 0.17251,-0.11501 0.27314,-0.11501zM248.72625,179.32433c0.93444,0 1.39447,-0.3594 1.39447,-1.06383c0,-0.70443 -0.46003,-1.06383 -1.39447,-1.06383h-1.62449v2.12765z"/></g><g><path d="M263.53355,184.4997c0.04313,0.10063 0.0575,0.17251 0.0575,0.21564c0,0.08626 -0.02875,0.15814 -0.08626,0.21564c-0.07188,0.07188 -0.14376,0.10063 -0.23002,0.10063h-1.81138c-0.15814,0 -0.28752,-0.04313 -0.37378,-0.11501c-0.10063,-0.07188 -0.15814,-0.14376 -0.18689,-0.24439l-0.40253,-1.19321h-3.82402l-0.40253,1.19321c-0.02875,0.10063 -0.08626,0.17251 -0.17251,0.24439c-0.10063,0.07188 -0.23002,0.11501 -0.38815,0.11501h-1.81138c-0.08626,0 -0.15814,-0.02875 -0.21564,-0.10063c-0.07188,-0.0575 -0.10063,-0.12938 -0.10063,-0.21564c0,-0.04313 0.01438,-0.11501 0.0575,-0.21564l3.13397,-9.05689c0.04313,-0.12938 0.12938,-0.24439 0.23002,-0.34502c0.10063,-0.08626 0.24439,-0.12938 0.4169,-0.12938h2.32892c0.17251,0 0.31627,0.04313 0.4169,0.12938c0.10063,0.10063 0.18689,0.21564 0.23002,0.34502zM259.75265,181.25071l-1.16446,-3.45025l-1.16446,3.45025z"/></g></g></g></g></svg>