<svg version="1.1" xmlns="http://www.w3.org/2000/svg" xmlns:xlink="http://www.w3.org/1999/xlink" width="19.99998" height="20.00003" viewBox="0,0,19.99998,20.00003"><defs><linearGradient x1="230.00002" y1="180" x2="249.99999" y2="180" gradientUnits="userSpaceOnUse" id="color-1"><stop offset="0" stop-color="#696bf9"/><stop offset="1" stop-color="#474bbb"/></linearGradient></defs><g transform="translate(-230.00001,-169.99998)"><g data-paper-data="{&quot;isPaintingLayer&quot;:true}" fill-rule="evenodd" stroke-linecap="round" stroke-linejoin="round" stroke-miterlimit="1.5" stroke-dasharray="" stroke-dashoffset="0" style="mix-blend-mode: normal"><path d="M249.99999,188.00001c0,1.10374 -0.89615,2.00001 -2,2.00001h-15.99998c-1.10385,0 -2,-0.89627 -2,-2.00001v-16.00002c0,-1.10374 0.89615,-2 2,-2h15.99998c1.10385,0 2,0.89626 2,2z" fill="url(#color-1)" stroke="none" stroke-width="1"/><path d="M236.14279,177.27253c0.01003,-0.01115 0.01985,-0.02205 0.02988,-0.0332c1.78438,-1.98284 4.8427,-2.14396 6.82555,-0.35958c1.98284,1.78438 2.14396,4.8427 0.35958,6.82554c-1.6952,1.88374 -4.54075,2.12333 -6.521,0.61212" fill="none" stroke="#ffffff" stroke-width="2"/><path d="M233.40264,180.31743l0.98915,-5.62178l4.49758,4.04743z" fill="#ffffff" stroke="none" stroke-width="1"/></g></g></svg>