<svg version="1.1" xmlns="http://www.w3.org/2000/svg" xmlns:xlink="http://www.w3.org/1999/xlink" width="480" height="247.92" viewBox="0,0,480,247.92"><defs><linearGradient x1="227.32066" y1="99.99991" x2="227.32066" y2="89.99991" gradientUnits="userSpaceOnUse" id="color-1"><stop offset="0" stop-color="#000000" stop-opacity="0"/><stop offset="1" stop-color="#000000" stop-opacity="0.5"/></linearGradient><linearGradient x1="480" y1="45" x2="0" y2="45" gradientUnits="userSpaceOnUse" id="color-2"><stop offset="0" stop-color="#b85255"/><stop offset="1" stop-color="#dd9751"/></linearGradient></defs><g data-paper-data="{&quot;isPaintingLayer&quot;:true}" stroke="none" stroke-width="1" stroke-linecap="butt" stroke-linejoin="round" stroke-miterlimit="2" stroke-dasharray="" stroke-dashoffset="0" style="mix-blend-mode: normal"><g><g fill="url(#color-1)" fill-rule="evenodd"><path d="M479.9998,89.99991v10h-479.9998v-10z"/></g><g fill="url(#color-2)" fill-rule="evenodd"><path d="M0,90v-90h480v90z"/></g><g fill="#ffffff" fill-rule="nonzero"><g><path d="M35.544,35.656c0.072,0.84 0.336,1.512 0.816,2.016c0.456,0.504 1.2,0.768 2.208,0.768c0.96,0 1.656,-0.192 2.088,-0.552c0.432,-0.36 0.744,-0.816 0.912,-1.344c0.096,-0.264 0.192,-0.456 0.288,-0.552c0.096,-0.096 0.264,-0.144 0.528,-0.144h3.144c0.144,0 0.264,0.048 0.384,0.144c0.096,0.12 0.144,0.24 0.144,0.384c-0.024,1.08 -0.36,2.064 -1.032,2.952c-0.648,0.912 -1.56,1.632 -2.688,2.16c-1.128,0.528 -2.4,0.792 -3.768,0.792c-1.488,0 -2.784,-0.288 -3.888,-0.888c-1.104,-0.576 -1.968,-1.368 -2.568,-2.352c-0.6,-0.984 -0.936,-2.064 -1.008,-3.264c-0.024,-0.768 -0.048,-1.392 -0.048,-1.896c0,-0.6 0.024,-1.392 0.048,-2.376c0.048,-1.2 0.384,-2.304 0.984,-3.288c0.6,-0.984 1.464,-1.752 2.592,-2.352c1.104,-0.576 2.4,-0.864 3.888,-0.864c1.368,0 2.64,0.264 3.768,0.792c1.128,0.528 2.04,1.248 2.688,2.136c0.672,0.912 1.008,1.896 1.032,2.976c0,0.144 -0.048,0.264 -0.144,0.36c-0.12,0.12 -0.24,0.168 -0.384,0.168h-3.144c-0.264,0 -0.432,-0.048 -0.528,-0.144c-0.096,-0.096 -0.192,-0.288 -0.288,-0.552c-0.168,-0.528 -0.48,-0.984 -0.912,-1.344c-0.432,-0.36 -1.128,-0.552 -2.088,-0.552c-1.008,0 -1.752,0.264 -2.208,0.768c-0.48,0.504 -0.744,1.176 -0.816,2.016c-0.024,0.552 -0.048,1.224 -0.048,2.016c0,0.768 0.024,1.44 0.048,2.016z"/></g><g><path d="M62.304,25.24c0.168,0 0.336,0.072 0.456,0.192c0.12,0.12 0.192,0.288 0.192,0.456v9.576c0,1.44 -0.312,2.664 -0.912,3.696c-0.6,1.032 -1.464,1.8 -2.544,2.328c-1.104,0.528 -2.376,0.792 -3.84,0.792c-1.464,0 -2.76,-0.264 -3.864,-0.792c-1.08,-0.528 -1.92,-1.296 -2.52,-2.328c-0.6,-1.032 -0.912,-2.256 -0.912,-3.696v-9.576c0,-0.168 0.072,-0.336 0.192,-0.456c0.12,-0.12 0.288,-0.192 0.456,-0.192h3.144c0.168,0 0.336,0.072 0.456,0.192c0.12,0.12 0.192,0.288 0.192,0.456v9.48c0,0.984 0.24,1.728 0.744,2.256c0.48,0.552 1.176,0.816 2.112,0.816c0.936,0 1.632,-0.264 2.136,-0.816c0.48,-0.528 0.72,-1.272 0.72,-2.256v-9.48c0,-0.168 0.072,-0.336 0.192,-0.456c0.12,-0.12 0.288,-0.192 0.456,-0.192z"/></g><g><path d="M79.272,29.728c0,0.144 -0.048,0.264 -0.144,0.36c-0.12,0.12 -0.24,0.168 -0.36,0.168h-3.144c-0.216,0 -0.408,-0.024 -0.528,-0.096c-0.12,-0.048 -0.264,-0.144 -0.432,-0.288c-0.024,-0.024 -0.144,-0.144 -0.312,-0.336c-0.168,-0.168 -0.456,-0.336 -0.816,-0.48c-0.384,-0.144 -0.816,-0.216 -1.32,-0.216c-0.696,0 -1.248,0.096 -1.68,0.264c-0.456,0.192 -0.672,0.504 -0.672,0.96c0,0.312 0.144,0.576 0.408,0.744c0.264,0.192 0.696,0.36 1.272,0.504c0.552,0.144 1.536,0.36 2.952,0.648c1.8,0.36 3.144,0.936 3.984,1.728c0.84,0.792 1.272,1.896 1.272,3.36c0,1.056 -0.312,1.968 -0.936,2.76c-0.648,0.816 -1.512,1.416 -2.64,1.824c-1.128,0.432 -2.424,0.648 -3.84,0.648c-1.368,0 -2.616,-0.24 -3.744,-0.72c-1.128,-0.48 -1.992,-1.104 -2.64,-1.872c-0.648,-0.768 -0.984,-1.56 -1.008,-2.376c0,-0.144 0.048,-0.264 0.168,-0.384c0.096,-0.096 0.216,-0.144 0.336,-0.144h3.144c0.36,0 0.648,0.12 0.912,0.336c0.048,0.048 0.168,0.192 0.384,0.408c0.216,0.24 0.528,0.456 0.96,0.624c0.408,0.192 0.912,0.288 1.488,0.288c1.992,0 2.976,-0.432 2.976,-1.272c0,-0.264 -0.144,-0.504 -0.408,-0.696c-0.288,-0.168 -0.696,-0.336 -1.2,-0.456c-0.504,-0.12 -1.32,-0.312 -2.448,-0.552l-1.08,-0.216c-1.632,-0.36 -2.832,-0.936 -3.6,-1.776c-0.768,-0.816 -1.152,-1.92 -1.152,-3.288c0,-0.936 0.288,-1.8 0.84,-2.592c0.552,-0.768 1.368,-1.416 2.4,-1.896c1.032,-0.456 2.208,-0.696 3.552,-0.696c1.296,0 2.472,0.24 3.552,0.72c1.08,0.504 1.92,1.104 2.544,1.848c0.6,0.744 0.936,1.464 0.96,2.16z"/></g><g><path d="M94.2,25.24c0.168,0 0.336,0.072 0.456,0.192c0.12,0.12 0.192,0.288 0.192,0.456v2.544c0,0.168 -0.072,0.336 -0.192,0.456c-0.12,0.12 -0.288,0.192 -0.456,0.192h-4.224v12.312c0,0.168 -0.072,0.336 -0.192,0.456c-0.12,0.12 -0.288,0.192 -0.456,0.192h-3.144c-0.168,0 -0.336,-0.072 -0.456,-0.192c-0.12,-0.12 -0.192,-0.288 -0.192,-0.456v-12.312h-4.224c-0.168,0 -0.336,-0.072 -0.456,-0.192c-0.12,-0.12 -0.192,-0.288 -0.192,-0.456v-2.544c0,-0.168 0.072,-0.336 0.192,-0.456c0.12,-0.12 0.288,-0.192 0.456,-0.192z"/></g><g><path d="M103.944,25c1.512,0 2.832,0.288 3.936,0.864c1.104,0.576 1.968,1.344 2.544,2.328c0.624,0.984 0.936,2.088 1.008,3.312c0.024,0.456 0.048,1.176 0.048,2.16c0,0.984 -0.024,1.68 -0.048,2.112c-0.072,1.224 -0.384,2.304 -1.008,3.288c-0.576,0.984 -1.44,1.776 -2.544,2.352c-1.104,0.576 -2.424,0.864 -3.936,0.864c-1.512,0 -2.832,-0.288 -3.936,-0.864c-1.104,-0.576 -1.944,-1.368 -2.544,-2.352c-0.6,-0.984 -0.936,-2.064 -1.008,-3.288c-0.024,-0.864 -0.048,-1.56 -0.048,-2.112c0,-0.552 0.024,-1.272 0.048,-2.16c0.072,-1.224 0.408,-2.328 1.008,-3.312c0.6,-0.984 1.44,-1.752 2.544,-2.328c1.104,-0.576 2.424,-0.864 3.936,-0.864zM106.992,31.624c-0.072,-0.84 -0.384,-1.536 -0.864,-2.04c-0.504,-0.504 -1.248,-0.744 -2.184,-0.744c-0.936,0 -1.656,0.24 -2.16,0.744c-0.504,0.504 -0.816,1.2 -0.888,2.04c-0.048,0.528 -0.072,1.2 -0.072,1.992c0,0.792 0.024,1.464 0.072,2.04c0.072,0.84 0.384,1.512 0.888,2.016c0.504,0.504 1.224,0.768 2.16,0.768c0.936,0 1.68,-0.264 2.184,-0.768c0.48,-0.504 0.792,-1.176 0.864,-2.016c0.048,-0.576 0.072,-1.248 0.072,-2.04c0,-0.792 -0.024,-1.464 -0.072,-1.992z"/></g><g><path d="M118.68,33.448v7.944c0,0.168 -0.072,0.336 -0.192,0.456c-0.12,0.12 -0.288,0.192 -0.456,0.192h-3.144c-0.168,0 -0.336,-0.072 -0.456,-0.192c-0.12,-0.12 -0.192,-0.288 -0.192,-0.456v-15.504c0,-0.168 0.072,-0.336 0.192,-0.456c0.12,-0.12 0.288,-0.192 0.456,-0.192h2.784c0.456,0 0.792,0.216 1.032,0.648l3.888,6.648l3.888,-6.648c0.24,-0.432 0.576,-0.648 1.032,-0.648h2.784c0.168,0 0.336,0.072 0.456,0.192c0.12,0.12 0.192,0.288 0.192,0.456v15.504c0,0.168 -0.072,0.336 -0.192,0.456c-0.12,0.12 -0.288,0.192 -0.456,0.192h-3.144c-0.168,0 -0.336,-0.072 -0.456,-0.192c-0.12,-0.12 -0.192,-0.288 -0.192,-0.456v-7.944l-2.256,3.96c-0.12,0.168 -0.24,0.312 -0.384,0.432c-0.12,0.12 -0.288,0.168 -0.504,0.168h-1.536c-0.216,0 -0.384,-0.048 -0.504,-0.168c-0.144,-0.12 -0.264,-0.264 -0.384,-0.432z"/></g><g><path d="M134.952,42.04c-0.168,0 -0.336,-0.072 -0.456,-0.192c-0.12,-0.12 -0.192,-0.288 -0.192,-0.456v-15.504c0,-0.168 0.072,-0.336 0.192,-0.456c0.12,-0.12 0.288,-0.192 0.456,-0.192h3.144c0.168,0 0.336,0.072 0.456,0.192c0.12,0.12 0.192,0.288 0.192,0.456v15.504c0,0.168 -0.072,0.336 -0.192,0.456c-0.12,0.12 -0.288,0.192 -0.456,0.192z"/></g><g><path d="M154.872,38.2c0.168,0 0.336,0.072 0.456,0.192c0.12,0.12 0.192,0.288 0.192,0.456v2.544c0,0.168 -0.072,0.336 -0.192,0.456c-0.12,0.12 -0.288,0.192 -0.456,0.192h-12.864c-0.168,0 -0.336,-0.072 -0.456,-0.192c-0.12,-0.12 -0.192,-0.288 -0.192,-0.456v-2.424c0,-0.192 0.024,-0.336 0.096,-0.456c0.072,-0.12 0.144,-0.24 0.264,-0.384l7.68,-9.048h-7.152c-0.168,0 -0.336,-0.072 -0.456,-0.192c-0.12,-0.12 -0.192,-0.288 -0.192,-0.456v-2.544c0,-0.168 0.072,-0.336 0.192,-0.456c0.12,-0.12 0.288,-0.192 0.456,-0.192h12.384c0.168,0 0.336,0.072 0.456,0.192c0.12,0.12 0.192,0.288 0.192,0.456v2.424c0,0.312 -0.096,0.576 -0.312,0.792l-7.68,9.096z"/></g><g><path d="M171.648,41.152c0.072,0.168 0.096,0.288 0.096,0.36c0,0.144 -0.048,0.264 -0.144,0.36c-0.12,0.12 -0.24,0.168 -0.384,0.168h-3.024c-0.264,0 -0.48,-0.072 -0.624,-0.192c-0.168,-0.12 -0.264,-0.24 -0.312,-0.408l-0.672,-1.992h-6.384l-0.672,1.992c-0.048,0.168 -0.144,0.288 -0.288,0.408c-0.168,0.12 -0.384,0.192 -0.648,0.192h-3.024c-0.144,0 -0.264,-0.048 -0.36,-0.168c-0.12,-0.096 -0.168,-0.216 -0.168,-0.36c0,-0.072 0.024,-0.192 0.096,-0.36l5.232,-15.12c0.072,-0.216 0.216,-0.408 0.384,-0.576c0.168,-0.144 0.408,-0.216 0.696,-0.216h3.888c0.288,0 0.528,0.072 0.696,0.216c0.168,0.168 0.312,0.36 0.384,0.576zM165.336,35.728l-1.944,-5.76l-1.944,5.76z"/></g><g><path d="M186.024,25.24c0.168,0 0.336,0.072 0.456,0.192c0.12,0.12 0.192,0.288 0.192,0.456v2.544c0,0.168 -0.072,0.336 -0.192,0.456c-0.12,0.12 -0.288,0.192 -0.456,0.192h-4.224v12.312c0,0.168 -0.072,0.336 -0.192,0.456c-0.12,0.12 -0.288,0.192 -0.456,0.192h-3.144c-0.168,0 -0.336,-0.072 -0.456,-0.192c-0.12,-0.12 -0.192,-0.288 -0.192,-0.456v-12.312h-4.224c-0.168,0 -0.336,-0.072 -0.456,-0.192c-0.12,-0.12 -0.192,-0.288 -0.192,-0.456v-2.544c0,-0.168 0.072,-0.336 0.192,-0.456c0.12,-0.12 0.288,-0.192 0.456,-0.192z"/></g><g><path d="M189.48,42.04c-0.168,0 -0.336,-0.072 -0.456,-0.192c-0.12,-0.12 -0.192,-0.288 -0.192,-0.456v-15.504c0,-0.168 0.072,-0.336 0.192,-0.456c0.12,-0.12 0.288,-0.192 0.456,-0.192h3.144c0.168,0 0.336,0.072 0.456,0.192c0.12,0.12 0.192,0.288 0.192,0.456v15.504c0,0.168 -0.072,0.336 -0.192,0.456c-0.12,0.12 -0.288,0.192 -0.456,0.192z"/></g><g><path d="M203.568,25c1.512,0 2.832,0.288 3.936,0.864c1.104,0.576 1.968,1.344 2.544,2.328c0.624,0.984 0.936,2.088 1.008,3.312c0.024,0.456 0.048,1.176 0.048,2.16c0,0.984 -0.024,1.68 -0.048,2.112c-0.072,1.224 -0.384,2.304 -1.008,3.288c-0.576,0.984 -1.44,1.776 -2.544,2.352c-1.104,0.576 -2.424,0.864 -3.936,0.864c-1.512,0 -2.832,-0.288 -3.936,-0.864c-1.104,-0.576 -1.944,-1.368 -2.544,-2.352c-0.6,-0.984 -0.936,-2.064 -1.008,-3.288c-0.024,-0.864 -0.048,-1.56 -0.048,-2.112c0,-0.552 0.024,-1.272 0.048,-2.16c0.072,-1.224 0.408,-2.328 1.008,-3.312c0.6,-0.984 1.44,-1.752 2.544,-2.328c1.104,-0.576 2.424,-0.864 3.936,-0.864zM206.616,31.624c-0.072,-0.84 -0.384,-1.536 -0.864,-2.04c-0.504,-0.504 -1.248,-0.744 -2.184,-0.744c-0.936,0 -1.656,0.24 -2.16,0.744c-0.504,0.504 -0.816,1.2 -0.888,2.04c-0.048,0.528 -0.072,1.2 -0.072,1.992c0,0.792 0.024,1.464 0.072,2.04c0.072,0.84 0.384,1.512 0.888,2.016c0.504,0.504 1.224,0.768 2.16,0.768c0.936,0 1.68,-0.264 2.184,-0.768c0.48,-0.504 0.792,-1.176 0.864,-2.016c0.048,-0.576 0.072,-1.248 0.072,-2.04c0,-0.792 -0.024,-1.464 -0.072,-1.992z"/></g><g><path d="M224.784,42.04c-0.24,0 -0.456,-0.072 -0.624,-0.192c-0.168,-0.12 -0.288,-0.24 -0.36,-0.36l-5.496,-8.208v8.112c0,0.168 -0.072,0.336 -0.192,0.456c-0.12,0.12 -0.288,0.192 -0.456,0.192h-3.144c-0.168,0 -0.336,-0.072 -0.456,-0.192c-0.12,-0.12 -0.192,-0.288 -0.192,-0.456v-15.504c0,-0.168 0.072,-0.336 0.192,-0.456c0.12,-0.12 0.288,-0.192 0.456,-0.192h2.496c0.24,0 0.456,0.048 0.624,0.168c0.168,0.12 0.288,0.264 0.36,0.384l5.496,8.208v-8.112c0,-0.168 0.072,-0.336 0.192,-0.456c0.12,-0.12 0.288,-0.192 0.456,-0.192h3.144c0.168,0 0.336,0.072 0.456,0.192c0.12,0.12 0.192,0.288 0.192,0.456v15.504c0,0.168 -0.072,0.336 -0.192,0.456c-0.12,0.12 -0.288,0.192 -0.456,0.192z"/></g></g><g fill="#ffffff" fill-rule="nonzero"><g><path d="M31.826,61.072l-0.572,1.463c-0.066,0.187 -0.209,0.275 -0.429,0.275h-0.407c-0.066,0 -0.121,-0.022 -0.165,-0.077c-0.055,-0.044 -0.077,-0.099 -0.077,-0.165c0,-0.033 0.011,-0.088 0.044,-0.154l2.695,-6.941c0.099,-0.242 0.264,-0.363 0.495,-0.363h0.66c0.231,0 0.396,0.121 0.495,0.363l2.684,6.941c0.033,0.066 0.044,0.121 0.044,0.154c0,0.066 -0.022,0.121 -0.066,0.165c-0.055,0.055 -0.11,0.077 -0.176,0.077h-0.407c-0.22,0 -0.363,-0.088 -0.429,-0.275l-0.572,-1.463zM35.258,60.082l-1.518,-3.927l-1.529,3.927z"/></g><g><path d="M42.232,55.297c0,-0.077 0.033,-0.154 0.088,-0.209c0.055,-0.055 0.132,-0.088 0.209,-0.088h0.407c0.077,0 0.154,0.033 0.209,0.088c0.055,0.055 0.088,0.132 0.088,0.209v7.216c0,0.077 -0.033,0.154 -0.088,0.209c-0.055,0.055 -0.132,0.088 -0.209,0.088h-0.407c-0.077,0 -0.154,-0.033 -0.209,-0.088c-0.055,-0.055 -0.088,-0.132 -0.088,-0.209v-0.341c-0.374,0.495 -0.946,0.748 -1.705,0.748c-0.451,0 -0.869,-0.11 -1.232,-0.319c-0.374,-0.209 -0.671,-0.517 -0.891,-0.913c-0.231,-0.396 -0.352,-0.858 -0.374,-1.386l-0.011,-0.363l0.011,-0.352c0.022,-0.528 0.143,-0.99 0.374,-1.386c0.22,-0.385 0.517,-0.693 0.88,-0.902c0.363,-0.209 0.781,-0.319 1.243,-0.319c0.407,0 0.759,0.066 1.045,0.22c0.275,0.132 0.495,0.319 0.66,0.528zM42.232,59.554c-0.022,-0.517 -0.176,-0.913 -0.462,-1.199c-0.286,-0.286 -0.66,-0.429 -1.133,-0.429c-0.473,0 -0.858,0.154 -1.133,0.462c-0.286,0.308 -0.44,0.726 -0.473,1.254l-0.011,0.308l0.011,0.308c0.033,0.528 0.187,0.946 0.473,1.254c0.275,0.308 0.66,0.462 1.133,0.462c0.451,0 0.825,-0.143 1.122,-0.429c0.297,-0.275 0.451,-0.649 0.473,-1.122c0.011,-0.077 0.011,-0.22 0.011,-0.44c0,-0.209 0,-0.352 -0.011,-0.429z"/></g><g><path d="M46.093,55.924c0,0.077 -0.033,0.154 -0.088,0.209c-0.055,0.055 -0.132,0.088 -0.209,0.088h-0.627c-0.077,0 -0.154,-0.033 -0.209,-0.088c-0.055,-0.055 -0.088,-0.132 -0.088,-0.209v-0.627c0,-0.077 0.033,-0.154 0.088,-0.209c0.055,-0.055 0.132,-0.088 0.209,-0.088h0.627c0.077,0 0.154,0.033 0.209,0.088c0.055,0.055 0.088,0.132 0.088,0.209zM44.982,57.387c0,-0.077 0.033,-0.154 0.088,-0.209c0.055,-0.055 0.132,-0.088 0.209,-0.088h0.407c0.077,0 0.154,0.033 0.209,0.088c0.055,0.055 0.088,0.132 0.088,0.209v5.588c0,0.627 -0.143,1.111 -0.44,1.43c-0.297,0.33 -0.748,0.495 -1.375,0.495h-0.209c-0.077,0 -0.154,-0.033 -0.209,-0.088c-0.055,-0.055 -0.088,-0.132 -0.088,-0.209v-0.352c0,-0.077 0.033,-0.154 0.088,-0.209c0.055,-0.055 0.132,-0.088 0.209,-0.088h0.099c0.363,0 0.605,-0.088 0.737,-0.253c0.121,-0.165 0.187,-0.407 0.187,-0.726z"/></g><g><path d="M47.578,57.387c0,-0.077 0.033,-0.154 0.088,-0.209c0.055,-0.055 0.132,-0.088 0.209,-0.088h0.407c0.077,0 0.154,0.033 0.209,0.088c0.055,0.055 0.088,0.132 0.088,0.209v2.904c0,0.561 0.121,0.979 0.385,1.254c0.253,0.286 0.616,0.429 1.1,0.429c0.473,0 0.836,-0.143 1.1,-0.429c0.253,-0.286 0.385,-0.704 0.385,-1.254v-2.904c0,-0.077 0.033,-0.154 0.088,-0.209c0.055,-0.055 0.132,-0.088 0.209,-0.088h0.407c0.077,0 0.154,0.033 0.209,0.088c0.055,0.055 0.088,0.132 0.088,0.209v5.126c0,0.077 -0.033,0.154 -0.088,0.209c-0.055,0.055 -0.132,0.088 -0.209,0.088h-0.407c-0.077,0 -0.154,-0.033 -0.209,-0.088c-0.055,-0.055 -0.088,-0.132 -0.088,-0.209v-0.341c-0.385,0.495 -0.935,0.748 -1.65,0.748c-0.704,0 -1.265,-0.22 -1.683,-0.66c-0.429,-0.44 -0.638,-1.045 -0.638,-1.804z"/></g><g><path d="M55.575,60.269c-1.067,-0.231 -1.606,-0.77 -1.606,-1.639c0,-0.297 0.077,-0.572 0.242,-0.825c0.165,-0.253 0.407,-0.451 0.715,-0.594c0.33,-0.154 0.715,-0.231 1.177,-0.231c0.451,0 0.847,0.066 1.177,0.198c0.33,0.132 0.583,0.297 0.759,0.495c0.165,0.198 0.253,0.385 0.253,0.572c0,0.077 -0.033,0.132 -0.088,0.187c-0.055,0.055 -0.132,0.088 -0.209,0.088h-0.363c-0.143,0 -0.253,-0.055 -0.33,-0.154c-0.231,-0.297 -0.627,-0.44 -1.199,-0.44c-0.341,0 -0.605,0.066 -0.825,0.187c-0.198,0.121 -0.308,0.297 -0.308,0.517c0,0.187 0.055,0.319 0.154,0.418c0.099,0.099 0.253,0.176 0.462,0.231c0.209,0.055 0.572,0.143 1.089,0.264c0.649,0.143 1.1,0.352 1.375,0.638c0.275,0.286 0.407,0.638 0.407,1.045c0,0.297 -0.088,0.583 -0.275,0.836c-0.187,0.253 -0.462,0.462 -0.803,0.616c-0.352,0.165 -0.759,0.242 -1.221,0.242c-0.451,0 -0.858,-0.077 -1.21,-0.22c-0.341,-0.143 -0.616,-0.308 -0.803,-0.517c-0.187,-0.209 -0.286,-0.396 -0.286,-0.583c0,-0.077 0.033,-0.143 0.088,-0.198c0.055,-0.055 0.132,-0.077 0.209,-0.077h0.396c0.066,0 0.121,0.011 0.176,0.022c0.055,0.011 0.099,0.055 0.143,0.121c0.242,0.341 0.671,0.506 1.287,0.506c0.341,0 0.649,-0.077 0.913,-0.22c0.253,-0.143 0.385,-0.319 0.385,-0.528c0,-0.176 -0.066,-0.319 -0.187,-0.429c-0.132,-0.099 -0.319,-0.187 -0.561,-0.253c-0.242,-0.077 -0.616,-0.165 -1.133,-0.275z"/></g><g><path d="M61.262,60.885c0,0.319 0.066,0.561 0.198,0.726c0.121,0.165 0.363,0.253 0.726,0.253h0.583c0.077,0 0.154,0.033 0.209,0.088c0.055,0.055 0.088,0.132 0.088,0.209v0.352c0,0.077 -0.033,0.154 -0.088,0.209c-0.055,0.055 -0.132,0.088 -0.209,0.088h-0.693c-0.627,0 -1.078,-0.165 -1.375,-0.495c-0.297,-0.319 -0.44,-0.803 -0.44,-1.43v-2.849h-0.814c-0.077,0 -0.154,-0.033 -0.209,-0.088c-0.055,-0.055 -0.088,-0.132 -0.088,-0.209v-0.352c0,-0.077 0.033,-0.154 0.088,-0.209c0.055,-0.055 0.132,-0.088 0.209,-0.088h0.814v-1.793c0,-0.077 0.033,-0.154 0.088,-0.209c0.055,-0.055 0.132,-0.088 0.209,-0.088h0.407c0.077,0 0.154,0.033 0.209,0.088c0.055,0.055 0.088,0.132 0.088,0.209v1.793h1.397c0.077,0 0.154,0.033 0.209,0.088c0.055,0.055 0.088,0.132 0.088,0.209v0.352c0,0.077 -0.033,0.154 -0.088,0.209c-0.055,0.055 -0.132,0.088 -0.209,0.088h-1.397z"/></g><g><path d="M68.346,60.885c0,0.319 0.066,0.561 0.198,0.726c0.121,0.165 0.363,0.253 0.726,0.253h0.583c0.077,0 0.154,0.033 0.209,0.088c0.055,0.055 0.088,0.132 0.088,0.209v0.352c0,0.077 -0.033,0.154 -0.088,0.209c-0.055,0.055 -0.132,0.088 -0.209,0.088h-0.693c-0.627,0 -1.078,-0.165 -1.375,-0.495c-0.297,-0.319 -0.44,-0.803 -0.44,-1.43v-2.849h-0.814c-0.077,0 -0.154,-0.033 -0.209,-0.088c-0.055,-0.055 -0.088,-0.132 -0.088,-0.209v-0.352c0,-0.077 0.033,-0.154 0.088,-0.209c0.055,-0.055 0.132,-0.088 0.209,-0.088h0.814v-1.793c0,-0.077 0.033,-0.154 0.088,-0.209c0.055,-0.055 0.132,-0.088 0.209,-0.088h0.407c0.077,0 0.154,0.033 0.209,0.088c0.055,0.055 0.088,0.132 0.088,0.209v1.793h1.397c0.077,0 0.154,0.033 0.209,0.088c0.055,0.055 0.088,0.132 0.088,0.209v0.352c0,0.077 -0.033,0.154 -0.088,0.209c-0.055,0.055 -0.132,0.088 -0.209,0.088h-1.397z"/></g><g><path d="M76.332,62.513c0,0.077 -0.033,0.154 -0.088,0.209c-0.055,0.055 -0.132,0.088 -0.209,0.088h-0.407c-0.077,0 -0.154,-0.033 -0.209,-0.088c-0.055,-0.055 -0.088,-0.132 -0.088,-0.209v-2.904c0,-0.55 -0.132,-0.968 -0.407,-1.254c-0.275,-0.286 -0.649,-0.429 -1.133,-0.429c-0.473,0 -0.847,0.143 -1.133,0.429c-0.264,0.286 -0.407,0.704 -0.407,1.254v2.904c0,0.077 -0.033,0.154 -0.088,0.209c-0.055,0.055 -0.132,0.088 -0.209,0.088h-0.407c-0.077,0 -0.154,-0.033 -0.209,-0.088c-0.055,-0.055 -0.088,-0.132 -0.088,-0.209v-7.216c0,-0.077 0.033,-0.154 0.088,-0.209c0.055,-0.055 0.132,-0.088 0.209,-0.088h0.407c0.077,0 0.154,0.033 0.209,0.088c0.055,0.055 0.088,0.132 0.088,0.209v2.431c0.165,-0.209 0.385,-0.396 0.671,-0.528c0.275,-0.154 0.627,-0.22 1.034,-0.22c0.462,0 0.869,0.099 1.232,0.297c0.363,0.198 0.638,0.484 0.836,0.847c0.209,0.374 0.308,0.814 0.308,1.32z"/></g><g><path d="M80.182,56.98c0.781,0 1.408,0.253 1.859,0.748c0.451,0.495 0.682,1.177 0.682,2.035v0.297c0,0.077 -0.033,0.154 -0.088,0.209c-0.055,0.055 -0.132,0.088 -0.209,0.088h-3.784v0.066c0.011,0.484 0.165,0.858 0.451,1.133c0.275,0.275 0.638,0.418 1.089,0.418c0.363,0 0.649,-0.044 0.858,-0.143c0.198,-0.099 0.374,-0.231 0.539,-0.407c0.055,-0.055 0.11,-0.099 0.165,-0.121c0.044,-0.022 0.11,-0.033 0.187,-0.033h0.33c0.088,0 0.165,0.033 0.22,0.088c0.055,0.055 0.088,0.132 0.077,0.209c-0.033,0.198 -0.132,0.396 -0.319,0.605c-0.187,0.209 -0.462,0.385 -0.803,0.528c-0.352,0.143 -0.77,0.22 -1.254,0.22c-0.473,0 -0.891,-0.11 -1.254,-0.33c-0.363,-0.209 -0.66,-0.506 -0.88,-0.891c-0.209,-0.385 -0.341,-0.814 -0.385,-1.287c-0.011,-0.22 -0.022,-0.385 -0.022,-0.506c0,-0.121 0.011,-0.286 0.022,-0.506c0.044,-0.451 0.176,-0.869 0.385,-1.232c0.22,-0.363 0.517,-0.66 0.88,-0.869c0.363,-0.209 0.781,-0.319 1.254,-0.319zM81.733,59.433v-0.033c0,-0.451 -0.143,-0.803 -0.418,-1.067c-0.286,-0.275 -0.66,-0.407 -1.133,-0.407c-0.429,0 -0.781,0.132 -1.078,0.407c-0.297,0.275 -0.451,0.627 -0.462,1.067v0.033z"/></g><g><path d="M90.137,59.191v-0.143c0,-0.363 -0.121,-0.638 -0.352,-0.836c-0.242,-0.187 -0.55,-0.286 -0.935,-0.286c-0.297,0 -0.517,0.044 -0.693,0.143c-0.154,0.099 -0.319,0.253 -0.462,0.451c-0.044,0.055 -0.088,0.099 -0.143,0.121c-0.055,0.022 -0.121,0.033 -0.209,0.033h-0.33c-0.077,0 -0.154,-0.033 -0.209,-0.088c-0.066,-0.055 -0.099,-0.132 -0.088,-0.209c0.022,-0.22 0.132,-0.44 0.319,-0.66c0.198,-0.209 0.462,-0.385 0.781,-0.528c0.319,-0.143 0.671,-0.209 1.034,-0.209c0.682,0 1.232,0.187 1.661,0.572c0.418,0.385 0.627,0.913 0.627,1.606v3.355c0,0.077 -0.033,0.154 -0.088,0.209c-0.055,0.055 -0.132,0.088 -0.209,0.088h-0.407c-0.077,0 -0.154,-0.033 -0.209,-0.088c-0.055,-0.055 -0.088,-0.132 -0.088,-0.209v-0.451c-0.121,0.264 -0.363,0.473 -0.748,0.627c-0.385,0.154 -0.759,0.231 -1.144,0.231c-0.374,0 -0.704,-0.066 -1.001,-0.209c-0.297,-0.132 -0.517,-0.319 -0.682,-0.55c-0.154,-0.231 -0.231,-0.495 -0.231,-0.792c0,-0.55 0.209,-0.979 0.616,-1.298c0.407,-0.308 0.957,-0.517 1.639,-0.627zM90.137,60.071l-1.298,0.209c-0.473,0.077 -0.847,0.187 -1.111,0.352c-0.264,0.165 -0.396,0.374 -0.396,0.627c0,0.187 0.088,0.352 0.253,0.495c0.165,0.143 0.429,0.22 0.77,0.22c0.528,0 0.957,-0.154 1.287,-0.451c0.33,-0.297 0.495,-0.693 0.495,-1.177z"/></g><g><path d="M93.745,64.603c0,0.077 -0.033,0.154 -0.088,0.209c-0.055,0.055 -0.132,0.088 -0.209,0.088h-0.407c-0.077,0 -0.154,-0.033 -0.209,-0.088c-0.055,-0.055 -0.088,-0.132 -0.088,-0.209v-7.216c0,-0.077 0.033,-0.154 0.088,-0.209c0.055,-0.055 0.132,-0.088 0.209,-0.088h0.407c0.077,0 0.154,0.033 0.209,0.088c0.055,0.055 0.088,0.132 0.088,0.209v0.341c0.374,-0.495 0.946,-0.748 1.705,-0.748c0.451,0 0.869,0.11 1.243,0.319c0.363,0.209 0.66,0.517 0.891,0.913c0.22,0.396 0.341,0.858 0.363,1.386c0.011,0.077 0.011,0.187 0.011,0.352c0,0.165 0,0.286 -0.011,0.363c-0.022,0.528 -0.143,0.99 -0.363,1.375c-0.231,0.396 -0.528,0.704 -0.891,0.913c-0.363,0.209 -0.781,0.319 -1.243,0.319c-0.407,0 -0.759,-0.077 -1.034,-0.22c-0.286,-0.143 -0.506,-0.319 -0.671,-0.528zM93.745,60.346c0.022,0.517 0.176,0.913 0.462,1.199c0.286,0.286 0.66,0.429 1.133,0.429c0.473,0 0.858,-0.154 1.133,-0.462c0.286,-0.308 0.44,-0.726 0.473,-1.254c0.011,-0.077 0.011,-0.176 0.011,-0.308c0,-0.132 0,-0.231 -0.011,-0.308c-0.033,-0.528 -0.187,-0.946 -0.473,-1.254c-0.275,-0.308 -0.66,-0.462 -1.133,-0.462c-0.451,0 -0.825,0.143 -1.122,0.418c-0.297,0.286 -0.451,0.66 -0.473,1.133l-0.011,0.429z"/></g><g><path d="M100.323,64.603c0,0.077 -0.033,0.154 -0.088,0.209c-0.055,0.055 -0.132,0.088 -0.209,0.088h-0.407c-0.077,0 -0.154,-0.033 -0.209,-0.088c-0.055,-0.055 -0.088,-0.132 -0.088,-0.209v-7.216c0,-0.077 0.033,-0.154 0.088,-0.209c0.055,-0.055 0.132,-0.088 0.209,-0.088h0.407c0.077,0 0.154,0.033 0.209,0.088c0.055,0.055 0.088,0.132 0.088,0.209v0.341c0.374,-0.495 0.946,-0.748 1.705,-0.748c0.451,0 0.869,0.11 1.243,0.319c0.363,0.209 0.66,0.517 0.891,0.913c0.22,0.396 0.341,0.858 0.363,1.386c0.011,0.077 0.011,0.187 0.011,0.352c0,0.165 0,0.286 -0.011,0.363c-0.022,0.528 -0.143,0.99 -0.363,1.375c-0.231,0.396 -0.528,0.704 -0.891,0.913c-0.363,0.209 -0.781,0.319 -1.243,0.319c-0.407,0 -0.759,-0.077 -1.034,-0.22c-0.286,-0.143 -0.506,-0.319 -0.671,-0.528zM100.323,60.346c0.022,0.517 0.176,0.913 0.462,1.199c0.286,0.286 0.66,0.429 1.133,0.429c0.473,0 0.858,-0.154 1.133,-0.462c0.286,-0.308 0.44,-0.726 0.473,-1.254c0.011,-0.077 0.011,-0.176 0.011,-0.308c0,-0.132 0,-0.231 -0.011,-0.308c-0.033,-0.528 -0.187,-0.946 -0.473,-1.254c-0.275,-0.308 -0.66,-0.462 -1.133,-0.462c-0.451,0 -0.825,0.143 -1.122,0.418c-0.297,0.286 -0.451,0.66 -0.473,1.133l-0.011,0.429z"/></g><g><path d="M108.155,56.98c0.781,0 1.408,0.253 1.859,0.748c0.451,0.495 0.682,1.177 0.682,2.035v0.297c0,0.077 -0.033,0.154 -0.088,0.209c-0.055,0.055 -0.132,0.088 -0.209,0.088h-3.784v0.066c0.011,0.484 0.165,0.858 0.451,1.133c0.275,0.275 0.638,0.418 1.089,0.418c0.363,0 0.649,-0.044 0.858,-0.143c0.198,-0.099 0.374,-0.231 0.539,-0.407c0.055,-0.055 0.11,-0.099 0.165,-0.121c0.044,-0.022 0.11,-0.033 0.187,-0.033h0.33c0.088,0 0.165,0.033 0.22,0.088c0.055,0.055 0.088,0.132 0.077,0.209c-0.033,0.198 -0.132,0.396 -0.319,0.605c-0.187,0.209 -0.462,0.385 -0.803,0.528c-0.352,0.143 -0.77,0.22 -1.254,0.22c-0.473,0 -0.891,-0.11 -1.254,-0.33c-0.363,-0.209 -0.66,-0.506 -0.88,-0.891c-0.209,-0.385 -0.341,-0.814 -0.385,-1.287c-0.011,-0.22 -0.022,-0.385 -0.022,-0.506c0,-0.121 0.011,-0.286 0.022,-0.506c0.044,-0.451 0.176,-0.869 0.385,-1.232c0.22,-0.363 0.517,-0.66 0.88,-0.869c0.363,-0.209 0.781,-0.319 1.254,-0.319zM109.706,59.433v-0.033c0,-0.451 -0.143,-0.803 -0.418,-1.067c-0.286,-0.275 -0.66,-0.407 -1.133,-0.407c-0.429,0 -0.781,0.132 -1.078,0.407c-0.297,0.275 -0.451,0.627 -0.462,1.067v0.033z"/></g><g><path d="M115.426,59.191v-0.143c0,-0.363 -0.121,-0.638 -0.352,-0.836c-0.242,-0.187 -0.55,-0.286 -0.935,-0.286c-0.297,0 -0.517,0.044 -0.693,0.143c-0.154,0.099 -0.319,0.253 -0.462,0.451c-0.044,0.055 -0.088,0.099 -0.143,0.121c-0.055,0.022 -0.121,0.033 -0.209,0.033h-0.33c-0.077,0 -0.154,-0.033 -0.209,-0.088c-0.066,-0.055 -0.099,-0.132 -0.088,-0.209c0.022,-0.22 0.132,-0.44 0.319,-0.66c0.198,-0.209 0.462,-0.385 0.781,-0.528c0.319,-0.143 0.671,-0.209 1.034,-0.209c0.682,0 1.232,0.187 1.661,0.572c0.418,0.385 0.627,0.913 0.627,1.606v3.355c0,0.077 -0.033,0.154 -0.088,0.209c-0.055,0.055 -0.132,0.088 -0.209,0.088h-0.407c-0.077,0 -0.154,-0.033 -0.209,-0.088c-0.055,-0.055 -0.088,-0.132 -0.088,-0.209v-0.451c-0.121,0.264 -0.363,0.473 -0.748,0.627c-0.385,0.154 -0.759,0.231 -1.144,0.231c-0.374,0 -0.704,-0.066 -1.001,-0.209c-0.297,-0.132 -0.517,-0.319 -0.682,-0.55c-0.154,-0.231 -0.231,-0.495 -0.231,-0.792c0,-0.55 0.209,-0.979 0.616,-1.298c0.407,-0.308 0.957,-0.517 1.639,-0.627zM115.426,60.071l-1.298,0.209c-0.473,0.077 -0.847,0.187 -1.111,0.352c-0.264,0.165 -0.396,0.374 -0.396,0.627c0,0.187 0.088,0.352 0.253,0.495c0.165,0.143 0.429,0.22 0.77,0.22c0.528,0 0.957,-0.154 1.287,-0.451c0.33,-0.297 0.495,-0.693 0.495,-1.177z"/></g><g><path d="M120.937,57.09c0.077,0 0.154,0.033 0.209,0.088c0.055,0.055 0.088,0.132 0.088,0.209v0.352c0,0.077 -0.033,0.154 -0.088,0.209c-0.055,0.055 -0.132,0.088 -0.209,0.088h-0.638c-0.407,0 -0.726,0.11 -0.935,0.319c-0.22,0.22 -0.33,0.539 -0.33,0.946v3.212c0,0.077 -0.033,0.154 -0.088,0.209c-0.055,0.055 -0.132,0.088 -0.209,0.088h-0.407c-0.077,0 -0.154,-0.033 -0.209,-0.088c-0.055,-0.055 -0.088,-0.132 -0.088,-0.209v-5.126c0,-0.077 0.033,-0.154 0.088,-0.209c0.055,-0.055 0.132,-0.088 0.209,-0.088h0.407c0.077,0 0.154,0.033 0.209,0.088c0.055,0.055 0.088,0.132 0.088,0.209v0.341c0.143,-0.22 0.319,-0.385 0.528,-0.484c0.209,-0.099 0.473,-0.154 0.803,-0.154z"/></g><g><path d="M125.59,59.191v-0.143c0,-0.363 -0.121,-0.638 -0.352,-0.836c-0.242,-0.187 -0.55,-0.286 -0.935,-0.286c-0.297,0 -0.517,0.044 -0.693,0.143c-0.154,0.099 -0.319,0.253 -0.462,0.451c-0.044,0.055 -0.088,0.099 -0.143,0.121c-0.055,0.022 -0.121,0.033 -0.209,0.033h-0.33c-0.077,0 -0.154,-0.033 -0.209,-0.088c-0.066,-0.055 -0.099,-0.132 -0.088,-0.209c0.022,-0.22 0.132,-0.44 0.319,-0.66c0.198,-0.209 0.462,-0.385 0.781,-0.528c0.319,-0.143 0.671,-0.209 1.034,-0.209c0.682,0 1.232,0.187 1.661,0.572c0.418,0.385 0.627,0.913 0.627,1.606v3.355c0,0.077 -0.033,0.154 -0.088,0.209c-0.055,0.055 -0.132,0.088 -0.209,0.088h-0.407c-0.077,0 -0.154,-0.033 -0.209,-0.088c-0.055,-0.055 -0.088,-0.132 -0.088,-0.209v-0.451c-0.121,0.264 -0.363,0.473 -0.748,0.627c-0.385,0.154 -0.759,0.231 -1.144,0.231c-0.374,0 -0.704,-0.066 -1.001,-0.209c-0.297,-0.132 -0.517,-0.319 -0.682,-0.55c-0.154,-0.231 -0.231,-0.495 -0.231,-0.792c0,-0.55 0.209,-0.979 0.616,-1.298c0.407,-0.308 0.957,-0.517 1.639,-0.627zM125.59,60.071l-1.298,0.209c-0.473,0.077 -0.847,0.187 -1.111,0.352c-0.264,0.165 -0.396,0.374 -0.396,0.627c0,0.187 0.088,0.352 0.253,0.495c0.165,0.143 0.429,0.22 0.77,0.22c0.528,0 0.957,-0.154 1.287,-0.451c0.33,-0.297 0.495,-0.693 0.495,-1.177z"/></g><g><path d="M133.279,62.513c0,0.077 -0.033,0.154 -0.088,0.209c-0.055,0.055 -0.132,0.088 -0.209,0.088h-0.407c-0.077,0 -0.154,-0.033 -0.209,-0.088c-0.055,-0.055 -0.088,-0.132 -0.088,-0.209v-2.904c0,-0.55 -0.132,-0.968 -0.407,-1.254c-0.275,-0.286 -0.649,-0.429 -1.133,-0.429c-0.473,0 -0.847,0.143 -1.133,0.429c-0.264,0.286 -0.407,0.704 -0.407,1.254v2.904c0,0.077 -0.033,0.154 -0.088,0.209c-0.055,0.055 -0.132,0.088 -0.209,0.088h-0.407c-0.077,0 -0.154,-0.033 -0.209,-0.088c-0.055,-0.055 -0.088,-0.132 -0.088,-0.209v-5.126c0,-0.077 0.033,-0.154 0.088,-0.209c0.055,-0.055 0.132,-0.088 0.209,-0.088h0.407c0.077,0 0.154,0.033 0.209,0.088c0.055,0.055 0.088,0.132 0.088,0.209v0.341c0.165,-0.209 0.385,-0.396 0.671,-0.528c0.275,-0.154 0.627,-0.22 1.034,-0.22c0.462,0 0.869,0.099 1.232,0.297c0.363,0.198 0.638,0.484 0.836,0.847c0.209,0.374 0.308,0.814 0.308,1.32z"/></g><g><path d="M137.184,61.974c0.737,0 1.232,-0.286 1.485,-0.858c0.055,-0.11 0.099,-0.187 0.154,-0.231c0.055,-0.044 0.121,-0.066 0.209,-0.066h0.33c0.077,0 0.154,0.022 0.209,0.088c0.055,0.044 0.088,0.11 0.088,0.187c0,0.253 -0.099,0.517 -0.297,0.803c-0.198,0.286 -0.484,0.528 -0.858,0.726c-0.374,0.198 -0.814,0.297 -1.32,0.297c-0.517,0 -0.968,-0.11 -1.353,-0.33c-0.385,-0.22 -0.671,-0.528 -0.88,-0.902c-0.209,-0.396 -0.319,-0.825 -0.341,-1.298c-0.011,-0.088 -0.011,-0.253 -0.011,-0.506c0,-0.176 0,-0.297 0.011,-0.374c0.066,-0.748 0.319,-1.353 0.759,-1.826c0.44,-0.473 1.045,-0.704 1.815,-0.704c0.506,0 0.946,0.099 1.32,0.297c0.363,0.187 0.649,0.429 0.847,0.704c0.187,0.286 0.297,0.55 0.308,0.803c0.011,0.077 -0.022,0.154 -0.088,0.209c-0.055,0.055 -0.132,0.088 -0.209,0.088h-0.33c-0.088,0 -0.154,-0.022 -0.209,-0.066c-0.055,-0.044 -0.099,-0.121 -0.154,-0.231c-0.253,-0.572 -0.748,-0.858 -1.485,-0.858c-0.407,0 -0.759,0.132 -1.056,0.407c-0.297,0.275 -0.473,0.682 -0.517,1.232c-0.011,0.077 -0.011,0.209 -0.011,0.396c0,0.165 0,0.297 0.011,0.374c0.055,0.55 0.231,0.957 0.528,1.232c0.297,0.275 0.638,0.407 1.045,0.407z"/></g><g><path d="M143.234,56.98c0.781,0 1.408,0.253 1.859,0.748c0.451,0.495 0.682,1.177 0.682,2.035v0.297c0,0.077 -0.033,0.154 -0.088,0.209c-0.055,0.055 -0.132,0.088 -0.209,0.088h-3.784v0.066c0.011,0.484 0.165,0.858 0.451,1.133c0.275,0.275 0.638,0.418 1.089,0.418c0.363,0 0.649,-0.044 0.858,-0.143c0.198,-0.099 0.374,-0.231 0.539,-0.407c0.055,-0.055 0.11,-0.099 0.165,-0.121c0.044,-0.022 0.11,-0.033 0.187,-0.033h0.33c0.088,0 0.165,0.033 0.22,0.088c0.055,0.055 0.088,0.132 0.077,0.209c-0.033,0.198 -0.132,0.396 -0.319,0.605c-0.187,0.209 -0.462,0.385 -0.803,0.528c-0.352,0.143 -0.77,0.22 -1.254,0.22c-0.473,0 -0.891,-0.11 -1.254,-0.33c-0.363,-0.209 -0.66,-0.506 -0.88,-0.891c-0.209,-0.385 -0.341,-0.814 -0.385,-1.287c-0.011,-0.22 -0.022,-0.385 -0.022,-0.506c0,-0.121 0.011,-0.286 0.022,-0.506c0.044,-0.451 0.176,-0.869 0.385,-1.232c0.22,-0.363 0.517,-0.66 0.88,-0.869c0.363,-0.209 0.781,-0.319 1.254,-0.319zM144.785,59.433v-0.033c0,-0.451 -0.143,-0.803 -0.418,-1.067c-0.286,-0.275 -0.66,-0.407 -1.133,-0.407c-0.429,0 -0.781,0.132 -1.078,0.407c-0.297,0.275 -0.451,0.627 -0.462,1.067v0.033z"/></g><g><path d="M154.74,59.433c0.011,0.165 0.022,0.341 0.022,0.528c0,0.176 -0.011,0.341 -0.022,0.506c-0.066,0.748 -0.319,1.342 -0.77,1.782c-0.462,0.451 -1.067,0.671 -1.837,0.671c-0.77,0 -1.375,-0.22 -1.826,-0.671c-0.451,-0.44 -0.715,-1.034 -0.781,-1.782c-0.011,-0.077 -0.011,-0.253 -0.011,-0.506c0,-0.275 0,-0.451 0.011,-0.528c0.055,-0.748 0.319,-1.342 0.77,-1.782c0.451,-0.451 1.067,-0.671 1.837,-0.671c0.77,0 1.386,0.22 1.837,0.671c0.451,0.44 0.715,1.034 0.77,1.782zM153.739,59.488c-0.044,-0.473 -0.198,-0.847 -0.462,-1.133c-0.275,-0.286 -0.649,-0.429 -1.144,-0.429c-0.495,0 -0.869,0.143 -1.133,0.429c-0.275,0.286 -0.429,0.66 -0.473,1.133c-0.011,0.088 -0.011,0.242 -0.011,0.473c0,0.22 0,0.374 0.011,0.451c0.044,0.473 0.198,0.847 0.473,1.133c0.264,0.286 0.638,0.429 1.133,0.429c0.495,0 0.869,-0.143 1.144,-0.429c0.264,-0.286 0.418,-0.66 0.462,-1.133c0.011,-0.165 0.022,-0.308 0.022,-0.451c0,-0.143 -0.011,-0.297 -0.022,-0.473z"/></g><g><path d="M159.14,57.09c0.077,0 0.154,0.033 0.209,0.088c0.055,0.055 0.088,0.132 0.088,0.209v0.352c0,0.077 -0.033,0.154 -0.088,0.209c-0.055,0.055 -0.132,0.088 -0.209,0.088h-1.397v4.477c0,0.077 -0.033,0.154 -0.088,0.209c-0.055,0.055 -0.132,0.088 -0.209,0.088h-0.407c-0.077,0 -0.154,-0.033 -0.209,-0.088c-0.055,-0.055 -0.088,-0.132 -0.088,-0.209v-4.477h-0.924c-0.077,0 -0.154,-0.033 -0.209,-0.088c-0.055,-0.055 -0.088,-0.132 -0.088,-0.209v-0.352c0,-0.077 0.033,-0.154 0.088,-0.209c0.055,-0.055 0.132,-0.088 0.209,-0.088h0.924v-0.55c0,-0.627 0.143,-1.1 0.44,-1.408c0.297,-0.308 0.748,-0.462 1.375,-0.462h0.693c0.077,0 0.154,0.033 0.209,0.088c0.055,0.055 0.088,0.132 0.088,0.209v0.352c0,0.077 -0.033,0.154 -0.088,0.209c-0.055,0.055 -0.132,0.088 -0.209,0.088h-0.583c-0.363,0 -0.605,0.088 -0.737,0.253c-0.121,0.165 -0.187,0.407 -0.187,0.726v0.495z"/></g><g><path d="M164.607,60.885c0,0.319 0.066,0.561 0.198,0.726c0.121,0.165 0.363,0.253 0.726,0.253h0.583c0.077,0 0.154,0.033 0.209,0.088c0.055,0.055 0.088,0.132 0.088,0.209v0.352c0,0.077 -0.033,0.154 -0.088,0.209c-0.055,0.055 -0.132,0.088 -0.209,0.088h-0.693c-0.627,0 -1.078,-0.165 -1.375,-0.495c-0.297,-0.319 -0.44,-0.803 -0.44,-1.43v-2.849h-0.814c-0.077,0 -0.154,-0.033 -0.209,-0.088c-0.055,-0.055 -0.088,-0.132 -0.088,-0.209v-0.352c0,-0.077 0.033,-0.154 0.088,-0.209c0.055,-0.055 0.132,-0.088 0.209,-0.088h0.814v-1.793c0,-0.077 0.033,-0.154 0.088,-0.209c0.055,-0.055 0.132,-0.088 0.209,-0.088h0.407c0.077,0 0.154,0.033 0.209,0.088c0.055,0.055 0.088,0.132 0.088,0.209v1.793h1.397c0.077,0 0.154,0.033 0.209,0.088c0.055,0.055 0.088,0.132 0.088,0.209v0.352c0,0.077 -0.033,0.154 -0.088,0.209c-0.055,0.055 -0.132,0.088 -0.209,0.088h-1.397z"/></g><g><path d="M172.593,62.513c0,0.077 -0.033,0.154 -0.088,0.209c-0.055,0.055 -0.132,0.088 -0.209,0.088h-0.407c-0.077,0 -0.154,-0.033 -0.209,-0.088c-0.055,-0.055 -0.088,-0.132 -0.088,-0.209v-2.904c0,-0.55 -0.132,-0.968 -0.407,-1.254c-0.275,-0.286 -0.649,-0.429 -1.133,-0.429c-0.473,0 -0.847,0.143 -1.133,0.429c-0.264,0.286 -0.407,0.704 -0.407,1.254v2.904c0,0.077 -0.033,0.154 -0.088,0.209c-0.055,0.055 -0.132,0.088 -0.209,0.088h-0.407c-0.077,0 -0.154,-0.033 -0.209,-0.088c-0.055,-0.055 -0.088,-0.132 -0.088,-0.209v-7.216c0,-0.077 0.033,-0.154 0.088,-0.209c0.055,-0.055 0.132,-0.088 0.209,-0.088h0.407c0.077,0 0.154,0.033 0.209,0.088c0.055,0.055 0.088,0.132 0.088,0.209v2.431c0.165,-0.209 0.385,-0.396 0.671,-0.528c0.275,-0.154 0.627,-0.22 1.034,-0.22c0.462,0 0.869,0.099 1.232,0.297c0.363,0.198 0.638,0.484 0.836,0.847c0.209,0.374 0.308,0.814 0.308,1.32z"/></g><g><path d="M176.443,56.98c0.781,0 1.408,0.253 1.859,0.748c0.451,0.495 0.682,1.177 0.682,2.035v0.297c0,0.077 -0.033,0.154 -0.088,0.209c-0.055,0.055 -0.132,0.088 -0.209,0.088h-3.784v0.066c0.011,0.484 0.165,0.858 0.451,1.133c0.275,0.275 0.638,0.418 1.089,0.418c0.363,0 0.649,-0.044 0.858,-0.143c0.198,-0.099 0.374,-0.231 0.539,-0.407c0.055,-0.055 0.11,-0.099 0.165,-0.121c0.044,-0.022 0.11,-0.033 0.187,-0.033h0.33c0.088,0 0.165,0.033 0.22,0.088c0.055,0.055 0.088,0.132 0.077,0.209c-0.033,0.198 -0.132,0.396 -0.319,0.605c-0.187,0.209 -0.462,0.385 -0.803,0.528c-0.352,0.143 -0.77,0.22 -1.254,0.22c-0.473,0 -0.891,-0.11 -1.254,-0.33c-0.363,-0.209 -0.66,-0.506 -0.88,-0.891c-0.209,-0.385 -0.341,-0.814 -0.385,-1.287c-0.011,-0.22 -0.022,-0.385 -0.022,-0.506c0,-0.121 0.011,-0.286 0.022,-0.506c0.044,-0.451 0.176,-0.869 0.385,-1.232c0.22,-0.363 0.517,-0.66 0.88,-0.869c0.363,-0.209 0.781,-0.319 1.254,-0.319zM177.994,59.433v-0.033c0,-0.451 -0.143,-0.803 -0.418,-1.067c-0.286,-0.275 -0.66,-0.407 -1.133,-0.407c-0.429,0 -0.781,0.132 -1.078,0.407c-0.297,0.275 -0.451,0.627 -0.462,1.067v0.033z"/></g><g><path d="M185.221,56.98c0.407,0 0.759,0.066 1.045,0.22c0.275,0.132 0.495,0.319 0.66,0.528v-0.341c0,-0.077 0.033,-0.154 0.088,-0.209c0.055,-0.055 0.132,-0.088 0.209,-0.088h0.407c0.077,0 0.154,0.033 0.209,0.088c0.055,0.055 0.088,0.132 0.088,0.209v5.346c0,0.781 -0.22,1.386 -0.66,1.826c-0.44,0.451 -1.089,0.671 -1.936,0.671c-0.55,0 -1.012,-0.088 -1.386,-0.253c-0.374,-0.165 -0.649,-0.374 -0.825,-0.627c-0.187,-0.253 -0.286,-0.506 -0.297,-0.759c-0.011,-0.077 0.022,-0.154 0.088,-0.209c0.055,-0.055 0.132,-0.088 0.209,-0.088h0.33c0.088,0 0.154,0.022 0.209,0.066c0.055,0.044 0.099,0.121 0.154,0.231c0.077,0.165 0.209,0.33 0.418,0.473c0.209,0.143 0.539,0.22 0.99,0.22c1.133,0 1.705,-0.473 1.705,-1.419v-0.693c-0.374,0.495 -0.946,0.748 -1.705,0.748c-0.451,0 -0.869,-0.11 -1.232,-0.319c-0.374,-0.209 -0.671,-0.517 -0.891,-0.913c-0.231,-0.385 -0.352,-0.847 -0.374,-1.375l-0.011,-0.363l0.011,-0.363c0.022,-0.528 0.143,-0.99 0.374,-1.386c0.22,-0.385 0.517,-0.693 0.88,-0.902c0.363,-0.209 0.781,-0.319 1.243,-0.319zM185.331,57.926c-0.473,0 -0.858,0.154 -1.133,0.462c-0.286,0.308 -0.44,0.726 -0.473,1.254l-0.011,0.308l0.011,0.308c0.033,0.528 0.187,0.946 0.473,1.254c0.275,0.308 0.66,0.462 1.133,0.462c0.473,0 0.847,-0.143 1.133,-0.44c0.286,-0.286 0.44,-0.682 0.462,-1.188c0.011,-0.077 0.011,-0.209 0.011,-0.396c0,-0.187 0,-0.319 -0.011,-0.396c-0.022,-0.517 -0.176,-0.913 -0.462,-1.199c-0.286,-0.286 -0.66,-0.429 -1.133,-0.429z"/></g><g><path d="M192.976,59.191v-0.143c0,-0.363 -0.121,-0.638 -0.352,-0.836c-0.242,-0.187 -0.55,-0.286 -0.935,-0.286c-0.297,0 -0.517,0.044 -0.693,0.143c-0.154,0.099 -0.319,0.253 -0.462,0.451c-0.044,0.055 -0.088,0.099 -0.143,0.121c-0.055,0.022 -0.121,0.033 -0.209,0.033h-0.33c-0.077,0 -0.154,-0.033 -0.209,-0.088c-0.066,-0.055 -0.099,-0.132 -0.088,-0.209c0.022,-0.22 0.132,-0.44 0.319,-0.66c0.198,-0.209 0.462,-0.385 0.781,-0.528c0.319,-0.143 0.671,-0.209 1.034,-0.209c0.682,0 1.232,0.187 1.661,0.572c0.418,0.385 0.627,0.913 0.627,1.606v3.355c0,0.077 -0.033,0.154 -0.088,0.209c-0.055,0.055 -0.132,0.088 -0.209,0.088h-0.407c-0.077,0 -0.154,-0.033 -0.209,-0.088c-0.055,-0.055 -0.088,-0.132 -0.088,-0.209v-0.451c-0.121,0.264 -0.363,0.473 -0.748,0.627c-0.385,0.154 -0.759,0.231 -1.144,0.231c-0.374,0 -0.704,-0.066 -1.001,-0.209c-0.297,-0.132 -0.517,-0.319 -0.682,-0.55c-0.154,-0.231 -0.231,-0.495 -0.231,-0.792c0,-0.55 0.209,-0.979 0.616,-1.298c0.407,-0.308 0.957,-0.517 1.639,-0.627zM192.976,60.071l-1.298,0.209c-0.473,0.077 -0.847,0.187 -1.111,0.352c-0.264,0.165 -0.396,0.374 -0.396,0.627c0,0.187 0.088,0.352 0.253,0.495c0.165,0.143 0.429,0.22 0.77,0.22c0.528,0 0.957,-0.154 1.287,-0.451c0.33,-0.297 0.495,-0.693 0.495,-1.177z"/></g><g><path d="M196.584,57.728c0.176,-0.231 0.374,-0.407 0.594,-0.539c0.22,-0.143 0.517,-0.209 0.88,-0.209c0.858,0 1.463,0.319 1.804,0.957c0.209,-0.308 0.451,-0.55 0.726,-0.704c0.275,-0.176 0.627,-0.253 1.067,-0.253c0.715,0 1.254,0.22 1.606,0.649c0.341,0.429 0.517,1.045 0.517,1.837v3.047c0,0.077 -0.033,0.154 -0.088,0.209c-0.055,0.055 -0.132,0.088 -0.209,0.088h-0.407c-0.077,0 -0.154,-0.033 -0.209,-0.088c-0.055,-0.055 -0.088,-0.132 -0.088,-0.209v-2.937c0,-1.1 -0.429,-1.65 -1.298,-1.65c-0.396,0 -0.715,0.132 -0.946,0.396c-0.231,0.264 -0.352,0.66 -0.352,1.177v3.014c0,0.077 -0.033,0.154 -0.088,0.209c-0.055,0.055 -0.132,0.088 -0.209,0.088h-0.407c-0.077,0 -0.154,-0.033 -0.209,-0.088c-0.055,-0.055 -0.088,-0.132 -0.088,-0.209v-2.937c0,-1.1 -0.429,-1.65 -1.298,-1.65c-0.396,0 -0.715,0.132 -0.946,0.396c-0.231,0.264 -0.352,0.66 -0.352,1.177v3.014c0,0.077 -0.033,0.154 -0.088,0.209c-0.055,0.055 -0.132,0.088 -0.209,0.088h-0.407c-0.077,0 -0.154,-0.033 -0.209,-0.088c-0.055,-0.055 -0.088,-0.132 -0.088,-0.209v-5.126c0,-0.077 0.033,-0.154 0.088,-0.209c0.055,-0.055 0.132,-0.088 0.209,-0.088h0.407c0.077,0 0.154,0.033 0.209,0.088c0.055,0.055 0.088,0.132 0.088,0.209z"/></g><g><path d="M207.628,56.98c0.781,0 1.408,0.253 1.859,0.748c0.451,0.495 0.682,1.177 0.682,2.035v0.297c0,0.077 -0.033,0.154 -0.088,0.209c-0.055,0.055 -0.132,0.088 -0.209,0.088h-3.784v0.066c0.011,0.484 0.165,0.858 0.451,1.133c0.275,0.275 0.638,0.418 1.089,0.418c0.363,0 0.649,-0.044 0.858,-0.143c0.198,-0.099 0.374,-0.231 0.539,-0.407c0.055,-0.055 0.11,-0.099 0.165,-0.121c0.044,-0.022 0.11,-0.033 0.187,-0.033h0.33c0.088,0 0.165,0.033 0.22,0.088c0.055,0.055 0.088,0.132 0.077,0.209c-0.033,0.198 -0.132,0.396 -0.319,0.605c-0.187,0.209 -0.462,0.385 -0.803,0.528c-0.352,0.143 -0.77,0.22 -1.254,0.22c-0.473,0 -0.891,-0.11 -1.254,-0.33c-0.363,-0.209 -0.66,-0.506 -0.88,-0.891c-0.209,-0.385 -0.341,-0.814 -0.385,-1.287c-0.011,-0.22 -0.022,-0.385 -0.022,-0.506c0,-0.121 0.011,-0.286 0.022,-0.506c0.044,-0.451 0.176,-0.869 0.385,-1.232c0.22,-0.363 0.517,-0.66 0.88,-0.869c0.363,-0.209 0.781,-0.319 1.254,-0.319zM209.179,59.433v-0.033c0,-0.451 -0.143,-0.803 -0.418,-1.067c-0.286,-0.275 -0.66,-0.407 -1.133,-0.407c-0.429,0 -0.781,0.132 -1.078,0.407c-0.297,0.275 -0.451,0.627 -0.462,1.067v0.033z"/></g><g><path d="M212.402,61.479c0.077,0 0.154,0.033 0.209,0.088c0.055,0.055 0.088,0.132 0.088,0.209v0.737c0,0.077 -0.033,0.154 -0.088,0.209c-0.055,0.055 -0.132,0.088 -0.209,0.088h-0.737c-0.077,0 -0.154,-0.033 -0.209,-0.088c-0.055,-0.055 -0.088,-0.132 -0.088,-0.209v-0.737c0,-0.077 0.033,-0.154 0.088,-0.209c0.055,-0.055 0.132,-0.088 0.209,-0.088z"/></g></g></g><g fill="#ffffff" fill-rule="nonzero"><g><path d="M121.105,141.991c0.011,0.066 -0.011,0.121 -0.066,0.165c-0.055,0.055 -0.11,0.077 -0.176,0.077h-0.451c-0.088,0 -0.154,-0.011 -0.198,-0.044c-0.044,-0.044 -0.088,-0.099 -0.143,-0.198c-0.121,-0.231 -0.319,-0.451 -0.605,-0.671c-0.297,-0.22 -0.682,-0.33 -1.155,-0.33c-0.44,0 -0.814,0.099 -1.111,0.297c-0.308,0.198 -0.462,0.484 -0.462,0.847c0,0.253 0.077,0.451 0.231,0.605c0.143,0.165 0.374,0.297 0.682,0.407c0.297,0.121 0.759,0.253 1.375,0.418c0.836,0.22 1.43,0.484 1.782,0.803c0.341,0.33 0.517,0.759 0.517,1.309c0,0.44 -0.121,0.825 -0.363,1.166c-0.253,0.341 -0.594,0.605 -1.045,0.792c-0.451,0.187 -0.968,0.286 -1.551,0.286c-0.539,0 -1.034,-0.099 -1.485,-0.308c-0.451,-0.209 -0.803,-0.473 -1.056,-0.792c-0.253,-0.308 -0.396,-0.627 -0.407,-0.946c0,-0.066 0.022,-0.121 0.077,-0.176c0.044,-0.044 0.099,-0.066 0.165,-0.066h0.451c0.077,0 0.143,0.011 0.198,0.044c0.055,0.033 0.099,0.099 0.143,0.198c0.121,0.264 0.33,0.506 0.649,0.726c0.308,0.22 0.726,0.33 1.265,0.33c0.539,0 0.99,-0.121 1.364,-0.352c0.363,-0.231 0.55,-0.528 0.55,-0.902c0,-0.242 -0.099,-0.44 -0.286,-0.616c-0.198,-0.165 -0.462,-0.297 -0.803,-0.418c-0.341,-0.11 -0.836,-0.253 -1.485,-0.418c-0.715,-0.187 -1.221,-0.451 -1.54,-0.803c-0.319,-0.341 -0.473,-0.77 -0.473,-1.287c0,-0.385 0.099,-0.737 0.297,-1.056c0.198,-0.319 0.495,-0.583 0.891,-0.781c0.396,-0.198 0.869,-0.297 1.43,-0.297c0.561,0 1.045,0.11 1.463,0.319c0.418,0.22 0.737,0.484 0.968,0.803c0.231,0.319 0.352,0.605 0.363,0.869z"/></g><g><path d="M128.112,147.37c0.077,0.077 0.11,0.143 0.11,0.198c0,0.066 -0.022,0.121 -0.066,0.165c-0.055,0.055 -0.11,0.077 -0.176,0.077h-0.682c-0.154,0 -0.286,-0.055 -0.396,-0.165l-3.113,-2.97v2.838c0,0.077 -0.033,0.154 -0.088,0.209c-0.055,0.055 -0.132,0.088 -0.209,0.088h-0.451c-0.077,0 -0.154,-0.033 -0.209,-0.088c-0.055,-0.055 -0.088,-0.132 -0.088,-0.209v-7.106c0,-0.077 0.033,-0.154 0.088,-0.209c0.055,-0.055 0.132,-0.088 0.209,-0.088h0.451c0.077,0 0.154,0.033 0.209,0.088c0.055,0.055 0.088,0.132 0.088,0.209v2.563l2.937,-2.695c0.11,-0.11 0.242,-0.165 0.396,-0.165h0.638c0.066,0 0.121,0.022 0.176,0.066c0.044,0.055 0.066,0.11 0.066,0.176c0,0.055 -0.033,0.121 -0.11,0.198l-3.531,3.245z"/></g><g><path d="M129.63,147.81c-0.077,0 -0.154,-0.033 -0.209,-0.088c-0.055,-0.055 -0.088,-0.132 -0.088,-0.209v-7.106c0,-0.077 0.033,-0.154 0.088,-0.209c0.055,-0.055 0.132,-0.088 0.209,-0.088h0.451c0.077,0 0.154,0.033 0.209,0.088c0.055,0.055 0.088,0.132 0.088,0.209v7.106c0,0.077 -0.033,0.154 -0.088,0.209c-0.055,0.055 -0.132,0.088 -0.209,0.088z"/></g><g><path d="M137.33,147.81c-0.099,0 -0.176,-0.033 -0.242,-0.088c-0.066,-0.055 -0.132,-0.143 -0.198,-0.242l-3.575,-5.379v5.412c0,0.077 -0.033,0.154 -0.088,0.209c-0.055,0.055 -0.132,0.088 -0.209,0.088h-0.451c-0.077,0 -0.154,-0.033 -0.209,-0.088c-0.055,-0.055 -0.088,-0.132 -0.088,-0.209v-7.106c0,-0.077 0.033,-0.154 0.088,-0.209c0.055,-0.055 0.132,-0.088 0.209,-0.088h0.385c0.099,0 0.176,0.033 0.242,0.088c0.066,0.055 0.132,0.143 0.198,0.242l3.575,5.379v-5.412c0,-0.077 0.033,-0.154 0.088,-0.209c0.055,-0.055 0.132,-0.088 0.209,-0.088h0.451c0.077,0 0.154,0.033 0.209,0.088c0.055,0.055 0.088,0.132 0.088,0.209v7.106c0,0.077 -0.033,0.154 -0.088,0.209c-0.055,0.055 -0.132,0.088 -0.209,0.088z"/></g><g><path d="M140.74,142.629c0.077,0 0.154,0.033 0.209,0.088c0.055,0.055 0.088,0.132 0.088,0.209v0.737c0,0.077 -0.033,0.154 -0.088,0.209c-0.055,0.055 -0.132,0.088 -0.209,0.088h-0.737c-0.077,0 -0.154,-0.033 -0.209,-0.088c-0.055,-0.055 -0.088,-0.132 -0.088,-0.209v-0.737c0,-0.077 0.033,-0.154 0.088,-0.209c0.055,-0.055 0.132,-0.088 0.209,-0.088zM140.74,146.479c0.077,0 0.154,0.033 0.209,0.088c0.055,0.055 0.088,0.132 0.088,0.209v0.737c0,0.077 -0.033,0.154 -0.088,0.209c-0.055,0.055 -0.132,0.088 -0.209,0.088h-0.737c-0.077,0 -0.154,-0.033 -0.209,-0.088c-0.055,-0.055 -0.088,-0.132 -0.088,-0.209v-0.737c0,-0.077 0.033,-0.154 0.088,-0.209c0.055,-0.055 0.132,-0.088 0.209,-0.088z"/></g><g><path d="M121.105,191.991c0.011,0.066 -0.011,0.121 -0.066,0.165c-0.055,0.055 -0.11,0.077 -0.176,0.077h-0.451c-0.088,0 -0.154,-0.011 -0.198,-0.044c-0.044,-0.044 -0.088,-0.099 -0.143,-0.198c-0.121,-0.231 -0.319,-0.451 -0.605,-0.671c-0.297,-0.22 -0.682,-0.33 -1.155,-0.33c-0.44,0 -0.814,0.099 -1.111,0.297c-0.308,0.198 -0.462,0.484 -0.462,0.847c0,0.253 0.077,0.451 0.231,0.605c0.143,0.165 0.374,0.297 0.682,0.407c0.297,0.121 0.759,0.253 1.375,0.418c0.836,0.22 1.43,0.484 1.782,0.803c0.341,0.33 0.517,0.759 0.517,1.309c0,0.44 -0.121,0.825 -0.363,1.166c-0.253,0.341 -0.594,0.605 -1.045,0.792c-0.451,0.187 -0.968,0.286 -1.551,0.286c-0.539,0 -1.034,-0.099 -1.485,-0.308c-0.451,-0.209 -0.803,-0.473 -1.056,-0.792c-0.253,-0.308 -0.396,-0.627 -0.407,-0.946c0,-0.066 0.022,-0.121 0.077,-0.176c0.044,-0.044 0.099,-0.066 0.165,-0.066h0.451c0.077,0 0.143,0.011 0.198,0.044c0.055,0.033 0.099,0.099 0.143,0.198c0.121,0.264 0.33,0.506 0.649,0.726c0.308,0.22 0.726,0.33 1.265,0.33c0.539,0 0.99,-0.121 1.364,-0.352c0.363,-0.231 0.55,-0.528 0.55,-0.902c0,-0.242 -0.099,-0.44 -0.286,-0.616c-0.198,-0.165 -0.462,-0.297 -0.803,-0.418c-0.341,-0.11 -0.836,-0.253 -1.485,-0.418c-0.715,-0.187 -1.221,-0.451 -1.54,-0.803c-0.319,-0.341 -0.473,-0.77 -0.473,-1.287c0,-0.385 0.099,-0.737 0.297,-1.056c0.198,-0.319 0.495,-0.583 0.891,-0.781c0.396,-0.198 0.869,-0.297 1.43,-0.297c0.561,0 1.045,0.11 1.463,0.319c0.418,0.22 0.737,0.484 0.968,0.803c0.231,0.319 0.352,0.605 0.363,0.869z"/></g><g><path d="M128.409,190.11c0.077,0 0.154,0.033 0.209,0.088c0.055,0.055 0.088,0.132 0.088,0.209v7.106c0,0.077 -0.033,0.154 -0.088,0.209c-0.055,0.055 -0.132,0.088 -0.209,0.088h-0.451c-0.077,0 -0.154,-0.033 -0.209,-0.088c-0.055,-0.055 -0.088,-0.132 -0.088,-0.209v-3.102h-3.872v3.102c0,0.077 -0.033,0.154 -0.088,0.209c-0.055,0.055 -0.132,0.088 -0.209,0.088h-0.451c-0.077,0 -0.154,-0.033 -0.209,-0.088c-0.055,-0.055 -0.088,-0.121 -0.088,-0.209v-7.106c0,-0.077 0.033,-0.154 0.088,-0.209c0.055,-0.055 0.132,-0.088 0.209,-0.088h0.451c0.077,0 0.154,0.033 0.209,0.088c0.055,0.055 0.088,0.132 0.088,0.209v3.014h3.872v-3.014c0,-0.077 0.033,-0.154 0.088,-0.209c0.055,-0.055 0.132,-0.088 0.209,-0.088z"/></g><g><path d="M131.478,196.072l-0.572,1.463c-0.066,0.187 -0.209,0.275 -0.429,0.275h-0.407c-0.066,0 -0.121,-0.022 -0.165,-0.077c-0.055,-0.044 -0.077,-0.099 -0.077,-0.165c0,-0.033 0.011,-0.088 0.044,-0.154l2.695,-6.941c0.099,-0.242 0.264,-0.363 0.495,-0.363h0.66c0.231,0 0.396,0.121 0.495,0.363l2.684,6.941c0.033,0.066 0.044,0.121 0.044,0.154c0,0.066 -0.022,0.121 -0.066,0.165c-0.055,0.055 -0.11,0.077 -0.176,0.077h-0.407c-0.22,0 -0.363,-0.088 -0.429,-0.275l-0.572,-1.463zM134.91,195.082l-1.518,-3.927l-1.529,3.927z"/></g><g><path d="M144.051,194.829c-0.011,0.605 -0.143,1.133 -0.407,1.584c-0.264,0.451 -0.627,0.803 -1.089,1.034c-0.462,0.242 -0.99,0.363 -1.595,0.363h-2.585c-0.077,0 -0.154,-0.033 -0.209,-0.088c-0.055,-0.055 -0.088,-0.132 -0.088,-0.209v-7.106c0,-0.077 0.033,-0.154 0.088,-0.209c0.055,-0.055 0.132,-0.088 0.209,-0.088h2.519c0.605,0 1.155,0.121 1.628,0.352c0.473,0.242 0.836,0.583 1.111,1.034c0.275,0.451 0.407,0.99 0.418,1.595c0.011,0.22 0.011,0.506 0.011,0.869c0,0.363 0,0.649 -0.011,0.869zM139.123,191.1v5.72h1.782c0.737,0 1.265,-0.187 1.595,-0.572c0.319,-0.385 0.495,-0.869 0.506,-1.474c0.011,-0.22 0.011,-0.495 0.011,-0.814c0,-0.319 0,-0.594 -0.011,-0.814c-0.011,-0.594 -0.198,-1.089 -0.539,-1.474c-0.341,-0.385 -0.88,-0.572 -1.617,-0.572z"/></g><g><path d="M148.396,190c0.627,0 1.166,0.132 1.617,0.396c0.451,0.264 0.803,0.616 1.045,1.067c0.231,0.451 0.363,0.957 0.374,1.518c0.011,0.44 0.022,0.77 0.022,0.979c0,0.209 -0.011,0.539 -0.022,0.979c-0.022,0.561 -0.154,1.056 -0.385,1.507c-0.242,0.451 -0.583,0.814 -1.034,1.078c-0.451,0.264 -0.99,0.396 -1.617,0.396c-0.627,0 -1.155,-0.132 -1.606,-0.396c-0.451,-0.264 -0.803,-0.627 -1.034,-1.078c-0.242,-0.451 -0.374,-0.946 -0.396,-1.507c-0.011,-0.22 -0.011,-0.55 -0.011,-0.979c0,-0.429 0,-0.759 0.011,-0.979c0.011,-0.561 0.143,-1.067 0.385,-1.518c0.231,-0.451 0.583,-0.803 1.034,-1.067c0.451,-0.264 0.99,-0.396 1.617,-0.396zM148.396,190.99c-0.583,0 -1.056,0.176 -1.419,0.517c-0.363,0.341 -0.55,0.858 -0.572,1.529c-0.011,0.22 -0.011,0.528 -0.011,0.924c0,0.396 0,0.704 0.011,0.924c0.022,0.671 0.209,1.188 0.572,1.529c0.363,0.341 0.836,0.517 1.419,0.517c0.583,0 1.056,-0.176 1.419,-0.517c0.363,-0.341 0.55,-0.858 0.572,-1.529c0.011,-0.44 0.022,-0.748 0.022,-0.924c0,-0.176 -0.011,-0.484 -0.022,-0.924c-0.022,-0.671 -0.209,-1.188 -0.572,-1.529c-0.363,-0.341 -0.836,-0.517 -1.419,-0.517z"/></g><g><path d="M158.219,196.49l1.122,-6.083c0.022,-0.099 0.066,-0.176 0.132,-0.231c0.055,-0.044 0.132,-0.066 0.209,-0.066h0.44c0.066,0 0.121,0.022 0.176,0.066c0.044,0.055 0.066,0.11 0.066,0.176l-0.011,0.088l-1.353,6.798c-0.044,0.198 -0.099,0.341 -0.176,0.429c-0.077,0.099 -0.198,0.143 -0.363,0.143h-0.44c-0.165,0 -0.286,-0.055 -0.363,-0.154c-0.077,-0.099 -0.143,-0.231 -0.198,-0.418l-1.012,-3.674l-1.012,3.674c-0.055,0.187 -0.121,0.319 -0.198,0.418c-0.077,0.099 -0.198,0.154 -0.363,0.154h-0.44c-0.165,0 -0.286,-0.044 -0.363,-0.143c-0.077,-0.088 -0.132,-0.231 -0.176,-0.429l-1.353,-6.798l-0.011,-0.088c0,-0.066 0.022,-0.121 0.077,-0.176c0.044,-0.044 0.099,-0.066 0.165,-0.066h0.44c0.077,0 0.154,0.022 0.22,0.066c0.055,0.055 0.099,0.132 0.121,0.231l1.122,6.083l1.21,-4.356c0.011,-0.077 0.055,-0.143 0.11,-0.22c0.055,-0.066 0.143,-0.099 0.264,-0.099h0.374c0.121,0 0.209,0.033 0.264,0.099c0.055,0.077 0.099,0.143 0.11,0.22z"/></g><g><path d="M167.503,190.11c0.759,0 1.397,0.198 1.903,0.594c0.495,0.396 0.748,0.979 0.748,1.738c0,0.517 -0.121,0.946 -0.352,1.309c-0.242,0.363 -0.561,0.627 -0.957,0.803c-0.407,0.176 -0.847,0.264 -1.342,0.264h-2.024v2.695c0,0.077 -0.033,0.154 -0.088,0.209c-0.055,0.055 -0.132,0.088 -0.209,0.088h-0.451c-0.077,0 -0.154,-0.033 -0.209,-0.088c-0.055,-0.055 -0.088,-0.132 -0.088,-0.209v-7.106c0,-0.077 0.033,-0.154 0.088,-0.209c0.055,-0.055 0.132,-0.088 0.209,-0.088zM167.448,193.828c0.539,0 0.946,-0.121 1.232,-0.352c0.286,-0.22 0.429,-0.572 0.429,-1.034c0,-0.891 -0.55,-1.342 -1.661,-1.342h-1.969v2.728z"/></g><g><path d="M171.771,197.81c-0.077,0 -0.154,-0.033 -0.209,-0.088c-0.055,-0.055 -0.088,-0.132 -0.088,-0.209v-7.106c0,-0.077 0.033,-0.154 0.088,-0.209c0.055,-0.055 0.132,-0.088 0.209,-0.088h0.451c0.077,0 0.154,0.033 0.209,0.088c0.055,0.055 0.088,0.132 0.088,0.209v7.106c0,0.077 -0.033,0.154 -0.088,0.209c-0.055,0.055 -0.132,0.088 -0.209,0.088z"/></g><g><path d="M175.456,196.82h3.696c0.077,0 0.154,0.033 0.209,0.088c0.055,0.055 0.088,0.132 0.088,0.209v0.396c0,0.077 -0.033,0.154 -0.088,0.209c-0.055,0.055 -0.132,0.088 -0.209,0.088h-4.444c-0.077,0 -0.154,-0.033 -0.209,-0.088c-0.055,-0.055 -0.088,-0.132 -0.088,-0.209v-7.106c0,-0.077 0.033,-0.154 0.088,-0.209c0.055,-0.055 0.132,-0.088 0.209,-0.088h4.356c0.077,0 0.154,0.033 0.209,0.088c0.055,0.055 0.088,0.132 0.088,0.209v0.396c0,0.077 -0.033,0.154 -0.088,0.209c-0.055,0.055 -0.132,0.088 -0.209,0.088h-3.608v2.321h3.366c0.077,0 0.154,0.033 0.209,0.088c0.055,0.055 0.088,0.132 0.088,0.209v0.396c0,0.077 -0.033,0.154 -0.088,0.209c-0.055,0.055 -0.132,0.088 -0.209,0.088h-3.366z"/></g><g><path d="M181.682,194.884c0.022,0.627 0.209,1.122 0.561,1.485c0.363,0.374 0.858,0.561 1.496,0.561c0.649,0 1.122,-0.143 1.43,-0.418c0.308,-0.275 0.517,-0.638 0.616,-1.078c0.011,-0.077 0.055,-0.132 0.11,-0.176c0.055,-0.044 0.11,-0.066 0.176,-0.066h0.506c0.066,0 0.121,0.022 0.176,0.066c0.044,0.055 0.066,0.11 0.066,0.176c-0.011,0.363 -0.132,0.726 -0.352,1.111c-0.22,0.385 -0.561,0.715 -1.012,0.979c-0.462,0.264 -1.034,0.396 -1.716,0.396c-0.616,0 -1.155,-0.132 -1.617,-0.385c-0.462,-0.253 -0.814,-0.616 -1.067,-1.067c-0.253,-0.451 -0.396,-0.957 -0.418,-1.529c-0.011,-0.22 -0.011,-0.55 -0.011,-0.979c0,-0.429 0,-0.759 0.011,-0.979c0.022,-0.572 0.165,-1.089 0.418,-1.54c0.253,-0.451 0.605,-0.803 1.067,-1.056c0.462,-0.253 1.001,-0.385 1.617,-0.385c0.682,0 1.254,0.132 1.716,0.396c0.451,0.264 0.792,0.583 1.012,0.968c0.22,0.385 0.341,0.759 0.352,1.122c0,0.066 -0.022,0.121 -0.066,0.165c-0.055,0.055 -0.11,0.077 -0.176,0.077h-0.506c-0.066,0 -0.121,-0.022 -0.176,-0.066c-0.055,-0.044 -0.099,-0.099 -0.11,-0.176c-0.099,-0.44 -0.308,-0.803 -0.616,-1.078c-0.308,-0.275 -0.781,-0.418 -1.43,-0.418c-0.638,0 -1.133,0.187 -1.496,0.55c-0.352,0.374 -0.539,0.869 -0.561,1.496c-0.011,0.22 -0.011,0.528 -0.011,0.924c0,0.396 0,0.704 0.011,0.924z"/></g><g><path d="M189.305,196.82h3.696c0.077,0 0.154,0.033 0.209,0.088c0.055,0.055 0.088,0.132 0.088,0.209v0.396c0,0.077 -0.033,0.154 -0.088,0.209c-0.055,0.055 -0.132,0.088 -0.209,0.088h-4.444c-0.077,0 -0.154,-0.033 -0.209,-0.088c-0.055,-0.055 -0.088,-0.132 -0.088,-0.209v-7.106c0,-0.077 0.033,-0.154 0.088,-0.209c0.055,-0.055 0.132,-0.088 0.209,-0.088h4.356c0.077,0 0.154,0.033 0.209,0.088c0.055,0.055 0.088,0.132 0.088,0.209v0.396c0,0.077 -0.033,0.154 -0.088,0.209c-0.055,0.055 -0.132,0.088 -0.209,0.088h-3.608v2.321h3.366c0.077,0 0.154,0.033 0.209,0.088c0.055,0.055 0.088,0.132 0.088,0.209v0.396c0,0.077 -0.033,0.154 -0.088,0.209c-0.055,0.055 -0.132,0.088 -0.209,0.088h-3.366z"/></g><g><path d="M195.608,192.629c0.077,0 0.154,0.033 0.209,0.088c0.055,0.055 0.088,0.132 0.088,0.209v0.737c0,0.077 -0.033,0.154 -0.088,0.209c-0.055,0.055 -0.132,0.088 -0.209,0.088h-0.737c-0.077,0 -0.154,-0.033 -0.209,-0.088c-0.055,-0.055 -0.088,-0.132 -0.088,-0.209v-0.737c0,-0.077 0.033,-0.154 0.088,-0.209c0.055,-0.055 0.132,-0.088 0.209,-0.088zM195.608,196.479c0.077,0 0.154,0.033 0.209,0.088c0.055,0.055 0.088,0.132 0.088,0.209v0.737c0,0.077 -0.033,0.154 -0.088,0.209c-0.055,0.055 -0.132,0.088 -0.209,0.088h-0.737c-0.077,0 -0.154,-0.033 -0.209,-0.088c-0.055,-0.055 -0.088,-0.132 -0.088,-0.209v-0.737c0,-0.077 0.033,-0.154 0.088,-0.209c0.055,-0.055 0.132,-0.088 0.209,-0.088z"/></g><g><path d="M121.105,241.991c0.011,0.066 -0.011,0.121 -0.066,0.165c-0.055,0.055 -0.11,0.077 -0.176,0.077h-0.451c-0.088,0 -0.154,-0.011 -0.198,-0.044c-0.044,-0.044 -0.088,-0.099 -0.143,-0.198c-0.121,-0.231 -0.319,-0.451 -0.605,-0.671c-0.297,-0.22 -0.682,-0.33 -1.155,-0.33c-0.44,0 -0.814,0.099 -1.111,0.297c-0.308,0.198 -0.462,0.484 -0.462,0.847c0,0.253 0.077,0.451 0.231,0.605c0.143,0.165 0.374,0.297 0.682,0.407c0.297,0.121 0.759,0.253 1.375,0.418c0.836,0.22 1.43,0.484 1.782,0.803c0.341,0.33 0.517,0.759 0.517,1.309c0,0.44 -0.121,0.825 -0.363,1.166c-0.253,0.341 -0.594,0.605 -1.045,0.792c-0.451,0.187 -0.968,0.286 -1.551,0.286c-0.539,0 -1.034,-0.099 -1.485,-0.308c-0.451,-0.209 -0.803,-0.473 -1.056,-0.792c-0.253,-0.308 -0.396,-0.627 -0.407,-0.946c0,-0.066 0.022,-0.121 0.077,-0.176c0.044,-0.044 0.099,-0.066 0.165,-0.066h0.451c0.077,0 0.143,0.011 0.198,0.044c0.055,0.033 0.099,0.099 0.143,0.198c0.121,0.264 0.33,0.506 0.649,0.726c0.308,0.22 0.726,0.33 1.265,0.33c0.539,0 0.99,-0.121 1.364,-0.352c0.363,-0.231 0.55,-0.528 0.55,-0.902c0,-0.242 -0.099,-0.44 -0.286,-0.616c-0.198,-0.165 -0.462,-0.297 -0.803,-0.418c-0.341,-0.11 -0.836,-0.253 -1.485,-0.418c-0.715,-0.187 -1.221,-0.451 -1.54,-0.803c-0.319,-0.341 -0.473,-0.77 -0.473,-1.287c0,-0.385 0.099,-0.737 0.297,-1.056c0.198,-0.319 0.495,-0.583 0.891,-0.781c0.396,-0.198 0.869,-0.297 1.43,-0.297c0.561,0 1.045,0.11 1.463,0.319c0.418,0.22 0.737,0.484 0.968,0.803c0.231,0.319 0.352,0.605 0.363,0.869z"/></g><g><path d="M128.409,240.11c0.077,0 0.154,0.033 0.209,0.088c0.055,0.055 0.088,0.132 0.088,0.209v7.106c0,0.077 -0.033,0.154 -0.088,0.209c-0.055,0.055 -0.132,0.088 -0.209,0.088h-0.451c-0.077,0 -0.154,-0.033 -0.209,-0.088c-0.055,-0.055 -0.088,-0.132 -0.088,-0.209v-3.102h-3.872v3.102c0,0.077 -0.033,0.154 -0.088,0.209c-0.055,0.055 -0.132,0.088 -0.209,0.088h-0.451c-0.077,0 -0.154,-0.033 -0.209,-0.088c-0.055,-0.055 -0.088,-0.121 -0.088,-0.209v-7.106c0,-0.077 0.033,-0.154 0.088,-0.209c0.055,-0.055 0.132,-0.088 0.209,-0.088h0.451c0.077,0 0.154,0.033 0.209,0.088c0.055,0.055 0.088,0.132 0.088,0.209v3.014h3.872v-3.014c0,-0.077 0.033,-0.154 0.088,-0.209c0.055,-0.055 0.132,-0.088 0.209,-0.088z"/></g><g><path d="M131.478,246.072l-0.572,1.463c-0.066,0.187 -0.209,0.275 -0.429,0.275h-0.407c-0.066,0 -0.121,-0.022 -0.165,-0.077c-0.055,-0.044 -0.077,-0.099 -0.077,-0.165c0,-0.033 0.011,-0.088 0.044,-0.154l2.695,-6.941c0.099,-0.242 0.264,-0.363 0.495,-0.363h0.66c0.231,0 0.396,0.121 0.495,0.363l2.684,6.941c0.033,0.066 0.044,0.121 0.044,0.154c0,0.066 -0.022,0.121 -0.066,0.165c-0.055,0.055 -0.11,0.077 -0.176,0.077h-0.407c-0.22,0 -0.363,-0.088 -0.429,-0.275l-0.572,-1.463zM134.91,245.082l-1.518,-3.927l-1.529,3.927z"/></g><g><path d="M144.051,244.829c-0.011,0.605 -0.143,1.133 -0.407,1.584c-0.264,0.451 -0.627,0.803 -1.089,1.034c-0.462,0.242 -0.99,0.363 -1.595,0.363h-2.585c-0.077,0 -0.154,-0.033 -0.209,-0.088c-0.055,-0.055 -0.088,-0.132 -0.088,-0.209v-7.106c0,-0.077 0.033,-0.154 0.088,-0.209c0.055,-0.055 0.132,-0.088 0.209,-0.088h2.519c0.605,0 1.155,0.121 1.628,0.352c0.473,0.242 0.836,0.583 1.111,1.034c0.275,0.451 0.407,0.99 0.418,1.595c0.011,0.22 0.011,0.506 0.011,0.869c0,0.363 0,0.649 -0.011,0.869zM139.123,241.1v5.72h1.782c0.737,0 1.265,-0.187 1.595,-0.572c0.319,-0.385 0.495,-0.869 0.506,-1.474c0.011,-0.22 0.011,-0.495 0.011,-0.814c0,-0.319 0,-0.594 -0.011,-0.814c-0.011,-0.594 -0.198,-1.089 -0.539,-1.474c-0.341,-0.385 -0.88,-0.572 -1.617,-0.572z"/></g><g><path d="M148.396,240c0.627,0 1.166,0.132 1.617,0.396c0.451,0.264 0.803,0.616 1.045,1.067c0.231,0.451 0.363,0.957 0.374,1.518c0.011,0.44 0.022,0.77 0.022,0.979c0,0.209 -0.011,0.539 -0.022,0.979c-0.022,0.561 -0.154,1.056 -0.385,1.507c-0.242,0.451 -0.583,0.814 -1.034,1.078c-0.451,0.264 -0.99,0.396 -1.617,0.396c-0.627,0 -1.155,-0.132 -1.606,-0.396c-0.451,-0.264 -0.803,-0.627 -1.034,-1.078c-0.242,-0.451 -0.374,-0.946 -0.396,-1.507c-0.011,-0.22 -0.011,-0.55 -0.011,-0.979c0,-0.429 0,-0.759 0.011,-0.979c0.011,-0.561 0.143,-1.067 0.385,-1.518c0.231,-0.451 0.583,-0.803 1.034,-1.067c0.451,-0.264 0.99,-0.396 1.617,-0.396zM148.396,240.99c-0.583,0 -1.056,0.176 -1.419,0.517c-0.363,0.341 -0.55,0.858 -0.572,1.529c-0.011,0.22 -0.011,0.528 -0.011,0.924c0,0.396 0,0.704 0.011,0.924c0.022,0.671 0.209,1.188 0.572,1.529c0.363,0.341 0.836,0.517 1.419,0.517c0.583,0 1.056,-0.176 1.419,-0.517c0.363,-0.341 0.55,-0.858 0.572,-1.529c0.011,-0.44 0.022,-0.748 0.022,-0.924c0,-0.176 -0.011,-0.484 -0.022,-0.924c-0.022,-0.671 -0.209,-1.188 -0.572,-1.529c-0.363,-0.341 -0.836,-0.517 -1.419,-0.517z"/></g><g><path d="M158.219,246.49l1.122,-6.083c0.022,-0.099 0.066,-0.176 0.132,-0.231c0.055,-0.044 0.132,-0.066 0.209,-0.066h0.44c0.066,0 0.121,0.022 0.176,0.066c0.044,0.055 0.066,0.11 0.066,0.176l-0.011,0.088l-1.353,6.798c-0.044,0.198 -0.099,0.341 -0.176,0.429c-0.077,0.099 -0.198,0.143 -0.363,0.143h-0.44c-0.165,0 -0.286,-0.055 -0.363,-0.154c-0.077,-0.099 -0.143,-0.231 -0.198,-0.418l-1.012,-3.674l-1.012,3.674c-0.055,0.187 -0.121,0.319 -0.198,0.418c-0.077,0.099 -0.198,0.154 -0.363,0.154h-0.44c-0.165,0 -0.286,-0.044 -0.363,-0.143c-0.077,-0.088 -0.132,-0.231 -0.176,-0.429l-1.353,-6.798l-0.011,-0.088c0,-0.066 0.022,-0.121 0.077,-0.176c0.044,-0.044 0.099,-0.066 0.165,-0.066h0.44c0.077,0 0.154,0.022 0.22,0.066c0.055,0.055 0.099,0.132 0.121,0.231l1.122,6.083l1.21,-4.356c0.011,-0.077 0.055,-0.143 0.11,-0.22c0.055,-0.066 0.143,-0.099 0.264,-0.099h0.374c0.121,0 0.209,0.033 0.264,0.099c0.055,0.077 0.099,0.143 0.11,0.22z"/></g><g><path d="M167.503,240.11c0.759,0 1.397,0.198 1.903,0.594c0.495,0.396 0.748,0.979 0.748,1.738c0,0.517 -0.121,0.946 -0.352,1.309c-0.242,0.363 -0.561,0.627 -0.957,0.803c-0.407,0.176 -0.847,0.264 -1.342,0.264h-2.024v2.695c0,0.077 -0.033,0.154 -0.088,0.209c-0.055,0.055 -0.132,0.088 -0.209,0.088h-0.451c-0.077,0 -0.154,-0.033 -0.209,-0.088c-0.055,-0.055 -0.088,-0.132 -0.088,-0.209v-7.106c0,-0.077 0.033,-0.154 0.088,-0.209c0.055,-0.055 0.132,-0.088 0.209,-0.088zM167.448,243.828c0.539,0 0.946,-0.121 1.232,-0.352c0.286,-0.22 0.429,-0.572 0.429,-1.034c0,-0.891 -0.55,-1.342 -1.661,-1.342h-1.969v2.728z"/></g><g><path d="M171.771,247.81c-0.077,0 -0.154,-0.033 -0.209,-0.088c-0.055,-0.055 -0.088,-0.132 -0.088,-0.209v-7.106c0,-0.077 0.033,-0.154 0.088,-0.209c0.055,-0.055 0.132,-0.088 0.209,-0.088h0.451c0.077,0 0.154,0.033 0.209,0.088c0.055,0.055 0.088,0.132 0.088,0.209v7.106c0,0.077 -0.033,0.154 -0.088,0.209c-0.055,0.055 -0.132,0.088 -0.209,0.088z"/></g><g><path d="M175.456,246.82h3.696c0.077,0 0.154,0.033 0.209,0.088c0.055,0.055 0.088,0.132 0.088,0.209v0.396c0,0.077 -0.033,0.154 -0.088,0.209c-0.055,0.055 -0.132,0.088 -0.209,0.088h-4.444c-0.077,0 -0.154,-0.033 -0.209,-0.088c-0.055,-0.055 -0.088,-0.132 -0.088,-0.209v-7.106c0,-0.077 0.033,-0.154 0.088,-0.209c0.055,-0.055 0.132,-0.088 0.209,-0.088h4.356c0.077,0 0.154,0.033 0.209,0.088c0.055,0.055 0.088,0.132 0.088,0.209v0.396c0,0.077 -0.033,0.154 -0.088,0.209c-0.055,0.055 -0.132,0.088 -0.209,0.088h-3.608v2.321h3.366c0.077,0 0.154,0.033 0.209,0.088c0.055,0.055 0.088,0.132 0.088,0.209v0.396c0,0.077 -0.033,0.154 -0.088,0.209c-0.055,0.055 -0.132,0.088 -0.209,0.088h-3.366z"/></g><g><path d="M181.682,244.884c0.022,0.627 0.209,1.122 0.561,1.485c0.363,0.374 0.858,0.561 1.496,0.561c0.649,0 1.122,-0.143 1.43,-0.418c0.308,-0.275 0.517,-0.638 0.616,-1.078c0.011,-0.077 0.055,-0.132 0.11,-0.176c0.055,-0.044 0.11,-0.066 0.176,-0.066h0.506c0.066,0 0.121,0.022 0.176,0.066c0.044,0.055 0.066,0.11 0.066,0.176c-0.011,0.363 -0.132,0.726 -0.352,1.111c-0.22,0.385 -0.561,0.715 -1.012,0.979c-0.462,0.264 -1.034,0.396 -1.716,0.396c-0.616,0 -1.155,-0.132 -1.617,-0.385c-0.462,-0.253 -0.814,-0.616 -1.067,-1.067c-0.253,-0.451 -0.396,-0.957 -0.418,-1.529c-0.011,-0.22 -0.011,-0.55 -0.011,-0.979c0,-0.429 0,-0.759 0.011,-0.979c0.022,-0.572 0.165,-1.089 0.418,-1.54c0.253,-0.451 0.605,-0.803 1.067,-1.056c0.462,-0.253 1.001,-0.385 1.617,-0.385c0.682,0 1.254,0.132 1.716,0.396c0.451,0.264 0.792,0.583 1.012,0.968c0.22,0.385 0.341,0.759 0.352,1.122c0,0.066 -0.022,0.121 -0.066,0.165c-0.055,0.055 -0.11,0.077 -0.176,0.077h-0.506c-0.066,0 -0.121,-0.022 -0.176,-0.066c-0.055,-0.044 -0.099,-0.099 -0.11,-0.176c-0.099,-0.44 -0.308,-0.803 -0.616,-1.078c-0.308,-0.275 -0.781,-0.418 -1.43,-0.418c-0.638,0 -1.133,0.187 -1.496,0.55c-0.352,0.374 -0.539,0.869 -0.561,1.496c-0.011,0.22 -0.011,0.528 -0.011,0.924c0,0.396 0,0.704 0.011,0.924z"/></g><g><path d="M189.305,246.82h3.696c0.077,0 0.154,0.033 0.209,0.088c0.055,0.055 0.088,0.132 0.088,0.209v0.396c0,0.077 -0.033,0.154 -0.088,0.209c-0.055,0.055 -0.132,0.088 -0.209,0.088h-4.444c-0.077,0 -0.154,-0.033 -0.209,-0.088c-0.055,-0.055 -0.088,-0.132 -0.088,-0.209v-7.106c0,-0.077 0.033,-0.154 0.088,-0.209c0.055,-0.055 0.132,-0.088 0.209,-0.088h4.356c0.077,0 0.154,0.033 0.209,0.088c0.055,0.055 0.088,0.132 0.088,0.209v0.396c0,0.077 -0.033,0.154 -0.088,0.209c-0.055,0.055 -0.132,0.088 -0.209,0.088h-3.608v2.321h3.366c0.077,0 0.154,0.033 0.209,0.088c0.055,0.055 0.088,0.132 0.088,0.209v0.396c0,0.077 -0.033,0.154 -0.088,0.209c-0.055,0.055 -0.132,0.088 -0.209,0.088h-3.366z"/></g><g><path d="M200.206,240c0.627,0 1.166,0.132 1.617,0.396c0.451,0.264 0.803,0.616 1.045,1.067c0.231,0.451 0.363,0.957 0.374,1.518c0.011,0.44 0.022,0.77 0.022,0.979c0,0.209 -0.011,0.539 -0.022,0.979c-0.022,0.561 -0.154,1.056 -0.385,1.507c-0.242,0.451 -0.583,0.814 -1.034,1.078c-0.451,0.264 -0.99,0.396 -1.617,0.396c-0.627,0 -1.155,-0.132 -1.606,-0.396c-0.451,-0.264 -0.803,-0.627 -1.034,-1.078c-0.242,-0.451 -0.374,-0.946 -0.396,-1.507c-0.011,-0.22 -0.011,-0.55 -0.011,-0.979c0,-0.429 0,-0.759 0.011,-0.979c0.011,-0.561 0.143,-1.067 0.385,-1.518c0.231,-0.451 0.583,-0.803 1.034,-1.067c0.451,-0.264 0.99,-0.396 1.617,-0.396zM200.206,240.99c-0.583,0 -1.056,0.176 -1.419,0.517c-0.363,0.341 -0.55,0.858 -0.572,1.529c-0.011,0.22 -0.011,0.528 -0.011,0.924c0,0.396 0,0.704 0.011,0.924c0.022,0.671 0.209,1.188 0.572,1.529c0.363,0.341 0.836,0.517 1.419,0.517c0.583,0 1.056,-0.176 1.419,-0.517c0.363,-0.341 0.55,-0.858 0.572,-1.529c0.011,-0.44 0.022,-0.748 0.022,-0.924c0,-0.176 -0.011,-0.484 -0.022,-0.924c-0.022,-0.671 -0.209,-1.188 -0.572,-1.529c-0.363,-0.341 -0.836,-0.517 -1.419,-0.517z"/></g><g><path d="M207.917,240.11c0.759,0 1.397,0.198 1.903,0.594c0.495,0.396 0.748,0.979 0.748,1.738c0,0.517 -0.121,0.946 -0.352,1.309c-0.242,0.363 -0.561,0.627 -0.957,0.803c-0.407,0.176 -0.847,0.264 -1.342,0.264h-2.024v2.695c0,0.077 -0.033,0.154 -0.088,0.209c-0.055,0.055 -0.132,0.088 -0.209,0.088h-0.451c-0.077,0 -0.154,-0.033 -0.209,-0.088c-0.055,-0.055 -0.088,-0.132 -0.088,-0.209v-7.106c0,-0.077 0.033,-0.154 0.088,-0.209c0.055,-0.055 0.132,-0.088 0.209,-0.088zM207.862,243.828c0.539,0 0.946,-0.121 1.232,-0.352c0.286,-0.22 0.429,-0.572 0.429,-1.034c0,-0.891 -0.55,-1.342 -1.661,-1.342h-1.969v2.728z"/></g><g><path d="M212.768,246.072l-0.572,1.463c-0.066,0.187 -0.209,0.275 -0.429,0.275h-0.407c-0.066,0 -0.121,-0.022 -0.165,-0.077c-0.055,-0.044 -0.077,-0.099 -0.077,-0.165c0,-0.033 0.011,-0.088 0.044,-0.154l2.695,-6.941c0.099,-0.242 0.264,-0.363 0.495,-0.363h0.66c0.231,0 0.396,0.121 0.495,0.363l2.684,6.941c0.033,0.066 0.044,0.121 0.044,0.154c0,0.066 -0.022,0.121 -0.066,0.165c-0.055,0.055 -0.11,0.077 -0.176,0.077h-0.407c-0.22,0 -0.363,-0.088 -0.429,-0.275l-0.572,-1.463zM216.2,245.082l-1.518,-3.927l-1.529,3.927z"/></g><g><path d="M220.127,244.884c0.022,0.627 0.209,1.122 0.561,1.485c0.363,0.374 0.858,0.561 1.496,0.561c0.649,0 1.122,-0.143 1.43,-0.418c0.308,-0.275 0.517,-0.638 0.616,-1.078c0.011,-0.077 0.055,-0.132 0.11,-0.176c0.055,-0.044 0.11,-0.066 0.176,-0.066h0.506c0.066,0 0.121,0.022 0.176,0.066c0.044,0.055 0.066,0.11 0.066,0.176c-0.011,0.363 -0.132,0.726 -0.352,1.111c-0.22,0.385 -0.561,0.715 -1.012,0.979c-0.462,0.264 -1.034,0.396 -1.716,0.396c-0.616,0 -1.155,-0.132 -1.617,-0.385c-0.462,-0.253 -0.814,-0.616 -1.067,-1.067c-0.253,-0.451 -0.396,-0.957 -0.418,-1.529c-0.011,-0.22 -0.011,-0.55 -0.011,-0.979c0,-0.429 0,-0.759 0.011,-0.979c0.022,-0.572 0.165,-1.089 0.418,-1.54c0.253,-0.451 0.605,-0.803 1.067,-1.056c0.462,-0.253 1.001,-0.385 1.617,-0.385c0.682,0 1.254,0.132 1.716,0.396c0.451,0.264 0.792,0.583 1.012,0.968c0.22,0.385 0.341,0.759 0.352,1.122c0,0.066 -0.022,0.121 -0.066,0.165c-0.055,0.055 -0.11,0.077 -0.176,0.077h-0.506c-0.066,0 -0.121,-0.022 -0.176,-0.066c-0.055,-0.044 -0.099,-0.099 -0.11,-0.176c-0.099,-0.44 -0.308,-0.803 -0.616,-1.078c-0.308,-0.275 -0.781,-0.418 -1.43,-0.418c-0.638,0 -1.133,0.187 -1.496,0.55c-0.352,0.374 -0.539,0.869 -0.561,1.496c-0.011,0.22 -0.011,0.528 -0.011,0.924c0,0.396 0,0.704 0.011,0.924z"/></g><g><path d="M227.002,247.81c-0.077,0 -0.154,-0.033 -0.209,-0.088c-0.055,-0.055 -0.088,-0.132 -0.088,-0.209v-7.106c0,-0.077 0.033,-0.154 0.088,-0.209c0.055,-0.055 0.132,-0.088 0.209,-0.088h0.451c0.077,0 0.154,0.033 0.209,0.088c0.055,0.055 0.088,0.132 0.088,0.209v7.106c0,0.077 -0.033,0.154 -0.088,0.209c-0.055,0.055 -0.132,0.088 -0.209,0.088z"/></g><g><path d="M234.405,240.11c0.077,0 0.154,0.033 0.209,0.088c0.055,0.055 0.088,0.132 0.088,0.209v0.396c0,0.077 -0.033,0.154 -0.088,0.209c-0.055,0.055 -0.132,0.088 -0.209,0.088h-2.057v6.413c0,0.077 -0.033,0.154 -0.088,0.209c-0.055,0.055 -0.132,0.088 -0.209,0.088h-0.451c-0.077,0 -0.154,-0.033 -0.209,-0.088c-0.055,-0.055 -0.088,-0.132 -0.088,-0.209v-6.413h-2.057c-0.077,0 -0.154,-0.033 -0.209,-0.088c-0.055,-0.055 -0.088,-0.132 -0.088,-0.209v-0.396c0,-0.077 0.033,-0.154 0.088,-0.209c0.055,-0.055 0.132,-0.088 0.209,-0.088z"/></g><g><path d="M239.014,247.513c0,0.077 -0.033,0.154 -0.088,0.209c-0.055,0.055 -0.132,0.088 -0.209,0.088h-0.451c-0.077,0 -0.154,-0.033 -0.209,-0.088c-0.055,-0.055 -0.088,-0.132 -0.088,-0.209v-2.574l-2.629,-4.433c-0.033,-0.066 -0.055,-0.121 -0.055,-0.154c0,-0.066 0.022,-0.121 0.077,-0.176c0.044,-0.044 0.099,-0.066 0.165,-0.066h0.473c0.132,0 0.231,0.022 0.297,0.066c0.055,0.055 0.11,0.121 0.165,0.209l2.024,3.498l2.035,-3.498c0.055,-0.088 0.11,-0.154 0.176,-0.209c0.055,-0.044 0.154,-0.066 0.286,-0.066h0.473c0.066,0 0.121,0.022 0.176,0.066c0.044,0.055 0.066,0.11 0.066,0.176c0,0.033 -0.022,0.088 -0.055,0.154l-2.629,4.433z"/></g><g><path d="M243.81,242.629c0.077,0 0.154,0.033 0.209,0.088c0.055,0.055 0.088,0.132 0.088,0.209v0.737c0,0.077 -0.033,0.154 -0.088,0.209c-0.055,0.055 -0.132,0.088 -0.209,0.088h-0.737c-0.077,0 -0.154,-0.033 -0.209,-0.088c-0.055,-0.055 -0.088,-0.132 -0.088,-0.209v-0.737c0,-0.077 0.033,-0.154 0.088,-0.209c0.055,-0.055 0.132,-0.088 0.209,-0.088zM243.81,246.479c0.077,0 0.154,0.033 0.209,0.088c0.055,0.055 0.088,0.132 0.088,0.209v0.737c0,0.077 -0.033,0.154 -0.088,0.209c-0.055,0.055 -0.132,0.088 -0.209,0.088h-0.737c-0.077,0 -0.154,-0.033 -0.209,-0.088c-0.055,-0.055 -0.088,-0.132 -0.088,-0.209v-0.737c0,-0.077 0.033,-0.154 0.088,-0.209c0.055,-0.055 0.132,-0.088 0.209,-0.088z"/></g></g></g></svg>